<svg xmlns="http://www.w3.org/2000/svg" viewBox="0 0 198.24 91.25"><defs><style>.cls-1{isolation:isolate;}.cls-2{fill:#ffd37a;}.cls-3{fill:#ffebde;}.cls-4{fill:#ff5d4f;}.cls-5{fill:#fff9f2;opacity:0.15;}.cls-5,.cls-8{mix-blend-mode:overlay;}.cls-6{fill:#52284a;opacity:0.1;}.cls-6,.cls-7{mix-blend-mode:multiply;}.cls-7{fill:#492659;opacity:0.25;}.cls-8{fill:#fff7f7;opacity:0.5;}.cls-9{fill:#610f1d;}</style></defs><title>carta</title><g class="cls-1"><g id="OBJECTS"><path class="cls-2" d="M184.58,221.05q0-3.88,0-7.75h0c0-.25,0-0.51,0-0.76V212a0.23,0.23,0,0,0-.38-0.17c-0.33.29-.67,0.57-1,0.84l-0.21.17q-1.68,1.36-3.37,2.71l-6.79,5.37c-7.63,6-15.27,11.91-24.4,18.9l-1.46,1.11-1.17.89a0.23,0.23,0,0,0,0,.36c3.08,2.56,6.08,5.12,8.87,7.5,5.42,4.64,10.82,9.35,16.07,14,2.64,2.34,5.31,4.73,7.95,7.1,1.15,1,2.51,2.27,3.85,3.51l0.52,0.48,0.87,0.8a0.23,0.23,0,0,0,.16.06l0.09,0a0.23,0.23,0,0,0,.14-0.21l0-2.89q0-2.49.06-5c0.13-12.43.19-22,.2-31q0-4.79,0-9.57Q184.58,224,184.58,221.05Zm-3.2,26.82a0.59,0.59,0,0,1,0,.11,1,1,0,0,0-.06.19v0h0a0.23,0.23,0,0,0,0,.06v0a1.49,1.49,0,0,1-.14.45,0.15,0.15,0,0,1-.12.08,0.25,0.25,0,0,1-.2-0.11,1.45,1.45,0,0,1-.16-0.4l0-.06-0.07-.21c0-.07-0.05-0.14-0.08-0.22a4,4,0,0,1-.14-1.06v-0.57a1.71,1.71,0,0,1,0-.17l0-.19a0.21,0.21,0,0,0,0-.07c0-.15,0-0.3,0-0.44a2,2,0,0,1,.06-0.3c0-.1.05-0.19,0.07-0.29a0.26,0.26,0,0,1,.5,0,2.31,2.31,0,0,0,.09.25,1.55,1.55,0,0,1,.09.24c0,0.08,0,.16,0,0.23s0,0.14,0,.22a8.71,8.71,0,0,1,.13,1v0.15A3.94,3.94,0,0,1,181.38,247.87ZM175.26,262h0.09a2.89,2.89,0,0,1,1.55.9l0,0a20.79,20.79,0,0,1,1.64,1.64c0.34,0.38.67,0.77,1,1.16l0.09,0.1a0.23,0.23,0,0,0,.41-0.17l-0.1-1c-0.11-1.14-.17-2.31-0.2-3.57a29.11,29.11,0,0,1,.18-3.7c0-.31.07-0.63,0.1-0.94,0.09-.88.18-1.79,0.33-2.66a0.15,0.15,0,0,1,.19-0.13,0.24,0.24,0,0,1,.24.21v0.54c0,1.08,0,2.2.09,3.3,0.05,0.94.15,1.87,0.24,2.78q0,0.48.09,1c0.06,0.67.16,1.34,0.25,2a16.72,16.72,0,0,1,.17,5.37,0.83,0.83,0,0,1-.7.58,0.86,0.86,0,0,1-.85-0.42c-1-1.31-1.9-2.44-2.78-3.46q-0.73-.85-1.44-1.72l0-.06a2.57,2.57,0,0,1-.79-1.57A0.22,0.22,0,0,1,175.26,262Zm5.92-20.88a0.2,0.2,0,0,1-.23.15,0.23,0.23,0,0,1-.22-0.22c0-.93,0-1.89,0-2.81s0-1.91,0-2.87l-0.15-5.59q-0.13-4.8-.23-9.6a0.23,0.23,0,0,0-.13-0.2l-0.1,0a0.23,0.23,0,0,0-.14,0l-2.6,1.94c-0.47.36-1,.72-1.47,1a7.13,7.13,0,0,1-1.88.82l0,0a7.14,7.14,0,0,1,1.37-1.65c0.45-.39.93-0.76,1.4-1.12l3.86-3a0.43,0.43,0,0,1,.47,0,0.74,0.74,0,0,1,.42.59l0.08,2.1c0.11,3,.23,6.16.32,9.24,0.06,2,0,3.87,0,5.68A27.92,27.92,0,0,1,181.18,241.12ZM160.88,239l-0.14,0a0.07,0.07,0,0,1-.06,0V239a1.24,1.24,0,0,0,.22-0.33,1.22,1.22,0,0,1,.09-0.17,3.32,3.32,0,0,1,.38-0.42c0.15-.14.31-0.28,0.47-0.41l0.39-.33c0.38-.34.79-0.67,1.19-1l0.65-.52c0.65-.54,1.32-1.06,2-1.57a10,10,0,0,1,.93-0.63l0.05,0a5.84,5.84,0,0,1,.95-0.5H168a0.11,0.11,0,0,1,.08,0,0.25,0.25,0,0,1,0,.26,5,5,0,0,1-.74,1,11.28,11.28,0,0,1-.79.85,23.26,23.26,0,0,1-1.88,1.56,19.14,19.14,0,0,1-2,1.38l-0.37.23a4.5,4.5,0,0,1-.7.39A2,2,0,0,1,160.88,239Zm6.14,0.58,0.07,0,0.07,0,0.19-.08h0l0.24-.1,0.18-.05a0.49,0.49,0,0,1,.17,0H168a0.62,0.62,0,0,1,.37,0,0.27,0.27,0,0,1,.12.29,0.63,0.63,0,0,1-.2.27l-0.05.07v0a0.76,0.76,0,0,1-.24.22l-0.12.09-0.09.08,0.06,0.06-0.07-.06-0.09.09,0,0v0l-0.06-.06-0.1.07-0.16.1-0.06,0-0.09.06-0.08,0h0l-0.14.06-0.12,0-0.07,0-0.06,0a0.46,0.46,0,0,1-.19,0h0l-0.08,0a0.23,0.23,0,0,1-.12-0.1l0,0,0,0a0.44,0.44,0,0,1,0-.37l0-.07a0.71,0.71,0,0,1,.11-0.22,1.24,1.24,0,0,1,.21-0.25Zm2.79,2.05a0.21,0.21,0,0,1,0,.06l-0.12.15a0.44,0.44,0,0,0,0,.09,0.55,0.55,0,0,1-.18.17l-0.12.08a1.17,1.17,0,0,1-.23.09l-0.2,0a0.34,0.34,0,0,1-.18,0,0.29,0.29,0,0,1-.1-0.1,0.2,0.2,0,0,1,0-.1,0.34,0.34,0,0,1,0-.17l0-.06,0.05-.09,0-.05-0.16-.16h0l0.22,0.11a1.11,1.11,0,0,1,.18-0.16l0.09,0,0,0a0.48,0.48,0,0,1,.25-0.07h0.07l0.09,0a0.31,0.31,0,0,1,.21,0,0.38,0.38,0,0,1,.11.11A0.29,0.29,0,0,1,169.8,241.68Zm0.07-14a22,22,0,0,1-3.59,3.42l-0.49.4L161.52,235l-2.8,2.36-1.44,1.22L156,239.7c-0.73.61-1.49,1.24-2.23,1.88a0.23,0.23,0,0,0,0,.35c0.47,0.4.94,0.83,1.4,1.25l0.68,0.61,0.93,0.84,2,1.79,0.29,0.26a27.41,27.41,0,0,1,2.58,2.54l0.8,0.91a23.69,23.69,0,0,1,1.64,2,0.13,0.13,0,0,1,0,.18,0.21,0.21,0,0,1-.25.06,26.49,26.49,0,0,1-2.45-1.68l-0.78-.57a28.75,28.75,0,0,1-2.55-2.17l-0.33-.3-1.92-1.77-1-.89-0.78-.7a26.64,26.64,0,0,1-2.05-2,0.73,0.73,0,0,1-.21-0.56,0.88,0.88,0,0,1,.37-0.6c0.9-.69,1.79-1.44,2.64-2.16,0.57-.48,1.15-1,1.73-1.44q2.16-1.75,4.35-3.47l4.37-3.44,0.37-.29a21.22,21.22,0,0,1,4.23-2.8h0.06a0.06,0.06,0,0,1,.05,0A0.09,0.09,0,0,1,169.88,227.67ZM164.22,239a0.23,0.23,0,0,0,0-.15h0l0.1-.12,0.12-.11h0l0.05,0h0l0.06-.08,0.08-.06,0.06,0,0.56-.45c0.18-.15.37-0.28,0.56-0.41l0.17-.12,0.3-.21a1.12,1.12,0,0,1,.29-0.15l0.3-.17a0.89,0.89,0,0,1,.2-0.1h0.06l0.09,0a2,2,0,0,1,.69-0.28,0.17,0.17,0,0,1,.15.07,0.32,0.32,0,0,1,.08.27,1.73,1.73,0,0,1-.39.59l0,0.07,0,0.09a0.84,0.84,0,0,1-.13.15l-0.29.3a1.46,1.46,0,0,1-.31.29l-0.31.24-0.06,0a5.13,5.13,0,0,1-.54.37l-0.66.35,0,0-0.21.09a0.57,0.57,0,0,0-.36.11l-0.12,0H164.6l-0.09,0h0a0.27,0.27,0,0,1-.24-0.15A0.31,0.31,0,0,1,164.22,239ZM166,254.09a0.15,0.15,0,0,1,.14,0h0.2l0.09,0,0.11,0.05,0.07,0a1,1,0,0,1,.3.09,0.7,0.7,0,0,1,.27.13l0.25,0.19,0.34,0.24c0.12,0.08.24,0.16,0.35,0.24,0.38,0.3.72,0.63,1,.87a5,5,0,0,1,.38.43l0.07,0.09,0.29,0.36a0.7,0.7,0,0,1,.1.17s0,0.19.06,0.26v0h0a0.29,0.29,0,0,0,.18.19,0.92,0.92,0,0,1,.11.3h0v0.08h0a0.28,0.28,0,0,0,.12.19,0.7,0.7,0,0,1,.06.27,0.13,0.13,0,0,1,0,.11,0.28,0.28,0,0,1-.22.05,0.77,0.77,0,0,1-.28-0.13,1,1,0,0,0-.22-0.11l-0.07,0a1.58,1.58,0,0,1-.29-0.18l-0.11-.08-0.09,0L169,257.8a3.53,3.53,0,0,1-.45-0.37l-0.18-.16c-0.17-.15-0.34-0.31-0.5-0.48l-0.06-.06-0.45-.47-0.09-.1-0.14-.16-0.18-.23-0.13-.18,0,0-0.21-.23-0.16-.17a1.26,1.26,0,0,1-.17-0.29h0l0,0h0a0.73,0.73,0,0,1-.07-0.21,0.35,0.35,0,0,0,0-.1,0.48,0.48,0,0,1-.1-0.22,0.23,0.23,0,0,0,0-.09l0-.06A0,0,0,0,1,166,254.09Z" transform="translate(-23.92 -190.36)"/><path class="cls-3" d="M204.66,217.25l0.25-.08a11.87,11.87,0,0,1,2.4-.47,10.09,10.09,0,0,1,4.6.6,13.87,13.87,0,0,1,2.81,1.43,0.23,0.23,0,0,0,.31-0.05l0.12-.13,0.1-.1,0.53-.59a13.07,13.07,0,0,0,1.06-1.33,15.87,15.87,0,0,0,2.82-9.33,14.91,14.91,0,0,0-5.49-11,15.4,15.4,0,0,0-12.53-3.13,25.85,25.85,0,0,0-12.78,6.46,32.14,32.14,0,0,0-5.16,5.89c-0.42.63-.87,1.32-1.37,2.13a0.23,0.23,0,0,0,.19.35c1.09,0,2,.09,2.92.17a0.9,0.9,0,0,1,.77.86,0.2,0.2,0,0,0,.07.12c0,0.26,0,.53,0,0.79v0.26q0.05,2.16.08,4.32,0.06,4.33.11,8.65c0.1,9.72.09,19.37,0,30.87v2.7q0,1.31,0,2.62l0,1.86a0.23,0.23,0,0,0,.21.23l1.1,0.12a38.87,38.87,0,0,0,4.47.34h0.48a19.15,19.15,0,0,0,8.41-2.07,13.44,13.44,0,0,0,5.78-5.64,10.76,10.76,0,0,0,.93-7.62,6.84,6.84,0,0,0-2.25-3.56,4.77,4.77,0,0,0-1.69-.87l-0.17,0a2.16,2.16,0,0,1-1.24-.61,0.41,0.41,0,0,1,0-.36,1.07,1.07,0,0,1,.68-0.66,4.61,4.61,0,0,1,3.18.64,7.7,7.7,0,0,1,2.56,2.49,0.23,0.23,0,0,0,.28.09l0.28-.12a18.8,18.8,0,0,0,1.87-1,13.15,13.15,0,0,0,2.92-2.42,16.58,16.58,0,0,0,3.91-7.27,11.49,11.49,0,0,0-6.35-13,19.38,19.38,0,0,0-6.4-1.3,9.69,9.69,0,0,0-1.27.09c-0.35,0-.71.08-1.06,0.08a0.29,0.29,0,0,1-.3-0.19A0.43,0.43,0,0,1,203,218,5.91,5.91,0,0,1,204.66,217.25Zm8-17.29a9.17,9.17,0,0,1,1,2.55,0.19,0.19,0,0,1-.12.22,0.16,0.16,0,0,1-.22-0.07,8.81,8.81,0,0,0-2-2.27,11.8,11.8,0,0,0-2.39-1.7,12.39,12.39,0,0,0-11.11,0,24.71,24.71,0,0,0-5.22,3.3c-0.47.38-.93,0.77-1.37,1.16a17.25,17.25,0,0,1-3.47,2.54,0.14,0.14,0,0,1-.17,0,0.16,0.16,0,0,1,0-.19c1.06-2.3,3.17-4.06,5.06-5.53,2.13-1.65,6.23-4.23,11.05-4.23a13.24,13.24,0,0,1,1.57.09,11.07,11.07,0,0,1,5.37,2.07A8,8,0,0,1,212.64,200Zm1.59,7.4c0-.22,0-0.43-0.05-0.65s-0.05-.54-0.06-0.81v-0.15a3.27,3.27,0,0,0,0-.52,1.14,1.14,0,0,1,0-.31,1.22,1.22,0,0,0,0-.26,0.07,0.07,0,0,1,.05-0.06h0.09a1,1,0,0,0,.18.14,1,1,0,0,1,.16.12,1.12,1.12,0,0,1,.14.23l0.09,0.16,0.06,0.1a3.11,3.11,0,0,1,.4.8,6.91,6.91,0,0,1,.26,2,5.33,5.33,0,0,1-.42,2.13l-0.11.22a4.91,4.91,0,0,1-.89,1.39,0.26,0.26,0,0,1-.27,0,0.12,0.12,0,0,1-.08-0.13,3.27,3.27,0,0,1,.09-0.44A4.24,4.24,0,0,0,214,211l0.08-.54,0.05-.38a5.25,5.25,0,0,1,0-.63c0-.2,0-0.41,0-0.61s0-.27,0-0.41C214.23,208,214.24,207.7,214.23,207.35Zm-14-1.55-0.11.1-0.06.07a1.32,1.32,0,0,1-.38.34l-0.09.07-0.05.05a0.46,0.46,0,0,1-.16.14l-0.15.08-0.14.09-0.13.08-0.29.14a0.47,0.47,0,0,1-.29.05h-0.24l0,0a0.12,0.12,0,0,1,0-.08,0.38,0.38,0,0,1,0-.12,0.23,0.23,0,0,0,0-.09,0.49,0.49,0,0,1,.06-0.3,2.89,2.89,0,0,1,.25-0.33,1.17,1.17,0,0,1,.16-0.15l0.06,0,0.13-.11a0.77,0.77,0,0,1,.25-0.15l0.09,0h0.06l0.3-.11a1,1,0,0,1,.28,0h0.21a0.83,0.83,0,0,1,.25,0,0.18,0.18,0,0,1,.12.13A0.2,0.2,0,0,1,200.23,205.8Zm-4.12-.42v0a0.52,0.52,0,0,1,.06-0.29l0-.1,0-.05a0.83,0.83,0,0,1,.14-0.23l0.12-.15,0.08-.09,0-.06a2.56,2.56,0,0,1,.74-0.66,3.38,3.38,0,0,1,.77-0.38,1.66,1.66,0,0,1,.82-0.13H199a1.17,1.17,0,0,1,.33,0,0.52,0.52,0,0,1,.31.32,0.29,0.29,0,0,1,0,.27,1.79,1.79,0,0,1-.22.24l-0.1.09a2.3,2.3,0,0,1-.59.45l-0.16.1c-0.24.15-.51,0.3-0.74,0.42l-0.2.11-0.2.09-0.08,0,0,0-0.08,0,0,0-0.18.1-0.1,0-0.05,0-0.06,0-0.1,0a0.72,0.72,0,0,1-.22,0h-0.23a0.27,0.27,0,0,1-.08-0.2,0.26,0.26,0,0,0,0-.08h0ZM201,245.56h0Zm-0.39-45a2.68,2.68,0,0,1-.31.17l-0.18.09h0a3,3,0,0,0-.29.19l-0.21.14c-0.37.21-.68,0.39-1,0.54-0.67.34-1.31,0.74-1.95,1.13a21.91,21.91,0,0,0-1.81,1.3l-0.06,0-0.34.27c-0.18.14-.35,0.29-0.54,0.42l-0.18.13-0.24.17-0.15.06-0.15,0-0.08,0,0,0a0.17,0.17,0,0,1-.19,0,0.11,0.11,0,0,1,0-.13,2.52,2.52,0,0,0,.07-0.25,1.2,1.2,0,0,1,.11-0.33,4.64,4.64,0,0,1,.31-0.5,8.39,8.39,0,0,1,.78-0.92,12.25,12.25,0,0,1,1.89-1.5,10.9,10.9,0,0,1,2.21-1.08,5.19,5.19,0,0,1,1.12-.27l0.33,0h0.41l0.32,0h0.1a0.17,0.17,0,0,1,.16.13A0.16,0.16,0,0,1,200.66,200.58Zm-11.8,57.6a3.09,3.09,0,0,1,.6-0.05c0.24,0,.49,0,0.73,0a8.35,8.35,0,0,0,.93,0,14.17,14.17,0,0,0,2.52-.32,15.48,15.48,0,0,0,4.64-1.73,8.65,8.65,0,0,0,3-3.07,14.17,14.17,0,0,0,.73-1.52l0.19-.44c0.08-.18.15-0.37,0.22-0.55l0.15-.38c0-.12.09-0.25,0.13-0.38a1.94,1.94,0,0,1,.26-0.6,0.41,0.41,0,0,1,.33-0.17,0.27,0.27,0,0,1,.22.15,1.82,1.82,0,0,1,.17.89c0,0.08,0,.16,0,0.25a5.86,5.86,0,0,1-.09,1.27,6.94,6.94,0,0,1-.92,2.32,10.37,10.37,0,0,1-3.49,3.61,15.48,15.48,0,0,1-5.47,1.95,7.5,7.5,0,0,1-2.77,0,3.16,3.16,0,0,1-2.08-1.19A0.11,0.11,0,0,1,188.86,258.18Zm13.86-11.66a0.32,0.32,0,0,0,0,.08,1.15,1.15,0,0,1-.25.88,0.32,0.32,0,0,1-.42-0.11l0-.07h0l0,0h0l0-.05a2.67,2.67,0,0,1-.1-0.26l0,0a0.21,0.21,0,0,0-.06-0.17h0a0.32,0.32,0,0,0-.13-0.19l-0.08-.19a0.37,0.37,0,0,0,0-.13h0l-0.05-.12a1.58,1.58,0,0,1-.06-0.16l-0.06-.19-0.06-.17h0l0-.07,0,0-0.1-.19A2.08,2.08,0,0,1,201,245l0-.05,0,0-0.12-.2,0,0a1,1,0,0,1-.09-0.16h0v0l-0.05-.11,0-.07a0.15,0.15,0,0,0,0-.06l0-.06a0.58,0.58,0,0,1-.05-0.23v-0.16a0.08,0.08,0,0,1,0-.06l0,0a1,1,0,0,1,.5.07l0.09,0.05,0.05,0,0.07,0a1.14,1.14,0,0,1,.25.17,3.9,3.9,0,0,1,.69.78,4.24,4.24,0,0,1,.44.86,2.29,2.29,0,0,1,.09.39v0.06A0.8,0.8,0,0,1,202.72,246.52Zm6.49-20.15,0.1,0,0.16,0.11,0.13,0.1a3.25,3.25,0,0,1,.35.28,4.28,4.28,0,0,1,1.05,4.43,3,3,0,0,1-.22.44l-0.08.15a1.85,1.85,0,0,1-.33.49l-0.21.2a2.06,2.06,0,0,1-.65.5,0.14,0.14,0,0,1-.16,0,0.31,0.31,0,0,1-.1-0.28,1.77,1.77,0,0,1,.17-0.41c0.05-.1.1-0.19,0.14-0.3a0.24,0.24,0,0,0,0-.06,2.68,2.68,0,0,1,.07-0.35c0-.09,0-0.17.06-0.26a7.46,7.46,0,0,0,.11-0.87,4.36,4.36,0,0,0-.12-1.67,5.77,5.77,0,0,0-.68-1.46,3.54,3.54,0,0,0-.21-0.32,1.45,1.45,0,0,1-.11-0.19l-0.07-.13a3.31,3.31,0,0,0-.32-0.38c-0.08-.08-0.16-0.17-0.23-0.26a0.06,0.06,0,0,1,0-.09,2.23,2.23,0,0,1,.75.2l0.08,0A0.6,0.6,0,0,0,209.21,226.36Zm-2.31,5.2,0-.07a0.21,0.21,0,0,0,0-.06,1.72,1.72,0,0,1,.06-0.33l0-.08v-0.08s0-.08,0-0.1a1.18,1.18,0,0,1,0-.23l0-.18V230.3c0-.1,0-0.2,0-0.3a3.05,3.05,0,0,0,0-.44h0a0.2,0.2,0,0,0,0,0h0v-0.07h0a0.58,0.58,0,0,1,0-.14,0.22,0.22,0,0,0,0-.07l0-.15a0.84,0.84,0,0,1,0-.13,0.23,0.23,0,0,0,0-.08v-0.08l0-.07a0.36,0.36,0,0,1,0-.16,0.17,0.17,0,0,1,.12-0.16,0.66,0.66,0,0,1,.19,0l0.15,0.1,0.11,0.07,0,0h0a0.75,0.75,0,0,1,.16.17l0.12,0.16a0.69,0.69,0,0,0,.1.12l0,0a2.75,2.75,0,0,1,.26.83,1.88,1.88,0,0,1,0,.53v0.07a1.64,1.64,0,0,1-.15.61,1.54,1.54,0,0,1-.58.71l0,0-0.1.08A0.37,0.37,0,0,1,206.9,231.56Zm0.69,6.47a3.3,3.3,0,0,1,.53-0.3,3.92,3.92,0,0,0,.58-0.32l0.19-.13a8.67,8.67,0,0,0,.84-0.64,10.67,10.67,0,0,0,1.64-1.76,9,9,0,0,0,.6-9.5,6.27,6.27,0,0,0-3-2.46,7.21,7.21,0,0,0-1.93-.46c-0.25,0-.51,0-0.76,0a4.77,4.77,0,0,1-1.16-.1,0.07,0.07,0,0,1-.06-0.05,0.13,0.13,0,0,1,0-.12,3.28,3.28,0,0,1,2.33-.73,6.55,6.55,0,0,1,2.52.49,6.84,6.84,0,0,1,3.63,3.19,10.37,10.37,0,0,1,.93,6,9.26,9.26,0,0,1-2.34,5.26,7.41,7.41,0,0,1-2.08,1.54,4.61,4.61,0,0,1-2.37.62,0.29,0.29,0,0,1-.26-0.2A0.27,0.27,0,0,1,207.59,238Zm-2.4-6.4-0.08.06,0,0,0,0.06-0.07.1a0.81,0.81,0,0,1-.2.17,0.14,0.14,0,0,1-.14,0,0.14,0.14,0,0,1,0-.16v0h0v0l0.05-.22a0.23,0.23,0,0,0,0-.1,0.37,0.37,0,0,1,0-.1c0-.06,0-0.12,0-0.19a2.65,2.65,0,0,0,0-.4v-0.07l0-.24s0-.08,0-0.13a2.47,2.47,0,0,0,0-.26,0.43,0.43,0,0,1,0-.21,0.36,0.36,0,0,0,0-.12,0.13,0.13,0,0,1,.07-0.1,0,0,0,0,1,.05,0l0.08,0.06,0.06,0a0.4,0.4,0,0,1,.21.19,2.4,2.4,0,0,1,.14.29,1.09,1.09,0,0,1,.08.25v0.07a0.77,0.77,0,0,1,0,.16,0.73,0.73,0,0,1,0,.19,2.54,2.54,0,0,1-.07.36,1.44,1.44,0,0,1-.1.27l-0.06.09h0Z" transform="translate(-23.92 -190.36)"/><path class="cls-2" d="M181.49,276.07l-0.92-.83-2.9-2.59-1.5-1.34c-10.54-9.43-21.21-18.6-32.12-28a0.23,0.23,0,0,0-.29,0l-4.27,3.24-0.37.28a0.23,0.23,0,0,0-.09.19,12.34,12.34,0,0,1-.08,1.64,15.24,15.24,0,0,1-5.15,9.21,23.11,23.11,0,0,1-5.27,3.51c-0.88.44-1.81,0.85-2.85,1.26l-0.5.21a4.28,4.28,0,0,1-4.39,0l-0.5-.21c-1-.41-2-0.82-2.85-1.26a23.1,23.1,0,0,1-5.27-3.51,15.24,15.24,0,0,1-5.15-9.21,12.34,12.34,0,0,1-.08-1.64,0.23,0.23,0,0,0-.09-0.19l-0.79-.6-3.84-2.92a0.23,0.23,0,0,0-.29,0c-10.92,9.35-21.59,18.53-32.12,28l-1.47,1.32-2.92,2.61-0.93.84a30.6,30.6,0,0,1-2.66,2.24,0.23,0.23,0,0,0-.1.19V279a0.23,0.23,0,0,0,.07.16,0.22,0.22,0,0,0,.17.06h0.32c0.34,0,.7,0,1.09,0,1.92-.06,3.89,0,5.79,0l2.89,0H83.49c2.31-.13,4.58-0.14,6.69-0.13l10.39,0,20.55,0.05h3.76l20.55-.05,10.39,0c2.11,0,4.38,0,6.7.13h11.35l2.88,0c1.57,0,3.19,0,4.79,0h0.17c0.65,0,1.32-.06,2,0H184a0.23,0.23,0,0,0,.23-0.23v-0.45a0.23,0.23,0,0,0-.1-0.19A30.53,30.53,0,0,1,181.49,276.07Zm-20.14-12.21a0.08,0.08,0,0,1,.11,0l0,0a0.23,0.23,0,0,0,.11,0,0.59,0.59,0,0,1,.18.06l0.1,0a0.2,0.2,0,0,1,.12,0l0.22,0.16c0.32,0.22.62,0.43,0.91,0.68l0.22,0.19,0.06,0,0.21,0.17,0.31,0.28,0.16,0.14a7.74,7.74,0,0,1,.95,1,0.25,0.25,0,0,1,.06.11l0,0,0,0,0.28,0.36a1.22,1.22,0,0,1,.29.5,0.37,0.37,0,0,1-.08.34,0.39,0.39,0,0,1-.35.09,1.17,1.17,0,0,1-.47-0.26l-0.16-.12-0.18-.14a0.23,0.23,0,0,0-.1-0.07l-0.13-.06-0.14-.11a9.49,9.49,0,0,1-.9-0.86l-0.15-.16-0.3-.33-0.13-.16,0-.06v0h0l0,0h0l-0.12-.14-0.08-.09c-0.23-.26-0.42-0.53-0.63-0.83l-0.19-.27a0.17,0.17,0,0,1,0-.11,0.24,0.24,0,0,0,0-.1,0.57,0.57,0,0,1-.06-0.18,0.37,0.37,0,0,0-.08-0.14A0.07,0.07,0,0,1,161.35,263.86Zm-23,7.45a2.24,2.24,0,0,0,.27-0.17,1,1,0,0,1,.33-0.18l0.42-.09,0.18,0a11.74,11.74,0,0,1,1.49-.16c1-.06,2-0.08,2.81-0.1h0.42c0.78,0,1.55,0,2.38.08,0.51,0,1,.1,1.46.17l0.56,0.06a4.16,4.16,0,0,1,.86.12,0.22,0.22,0,0,1,.17.22,0.26,0.26,0,0,1-.18.25h0a4.1,4.1,0,0,1-.84.15c-0.2,0-.39,0-0.59.08a13.47,13.47,0,0,1-1.46.21h-0.05c-0.94.08-1.83,0.16-2.75,0.17s-1.86,0-2.8,0a11.16,11.16,0,0,1-1.49-.11l-0.21,0a3.29,3.29,0,0,1-.38-0.07,1.06,1.06,0,0,1-.33-0.17,2.17,2.17,0,0,0-.28-0.17,0.13,0.13,0,0,1-.06-0.11A0.15,0.15,0,0,1,138.34,271.31ZM144.1,264h0l0.1,0h0.09l0.23,0a1.35,1.35,0,0,1,.3,0h0.06a0.47,0.47,0,0,1,.26.09l0.1,0h0a0.23,0.23,0,0,1,.16.15,0.22,0.22,0,0,1-.06.22l-0.11.08-0.06.06a0.4,0.4,0,0,1-.21.16l-0.16,0-0.17,0-0.23,0a1.15,1.15,0,0,1-.32-0.09l-0.24-.1a0.2,0.2,0,0,1-.09-0.08,0.43,0.43,0,0,0-.13-0.1l-0.08,0a0.1,0.1,0,0,1,0-.13,0.12,0.12,0,0,1,.11-0.09h0.11l0.11,0a0.5,0.5,0,0,1,.19-0.05h0Zm-0.67,2,0.15-.06a0.23,0.23,0,0,0,.12,0h0l0.09,0h0.06a4.25,4.25,0,0,1,.63-0.09,2.37,2.37,0,0,1,.46,0H145a1.34,1.34,0,0,1,.38.07l0.16,0h0.07a0.84,0.84,0,0,1,.3.08,0.08,0.08,0,0,1,0,.07,0.22,0.22,0,0,1,0,.18,0.69,0.69,0,0,1-.25.16l-0.09,0-0.08.05a1,1,0,0,1-.34.18l-0.07,0-0.24.09a2.81,2.81,0,0,1-.78.07l-0.31,0-0.17,0h-0.11l-0.11,0-0.06,0H143.3a1,1,0,0,1-.26-0.09l-0.15-.09-0.16-.09V266.3l0.21-.12,0.1-.06a1.89,1.89,0,0,1,.35-0.11Zm0.72,1.85a16.72,16.72,0,0,1,2,.08,5.41,5.41,0,0,1,.71.12l0.31,0.07h0.06a3,3,0,0,1,.79.23,0.27,0.27,0,0,1,0,.44,3.07,3.07,0,0,1-.8.23h-0.05l-0.31.07a5.34,5.34,0,0,1-.7.12,16.52,16.52,0,0,1-2,.08c-0.71,0-1.35-.07-2-0.13a3,3,0,0,1-1.68-.53,0.1,0.1,0,0,1,0-.07,0.11,0.11,0,0,1,0-.07,3,3,0,0,1,1.68-.53c0.63-.07,1.27-0.11,2-0.13h0ZM159.57,262a0.11,0.11,0,0,1-.16,0,84.16,84.16,0,0,1-8-6.94c-1.15-1.11-2.51-2.42-3.86-3.79l-0.29-.29c-0.49-.49-1-1-1.46-1.53l-0.39-.4a3.45,3.45,0,0,1-1.08-1.56,0.41,0.41,0,0,1,.09-0.32,0.14,0.14,0,0,1,.11,0h0a3.28,3.28,0,0,1,1.62,1l0.36,0.31c0.63,0.53,1.25,1.1,1.85,1.65l0.12,0.11c1.42,1.31,2.8,2.64,3.83,3.65a84.6,84.6,0,0,1,7.27,7.84A0.28,0.28,0,0,1,159.57,262Zm-19.15-8.16a0.27,0.27,0,0,1,.18.21,3.17,3.17,0,0,1-.2,1.15,0.23,0.23,0,0,0,0,.08,2.3,2.3,0,0,1-.3,1l-0.05.12a2.38,2.38,0,0,1-.3.63,8.5,8.5,0,0,1-.56.78,7.7,7.7,0,0,1-1,1.1L138,259a5.12,5.12,0,0,1-1.37.93l-0.22.1a2.08,2.08,0,0,1-.52.19,1.75,1.75,0,0,1-.5,0l-0.19,0a0.16,0.16,0,0,1,0-.12h0l0.1-.21a1.2,1.2,0,0,1,.24-0.4l0.17-.16,0.35-.35c0.16-.17.34-0.32,0.52-0.49s0.37-.33.55-0.51l0.54-.58,0.25-.29,0.12-.14h0l0,0h0l0.46-.59a3.67,3.67,0,0,1,.42-0.52l0,0,0.1-.16a2.32,2.32,0,0,1,.51-0.63l0.07-.07,0.12-.2a4.84,4.84,0,0,1,.5-0.75A0.12,0.12,0,0,1,140.42,253.86Zm0.2,20c1.88-.05,3.76-0.08,5.63-0.08,3.94,0,7.81.1,11.51,0.22,2.82,0.09,5.68.2,8.51,0.34l4.25,0.22,1,0,1.17,0.06a0.24,0.24,0,0,0,.22-0.13,0.23,0.23,0,0,0,0-.25,8.56,8.56,0,0,0-1.47-1.41,0.4,0.4,0,0,1-.1-0.55,0.3,0.3,0,0,1,.44-0.08,16,16,0,0,1,3.5,2.86,0.78,0.78,0,0,1,.17.85,0.83,0.83,0,0,1-.74.52,26.77,26.77,0,0,1-3.37-.12l-1.43-.1L165,276c-6-.28-11.86-0.43-16.8-0.54l-4-.07-4.49-.08c-2.73-.06-5.51-0.25-8.5-0.56a0.08,0.08,0,0,1-.05,0s0-.06,0-0.06c1.52-.22,3.1-0.45,4.66-0.57S139,273.93,140.62,273.89Zm-17.26-6.81-0.58-.19a5.13,5.13,0,0,1-2.13-1.06v-0.06a2.45,2.45,0,0,1,1.27-.32,5.18,5.18,0,0,1,1.39.22,4.29,4.29,0,0,1,.42.15,2.66,2.66,0,0,0,1,.26,2.44,2.44,0,0,0,.91-0.34l0.26-.13c0.43-.19.85-0.4,1.27-0.61s0.94-.47,1.41-0.68c0.85-.37,1.73-0.79,2.62-1.23a0.22,0.22,0,0,1,.29.07,0.18,0.18,0,0,1,0,.25,24.88,24.88,0,0,1-2.39,2.08,11.19,11.19,0,0,1-2.52,1.33L126,267a3.86,3.86,0,0,1-1.18.39,2.79,2.79,0,0,1-1.23-.26Zm-20.1-2.51,0-.06v0l0-.06v0h0l0-.05c0-.08-0.07-0.16-0.1-0.24a0.81,0.81,0,0,1,0-.19,0.39,0.39,0,0,0,0-.1,0.66,0.66,0,0,1,0-.12h0v-0.05a0.32,0.32,0,0,1,.07-0.2,0.15,0.15,0,0,1,.15,0l0.08,0.05,0.1,0,0,0,0.07,0.06,0,0a0.44,0.44,0,0,1,.14.09l0,0,0,0h0a0.22,0.22,0,0,0,.13.12h0a2.14,2.14,0,0,1,.23.18l0.18,0.15,0.07,0.06h0l0,0h0l0.05,0h0l0.07,0.06h0l0.18,0.12,0.31,0.23,0,0a4.83,4.83,0,0,0,.41.27l0.12,0.07,0.09,0a0.58,0.58,0,0,1,.15.13l0.07,0.05a0.21,0.21,0,0,0,.1.05h0l0.08,0a1.06,1.06,0,0,1,.41.23,0.3,0.3,0,0,1,.09.25,0.33,0.33,0,0,1-.15.23h0a1.27,1.27,0,0,1-.84.06h-0.07a1.12,1.12,0,0,1-.53-0.07,5.76,5.76,0,0,1-.59-0.24,2.58,2.58,0,0,1-.81-0.62,3.84,3.84,0,0,1-.37-0.49A1.48,1.48,0,0,1,103.26,264.57Zm0.69-4.38a3.6,3.6,0,0,1-.32-1.23l0.06,0a6.29,6.29,0,0,1,.79.72l0.11,0.12,0.49,0.47c0.16,0.15.33,0.3,0.49,0.46a22.13,22.13,0,0,0,2,1.82c0.51,0.4,1,.75,1.57,1.12l0.51,0.35,0.37,0.26a11.35,11.35,0,0,0,2,1.18,0.13,0.13,0,0,1,.09.17,0.31,0.31,0,0,1-.32.22l-0.5-.08-1-.16a3.75,3.75,0,0,1-.49-0.15l-0.12,0-0.3-.09a2.94,2.94,0,0,1-.42-0.14,10.1,10.1,0,0,1-2.45-1.56,10.82,10.82,0,0,1-1.94-2.14A6.55,6.55,0,0,1,103.95,260.19Zm0.1-8.43a0.16,0.16,0,0,1,.06-0.07l0.25,0.58a28,28,0,0,0,1.74,3.58,16.65,16.65,0,0,0,3,3.54,19.41,19.41,0,0,0,4.14,2.9c0.72,0.38,1.45.73,2.18,1l0.4,0.16a5.36,5.36,0,0,1,.77.34,3.78,3.78,0,0,1,.81.72l0.06,0.07a0.39,0.39,0,0,1,.06.37,0.19,0.19,0,0,1-.16.14l-0.14,0a3.39,3.39,0,0,1-1.12,0,5,5,0,0,1-1-.37l-0.29-.13c-0.87-.37-1.66-0.75-2.41-1.16a21,21,0,0,1-4.33-3.11C105.93,258.45,103.64,255,104,251.76Zm-1,15.82H103a0.46,0.46,0,0,1-.27-0.07l-0.08-.06a2.48,2.48,0,0,1-.29-0.24l-0.12-.15-0.07-.16,0-.09a0.66,0.66,0,0,1,0-.37s0-.07,0-0.08a0.3,0.3,0,0,1,.06-0.18,0.23,0.23,0,0,1,.1-0.08,0.27,0.27,0,0,1,.3.07l0.06,0,0.14,0.09,0.08,0.06a1,1,0,0,1,.17.13l0.19,0.17a0.7,0.7,0,0,1,.17.16l0.07,0.06,0.25,0.14a0.34,0.34,0,0,1,.15.27v0.11h0a0.2,0.2,0,0,1,0,.09l0,0.06,0,0-0.07,0-0.14,0a1.22,1.22,0,0,1-.32,0l-0.06.23v-0.24h0Zm-5.91-16.92a0.85,0.85,0,0,0-.13.24,0.62,0.62,0,0,1-.05.11l-0.14.17,0,0.06a2,2,0,0,1-.41.53l-0.48.5-1,1c-0.39.39-.73,0.71-1.06,1a1,1,0,0,1-.22.14,0.32,0.32,0,0,0-.11.09l-0.14.13-0.18.16a1.79,1.79,0,0,1-.45.34,0.23,0.23,0,0,1-.24,0,0.16,0.16,0,0,1,0-.17,1.87,1.87,0,0,1,.31-0.57l0.12-.17L93,254l0.09-.17a1.12,1.12,0,0,1,.1-0.17,11.3,11.3,0,0,1,1-1.14,13.48,13.48,0,0,1,1.1-1l0.15-.12c0.16-.13.32-0.26,0.49-0.38a1.62,1.62,0,0,1,.49-0.27l0.07,0a1.58,1.58,0,0,1,.22-0.12l0.11,0a0.89,0.89,0,0,0,.25-0.09,0.06,0.06,0,0,1,.09,0A0.1,0.1,0,0,1,97.13,250.66Zm-4.48,24.42a2.32,2.32,0,0,1,.76-0.38,5.24,5.24,0,0,1,.87-0.1h0.08c0.61,0,1.22,0,1.79,0h0c0.56,0,1.1.05,1.67,0.11l0.17,0,0.37,0.06a3.84,3.84,0,0,0,.47.07H99a3.59,3.59,0,0,1,.78.1,0.29,0.29,0,0,1,.18.26,0.17,0.17,0,0,1-.1.19h0a3.72,3.72,0,0,1-.85.24c-0.16,0-.31.07-0.47,0.12a4.38,4.38,0,0,1-.45.11H98a13.1,13.1,0,0,1-1.87.24,14,14,0,0,1-1.88,0,4.21,4.21,0,0,1-1-.17,2.38,2.38,0,0,1-.38-0.17,1.25,1.25,0,0,1-.22-0.16l-0.14-.11a0.11,0.11,0,0,1,0-.1A0.31,0.31,0,0,1,92.65,275.08Zm-6.5-13.21-1.56,1.46c-1.27,1.19-2.54,2.39-3.83,3.57-2.57,2.37-5.17,4.79-7.69,7.13l-0.12.11a0.23,0.23,0,0,0,.17.4l6.89-.27a69.73,69.73,0,0,1,9.67.19,0.44,0.44,0,0,1,.36.42,0.23,0.23,0,0,1-.22.25,69.65,69.65,0,0,1-9.71.88c-3.77.13-6.89,0.22-9.81,0.29a0.8,0.8,0,0,1-.76-0.55,0.75,0.75,0,0,1,.17-0.85l2-1.8c2.66-2.37,5.42-4.83,8.12-7.26,1.26-1.14,2.54-2.26,3.81-3.39l1.45-1.29c0.76-.67,1.54-1.37,2.33-2a19.79,19.79,0,0,1,2.11-1.5l0.62-.41,0.06,0a0.06,0.06,0,0,1,0,0,0.17,0.17,0,0,1,0,.21l-0.43.53a22,22,0,0,1-1.8,2.08C87.43,260.67,86.79,261.27,86.15,261.87Z" transform="translate(-23.92 -190.36)"/><path class="cls-2" d="M138.82,244.42a0.24,0.24,0,0,0,.22,0c6-4.55,13.94-10.56,21.95-16.73l7.55-5.83,4.71-3.64,6.13-4.75q1.53-1.19,3.07-2.36c0.32-.24.69-0.52,1.09-0.78a0.23,0.23,0,0,0,.09-0.26,0.21,0.21,0,0,0-.23-0.16c-2.16.1-4.36,0.07-6.5,0-1,0-2,0-3,0H162.5c-2.31.13-4.58,0.14-6.69,0.13l-10.39,0-20.55-.05h-3.76l-20.55.05-10.39,0c-2.11,0-4.38,0-6.7-.13H72.12c-1,0-2,0-3,0-2.13,0-4.34.05-6.5,0a0.22,0.22,0,0,0-.23.16,0.23,0.23,0,0,0,.09.26c0.4,0.27.79,0.56,1.09,0.78q1.55,1.16,3.07,2.36l6.13,4.75,4.67,3.61L85,227.66c8,6.15,15.92,12.17,21.95,16.73a0.23,0.23,0,0,0,.14,0h0.08a0.23,0.23,0,0,0,.15-0.16,10,10,0,0,1,2.83-4.88,8.8,8.8,0,0,1,9-1.82,8.19,8.19,0,0,1,3.63,3,0.23,0.23,0,0,0,.39,0,8.19,8.19,0,0,1,3.62-3,8.8,8.8,0,0,1,9,1.82,10,10,0,0,1,2.83,4.88A0.23,0.23,0,0,0,138.82,244.42ZM154.08,227a32,32,0,0,1,4.11-3.77c1.21-1,2.47-1.95,3.69-2.88l0.7-.53,5.49-4.21,0.87-.67a0.23,0.23,0,0,0-.14-0.41c-2.19,0-5.08,0-8-.11l-3.06-.1-2.46-.08-0.61,0a21.81,21.81,0,0,1-4.71-.47,0,0,0,0,1,0,0,0,0,0,0,1,0,0,21.79,21.79,0,0,1,4.7-.47l2.95-.09,3.19-.1c3.61-.11,7.13-0.1,11-0.08a0.7,0.7,0,0,1,.72.48,1,1,0,0,1-.34,1l-1.75,1.33q-3.54,2.69-7.08,5.38l-0.6.46c-1.24,1-2.53,1.94-3.82,2.86a31,31,0,0,1-4.63,2.91,0.24,0.24,0,0,1-.31-0.06A0.23,0.23,0,0,1,154.08,227Zm-5.64,6.56c-0.8.48-1.64,0.93-2.46,1.36a24.42,24.42,0,0,0-6,4.06,0.63,0.63,0,0,1-.54.16,0.49,0.49,0,0,1-.37-0.26,14.51,14.51,0,0,0-2.81-3.66,0.07,0.07,0,0,1,0-.09,0.1,0.1,0,0,1,.08-0.05h0a4.56,4.56,0,0,1,2.19,1.1,5.8,5.8,0,0,1,1,1.23,0.23,0.23,0,0,0,.35,0,20.22,20.22,0,0,1,8.43-4.17,0.15,0.15,0,0,1,.18.09A0.14,0.14,0,0,1,148.44,233.54ZM83.16,213.09a2.58,2.58,0,0,0-.58.23,2.44,2.44,0,0,1-.46.19,6.14,6.14,0,0,1-1.07.13l-0.24,0c-0.93.07-1.83,0.08-2.51,0.08H75.45a0.23,0.23,0,0,0-.13.42l0.93,0.66L77,215.35l1.46,1,1.94,1.36c1.15,0.81,2.26,1.68,3.4,2.57,0.38,0.3.79,0.58,1.18,0.86a15,15,0,0,1,2.12,1.7,0.37,0.37,0,0,1,0,.44,0.24,0.24,0,0,1-.31.11,14.2,14.2,0,0,1-2.44-1.31c-0.54-.34-1.1-0.68-1.68-1a30.93,30.93,0,0,1-3.62-2.27l-0.32-.22c-1.42-1-2.78-2-3.92-2.79-0.53-.38-1-0.78-1.55-1.17L73,214.48a1.5,1.5,0,0,1-.77-1.68,0.76,0.76,0,0,1,.74-0.57l5.29,0.06c0.94,0,1.8,0,2.63.11h0.2a5.15,5.15,0,0,1,1,.14,2.66,2.66,0,0,1,.45.19,2.7,2.7,0,0,0,.59.24,0.06,0.06,0,0,1,0,.06A0.06,0.06,0,0,1,83.16,213.09Zm46.92,1.09a1.68,1.68,0,0,1-.68.21l-0.17,0-0.05,0a1.4,1.4,0,0,1-.44.11l-0.22,0-0.25,0h0l-0.28,0h-0.28l-0.49,0a6.47,6.47,0,0,1-1.17-.15l-0.24-.09-0.26-.1a1.34,1.34,0,0,1-.42-0.19,0.64,0.64,0,0,1-.31-0.26,0.13,0.13,0,0,1,0-.13h0a1,1,0,0,1,.63-0.23,3.37,3.37,0,0,0,.41-0.08,2.8,2.8,0,0,1,.7-0.07h0.84a6,6,0,0,1,.78,0h0.07l0.12,0,0.24,0h0.09a1.63,1.63,0,0,1,.51.09l0.07,0h0.07a2.06,2.06,0,0,1,.79.16,0.2,0.2,0,0,1,.12.17A0.36,0.36,0,0,1,130.09,214.18Zm-28.86,4.29a1.34,1.34,0,0,1,.6-0.11h0.79c0.44,0,.89,0,1.37.08l0.7,0.06a3,3,0,0,1,.43.08l0.34,0.07,0.12,0,0.18,0,0.12,0.05,0.15,0.06a2.5,2.5,0,0,0,.34.08,1.61,1.61,0,0,1,.34.09,0.34,0.34,0,0,1,.18.27,0.11,0.11,0,0,1-.08.11,2.82,2.82,0,0,1-.56.16l-0.1,0-0.22.07-0.13,0a1.83,1.83,0,0,1-.31,0h-0.11l-0.28,0a2,2,0,0,1-.39,0H104a10.43,10.43,0,0,1-1.48-.16,6.1,6.1,0,0,1-.69-0.16l-0.13,0a1.32,1.32,0,0,1-.57-0.27,0.41,0.41,0,0,1-.11-0.35A0.39,0.39,0,0,1,101.22,218.47Zm0.81,2.68a1.34,1.34,0,0,1,.89-0.3,5.36,5.36,0,0,1,.6,0h0.12a3.65,3.65,0,0,1,.84.16,1.76,1.76,0,0,1,.24.11l0,0,0.05,0a0.7,0.7,0,0,1,.3.15,0.23,0.23,0,0,1,0,.32,0.68,0.68,0,0,1-.34.15l-0.07,0-0.07,0-0.12.05-0.06,0a4.06,4.06,0,0,1-.8.11h-0.11a6,6,0,0,1-.68,0,2,2,0,0,1-.42-0.08,1,1,0,0,1-.27-0.12l0,0,0,0,0,0h0l-0.07-.06a0.41,0.41,0,0,1-.11-0.3A0.31,0.31,0,0,1,102,221.15ZM102.3,224l0.11-.1a0.48,0.48,0,0,1,.16-0.12l0.06,0,0.13-.05,0.13,0,0.16,0,0.14,0h0a0.36,0.36,0,0,1,.15,0l0.08,0a3,3,0,0,1,.51.07,0.25,0.25,0,0,1,.17.23h0a0.26,0.26,0,0,1-.19.22,2.68,2.68,0,0,1-.43.11l-0.08,0a0.47,0.47,0,0,1-.25.06h-0.22a1,1,0,0,1-.32-0.06l-0.12,0-0.08-.07-0.05,0,0,0,0,0a0.06,0.06,0,0,1,0,0A0.13,0.13,0,0,1,102.3,224ZM98,216.27a5.2,5.2,0,0,1,2.54-.35h0.25c0.93,0,1.87.08,2.78,0.14l0.62,0c1,0.06,2,.13,3,0.24a12,12,0,0,1,3,.64,0.35,0.35,0,0,1,.21.33,0.2,0.2,0,0,1-.18.19,11.21,11.21,0,0,1-2.63.21h-0.41c-0.78,0-1.6-.07-2.39-0.15L104,217.5c-1-.09-2.11-0.18-3.18-0.31l-0.29,0a5.24,5.24,0,0,1-2.5-.7,0.17,0.17,0,0,1-.07-0.13A0.06,0.06,0,0,1,98,216.27Zm8.51,22.09a0.75,0.75,0,0,1-.81.35,16.9,16.9,0,0,1-3-1.55l-0.09-.06a5.71,5.71,0,0,1-1.23-1l-0.21-.24a2.34,2.34,0,0,1-.55-0.84,0.09,0.09,0,0,1,0-.07,0.08,0.08,0,0,1,.06,0h0a3.16,3.16,0,0,1,1,.29l0.27,0.11a6.82,6.82,0,0,1,.86.42l0.41,0.22c0.68,0.35,1.41.71,2.16,1a0.23,0.23,0,0,0,.28-0.08A10.89,10.89,0,0,1,122,235.09a0.23,0.23,0,0,0,.29,0A11.43,11.43,0,0,1,127,233c2.66-.47,4.65-0.17,5.89.9a0.25,0.25,0,0,1,.07.29,0.37,0.37,0,0,1-.31.25,18.07,18.07,0,0,1-2-.1,11.93,11.93,0,0,0-3.31,0,9.41,9.41,0,0,0-4.81,2.37,0.76,0.76,0,0,1-1.05,0,9.87,9.87,0,0,0-8-2.87A9.59,9.59,0,0,0,106.56,238.36Zm-19-25.75,0.09,0.21a4.45,4.45,0,0,1,1.29-.29l0.34,0c0.6-.09,1.18-0.14,1.77-0.17,1,0,2.08,0,3.09,0h0.57c4.51,0.08,9.13.24,13.2,0.39l1.93,0.06c1.51,0,3.08.1,4.61,0.18a35.84,35.84,0,0,1,6.43.75,0.36,0.36,0,0,1,.24.38,0.27,0.27,0,0,1-.22.29,38.28,38.28,0,0,1-7.34.28c-3.92-.13-8.56-0.29-13.21-0.48-2.24-.09-4.44-0.19-6.54-0.31-1-.05-2.13-0.12-3.2-0.27l-0.38-.05a7.08,7.08,0,0,1-2.57-.67,0.08,0.08,0,0,1,0,0l-0.09-.21h0Z" transform="translate(-23.92 -190.36)"/><path class="cls-2" d="M61.93,275.64a0.23,0.23,0,0,0,.16-0.06l0.86-.8,0.53-.49c1.32-1.22,2.63-2.41,3.85-3.51,2.61-2.35,5.28-4.74,7.95-7.1,5.24-4.65,10.65-9.36,16.07-14,2.64-2.26,5.76-4.92,8.87-7.5a0.23,0.23,0,0,0,0-.36L99,240.92l-1.45-1.1c-9.13-7-16.78-12.88-24.4-18.9l-6.79-5.37Q64.7,214.2,63,212.84l-0.21-.17c-0.34-.28-0.69-0.56-1-0.84a0.23,0.23,0,0,0-.38.17v0.59c0,0.24,0,.48,0,0.72q0,3.87,0,7.75,0,3.06,0,6.11,0,4.69,0,9.39c0,9,.07,18.56.2,31q0,2.53.06,5.06l0,2.81a0.23,0.23,0,0,0,.14.21ZM65.4,239.4a0,0,0,0,1,0,0h0a0.08,0.08,0,0,1,.08.06c0,0.31,0,.61.06,0.9s0,0.43.05,0.65,0,0.51,0,.77c0,0.1,0,.19,0,0.29s0,0.31,0,.46a0.1,0.1,0,0,1-.09.11s-0.07,0-.12-0.1a3.85,3.85,0,0,1-.18-0.7v-0.05A5,5,0,0,1,65.2,241,6.75,6.75,0,0,1,65.4,239.4Zm0.94-6.93a14.88,14.88,0,0,1-.19,2.38c-0.05.31-.08,0.62-0.11,0.92a6.11,6.11,0,0,1-.23,1.38,0.32,0.32,0,0,1-.34.23,0.28,0.28,0,0,1-.28-0.22A6.72,6.72,0,0,1,65,235.7c0-.31,0-0.63-0.07-1a15.67,15.67,0,0,1-.09-2.27q0-2.36.07-4.72v-1a48.19,48.19,0,0,1,.59-8.34,0.05,0.05,0,0,1,.06,0,0.09,0.09,0,0,1,.07,0,43.78,43.78,0,0,1,.7,9.25v0.11C66.38,229.29,66.37,230.88,66.35,232.47Zm-1.12,14a0.09,0.09,0,0,1,.09,0,0.06,0.06,0,0,1,.07,0,49.7,49.7,0,0,1,.36,9.32c0,0.65,0,1.31,0,2q-0.07,4.44-.14,8.87a0.23,0.23,0,0,0,.41.15,27.8,27.8,0,0,1,6.26-6.15,0.19,0.19,0,0,1,.28,0,0.37,0.37,0,0,1,0,.45c-1,1.31-2.15,2.58-3.23,3.8-1.31,1.48-2.66,3-3.86,4.63a0.74,0.74,0,0,1-.82.26,0.52,0.52,0,0,1-.36-0.55q0.11-5.73.23-11.46c0-.66,0-1.33,0-2A49.35,49.35,0,0,1,65.22,246.45Zm10.69,11.64a0.28,0.28,0,0,0,.22-0.26,0.74,0.74,0,0,1,.21-0.44L76.7,257a9.13,9.13,0,0,1,.74-0.7l0.55-.49a1.35,1.35,0,0,1,.19-0.16l0.11-.05,0.08,0,0.2-.16a3.14,3.14,0,0,1,.72-0.49,0.19,0.19,0,0,1,.21,0,0.18,0.18,0,0,1,0,.21,3.81,3.81,0,0,1-.63.89l0,0,0,0.06,0,0.05a0.5,0.5,0,0,1-.05.1l-0.16.19-0.45.5a8.65,8.65,0,0,1-.73.75l-0.44.37a0.67,0.67,0,0,1-.42.16H76.41l-0.07,0a0.19,0.19,0,0,1-.19-0.07,0.19,0.19,0,0,1-.06-0.18l0-.08A0.23,0.23,0,0,1,75.92,258.09Zm-0.7-26.23,0.12,0,0.05,0a0.44,0.44,0,0,1,.2.12l0,0h0l0.16,0.12,0.2,0.15,0.34,0.27,0,0h0l0,0L76.76,233,76.84,233,77,233.13a1.44,1.44,0,0,1,.2.18c0.13,0.15.25,0.31,0.37,0.47l0,0,0.07,0.1a0.44,0.44,0,0,1,.05.27l0,0.12a0.23,0.23,0,0,1-.12.16,0.52,0.52,0,0,1-.39.07L77,234.48a4.62,4.62,0,0,1-.51-0.24,2,2,0,0,1-.35-0.28l-0.07-.07-0.31-.29a4.93,4.93,0,0,1-.64-0.74l-0.1-.14a1,1,0,0,1-.16-0.25,0.67,0.67,0,0,0-.08-0.29,0.56,0.56,0,0,1,0-.18,0.21,0.21,0,0,1,.17-0.14A0.39,0.39,0,0,1,75.21,231.86Zm-1.07,2a0.22,0.22,0,0,1,.15-0.07h0l0.17,0.05a0.7,0.7,0,0,1,.27.14l0.06,0,0.13,0.1L75,234.23l0.32,0.36a0.62,0.62,0,0,1,.1.13,0.35,0.35,0,0,1,0,.13,0.23,0.23,0,0,0,0,.06,0.35,0.35,0,0,1,0,.16,0.26,0.26,0,0,1-.07.17,0.25,0.25,0,0,1-.16.05,0.33,0.33,0,0,1-.16,0l-0.06,0a0.37,0.37,0,0,1-.14,0l-0.12-.09-0.36-.32-0.11-.12-0.11-.16a0.76,0.76,0,0,1-.15-0.31l0-.12A0.2,0.2,0,0,1,74.14,233.87Zm2.69-2.17-0.12-.11c-0.2-.18-0.39-0.36-0.57-0.56l-0.31-.34-0.08-.1-0.13-.18-0.18-.22a2.33,2.33,0,0,1-.32-0.45,2.93,2.93,0,0,1-.16-0.37,0.83,0.83,0,0,1,0-.37,0.07,0.07,0,0,1,0-.08,1.29,1.29,0,0,1,.73.24,2.46,2.46,0,0,1,.3.24l0.23,0.2,0.09,0.07h0a11.19,11.19,0,0,1,.88.75l0.43,0.38,0.66,0.55,0.31,0.25,0.16,0.12,0.09,0.08,0.06,0.06,0.32,0.29a1.92,1.92,0,0,1,.29.33l0,0,0,0,0.14,0.18,0,0a1.42,1.42,0,0,1,.18.29,0.34,0.34,0,0,1,0,.31,0.19,0.19,0,0,1-.17.08,1.36,1.36,0,0,1-.43-0.1A6,6,0,0,1,76.84,231.7Zm-0.73-4.08-0.3-.29c-0.28-.27-0.57-0.54-0.84-0.83l0,0a4.52,4.52,0,0,1-.85-1.09,0.14,0.14,0,0,1,0-.15,0.06,0.06,0,0,1,0,0h0a6.16,6.16,0,0,1,2,1.24c0.22,0.18.45,0.36,0.67,0.53,0.65,0.48,1.28,1,1.89,1.52L79.31,229l0.76,0.62a16.59,16.59,0,0,1,3.87,3.9,0.14,0.14,0,0,1,0,.18,0.27,0.27,0,0,1-.29.07,16.55,16.55,0,0,1-4.37-3.23l-0.73-.67-0.38-.34C77.48,228.9,76.77,228.26,76.1,227.62Zm10,22a5.34,5.34,0,0,1,1.67-2l0.1-.09c0.71-.61,1.45-1.21,2.16-1.79l0.17-.14c0.58-.47,1.16-0.93,1.75-1.39l1.87-1.47,0.3-.21c0.15-.1.3-0.2,0.43-0.31a0.23,0.23,0,0,0,0-.36l-0.11-.09-0.5-.42L93.52,241l-0.73-.61c-0.31-.26-0.58-0.54-0.87-0.83l-0.2-.2c-0.18-.17-0.36-0.34-0.55-0.5s-0.39-.33-0.56-0.51a0.14,0.14,0,0,1,0-.19,0.21,0.21,0,0,1,.26-0.07,25,25,0,0,1,4.36,2.71c0.69,0.52,1.12.9,0.88,1.56a3.14,3.14,0,0,1-1.2,1.2l-0.45.33-0.41.32c-1.22,1-2.49,2-3.74,2.95l-0.23.18c-0.59.46-1.2,0.93-1.83,1.35a5,5,0,0,1-2.06,1l0,0a0.08,0.08,0,0,1,0-.05l-0.22-.07Z" transform="translate(-23.92 -190.36)"/><path class="cls-3" d="M63.78,207.77a0.23,0.23,0,0,0,0-.23c-0.5-.81-0.95-1.5-1.37-2.13a32.14,32.14,0,0,0-5.16-5.89,25.85,25.85,0,0,0-12.78-6.46,15.4,15.4,0,0,0-12.53,3.13,14.91,14.91,0,0,0-5.49,11,15.86,15.86,0,0,0,2.82,9.33,13,13,0,0,0,1.05,1.33l0.53,0.59,0.1,0.1L31,218.66a0.23,0.23,0,0,0,.31.05,13.84,13.84,0,0,1,2.81-1.43,10.09,10.09,0,0,1,4.6-.6,11.88,11.88,0,0,1,2.4.47l0.25,0.08a5.91,5.91,0,0,1,1.7.76,0.43,0.43,0,0,1,.15.47,0.3,0.3,0,0,1-.3.19c-0.35,0-.71,0-1.06-0.08a9.82,9.82,0,0,0-1.27-.09,16.18,16.18,0,0,0-2.25.2,16.34,16.34,0,0,0-4.15,1.09,11.49,11.49,0,0,0-6.35,13,16.58,16.58,0,0,0,3.91,7.27,13.16,13.16,0,0,0,2.92,2.42,18.78,18.78,0,0,0,1.87,1l0.28,0.12a0.23,0.23,0,0,0,.28-0.09A7.7,7.7,0,0,1,39.72,241a4.61,4.61,0,0,1,3.18-.64,1.07,1.07,0,0,1,.68.66,0.41,0.41,0,0,1,0,.36,2.16,2.16,0,0,1-1.24.61l-0.17,0a4.76,4.76,0,0,0-1.69.87,6.83,6.83,0,0,0-2.25,3.56,10.76,10.76,0,0,0,.93,7.62,13.44,13.44,0,0,0,5.78,5.64,19.15,19.15,0,0,0,8.41,2.07h0.48a39,39,0,0,0,4.48-.34l1-.11a0.23,0.23,0,0,0,.21-0.23l0-1.79q0-1.16,0-2.32a0.23,0.23,0,0,0-.12-0.2,0.23,0.23,0,0,0-.23,0l-0.5.29a7.1,7.1,0,0,1-1.73.69A5.83,5.83,0,0,1,55,258a2.49,2.49,0,0,1-1.52-.52,0.08,0.08,0,0,1,0-.05,3,3,0,0,1,1-.37l0.43-.12,0.13,0c0.49-.15.91-0.28,1.42-0.48l0.21-.09,0.33-.14,0.06,0a8.16,8.16,0,0,0,.77-0.38l0.44-.27a4.07,4.07,0,0,1,.89-0.48l0.13-.07a0.23,0.23,0,0,0,.12-0.2v-0.81c0-11.5-.05-21.14,0-30.87q0-4.33.11-8.65,0-2.16.08-4.32v-0.21c0-.27,0-0.55,0-0.82a0.23,0.23,0,0,0,.07-0.14,0.9,0.9,0,0,1,.77-0.86c0.91-.09,1.87-0.14,3-0.17A0.23,0.23,0,0,0,63.78,207.77Zm-7.16-2.63a0.29,0.29,0,0,1,.45-0.25l0.07,0,0.1,0h0l0.13,0.1,0.22,0.19a3.13,3.13,0,0,1,.38.39,4.76,4.76,0,0,1,.41.62l0.13,0.23a0.83,0.83,0,0,1,.1.37,0.22,0.22,0,0,0,0,.07,0.85,0.85,0,0,1,0,.68h0a0.29,0.29,0,0,1-.32.12,0.66,0.66,0,0,1-.32-0.28L58,207.34l-0.06-.06,0,0a0.8,0.8,0,0,1-.24-0.25l-0.16-.25-0.15-.22-0.18-.27-0.26-.45,0,0-0.07-.12-0.07-.13a0.55,0.55,0,0,1-.06-0.25h0A0.23,0.23,0,0,0,56.62,205.14ZM40.77,208.2l0,0,0,0a0.38,0.38,0,0,1-.08.11l0,0-0.1.11-0.07.06,0,0a0.43,0.43,0,0,1-.18.08,0.1,0.1,0,0,1-.11,0l0,0a0.34,0.34,0,0,1-.12-0.24v0a0.38,0.38,0,0,1,0-.08c0-.06,0-0.12,0-0.18s0-.06,0-0.13a0.59,0.59,0,0,1,.14-0.22l0.06-.07,0.07-.06,0.1-.08a0.32,0.32,0,0,1,.13,0l0.07,0,0.11,0h0.07a0.23,0.23,0,0,1,.16.07,0.24,0.24,0,0,1,.07.2h0l0,0.08a0.23,0.23,0,0,0,0,.09,0.22,0.22,0,0,1,0,.07,0.68,0.68,0,0,1-.05.12l0,0.07h0ZM38,207a1.25,1.25,0,0,1,.15-0.49,1.57,1.57,0,0,1,.12-0.23,1.25,1.25,0,0,1,.36-0.39,2.7,2.7,0,0,1,.39-0.16,0.38,0.38,0,0,1,.26,0H39.3l0.09,0h0l0.09,0h0a0.11,0.11,0,0,1,.08.06,0.25,0.25,0,0,1,0,.2,0.23,0.23,0,0,0,0,.09,0.54,0.54,0,0,1-.08.28l0,0.06,0,0a1.4,1.4,0,0,1-.16.25l-0.24.28,0,0.07a1.73,1.73,0,0,1-.19.25,1.64,1.64,0,0,1-.15.18l-0.09.11,0,0a0.41,0.41,0,0,1-.11.12l-0.05,0-0.05,0h0a0.09,0.09,0,0,1-.07,0l0,0a0.49,0.49,0,0,1-.12-0.21,0.67,0.67,0,0,1-.07-0.24l0-.06a0.23,0.23,0,0,0,0-.13Zm-1.17-.54-0.06.11-0.08.1h0l0,0v0h0l0,0.08a2.25,2.25,0,0,1-.19.29l0,0,0,0,0,0.06a0.82,0.82,0,0,1-.25.23h0l0,0-0.06,0,0,0a0.18,0.18,0,0,1-.25-0.05,0.62,0.62,0,0,1-.06-0.14h0v0h0l0-.07a0.57,0.57,0,0,1,0-.31l0-.2a0.27,0.27,0,0,0,0-.12v-0.06l0-.15a0.23,0.23,0,0,0,0-.1h0a4.2,4.2,0,0,1,.49-1.34l0-.09a3.09,3.09,0,0,1,.69-1,1.29,1.29,0,0,1,.71-0.4h0.09l0.1,0a0.6,0.6,0,0,1,.34,0l0.06,0a0.5,0.5,0,0,1,.31.13,0.18,0.18,0,0,1,0,.19,0.63,0.63,0,0,1-.14.15,0.23,0.23,0,0,0-.07.09,0.72,0.72,0,0,1-.13.18l0,0.06a1.12,1.12,0,0,1-.17.27l0.18,0.15-0.23-.09-0.13.2-0.1.16c-0.19.28-.37,0.56-0.54,0.85h0l-0.12.19-0.18.3Zm-5.33,5.92a0.22,0.22,0,0,1,.14,0l0.1,0.07h0l0,0a1.21,1.21,0,0,1,.29.41l0.23-.06h0l-0.2.11,0,0,0,0.09a1.72,1.72,0,0,0,.09.18l0.14,0.26,0.06,0.12L32.61,214c0.09,0.15.17,0.3,0.25,0.45l0.08,0.19h0l0,0,0.09,0.2,0.09,0.19a0.7,0.7,0,0,1,.06.26,0.53,0.53,0,0,0,0,.12l0,0.12a0.41,0.41,0,0,1,0,.07s0,0.06,0,.09a0.27,0.27,0,0,0,0,.09,0.19,0.19,0,0,1-.07.16,0.09,0.09,0,0,1-.1,0h0L33,216,33,216h0l0,0,0,0-0.15-.1-0.07,0a0.67,0.67,0,0,1-.26-0.14l-0.16-.16a3.75,3.75,0,0,1-.37-0.45,4.15,4.15,0,0,1-.43-0.92l-0.08-.25,0-.08a0.35,0.35,0,0,1,0-.09v-0.1h0l0-.06,0-.09c0-.07,0-0.14,0-0.21A0.81,0.81,0,0,1,31.46,212.38Zm1.92-3.83a0.07,0.07,0,0,1-.08.06,0.1,0.1,0,0,1-.1-0.06,5.2,5.2,0,0,1-.12-2.53,8.9,8.9,0,0,1,.85-2.44c0.37-.7,1.73-3,3.85-3.18h0a0.19,0.19,0,0,1,.15.1,0.2,0.2,0,0,1,0,.2A12,12,0,0,1,36.85,202l-0.4.44a12.72,12.72,0,0,0-1.37,1.78,9.51,9.51,0,0,0-1,2.05l-0.12.35C33.76,207.27,33.55,207.92,33.39,208.56Zm-1.16-5.44a14,14,0,0,0-.94,3.88c-0.06.57-.09,1.18-0.1,2a10.47,10.47,0,0,1-.24,1.79,0.08,0.08,0,0,1-.08.06,0.14,0.14,0,0,1-.14,0,5.2,5.2,0,0,1-.69-2.14,12.46,12.46,0,0,1,0-2.42,13,13,0,0,1,1.29-4.66,11.55,11.55,0,0,1,5-5.13,12.31,12.31,0,0,1,5.6-1.23,17.33,17.33,0,0,1,2.26.15,17.77,17.77,0,0,1,7,2.49A14,14,0,0,1,54,200.11a7,7,0,0,1,1.15,1.51,12.58,12.58,0,0,1,.62,1.46l0.06,0.15a0.13,0.13,0,0,1-.07.18,0.23,0.23,0,0,1-.28,0c-0.39-.38-0.81-0.72-1.22-1.06l-0.23-.19c-0.3-.24-0.58-0.51-0.86-0.77l-0.55-.5a16.62,16.62,0,0,0-2.93-2.12c-3.75-2.11-9.33-3.12-13.33-.66A10.57,10.57,0,0,0,32.23,203.11Zm7.4,3.49h0Zm1,2.2h0Zm0.2-.21h0ZM46.95,251a1.23,1.23,0,0,1,.19.5,0.17,0.17,0,0,1-.06.14,0.32,0.32,0,0,1-.25.06,1.17,1.17,0,0,1-.5-0.35l-0.05,0a1.42,1.42,0,0,1-.42-0.41l-0.19-.28,0-.06a0.24,0.24,0,0,0,0-.08l-0.12-.15a3.47,3.47,0,0,1-.4-1.32,6,6,0,0,1-.07-0.8,3.83,3.83,0,0,1,.05-0.58v-0.11a1.74,1.74,0,0,1,.55-1.13,0.08,0.08,0,0,1,.06,0,0.09,0.09,0,0,1,0,.06,2.29,2.29,0,0,1,.13.5c0,0.06,0,.11,0,0.17a1.2,1.2,0,0,1,0,.2s0,0.08,0,.12a1.74,1.74,0,0,0,0,.22c0,0.16,0,.35.07,0.51s0.08,0.4.13,0.59,0.15,0.49.24,0.72,0.11,0.3.16,0.45l0,0.11c0,0.06,0,.13.06,0.19l0,0,0,0,0.1,0.23a1.21,1.21,0,0,1,.13.38A0.28,0.28,0,0,0,46.95,251Zm1.53-2.93h0v0h0c0,0.12.09,0.23,0.13,0.35h0l0.08,0.24a0.67,0.67,0,0,1,0,.15,0.23,0.23,0,0,0,0,.1v0.11h0a0.21,0.21,0,0,0,0,.09,1,1,0,0,1,0,.27l0,0.06a0.24,0.24,0,0,0,0,.08,0.25,0.25,0,0,1,0,0,1,1,0,0,0,0,.11,0.27,0.27,0,0,1-.15.25,0.28,0.28,0,0,1-.21,0l-0.09-.06h0l-0.11-.05,0,0-0.05,0a0.88,0.88,0,0,1-.4-0.34l0-.06a0.67,0.67,0,0,1-.17-0.29,2.58,2.58,0,0,1-.11-0.8v-0.15c0-.07,0-0.14,0-0.2v-0.14l0-.21a0.64,0.64,0,0,1,.05-0.11l0-.06,0-.11a1,1,0,0,1,.07-0.19,0.61,0.61,0,0,1,.26-0.26l0.05,0,0.05,0a0.12,0.12,0,0,1,.08,0l0.06,0.09,0,0a0.86,0.86,0,0,1,.21.43,0.34,0.34,0,0,0,0,.15,0.58,0.58,0,0,1,0,.11l0,0.08,0,0.18v0a0.25,0.25,0,0,0,0,.09h0Zm-5.15-2.42c-0.06.21-.13,0.42-0.17,0.62a9.22,9.22,0,0,0-.22,2.31,8.45,8.45,0,0,0,1.17,4.3c1.73,2.81,5,3.76,7.37,4.22a0.19,0.19,0,0,1,.17.19,0.33,0.33,0,0,1-.2.32c-3.31,1.11-7-1.18-8.72-4a8.59,8.59,0,0,1-1.19-5.16,8.87,8.87,0,0,1,.67-2.6,2.86,2.86,0,0,1,1.35-1.68,0.09,0.09,0,0,1,0,.06A4.09,4.09,0,0,1,43.33,245.65Zm-2.71-14.94c0,0.07,0,.13,0,0.2a0.2,0.2,0,0,1-.08.19,0.1,0.1,0,0,1-.12,0h0a1.5,1.5,0,0,1-.24-0.19l-0.07,0a1.17,1.17,0,0,1-.46-0.55l0-.08a1.25,1.25,0,0,1-.17-0.44c0-.17-0.05-0.35-0.06-0.52a2.06,2.06,0,0,1,0-.51c0-.06,0-0.12,0-0.17l0-.06a0.7,0.7,0,0,0,.06-0.15l0.06-.14,0-.1,0-.07,0,0,0-.06h0l0,0,0,0,0.06-.07a0.32,0.32,0,0,1,.15-0.09,0.19,0.19,0,0,1,.19.09,0.45,0.45,0,0,1,0,.23,0.31,0.31,0,0,0,0,.07,1.11,1.11,0,0,1,0,.27v0.1a0.23,0.23,0,0,0,0,.06,1.15,1.15,0,0,1,0,.19l0.06,0.6a0.15,0.15,0,0,0,0,.06,0.44,0.44,0,0,1,0,.06s0,0.06,0,.08a2.7,2.7,0,0,1,0,.5,0.25,0.25,0,0,0,0,0l0,0.19a0.9,0.9,0,0,1,0,.31A0.46,0.46,0,0,0,40.62,230.71ZM35.69,227c-0.07.15-.13,0.29-0.19,0.43a4.89,4.89,0,0,0-.33,1.8,5.34,5.34,0,0,0,.35,1.84h0l0.13,0.35,0.16,0.42c0,0.11.09,0.22,0.13,0.33a3.49,3.49,0,0,1,.17.46,1.19,1.19,0,0,1,.11.29,0.33,0.33,0,0,1-.09.3,0.27,0.27,0,0,1-.26.06,2.7,2.7,0,0,1-1.6-1.55,5.62,5.62,0,0,1-.49-2.32,5.89,5.89,0,0,1,.56-2.34,2.1,2.1,0,0,1,1.4-1.4h0a0.2,0.2,0,0,1,.19.12A2.1,2.1,0,0,1,35.69,227Zm2.15,4.51h0l-0.07-.06a0.9,0.9,0,0,0-.17-0.08l-0.08,0a1,1,0,0,1-.3-0.28l0,0a0.63,0.63,0,0,1-.17-0.18,2.13,2.13,0,0,1-.11-0.26l0-.09a1.93,1.93,0,0,1-.12-0.36,4.76,4.76,0,0,1-.1-1,3.79,3.79,0,0,1,.14-1,1.93,1.93,0,0,1,.19-0.48,1.15,1.15,0,0,1,.28-0.33,0.2,0.2,0,0,0,.06-0.08l0.1-.09,0.09,0,0.06,0a0.33,0.33,0,0,1,.31,0,0.38,0.38,0,0,1,.17.29v0.24a0.2,0.2,0,0,0,0,.06h0a0.77,0.77,0,0,1,0,.21h0a0.22,0.22,0,0,0,0,.07v0c0,0.13,0,.25-0.06.38l0,0.11a5.48,5.48,0,0,0,0,.93l0,0.18,0,0.16,0,0.16,0.06,0.26,0,0.09a1.07,1.07,0,0,1,0,.23v0.08a0.23,0.23,0,0,0,0,.07,1.31,1.31,0,0,1,0,.43,0.23,0.23,0,0,0,0,.08,0.39,0.39,0,0,1,0,.3A0.25,0.25,0,0,1,37.84,231.5ZM38.22,221l-0.06.07a3.43,3.43,0,0,1-.75.76l-0.24.15c-0.29.18-.58,0.37-0.87,0.57a11,11,0,0,0-1.85,1.57,8.36,8.36,0,0,0-1.9,8.26A9.11,9.11,0,0,0,34.94,236a11.29,11.29,0,0,0,1.26,1l0.45,0.32,1,0.73a3.86,3.86,0,0,0,.45.26,3.24,3.24,0,0,1,.42.25,0.36,0.36,0,0,1,.11.33,0.12,0.12,0,0,1-.12.1h0a5.47,5.47,0,0,1-2.68-.48,7.45,7.45,0,0,1-2.42-1.82A9.91,9.91,0,0,1,31.05,227a10.52,10.52,0,0,1,2.75-4.4,5.76,5.76,0,0,1,3.57-1.86,2.5,2.5,0,0,1,.87.15A0.07,0.07,0,0,1,38.22,221Z" transform="translate(-23.92 -190.36)"/><path class="cls-4" d="M128.65,239.07a6.24,6.24,0,0,0-3.83,2.27,13.19,13.19,0,0,0-1,1.46l-0.07.11,0,0-0.18.28-0.07.06a0.66,0.66,0,0,1-.5.32c-0.43,0-.9-0.87-1.25-1.47a5.82,5.82,0,0,0-.51-0.8,6.24,6.24,0,0,0-3.83-2.27,7.18,7.18,0,0,0-6.89,3.15,9.44,9.44,0,0,0-1,8,14.84,14.84,0,0,0,5.63,7.34,24.22,24.22,0,0,0,4.3,2.45c0.77,0.35,1.57.67,2.45,1l0.31,0.11c0.25,0.09.49,0.18,0.72,0.28l0.09,0,0.09,0c0.23-.1.48-0.19,0.73-0.28l0.3-.11c0.88-.33,1.68-0.66,2.45-1a24.17,24.17,0,0,0,4.3-2.45,14.84,14.84,0,0,0,5.63-7.34,9.44,9.44,0,0,0-1-8A7.18,7.18,0,0,0,128.65,239.07Z" transform="translate(-23.92 -190.36)"/><path class="cls-5" d="M25.39,214.6a16.79,16.79,0,0,0,2.08,3.53,12.2,12.2,0,0,0,1.74,2A13.78,13.78,0,0,0,27,222.94a14.1,14.1,0,0,0-1.84,9.31,15,15,0,0,0,.38,1.79,9.92,9.92,0,0,0,1.59.74c3.84,1.38,8.23,1,12.2.58,6.73-.72,13.8-1.57,19.31,3.08,2.82,2.38,5.28,5.22,8,7.76,1.74,1.65,5.86,6.64,8.44,4.89,1.3-.88,2.26-2.58,3.13-3.83,1.28-1.86,2.57-3.71,3.94-5.51a52.56,52.56,0,0,1,10.61-10.84c6.31-4.62,13.81-6.14,21.51-5.92,8.32,0.24,16.61,1.74,25,1.2,3.27-.21,7.25-0.47,9.78-2.82s3.81-6,5.43-9c1.22-2.23,2.45-4.51,3.78-6.74h-14l-21.14,0-21.14,0H81.31l-10.39,0c-1.46,0-2.93,0-4.41,0A19.48,19.48,0,0,0,65,204.79a33.8,33.8,0,0,0-5-6.13,29.13,29.13,0,0,0-14-7.83,18.31,18.31,0,0,0-14.9,2.88A17.17,17.17,0,0,0,25.39,214.6Z" transform="translate(-23.92 -190.36)"/><path class="cls-6" d="M216.88,220.13a12.19,12.19,0,0,0,1.74-2,16.79,16.79,0,0,0,2.08-3.53,17.87,17.87,0,0,0,1.37-5.15,18.77,18.77,0,0,1-7.14,4c-5.65,1.58-11.74.81-17.52,0.66s-12.69-.35-15.9,5.21c-2.9,5-2.06,11.39-4.06,16.75a20.15,20.15,0,0,1-11.15,11.74c-4.28,1.69-9,1.19-13.33,0-8.82-2.38-18.42-8.16-27.59-3.9-5.35,2.49-9.37,7.49-13.2,11.81-4.15,4.68-8.35,9.39-13.61,12.86a92.69,92.69,0,0,1-31.37,12.95l2,0h1.69l10.39,0h20.55l21.14,0,21.14,0h20.55l10.39,0c3.44,0,6.95.15,10.38-.17a1.07,1.07,0,0,0,.9-0.75,0.91,0.91,0,0,0,.1-0.32h0s0-.09,0-0.13a6.12,6.12,0,0,0,.13-1.53c0-2.27,0-4.62,0-6.92,0-2.6,0-5.2.06-7.79,0.58,0.11,1.16.2,1.75,0.27a27.1,27.1,0,0,0,6.27.1c6.53-.71,12.85-4.23,15.19-10.65a12.44,12.44,0,0,0,.23-8l0.38-.07a8,8,0,0,0,2.42-1,14.29,14.29,0,0,0,3.89-3.38,18.34,18.34,0,0,0,4.14-8.85,14.1,14.1,0,0,0-1.84-9.31A13.78,13.78,0,0,0,216.88,220.13Z" transform="translate(-23.92 -190.36)"/><path class="cls-7" d="M219.18,230.22a0.57,0.57,0,0,0-.68-0.39c0.06-.41.12-0.81,0.16-1.22a17.36,17.36,0,0,0,0-3.51,9.38,9.38,0,0,0-1.09-3.46,0.4,0.4,0,0,0-.73.2c0,0.92,0,1.83.07,2.74a27.24,27.24,0,0,1,.11,2.79,16.44,16.44,0,0,1-1,5.42,13.64,13.64,0,0,1-5.79,6.91,13.33,13.33,0,0,1-2.27,1.05,2.6,2.6,0,0,1-2.29.06,0.28,0.28,0,0,0-.38.38,2.62,2.62,0,0,0,3.07,1.07,1,1,0,0,0,.08.12l-0.13.1a1,1,0,0,0,0,1.57h0a0.69,0.69,0,0,0-.42.43,21.65,21.65,0,0,0-.44,3,13.41,13.41,0,0,1-4.17,7.85c-2.79,2.6-7.34,4.26-11,2.46a6.8,6.8,0,0,1-3.47-4.93,46,46,0,0,1-.67-7.4c-0.32-5.75-.73-11.48-0.86-17.24-0.15-6.47-.06-13-0.38-19.44a0.35,0.35,0,0,0-.69,0c-0.47,6.11-.38,12.28-0.3,18.4s0,12.26.28,18.39a49.21,49.21,0,0,0,.51,7.15,0.67,0.67,0,0,0-.52.46,11.05,11.05,0,0,0-.1,3.35c0,1.14.06,2.28,0.06,3.41a1,1,0,0,0,.63.92,8.69,8.69,0,0,0,.39,1.07,1.07,1.07,0,0,0,1.4.42,2.25,2.25,0,0,0,1.25,0l0.22-.08a5.14,5.14,0,0,0,2.61.31,40.46,40.46,0,0,0,6.68-1.17,18.42,18.42,0,0,0,3.57-1.35,6.62,6.62,0,0,0,2.73-2.6,0.56,0.56,0,0,0-.75-0.75l-0.09,0a15.43,15.43,0,0,0,3.53-5,15,15,0,0,0,1.09-3.56,12.53,12.53,0,0,0,.21-1.91,4.21,4.21,0,0,0-.48-2,0.59,0.59,0,0,0-.09-0.13,4.64,4.64,0,0,0,1.57-.63,14.06,14.06,0,0,0,1.74-1.11c0.27-.21.52-0.43,0.78-0.64a2.62,2.62,0,0,0,.41-0.39,0.51,0.51,0,0,0,.11-0.17l0.07-.07,0.08-.07a6.77,6.77,0,0,0,.67-0.7c0.15-.19.29-0.39,0.43-0.59a14.84,14.84,0,0,0,1.54-1.62,15.67,15.67,0,0,0,2.25-3.65,8.91,8.91,0,0,0,.71-2.09,4.84,4.84,0,0,0,.09-1.11A5.89,5.89,0,0,0,219.18,230.22Z" transform="translate(-23.92 -190.36)"/><path class="cls-7" d="M220.34,201.13c-0.16-.45-0.44-0.83-0.63-1.26a0.47,0.47,0,0,0-.87.23c0.05,0.45,0,.87,0,1.32s0,0.84,0,1.25a23.92,23.92,0,0,1,0,2.62,15.26,15.26,0,0,1-1.15,4.76,14.45,14.45,0,0,1-2.64,4.23,8.16,8.16,0,0,1-1.95,1.6,5.32,5.32,0,0,1-1.1.47,4.36,4.36,0,0,0-1.33.43,0.68,0.68,0,0,0,0,1.16,2.53,2.53,0,0,0,2.24,0h0a1.11,1.11,0,0,0,.11.84l0.17,0.22a1.09,1.09,0,0,0,.48.28,1.45,1.45,0,0,0,.42.08h0.16a2.13,2.13,0,0,0,.79-0.22,2.38,2.38,0,0,0,.85-0.79,2.68,2.68,0,0,0,.4-0.83l0.09-.34s0-.09,0-0.14a10.05,10.05,0,0,0,1.69-1.76,9.09,9.09,0,0,0,.68-1,6.05,6.05,0,0,0,.55-1.19s0-.31.06-0.38l0.06-.24c0-.19.08-0.38,0.11-0.58a5.63,5.63,0,0,0,.17-1.28,0.52,0.52,0,0,0-.1-0.26,17.6,17.6,0,0,0,1.1-4.89,12.88,12.88,0,0,0-.09-3A7.64,7.64,0,0,0,220.34,201.13Z" transform="translate(-23.92 -190.36)"/><path class="cls-7" d="M59.84,259.83a1.1,1.1,0,0,0-.17-0.2,2.63,2.63,0,0,1-.4-0.86,8.15,8.15,0,0,0-.14-1.5,0.82,0.82,0,0,0,0-.08,11.28,11.28,0,0,0,1.67-3,1.1,1.1,0,0,0-1.83-1.06,14.14,14.14,0,0,1-9.43,5.58A11.37,11.37,0,0,1,39.93,255a10.35,10.35,0,0,1-2.64-5.32c-0.05-.47-0.78-0.5-0.76,0a10.38,10.38,0,0,0,1.64,5.55,12.74,12.74,0,0,0,4.39,4.11,12.17,12.17,0,0,0,5.26,1.47,1,1,0,0,0,.74.85,15.29,15.29,0,0,0,6.72,0,2.26,2.26,0,0,0,2.05.67,2,2,0,0,0,1.11-.69A1.25,1.25,0,0,0,59.93,260Z" transform="translate(-23.92 -190.36)"/><path class="cls-7" d="M37.93,243.73a1.94,1.94,0,0,0,.7-0.5,0.44,0.44,0,0,0,.12-0.32,4.55,4.55,0,0,0,1,0c0.67-.12,1.39-0.76.85-1.42s-1.46-.53-2.18-0.66a12.33,12.33,0,0,1-7.66-5.19,18.36,18.36,0,0,1-2.52-5,16.35,16.35,0,0,1-.6-2.68,25.56,25.56,0,0,0-.39-2.84,0.34,0.34,0,0,0-.66,0,6.56,6.56,0,0,0-.38,2.47,17.05,17.05,0,0,0,.24,2.47A16.73,16.73,0,0,0,28,234.78a16.18,16.18,0,0,0,3.34,4.51c0.17,0.32.37,0.62,0.58,0.92A9.63,9.63,0,0,0,33.45,242C34.51,243,36.45,244.56,37.93,243.73Z" transform="translate(-23.92 -190.36)"/><path class="cls-7" d="M29.63,217.85a3,3,0,0,0,1.45.88,2,2,0,0,0,1.48,0,0.51,0.51,0,0,0,.13-0.12A2.46,2.46,0,0,0,34,219a0.89,0.89,0,0,0,.76-1.33A8,8,0,0,0,33,216.19a14,14,0,0,1-1.56-1.62,27.75,27.75,0,0,1-2.68-4,11.7,11.7,0,0,1-1.55-4.7,17.8,17.8,0,0,1-.07-2.52,11.59,11.59,0,0,0,0-2.58,0.32,0.32,0,0,0-.58-0.08,6.24,6.24,0,0,0-.79,2.68,15.56,15.56,0,0,0-.15,2.7,13.63,13.63,0,0,0,.74,4,0.63,0.63,0,0,0-.27.14c-0.47.42-.06,1.23,0.12,1.69a33.93,33.93,0,0,0,1.64,3.4A10.82,10.82,0,0,0,29.63,217.85Z" transform="translate(-23.92 -190.36)"/><path class="cls-7" d="M165.44,226.07q-9.05,7.32-18.28,14.41L142,244.44c-0.9.69-1.82,1.36-2.71,2.07s-1.81,1.3-2,2.37a0.51,0.51,0,0,0,.48.63,2.15,2.15,0,0,0,.39,0c0,0.33-.08.66-0.15,1a11.36,11.36,0,0,1-.84,2.64,14.29,14.29,0,0,1-3.6,4.71A21,21,0,0,1,128.6,261a18.14,18.14,0,0,1-2.76,1.07c-1,.28-2,0.29-3,0.53a0.53,0.53,0,0,0-.23.88c1.23,1.43,3.58.71,5.09,0.15a26.63,26.63,0,0,0,4.75-2.29,17.13,17.13,0,0,0,6.94-7.85,12.59,12.59,0,0,0,.82-2.85,7.29,7.29,0,0,0,.13-1.53,2.12,2.12,0,0,0-.14-0.61h0c0.8-.54,1.57-1.13,2.35-1.7q2.38-1.75,4.74-3.54,4.66-3.54,9.26-7.14,9.2-7.19,18.18-14.66,2.49-2.07,5-4.16c1.7-1.43,3.49-2.82,5.08-4.37,0.89-.86-0.32-2.54-1.36-1.76-1.56,1.17-3,2.5-4.51,3.76l-4.54,3.8Q170,222.42,165.44,226.07Z" transform="translate(-23.92 -190.36)"/><path class="cls-7" d="M95.76,244.3c-3,2.85-6.07,5.66-9.08,8.51-1.68,1.59-3.38,3.17-5,4.8s-3.33,3.32-5.06,4.91c-0.3.27,0.13,0.68,0.43,0.43,3.24-2.62,6.6-5.09,9.77-7.81s6.23-5.48,9.28-8.31l2.21-2.07,1.06-1c0.14-.13.28-0.27,0.42-0.41l2.73,2.24,2.15,1.76a9,9,0,0,0,2.26,1.58,0.84,0.84,0,0,0,.94-1.22,7.32,7.32,0,0,0-1.63-1.59l-2-1.62-3.75-3.08-7.33-6c-4.94-4-10-8-15.06-11.84-2.87-2.19-5.56-4.62-8.55-6.65a0.3,0.3,0,0,0-.36.47c2.3,2.26,4.86,4.27,7.33,6.34s4.74,4.17,7.14,6.21c4.8,4.09,9.64,8.1,14.51,12.1l-0.2.18Z" transform="translate(-23.92 -190.36)"/><path class="cls-7" d="M185.28,223.17c0-.49,0-1,0-1.47,0-1.88-.06-3.76-0.15-5.64a0.29,0.29,0,0,0-.57,0v0a0.3,0.3,0,0,0-.06.17c-0.3,5.89-.55,11.8-0.69,17.7-0.12,2.23-.23,4.47-0.3,6.71-0.26,8.19-.52,16.39-0.86,24.58q-0.15,3.6-.33,7.19l-0.21-.17-3-2.52q-3-2.53-6.06-5.07c-4-3.37-8-6.76-12-10.14-2.25-1.9-4.55-3.71-6.89-5.5-0.28-.21-0.59.23-0.37,0.47,3.62,3.83,7.5,7.37,11.44,10.87s7.9,6.86,11.93,10.2l3.4,2.81c0.56,0.46,1.12,1,1.69,1.42L182,277.53q-23.42-.34-46.84-0.39-23.68-.06-47.36.16-6.68.06-13.36,0.16c-2.19,0-4.37.05-6.56,0.1a62.45,62.45,0,0,0-6.8.34,0.84,0.84,0,0,0,0,1.68,57,57,0,0,0,6.07.14l5.83-.06,11.9-.12q11.9-.11,23.8-0.14,23.68-.07,47.36.16,13.15,0.14,26.3.36a1.08,1.08,0,0,0,1.58-.58,1,1,0,0,0,1.4-.54,42.32,42.32,0,0,0,.16-6.13l0-6.11q0-6.06.07-12.11t0-12.23c0-4.07.09-8.17-.16-12.23C185.32,227.72,185.36,225.44,185.28,223.17Z" transform="translate(-23.92 -190.36)"/><path class="cls-7" d="M129.94,255.69a16.35,16.35,0,0,1-6.8,3.73,9.27,9.27,0,0,1-4.29-.07c-0.75-.19-1.48-0.46-2.21-0.72-0.4-.14-0.81-0.26-1.19-0.43s-0.8-.25-1.17-0.43a0.36,0.36,0,0,0-.36.62c0.35,0.24.62,0.54,1,.77s0.56,0.4.84,0.6a11.82,11.82,0,0,0,2.17,1.16,9.69,9.69,0,0,0,4.5.74,15.83,15.83,0,0,0,8.17-3.62,17.12,17.12,0,0,0,5.68-6.7,12.62,12.62,0,0,0,.61-7.34,12.77,12.77,0,0,0-1.49-3.87,5.16,5.16,0,0,0-1.44-1.73c-0.54-.35-1.18-0.61-1.75-0.94a0.43,0.43,0,0,0-.52.68,3.38,3.38,0,0,1,.72,1.27,7.74,7.74,0,0,0,.89,1.58,10.65,10.65,0,0,1,1.2,2.76,10.77,10.77,0,0,1-.1,6.17A13.28,13.28,0,0,1,129.94,255.69Z" transform="translate(-23.92 -190.36)"/><path class="cls-8" d="M215.3,196.7a20,20,0,0,0-3.81-2,0.47,0.47,0,0,0,0-.78c-8.26-4.79-18,.84-24,6.72a21.63,21.63,0,0,0-3.09,3.61,8.4,8.4,0,0,0-2,3.72,0.63,0.63,0,0,0,1,.61c1.05-1.06,1.82-2.37,2.81-3.49a44.41,44.41,0,0,1,3.24-3.24,26,26,0,0,1,7.37-5.08,18.35,18.35,0,0,1,16.54,1.21,19.57,19.57,0,0,1,3.44,2.69c0.55,0.54,1.07,1.12,1.58,1.69a9.21,9.21,0,0,0,1.62,1.57,0.59,0.59,0,0,0,.88-0.5,7.62,7.62,0,0,0-2.24-3.83A19.53,19.53,0,0,0,215.3,196.7Z" transform="translate(-23.92 -190.36)"/><path class="cls-8" d="M219,225a0.36,0.36,0,0,0,.07-0.37c-1-2.81-3.77-4.75-6.44-5.81a13.66,13.66,0,0,0-4.81-.93,8.65,8.65,0,0,0-4.34.79,1.57,1.57,0,0,0-.81.68,0.4,0.4,0,0,0,.06.47,3.89,3.89,0,0,0,2.47.35,22.74,22.74,0,0,1,2.62.05,13.48,13.48,0,0,1,4.89,1.43,12.08,12.08,0,0,1,3.53,2.77,19.76,19.76,0,0,1,2.6,3.75,0.52,0.52,0,0,0,1-.26,8.2,8.2,0,0,0-.6-2.53C219.13,225.27,219.06,225.14,219,225Z" transform="translate(-23.92 -190.36)"/><path class="cls-8" d="M207.65,245.69a11.18,11.18,0,0,0-1.9-2.54,4.42,4.42,0,0,0-2.69-1.61,0.42,0.42,0,0,0-.36.63,13.78,13.78,0,0,0,2,2,10.89,10.89,0,0,1,1.66,2.26,11.85,11.85,0,0,1,1,2.61c0.13,0.47.24,0.94,0.34,1.41s0.12,0.94.21,1.41a0.42,0.42,0,0,0,.8,0,7,7,0,0,0,0-3.2A10.48,10.48,0,0,0,207.65,245.69Z" transform="translate(-23.92 -190.36)"/><path class="cls-8" d="M61.65,207.84a4.15,4.15,0,0,0,.45.61,5.07,5.07,0,0,1,.44.33,0.59,0.59,0,0,0,.88.08,1,1,0,0,0,.89-1.39,8.13,8.13,0,0,0-1.61-1.94L62,204.8c-0.3-.47-0.62-0.94-0.95-1.4a32.49,32.49,0,0,0-3.54-4.14c-2.52-2.48-5.69-5-9.22-5.72-0.3-.06-0.62.34-0.33,0.57l0.66,0.5-0.25-.11a20.49,20.49,0,0,0-9.86-1.72,15.56,15.56,0,0,0-8,3.13,13.56,13.56,0,0,0-3.13,3.46,8.31,8.31,0,0,0-1,2.07,6.94,6.94,0,0,0-.29,1.09c0,0.36,0,.74,0,1.11a0.35,0.35,0,0,0,.69.09c0.12-.32.32-0.59,0.47-0.9s0.24-.59.4-0.88c0.31-.56.63-1.13,1-1.66a11.76,11.76,0,0,1,2.57-2.66,13.39,13.39,0,0,1,6.87-2.77c6.32-.63,12.22,2.36,16.95,6.31,1.37,1.15,2.68,2.37,3.95,3.64q1,1,2,2L61.19,207C61.34,207.31,61.48,207.59,61.65,207.84Z" transform="translate(-23.92 -190.36)"/><path class="cls-8" d="M42.08,219.82a0.47,0.47,0,0,0,0-.66,3.49,3.49,0,0,0-2.71-.4,21.11,21.11,0,0,0-3,.53,15.1,15.1,0,0,0-5.15,2.35c-2.55,1.88-5.43,5.44-4.4,8.85a0.29,0.29,0,0,0,.55,0,24.27,24.27,0,0,1,1.86-4.32,10.81,10.81,0,0,1,3.15-3.24,14.46,14.46,0,0,1,4.64-2,19.34,19.34,0,0,1,2.51-.44A4.24,4.24,0,0,0,42.08,219.82Z" transform="translate(-23.92 -190.36)"/><path class="cls-8" d="M43.55,241.26a3.09,3.09,0,0,0-2.13.53,7.18,7.18,0,0,0-1.71,1.52,9.17,9.17,0,0,0-1.88,4.29,8.11,8.11,0,0,0-.33,3.17,18.31,18.31,0,0,0,1.62,5.5,9.24,9.24,0,0,0,3,3.89,0.32,0.32,0,0,0,.39-0.51,7.69,7.69,0,0,1-1.71-2.45,0.25,0.25,0,0,0,0-.13c-0.15-.38-0.31-0.76-0.47-1.13l-0.05-.16c-0.23-.75-0.39-1.51-0.55-2.28a26.77,26.77,0,0,1-.52-2.63A7.81,7.81,0,0,1,40.31,246a11.09,11.09,0,0,1,1.35-1.87c0.25-.28.53-0.53,0.78-0.81a10.29,10.29,0,0,0,.64-0.82c0.23-.16.44-0.36,0.68-0.51A0.41,0.41,0,0,0,43.55,241.26Z" transform="translate(-23.92 -190.36)"/><path class="cls-8" d="M102.69,242.71a5.34,5.34,0,0,0-2.26,1.35c-0.68.59-1.33,1.22-2,1.82l-3.86,3.47q-3.86,3.47-7.77,6.89Q78.91,263.17,70.91,270l-4.47,3.81c-0.77.66-1.54,1.33-2.29,2l-0.51.46a14.61,14.61,0,0,0,.08-2q0-1.62,0-3.23c0-2.19,0-4.39-.06-6.58l-0.13-13q-0.13-13-.27-26c0-2.42-.05-4.85-0.1-7.27,0-1.23,0-2.46-.07-3.69a12.38,12.38,0,0,0-.5-3.6,0.52,0.52,0,0,0-1,0c-0.64,2-.43,4.28-0.43,6.37s0,4.39,0,6.58l0.13,13,0.27,26c0,2.42,0,4.85.08,7.27q0,1.85.05,3.69a10.94,10.94,0,0,0,.42,3.64,0.68,0.68,0,0,0,.33.38c0,0.07-.06.14-0.08,0.21a0.54,0.54,0,0,0,.65.65,4.82,4.82,0,0,0,2.26-1.25c0.72-.56,1.43-1.15,2.13-1.73,1.34-1.1,2.65-2.23,4-3.35q4-3.36,7.91-6.74,8-6.84,15.81-13.81,2.19-2,4.35-3.93l2.25-2.06a5.58,5.58,0,0,0,1.73-2.36A0.61,0.61,0,0,0,102.69,242.71Z" transform="translate(-23.92 -190.36)"/><path class="cls-8" d="M179.61,274.16c-1.23-1.1-2.46-2.22-3.7-3.31-2.52-2.21-5-4.44-7.51-6.67Q161,257.57,153.56,251c-1.39-1.23-2.79-2.43-4.21-3.62a28,28,0,0,0-4.56-3.36,0.28,0.28,0,0,0-.38.38,28.58,28.58,0,0,0,3.31,3.63c1.19,1.2,2.44,2.35,3.69,3.48q3.69,3.32,7.38,6.64c5,4.46,10,8.88,15,13.38,1.37,1.24,2.75,2.47,4.13,3.69L180,277a6.5,6.5,0,0,0,2.43,1.52,0.52,0.52,0,0,0,.58-0.75C182.35,276.29,180.8,275.23,179.61,274.16Z" transform="translate(-23.92 -190.36)"/><path class="cls-8" d="M133.22,239.2A10.15,10.15,0,0,0,122.28,243l-0.35-.3h0.15a0.44,0.44,0,0,0,.26-0.63,11.45,11.45,0,0,0-.55-0.75,0.57,0.57,0,0,0,.37-0.81,3.31,3.31,0,0,0-1.2-1.28,7.47,7.47,0,0,0-1.59-.69,8.28,8.28,0,0,0-3.46-.34c-2.13.25-4.39,1.33-5.3,3.37a0.28,0.28,0,0,0,.31.41,9.27,9.27,0,0,0-1.65,8.88,19,19,0,0,0,3.83,6.26,0.29,0.29,0,0,0,.46-0.35c-0.49-.82-1-1.65-1.42-2.5a17.12,17.12,0,0,1-1.06-2.7,9.82,9.82,0,0,1-.5-5.14c0.64-2.85,3.14-5.49,6.27-4.66,1.95,0.52,3.52,2,5,3.32a1,1,0,0,0,1.47-.19,8.55,8.55,0,0,1,5.76-4,8.25,8.25,0,0,1,3.66.19c1.29,0.35,2.39,1.12,3.67,1.52a0.65,0.65,0,0,0,.72-0.94A5.9,5.9,0,0,0,133.22,239.2Z" transform="translate(-23.92 -190.36)"/><path class="cls-8" d="M184.1,209.78c-0.47-.08-0.95-0.19-1.42-0.22s-1,0-1.44,0l-3.13,0c-2,0-3.93.06-5.9,0.09l-11.92.17q-11.8.14-23.59,0.17-23.59.06-47.18-.32-6.62-.11-13.24-0.25l-6.5-.11a39.67,39.67,0,0,0-6.19.16l-0.5-.28a0.48,0.48,0,0,0-.58.76l0.11,0.12a0.69,0.69,0,0,0,.48.8L63.43,211a73,73,0,0,0,6.64,5.58q3.89,3.1,7.76,6.22c5.19,4.18,10.28,8.51,15.55,12.58q4.4,3.4,8.9,6.68a0.38,0.38,0,0,0,.46-0.59C93,232.28,82.51,224.08,72.1,215.79c-1.86-1.48-3.7-3.06-5.65-4.46,0.86,0.05,1.73.08,2.61,0.1l5.9,0.17c4,0.11,7.94.17,11.91,0.24q11.79,0.21,23.59.31,23.59,0.19,47.19-.06,6.62-.07,13.24-0.18c2.17,0,4.33-.06,6.5-0.12l2.18,0c-0.24.14-.47,0.3-0.69,0.46l-2.2,1.59-4.21,3.07q-4.29,3.14-8.55,6.33-8.44,6.3-16.72,12.8-2.31,1.82-4.6,3.66a19.38,19.38,0,0,0-4.28,4.09,0.3,0.3,0,0,0,.34.44,17.63,17.63,0,0,0,4.43-2.79l4.13-3.16,8.27-6.32q8.37-6.38,16.84-12.62l4.75-3.48,2.47-1.8a12.65,12.65,0,0,0,1.17-.9,10.63,10.63,0,0,0,1-1.26,0.44,0.44,0,0,0,.09-0.2,18,18,0,0,0,2.35-.3A0.83,0.83,0,0,0,184.1,209.78Z" transform="translate(-23.92 -190.36)"/><path class="cls-9" d="M218.61,218.13a16.79,16.79,0,0,0,2.08-3.53,17.17,17.17,0,0,0-5.68-20.9,18.31,18.31,0,0,0-14.9-2.88,29.13,29.13,0,0,0-14,7.83,33.8,33.8,0,0,0-5,6.13,19.48,19.48,0,0,0-1.56,2.84c-1.51,0-3,0-4.51,0l-10.39,0H144.13l-21.14,0-21.14,0H81.31l-10.39,0c-1.46,0-2.93,0-4.41,0A19.48,19.48,0,0,0,65,204.79a33.8,33.8,0,0,0-5-6.13,29.13,29.13,0,0,0-14-7.83,18.31,18.31,0,0,0-14.9,2.88,17.17,17.17,0,0,0-5.68,20.9,16.79,16.79,0,0,0,2.08,3.53,12.2,12.2,0,0,0,1.74,2A13.78,13.78,0,0,0,27,222.94a14.1,14.1,0,0,0-1.84,9.31,18.34,18.34,0,0,0,4.14,8.85,14.3,14.3,0,0,0,3.89,3.38,8,8,0,0,0,2.42,1L36,245.53a12.44,12.44,0,0,0,.23,8c2.34,6.42,8.66,9.94,15.19,10.65a27.1,27.1,0,0,0,6.27-.1c0.56-.07,1.11-0.15,1.66-0.25,0,2.59,0,5.18.06,7.77,0,2.82.13,5.64,0.13,8.45a1.3,1.3,0,0,0,1,1.47,1.58,1.58,0,0,0,.34,0c0.93,0,1.86,0,2.8,0,1.88,0,3.76-.07,5.64-0.08h1.69l10.39,0h20.55l21.14,0,21.14,0h20.55l10.39,0c3.44,0,6.95.15,10.38-.17a1.07,1.07,0,0,0,.9-0.75,0.91,0.91,0,0,0,.1-0.32h0s0-.09,0-0.13a6.12,6.12,0,0,0,.13-1.53c0-2.27,0-4.62,0-6.92,0-2.6,0-5.2.06-7.79,0.58,0.11,1.16.2,1.75,0.27a27.1,27.1,0,0,0,6.27.1c6.53-.71,12.85-4.23,15.19-10.65a12.44,12.44,0,0,0,.23-8l0.38-.07a8,8,0,0,0,2.42-1,14.29,14.29,0,0,0,3.89-3.38,18.34,18.34,0,0,0,4.14-8.85,14.1,14.1,0,0,0-1.84-9.31,13.78,13.78,0,0,0-2.24-2.81A12.19,12.19,0,0,0,218.61,218.13Zm-146.49-8H83.47c2.23,0.12,4.46.14,6.7,0.13l10.39,0,20.55-.05h3.76l20.55,0.05,10.39,0c2.25,0,4.47,0,6.7-.13h11.35c3.16,0,6.37.12,9.54,0-0.37.25-.73,0.51-1.1,0.79q-1.55,1.17-3.08,2.36L173.1,218q-6.13,4.74-12.26,9.48-10.93,8.42-21.94,16.73a10.2,10.2,0,0,0-2.9-5,9,9,0,0,0-9.28-1.87,8.43,8.43,0,0,0-3.72,3.09,8.42,8.42,0,0,0-3.73-3.09,9,9,0,0,0-9.28,1.87,10.2,10.2,0,0,0-2.9,5q-11-8.33-21.94-16.73Q79,222.75,72.88,218l-6.13-4.75q-1.53-1.19-3.08-2.36c-0.36-.27-0.73-0.54-1.1-0.79C65.75,210.25,69,210.13,72.12,210.13Zm64.16,40.05a14.65,14.65,0,0,1-5.54,7.22,24.11,24.11,0,0,1-4.26,2.43c-0.8.36-1.61,0.69-2.44,1-0.36.13-.71,0.25-1,0.4-0.33-.15-0.68-0.26-1-0.4-0.82-.31-1.64-0.64-2.44-1a24.11,24.11,0,0,1-4.26-2.43,14.65,14.65,0,0,1-5.54-7.22,9.28,9.28,0,0,1,.93-7.84,7,7,0,0,1,6.66-3,6.05,6.05,0,0,1,3.69,2.19c0.59,0.7,1.5,3.36,2.61,1.95h0l0.22-.35,0,0,0.07-.12a13,13,0,0,1,1-1.43,6.05,6.05,0,0,1,3.69-2.19,7,7,0,0,1,6.66,3A9.28,9.28,0,0,1,136.28,250.18ZM60.54,207.83a1.13,1.13,0,0,0-1,1.07H59.5c0,0.39,0,.79,0,1.18q-0.05,2.16-.08,4.33-0.06,4.33-.11,8.65c-0.11,10.29-.09,20.58,0,30.87q0,0.41,0,.81l-0.13.07a8.16,8.16,0,0,0-1.33.75A8,8,0,0,1,57,256L57,256l-0.33.14-0.08,0-0.12,0c-0.55.21-1,.34-1.53,0.51a5.3,5.3,0,0,0-1.5.51,0.28,0.28,0,0,0-.06.43,2.74,2.74,0,0,0,1.65.56A6.08,6.08,0,0,0,57,258a7.38,7.38,0,0,0,1.78-.71l0.51-.3c0,1.37,0,2.74,0,4.11a43.7,43.7,0,0,1-5.92.45,18.83,18.83,0,0,1-8.31-2A13.17,13.17,0,0,1,39.37,254a10.5,10.5,0,0,1-.91-7.46,6.62,6.62,0,0,1,2.17-3.44,4.56,4.56,0,0,1,1.61-.83c0.57-.16,1.9-0.42,1.56-1.32-0.6-1.59-3.15-.75-4.2-0.14A8,8,0,0,0,37,243.38l-0.28-.12a18.61,18.61,0,0,1-1.85-1A13,13,0,0,1,32,239.92a16.34,16.34,0,0,1-3.86-7.16A11.21,11.21,0,0,1,34.33,220a16,16,0,0,1,4.09-1.08,15.93,15.93,0,0,1,2.22-.2c0.79,0,1.54.16,2.33,0.17a0.58,0.58,0,0,0,.29-1.08,7.07,7.07,0,0,0-2-.88,12.07,12.07,0,0,0-2.44-.48,10.38,10.38,0,0,0-4.71.61,14.05,14.05,0,0,0-2.86,1.45c-0.07-.09-0.17-0.17-0.23-0.25l-0.53-.59a12.88,12.88,0,0,1-1-1.31,15.65,15.65,0,0,1-1.52-2.74,15.48,15.48,0,0,1-1.26-6.45,14.69,14.69,0,0,1,5.41-10.82,15.24,15.24,0,0,1,12.35-3.08,25.69,25.69,0,0,1,12.67,6.4,31.91,31.91,0,0,1,5.13,5.85c0.47,0.7.92,1.41,1.37,2.12C62.56,207.68,61.55,207.73,60.54,207.83Zm1.29,59.71q-0.16-15.49-.2-31c0-5.17,0-10.33,0-15.5q0-3.87,0-7.75c0-.44,0-0.87,0-1.31,0.4,0.35.82,0.68,1.23,1q1.68,1.36,3.37,2.71L73,221.1c8.08,6.37,16.24,12.65,24.41,18.9l2.62,2c-3,2.48-5.93,5-8.87,7.51q-8.1,6.93-16.07,14-4,3.54-7.95,7.1-1.94,1.75-3.86,3.51l-1.39,1.29C61.9,272.79,61.85,270.16,61.83,267.54ZM184,279H183.7c-0.72,0-1.45,0-2.17,0-2.56,0-5.12,0-7.66,0H162.51c-2.23-.12-4.46-0.14-6.7-0.13l-10.39,0-20.55.05h-3.76l-20.55-.05-10.39,0c-2.25,0-4.47,0-6.7.13H72.12c-2.89,0-5.82-.09-8.73,0-0.36,0-.73,0-1.09,0H62v-0.51c1.28-.92,2.43-2.05,3.6-3.09,1.47-1.3,2.93-2.62,4.39-3.93,10.58-9.47,21.34-18.72,32.12-27.95l4.63,3.51a12.56,12.56,0,0,0,.08,1.67,15.43,15.43,0,0,0,5.23,9.36,23.52,23.52,0,0,0,5.32,3.55c0.93,0.47,1.89.89,2.87,1.27a7.66,7.66,0,0,0,2.78.83,7.66,7.66,0,0,0,2.78-.83c1-.38,1.93-0.8,2.87-1.27a23.52,23.52,0,0,0,5.32-3.55,15.43,15.43,0,0,0,5.23-9.36,12.57,12.57,0,0,0,.08-1.67l4.63-3.51c10.78,9.23,21.54,18.48,32.12,27.95,1.46,1.31,2.92,2.63,4.39,3.93,1.17,1,2.32,2.17,3.6,3.09Q184,278.73,184,279Zm0.15-11.41c0,2.62-.07,5.25-0.1,7.87l-1.39-1.29q-1.91-1.77-3.86-3.51-4-3.57-7.95-7.1-8-7.07-16.07-14c-2.94-2.52-5.89-5-8.87-7.51l2.62-2c8.17-6.26,16.33-12.53,24.41-18.9l6.79-5.37q1.7-1.35,3.37-2.71c0.41-.34.83-0.67,1.23-1,0,0.44,0,.87,0,1.31q0,3.87,0,7.75c0,5.17,0,10.33,0,15.5Q184.34,252,184.16,267.54Zm19-48.64c0.78,0,1.54-.18,2.33-0.17a19.15,19.15,0,0,1,6.31,1.28A11.21,11.21,0,0,1,218,232.76a16.34,16.34,0,0,1-3.86,7.16,13,13,0,0,1-2.87,2.37,18.64,18.64,0,0,1-1.85,1l-0.28.12a8,8,0,0,0-2.64-2.56c-1-.61-3.59-1.45-4.2.14-0.34.9,1,1.16,1.56,1.32a4.56,4.56,0,0,1,1.61.83,6.62,6.62,0,0,1,2.17,3.44,10.5,10.5,0,0,1-.91,7.46,13.17,13.17,0,0,1-5.68,5.54,18.83,18.83,0,0,1-8.31,2,44.87,44.87,0,0,1-6-.46c0-1.49,0-3,0-4.48q0-1.35,0-2.7c0-10.29.06-20.58,0-30.87q0-4.33-.11-8.65,0-2.16-.08-4.33c0-.39,0-0.79,0-1.18h-0.06a1.13,1.13,0,0,0-1-1.07c-1-.09-2-0.14-2.94-0.17,0.44-.72.9-1.43,1.37-2.12a31.92,31.92,0,0,1,5.13-5.85,25.69,25.69,0,0,1,12.67-6.4A15.24,15.24,0,0,1,214,196.37a14.69,14.69,0,0,1,5.41,10.82,15.48,15.48,0,0,1-1.26,6.45,15.63,15.63,0,0,1-1.52,2.74,12.85,12.85,0,0,1-1,1.31l-0.53.59c-0.06.07-.17,0.16-0.24,0.25a14.05,14.05,0,0,0-2.86-1.45,10.38,10.38,0,0,0-4.71-.61,12.07,12.07,0,0,0-2.44.48,7.07,7.07,0,0,0-2,.88A0.58,0.58,0,0,0,203.11,218.9Z" transform="translate(-23.92 -190.36)"/><path class="cls-9" d="M90,257A28,28,0,0,0,87.29,259c-0.88.75-1.74,1.51-2.6,2.28-1.67,1.48-3.34,2.95-5,4.44q-5,4.55-10.13,9.06a1.07,1.07,0,0,0,.75,1.8q4.91-.12,9.82-0.29a69.62,69.62,0,0,0,9.74-.88c0.69-.12.44-1.06-0.15-1.13A69.12,69.12,0,0,0,80,274l-6.89.27q3.9-3.63,7.8-7.24c1.64-1.51,3.25-3,4.88-4.56,0.81-.76,1.63-1.52,2.42-2.29a29.22,29.22,0,0,0,2.25-2.63C90.7,257.31,90.4,256.8,90,257Z" transform="translate(-23.92 -190.36)"/><path class="cls-9" d="M99.8,274.68a4.51,4.51,0,0,0-1-.12c-0.29,0-.54-0.1-0.83-0.12-0.63-.06-1.23-0.13-1.87-0.12s-1.2,0-1.8,0a6,6,0,0,0-1,.11,2.53,2.53,0,0,0-.83.41,0.45,0.45,0,0,0-.09.7,2.87,2.87,0,0,0,.38.3,2.65,2.65,0,0,0,.41.19,4.56,4.56,0,0,0,1,.18,14.17,14.17,0,0,0,1.87,0,13.66,13.66,0,0,0,2-.25c0.32-.06.6-0.17,0.92-0.23a3.89,3.89,0,0,0,.9-0.26A0.49,0.49,0,0,0,99.8,274.68Z" transform="translate(-23.92 -190.36)"/><path class="cls-9" d="M92.82,255.35a2.45,2.45,0,0,0,.6-0.46l0.24-.22,0,0h0a1.22,1.22,0,0,0,.24-0.16c0.37-.31.73-0.66,1.08-1l1-1,0.48-.5a2.18,2.18,0,0,0,.46-0.61l0.15-.19a3.12,3.12,0,0,1,.17-0.32,0.31,0.31,0,0,0-.38-0.49,2.39,2.39,0,0,1-.34.11,1.87,1.87,0,0,0-.26.14,1.81,1.81,0,0,0-.57.31c-0.22.16-.44,0.34-0.65,0.51a13.6,13.6,0,0,0-1.12,1,11.46,11.46,0,0,0-1,1.16c-0.09.12-.13,0.25-0.2,0.35l-0.21.3a2.21,2.21,0,0,0-.37.69A0.41,0.41,0,0,0,92.82,255.35Z" transform="translate(-23.92 -190.36)"/><path class="cls-9" d="M65.63,269.62c2.18-3,4.83-5.54,7.09-8.43,0.32-.41-0.09-1.15-0.62-0.8a27.63,27.63,0,0,0-6.32,6.2q0.07-4.44.14-8.87c0.06-3.75.3-7.61-.32-11.32a0.32,0.32,0,0,0-.61,0c-0.76,3.69-.65,7.56-0.73,11.32s-0.16,7.64-.23,11.46A0.86,0.86,0,0,0,65.63,269.62Z" transform="translate(-23.92 -190.36)"/><path class="cls-9" d="M65,237.22a0.56,0.56,0,0,0,1.06,0,16.66,16.66,0,0,0,.34-2.33,15.17,15.17,0,0,0,.19-2.42q0-2.36,0-4.72a44.52,44.52,0,0,0-.71-9.41,0.3,0.3,0,0,0-.58,0,55.07,55.07,0,0,0-.61,9.41q0,2.36-.07,4.72a15.93,15.93,0,0,0,.09,2.31A18,18,0,0,0,65,237.22Z" transform="translate(-23.92 -190.36)"/><path class="cls-9" d="M65.76,239.43a0.3,0.3,0,0,0-.58-0.08A7,7,0,0,0,65,241a5.25,5.25,0,0,0,.09.83,4.25,4.25,0,0,0,.21.8,0.34,0.34,0,0,0,.66-0.09c0-.26,0-0.51,0-0.77s0-.51,0-0.77C65.84,240.45,65.77,239.95,65.76,239.43Z" transform="translate(-23.92 -190.36)"/><path class="cls-9" d="M86.18,249.94a5.12,5.12,0,0,0,2.16-1c0.71-.48,1.39-1,2.07-1.54,1.4-1.08,2.77-2.17,4.15-3.27a4.8,4.8,0,0,0,1.72-1.63c0.32-.87-0.34-1.37-1-1.83a24.91,24.91,0,0,0-4.4-2.74,0.41,0.41,0,0,0-.49.64c0.35,0.36.76,0.65,1.12,1s0.7,0.71,1.09,1l1.17,1L94.3,242l0.11,0.09c-0.24.19-.53,0.36-0.73,0.52l-1.24,1c-0.8.63-1.6,1.24-2.38,1.88s-1.57,1.27-2.33,1.93a5.79,5.79,0,0,0-1.84,2.17A0.31,0.31,0,0,0,86.18,249.94Z" transform="translate(-23.92 -190.36)"/><path class="cls-9" d="M79.2,254.67a4.61,4.61,0,0,0-1,.68h0l-0.16.07a2.33,2.33,0,0,0-.3.25l-0.44.39a9.91,9.91,0,0,0-.8.76l-0.38.44a0.93,0.93,0,0,0-.24.55s0,0,0,0a0.64,0.64,0,0,0,0,.09,0.45,0.45,0,0,0,.55.55l0.07,0h0a0.9,0.9,0,0,0,.55-0.22l0.45-.38a9.31,9.31,0,0,0,.79-0.82l0.37-.41,0.22-.25a1,1,0,0,0,.1-0.2h0a4.19,4.19,0,0,0,.71-1A0.39,0.39,0,0,0,79.2,254.67Z" transform="translate(-23.92 -190.36)"/><path class="cls-9" d="M74.79,226.66c0.37,0.39.76,0.75,1.15,1.13,0.79,0.77,1.62,1.5,2.44,2.24,1.59,1.44,3.18,3.08,5.17,3.95a0.43,0.43,0,0,0,.58-0.58c-1.15-1.86-3-3.2-4.68-4.57-0.83-.68-1.65-1.4-2.51-2a9.84,9.84,0,0,0-2.71-1.8,0.33,0.33,0,0,0-.37.48A4.92,4.92,0,0,0,74.79,226.66Z" transform="translate(-23.92 -190.36)"/><path class="cls-9" d="M80,232.65l-0.18-.23a0.29,0.29,0,0,0-.07-0.08,2.13,2.13,0,0,0-.32-0.37l-0.32-.28-0.16-.14-0.16-.12-0.31-.25-0.66-.55c-0.44-.38-0.86-0.8-1.32-1.14l-0.08-.06-0.16-.14a3.27,3.27,0,0,0-.4-0.32,1.53,1.53,0,0,0-.86-0.27,0.29,0.29,0,0,0-.28.28,1,1,0,0,0,0,.47,3.09,3.09,0,0,0,.17.41,4.57,4.57,0,0,0,.53.7l0.14,0.2,0.11,0.13L76,231.19c0.19,0.2.38,0.39,0.58,0.57a6.47,6.47,0,0,0,2.76,1.84,1.43,1.43,0,0,0,.46.1,0.48,0.48,0,0,0,.41-0.72A1.69,1.69,0,0,0,80,232.65Z" transform="translate(-23.92 -190.36)"/><path class="cls-9" d="M76.14,232.16l-0.37-.27h0a0.68,0.68,0,0,0-.3-0.18h0l-0.17-.07a0.62,0.62,0,0,0-.35,0,0.42,0.42,0,0,0-.32.29,0.62,0.62,0,0,0,0,.41,0.31,0.31,0,0,0,0,.09s0,0,0,0a0.59,0.59,0,1,1,0,.13,1.83,1.83,0,0,0,.3.46,5.1,5.1,0,0,0,.68.78l0.32,0.29a2.77,2.77,0,0,0,.47.37,4.84,4.84,0,0,0,.54.25l0.18,0.07a0.75,0.75,0,0,0,.55-0.08,0.46,0.46,0,0,0,.26-0.32h0v0l0-.12a0.67,0.67,0,0,0-.08-0.41,1.67,1.67,0,0,0-.12-0.18c-0.12-.17-0.25-0.33-0.38-0.49a3.07,3.07,0,0,0-.35-0.3c-0.16-.14-0.32-0.28-0.49-0.41l0.16,0.13Z" transform="translate(-23.92 -190.36)"/><path class="cls-9" d="M75.66,234.61a1.05,1.05,0,0,0-.17-0.22l-0.09-.1-0.19-.21-0.09-.1a1.72,1.72,0,0,0-.23-0.17,0.87,0.87,0,0,0-.37-0.18l-0.12,0a0.45,0.45,0,0,0-.55.55l0,0.12a0.88,0.88,0,0,0,.18.37l0.12,0.17a1,1,0,0,0,.15.15l0.21,0.19,0.1,0.09a1.05,1.05,0,0,0,.22.17,0.57,0.57,0,0,0,.21.07,0.53,0.53,0,0,0,.28.06,0.46,0.46,0,0,0,.3-0.13,0.49,0.49,0,0,0,.13-0.3,0.53,0.53,0,0,0-.06-0.28A0.56,0.56,0,0,0,75.66,234.61Z" transform="translate(-23.92 -190.36)"/><path class="cls-9" d="M161.77,249.06a30.81,30.81,0,0,0-2.88-2.82L156,243.62c-0.69-.62-1.37-1.26-2.08-1.87,1.16-1,2.36-2,3.53-3l4.24-3.58,4.27-3.55a25.28,25.28,0,0,0,4.11-3.85,0.31,0.31,0,0,0-.37-0.48,23.47,23.47,0,0,0-4.64,3.12l-4.37,3.44q-2.18,1.73-4.35,3.47c-1.46,1.18-2.88,2.45-4.37,3.59a1,1,0,0,0-.19,1.49c0.87,1,1.89,1.81,2.85,2.69l2.88,2.66a33.28,33.28,0,0,0,2.91,2.49,39.29,39.29,0,0,0,3.25,2.26,0.42,0.42,0,0,0,.58-0.58C163.5,250.95,162.59,250,161.77,249.06Z" transform="translate(-23.92 -190.36)"/><path class="cls-9" d="M170.53,257.72q0-.08,0,0t0,0a1.26,1.26,0,0,0-.17-0.46l-0.08-.13c0-.07-0.1-0.24-0.06,0a0.81,0.81,0,1,1-.06-0.23,0.93,0.93,0,0,0-.14-0.23l-0.29-.37a6.32,6.32,0,0,0-.47-0.53c-0.32-.31-0.65-0.61-1-0.89s-0.47-.31-0.69-0.48l-0.25-.19A0.94,0.94,0,0,0,167,254a1.1,1.1,0,0,0-.34-0.09,2,2,0,0,0-.22-0.1,0.46,0.46,0,0,0-.2,0h0a0.34,0.34,0,0,0-.41.41l0,0.05a0.69,0.69,0,0,0,.14.36,0.94,0.94,0,0,0,.09.27,0.19,0.19,0,1,0,0,.05,1.47,1.47,0,0,0,.2.34l0.27,0.29,0.11,0.12,0.09,0.11,0.06,0.09,0.19,0.24,0.24,0.26c0.17,0.19.34,0.36,0.51,0.54s0.33,0.33.51,0.49a6,6,0,0,0,.66.55l0.22,0.1,0.11,0.08a1.78,1.78,0,0,0,.33.2,1.16,1.16,0,0,1,.26.13,1,1,0,0,0,.37.16,0.42,0.42,0,0,0,.53-0.4,1,1,0,0,0-.1-0.4A0.57,0.57,0,0,0,170.53,257.72Z" transform="translate(-23.92 -190.36)"/><path class="cls-9" d="M181.76,218.56a0.84,0.84,0,0,0-1.26-.72l-3.61,2.78c-0.56.43-1.13,0.86-1.67,1.33a7.42,7.42,0,0,0-1.42,1.7,0.27,0.27,0,0,0,.3.39,7.41,7.41,0,0,0,1.94-.85c0.6-.38,1.18-0.83,1.75-1.26l2.33-1.74q0.11,4.8.23,9.6c0,1.86.1,3.73,0.15,5.59s0,3.79,0,5.68a0.46,0.46,0,0,0,.9.12,27.88,27.88,0,0,0,.7-5.58c0.09-1.9.1-3.8,0-5.7C182,226.12,181.9,222.34,181.76,218.56Z" transform="translate(-23.92 -190.36)"/><path class="cls-9" d="M181.14,257.75c-0.07-1.28-.08-2.55-0.09-3.83,0-.49-0.79-0.63-0.88-0.12-0.21,1.19-.3,2.41-0.43,3.61a29.44,29.44,0,0,0-.18,3.72c0,1.2.08,2.39,0.2,3.58,0,0.32.07,0.64,0.1,1-0.36-.43-0.72-0.85-1.1-1.27a21.22,21.22,0,0,0-1.66-1.66,2.83,2.83,0,0,0-1.86-1,0.44,0.44,0,0,0-.43.43,2.85,2.85,0,0,0,.89,1.8q0.71,0.87,1.44,1.72c1,1.12,1.88,2.27,2.77,3.45a1.1,1.1,0,0,0,1.07.51,1.06,1.06,0,0,0,.89-0.77c0.47-2.47-.18-5-0.41-7.44C181.35,260.22,181.21,259,181.14,257.75Z" transform="translate(-23.92 -190.36)"/><path class="cls-9" d="M180.1,246.28v0.51a4.35,4.35,0,0,0,.15,1.12c0.05,0.17.1,0.28,0.15,0.43a1.83,1.83,0,0,0,.22.53,0.42,0.42,0,0,0,.71,0,1.67,1.67,0,0,0,.16-0.53,0.33,0.33,0,0,0,0-.13c0-.1.08-0.2,0.1-0.3a4.21,4.21,0,0,0,0-1.12,10.57,10.57,0,0,0-.14-1.12c0-.15,0-0.3-0.08-0.45s-0.13-.33-0.18-0.51a0.5,0.5,0,0,0-.47-0.36,0.49,0.49,0,0,0-.47.36c0,0.2-.11.4-0.13,0.6s0,0.31,0,.47,0,0.1,0,0l0,0.19A2.47,2.47,0,0,0,180.1,246.28Z" transform="translate(-23.92 -190.36)"/><path class="cls-9" d="M167.87,232.92a6.35,6.35,0,0,0-1,.55,10.39,10.39,0,0,0-.95.64c-0.67.51-1.33,1-2,1.57s-1.26,1-1.84,1.51c-0.28.26-.59,0.49-0.87,0.75a3.61,3.61,0,0,0-.41.45,4,4,0,0,1-.28.47,0.28,0.28,0,0,0,.33.43l0,0a2.19,2.19,0,0,0,.89-0.23,9.59,9.59,0,0,0,1.09-.62,19.22,19.22,0,0,0,2-1.39,23.94,23.94,0,0,0,1.9-1.57,11.73,11.73,0,0,0,.83-0.9,5.2,5.2,0,0,0,.74-1A0.42,0.42,0,0,0,167.87,232.92Z" transform="translate(-23.92 -190.36)"/><path class="cls-9" d="M166.83,238.7l0.32-.24a1.69,1.69,0,0,0,.35-0.34l0.23-.24a1.29,1.29,0,0,0,.21-0.25l0-.12a1.88,1.88,0,0,0,.44-0.68,0.5,0.5,0,0,0-.48-0.63,2.22,2.22,0,0,0-.77.3h-0.09a1.28,1.28,0,0,0-.29.14l-0.26.15a1.19,1.19,0,0,0-.32.17l-0.29.21c-0.25.18-.5,0.35-0.74,0.54l-0.56.45-0.15.12-0.09.12,0,0-0.14.13-0.11.14q-0.15.13-.06,0.17a0.56,0.56,0,0,0,.48.83q-0.11,0,.17,0l0.18,0,0.18-.06q0.11,0,0,0a0.5,0.5,0,1,1,.17,0,2.3,2.3,0,0,0,.31-0.14l0.67-.35A6,6,0,0,0,166.83,238.7Z" transform="translate(-23.92 -190.36)"/><path class="cls-9" d="M168.07,240.52l0.1-.07a1,1,0,0,0,.31-0.29l0,0a0.85,0.85,0,0,0,.26-0.37,0.51,0.51,0,0,0-.23-0.57,0.83,0.83,0,0,0-.51-0.07,0.71,0.71,0,0,0-.25,0,1,1,0,0,0-.23.06l-0.46.19,0.19-.08a1.16,1.16,0,0,0-.38.17l-0.33.25a1.49,1.49,0,0,0-.26.31,0.91,0.91,0,0,0-.13.27l0,0a0.63,0.63,0,0,0,0,.6h0l0,0h0a0.46,0.46,0,0,0,.25.2h0a0.45,0.45,0,0,0,.23.07,0.65,0.65,0,0,0,.27,0l0.08,0h0a1.25,1.25,0,0,0,.32-0.11l-0.18.07c0.11,0,.22-0.08.32-0.13l0.17-.1,0.15-.09,0.14-.1,0.12-.12h0Z" transform="translate(-23.92 -190.36)"/><path class="cls-9" d="M168.43,242.36a0.43,0.43,0,0,0,.16.15,0.56,0.56,0,0,0,.29.08h0l0.15,0h0l0.07,0a1.31,1.31,0,0,0,.28-0.11l0.13-.08a0.77,0.77,0,0,0,.26-0.24l0-.06,0-.06,0.08-.1a0.37,0.37,0,0,0,.06-0.19,0.48,0.48,0,0,0-.06-0.32,0.6,0.6,0,0,0-.18-0.18,0.52,0.52,0,0,0-.39-0.05l-0.09,0h0a0.72,0.72,0,0,0-.36.1l-0.14.08a1.3,1.3,0,0,0-.22.19l-0.06.06-0.07.08a0.29,0.29,0,0,0-.07.13l0,0.08a0.57,0.57,0,0,0,0,.3A0.43,0.43,0,0,0,168.43,242.36Z" transform="translate(-23.92 -190.36)"/><path class="cls-9" d="M171.85,272.08a0.59,0.59,0,0,0-.59,1,8.34,8.34,0,0,1,1.43,1.37l-2.15-.11-4.25-.22q-4.25-.2-8.51-0.34c-5.71-.18-11.44-0.3-17.15-0.14-1.61,0-3.22.1-4.83,0.23s-3.12.35-4.68,0.57c-0.34,0-.22.53,0.08,0.56,2.84,0.3,5.66.49,8.52,0.56s5.68,0.09,8.52.15c5.6,0.12,11.2.27,16.8,0.54l4.83,0.25a46.67,46.67,0,0,0,4.83.23,1,1,0,0,0,.73-1.76A16.2,16.2,0,0,0,171.85,272.08Z" transform="translate(-23.92 -190.36)"/><path class="cls-9" d="M145.62,249.62c0.56,0.63,1.16,1.23,1.76,1.83,1.27,1.28,2.56,2.54,3.86,3.8a83.38,83.38,0,0,0,8,7c0.42,0.31.79-.33,0.52-0.67a84.22,84.22,0,0,0-7.29-7.86c-1.27-1.23-2.54-2.46-3.84-3.66-0.65-.6-1.3-1.2-2-1.77a4.54,4.54,0,0,0-2.09-1.34,0.5,0.5,0,0,0-.48.63A5.09,5.09,0,0,0,145.62,249.62Z" transform="translate(-23.92 -190.36)"/><path class="cls-9" d="M161.2,264.14a0.8,0.8,0,0,0,.08.25,0.41,0.41,0,0,0,.07.24c0.27,0.38.53,0.76,0.83,1.11,0.07,0.08.13,0.17,0.21,0.24h0l0,0.06,0.14,0.17,0.46,0.49a9.77,9.77,0,0,0,.92.88l0.17,0.13,0.16,0.07,0,0c0.09,0.08.19,0.14,0.28,0.21a1.51,1.51,0,0,0,.63.35,0.58,0.58,0,0,0,.7-0.7,1.63,1.63,0,0,0-.39-0.68l-0.22-.28,0,0h0a0.41,0.41,0,0,0-.11-0.18,7.69,7.69,0,0,0-1-1l-0.47-.42-0.22-.18-0.05,0-0.22-.19c-0.37-.31-0.76-0.57-1.15-0.85a0.44,0.44,0,0,0-.25-0.07,0.82,0.82,0,0,0-.26-0.08l0,0a0.3,0.3,0,0,0-.43.43Z" transform="translate(-23.92 -190.36)"/><path class="cls-9" d="M148.14,270.59c-0.5-.07-1-0.14-1.48-0.17-0.94,0-1.87-.1-2.81-0.08s-1.88,0-2.81.1a12,12,0,0,0-1.52.16c-0.19,0-.43.07-0.62,0.12a3.05,3.05,0,0,0-.65.38,0.39,0.39,0,0,0,0,.66,3.38,3.38,0,0,0,.65.35c0.2,0.05.42,0.07,0.62,0.1a11.43,11.43,0,0,0,1.52.11c0.94,0,1.88,0,2.81,0s1.88-.1,2.81-0.18a13.82,13.82,0,0,0,1.48-.22,11.8,11.8,0,0,0,1.46-.24,0.48,0.48,0,0,0,0-.92A10.81,10.81,0,0,0,148.14,270.59Z" transform="translate(-23.92 -190.36)"/><path class="cls-9" d="M140.35,268.83a3.21,3.21,0,0,0,1.81.59c0.66,0.07,1.32.11,2,.13a16.79,16.79,0,0,0,2-.09,9.61,9.61,0,0,0,1-.19,3.5,3.5,0,0,0,.91-0.26,0.49,0.49,0,0,0,0-.85,3.52,3.52,0,0,0-.91-0.26,9.32,9.32,0,0,0-1-.19,16.74,16.74,0,0,0-2-.09c-0.67,0-1.33.06-2,.13a3.19,3.19,0,0,0-1.81.59A0.35,0.35,0,0,0,140.35,268.83Z" transform="translate(-23.92 -190.36)"/><path class="cls-9" d="M142.95,266.77a1.28,1.28,0,0,0,.33.1h0.05l0.11,0,0.17,0a4.9,4.9,0,0,0,.5.07A3.12,3.12,0,0,0,145,267a2.88,2.88,0,0,0,.33-0.12,1.18,1.18,0,0,0,.42-0.23l0.09,0a0.92,0.92,0,0,0,.33-0.21,0.4,0.4,0,0,0-.08-0.62,1.07,1.07,0,0,0-.37-0.1h-0.16a1.92,1.92,0,0,0-.55-0.1,2.82,2.82,0,0,0-.53,0,4.44,4.44,0,0,0-.63.09,0.48,0.48,0,0,0-.2.08l0.06,0-0.11,0a1,1,0,0,0-.23.08,2,2,0,0,0-.39.12c-0.07,0-.21.13-0.31,0.18a0.29,0.29,0,0,0,0,.49C142.73,266.64,142.83,266.72,142.95,266.77Z" transform="translate(-23.92 -190.36)"/><path class="cls-9" d="M143.51,264.51l0.13,0.06a0.44,0.44,0,0,0,.19.16l0.25,0.1a1.36,1.36,0,0,0,.37.11h0.09l0.18,0,0.21,0,0.18,0a0.62,0.62,0,0,0,.35-0.25l0.14-.11a0.45,0.45,0,0,0,.13-0.44,0.46,0.46,0,0,0-.31-0.31l-0.09,0a0.7,0.7,0,0,0-.39-0.13,1.9,1.9,0,0,0-.4,0l-0.22,0-0.11,0h0l-0.1,0h0a0.73,0.73,0,0,0-.28.08h-0.11A0.35,0.35,0,0,0,143.51,264.51Z" transform="translate(-23.92 -190.36)"/><path class="cls-9" d="M72.9,214.66c0.59,0.46,1.18.92,1.79,1.36,1.3,0.94,2.6,1.88,3.93,2.8a34.29,34.29,0,0,0,4,2.51,44.69,44.69,0,0,0,4.14,2.29,0.56,0.56,0,0,0,.54-0.93,31.82,31.82,0,0,0-3.32-2.58c-1.12-.88-2.25-1.76-3.41-2.58s-2.27-1.58-3.4-2.37L75.45,214H78.3c0.85,0,1.68,0,2.53-.08a8,8,0,0,0,1.35-.16c0.36-.09.69-0.34,1-0.42a0.3,0.3,0,0,0,0-.57c-0.35-.08-0.68-0.33-1-0.43a6.54,6.54,0,0,0-1.23-.16c-0.89-.07-1.76-0.1-2.65-0.11L73,212a1,1,0,0,0-1,.73A1.76,1.76,0,0,0,72.9,214.66Z" transform="translate(-23.92 -190.36)"/><path class="cls-9" d="M90.59,213.82c1.07,0.15,2.15.21,3.22,0.27q3.27,0.17,6.55.31,6.6,0.27,13.21.48a38.11,38.11,0,0,0,7.39-.29,0.58,0.58,0,0,0,0-1.12,36.06,36.06,0,0,0-6.47-.75c-2.18-.11-4.36-0.17-6.55-0.24-4.4-.16-8.8-0.31-13.21-0.39-1.22,0-2.45-.06-3.68,0-0.6,0-1.19.09-1.79,0.17a6.09,6.09,0,0,0-1.69.36,0.29,0.29,0,0,0,0,.5A9.21,9.21,0,0,0,90.59,213.82Z" transform="translate(-23.92 -190.36)"/><path class="cls-9" d="M125,214.31a1.42,1.42,0,0,0,.46.2c0.17,0,.33.14,0.51,0.18a6.74,6.74,0,0,0,1.21.16l0.5,0H128l0.33,0,0.47-.05a1.64,1.64,0,0,0,.5-0.13,2.37,2.37,0,0,0,.95-0.28,0.51,0.51,0,0,0,0-.87,2.42,2.42,0,0,0-.95-0.19,1.89,1.89,0,0,0-.6-0.1l-0.3,0-0.18,0c-0.4-.05-0.81,0-1.21,0a4.27,4.27,0,0,0-1.2.07,2.27,2.27,0,0,0-1.14.36,0.35,0.35,0,0,0-.05.43A0.87,0.87,0,0,0,125,214.31Z" transform="translate(-23.92 -190.36)"/><path class="cls-9" d="M149.93,213.94a25.27,25.27,0,0,0,5.37.5l5.52,0.19c2.66,0.08,5.33.1,8,.11q-3.18,2.45-6.36,4.88c-1.48,1.13-3,2.24-4.4,3.41a32.14,32.14,0,0,0-4.14,3.8,0.46,0.46,0,0,0,.56.72,31.56,31.56,0,0,0,4.67-2.93c1.5-1.07,3-2.21,4.43-3.33q4.4-3.37,8.83-6.71a1.05,1.05,0,0,0-.53-1.94c-3.68,0-7.37,0-11,.08l-5.52.18a25.32,25.32,0,0,0-5.37.49A0.28,0.28,0,0,0,149.93,213.94Z" transform="translate(-23.92 -190.36)"/><path class="cls-9" d="M113.22,232.15a11.31,11.31,0,0,0-7.67,4.64c-0.73-.32-1.44-0.68-2.15-1a13,13,0,0,0-1.29-.65,4.49,4.49,0,0,0-1.39-.41,0.32,0.32,0,0,0-.31.4,3.5,3.5,0,0,0,.8,1.17,6.26,6.26,0,0,0,1.36,1.1,17,17,0,0,0,3.08,1.57,1,1,0,0,0,1.1-.45,9.4,9.4,0,0,1,6.73-4.4,9.6,9.6,0,0,1,7.85,2.81,1,1,0,0,0,1.37,0,9.16,9.16,0,0,1,4.69-2.31c1.79-.34,3.51.12,5.28,0.07a0.56,0.56,0,0,0,.39-0.94c-1.62-1.39-4.09-1.31-6.08-1a11.75,11.75,0,0,0-4.87,2.16A11.21,11.21,0,0,0,113.22,232.15Z" transform="translate(-23.92 -190.36)"/><path class="cls-9" d="M138.83,239a0.82,0.82,0,0,0,1.28.17c2.38-2.4,5.58-3.68,8.44-5.39a0.39,0.39,0,0,0-.3-0.7,20.49,20.49,0,0,0-8.53,4.22,6.07,6.07,0,0,0-1.08-1.27,4.78,4.78,0,0,0-2.29-1.15,0.32,0.32,0,0,0-.3.52A14.32,14.32,0,0,1,138.83,239Z" transform="translate(-23.92 -190.36)"/><path class="cls-9" d="M104,217.73c1.05,0.09,2.13.23,3.19,0.22a13.51,13.51,0,0,0,3.09-.22,0.5,0.5,0,0,0,0-1,12.1,12.1,0,0,0-3.09-.66c-1.06-.12-2.13-0.19-3.19-0.25s-2.12-.14-3.19-0.17a5.92,5.92,0,0,0-2.9.37,0.34,0.34,0,0,0,0,.58,6.09,6.09,0,0,0,2.9.78C101.9,217.55,103,217.64,104,217.73Z" transform="translate(-23.92 -190.36)"/><path class="cls-9" d="M106.19,219.73a3.55,3.55,0,0,0,.7-0.2c0.39-.17.2-0.68-0.11-0.81s-0.47-.09-0.7-0.17a3.06,3.06,0,0,0-.29-0.12l-0.31,0c-0.27,0-.52-0.13-0.79-0.15l-0.69-.06c-0.46,0-.92-0.07-1.38-0.08H102a2,2,0,0,0-.86.15,0.66,0.66,0,0,0-.13,1,1.82,1.82,0,0,0,.79.36,6.36,6.36,0,0,0,.72.17A10.64,10.64,0,0,0,104,220h0.69a5.59,5.59,0,0,0,.69-0.09,2.94,2.94,0,0,0,.46-0.06C106,219.81,106.07,219.76,106.19,219.73Z" transform="translate(-23.92 -190.36)"/><path class="cls-9" d="M104.6,222.13a0.67,0.67,0,0,0,.18-0.08l0.08,0a0.87,0.87,0,0,0,.45-0.21,0.46,0.46,0,0,0,0-.63,0.94,0.94,0,0,0-.45-0.24h0a2,2,0,0,0-.3-0.14,3.92,3.92,0,0,0-.9-0.17,6.75,6.75,0,0,0-.74,0,1.58,1.58,0,0,0-1,.36,0.61,0.61,0,0,0,0,.86,0.79,0.79,0,0,0,.16.13q-0.13-.1,0,0a1.18,1.18,0,0,0,.35.16,2.27,2.27,0,0,0,.48.09,6.94,6.94,0,0,0,.77,0,4.1,4.1,0,0,0,.87-0.11Z" transform="translate(-23.92 -190.36)"/><path class="cls-9" d="M103.44,223.44a0.56,0.56,0,0,0-.28-0.06l-0.23,0-0.24,0a1.4,1.4,0,0,0-.22.09,0.71,0.71,0,0,0-.23.17,0.64,0.64,0,0,0-.12.12,0.33,0.33,0,0,0-.1.27,0.29,0.29,0,0,0,.13.21l0.09,0.07a0.52,0.52,0,0,0,.14.12,1.4,1.4,0,0,0,.56.14h0.23a0.7,0.7,0,0,0,.36-0.1,2.86,2.86,0,0,0,.47-0.12,0.46,0.46,0,0,0,0-.89A3.26,3.26,0,0,0,103.44,223.44Z" transform="translate(-23.92 -190.36)"/><path class="cls-9" d="M116.67,263.64a10.62,10.62,0,0,0-1.19-.51q-1.1-.47-2.16-1a19.33,19.33,0,0,1-4.09-2.87,16.58,16.58,0,0,1-2.94-3.49,32.76,32.76,0,0,1-2-4.13c-0.12-.28-0.47-0.09-0.5.14-0.41,3.25,1.78,6.72,4,8.86a21.25,21.25,0,0,0,4.38,3.14c0.79,0.43,1.6.82,2.43,1.17a7.14,7.14,0,0,0,1.36.51,4.05,4.05,0,0,0,1.33-.06,0.54,0.54,0,0,0,.24-0.89A4.29,4.29,0,0,0,116.67,263.64Z" transform="translate(-23.92 -190.36)"/><path class="cls-9" d="M131.11,262.89c-0.86.43-1.73,0.85-2.61,1.23s-1.78.88-2.68,1.29a3.78,3.78,0,0,1-1.09.45,5.13,5.13,0,0,1-1.35-.41,3.59,3.59,0,0,0-2.83.12,0.27,0.27,0,0,0-.05.42,7,7,0,0,0,2.79,1.3,3.76,3.76,0,0,0,1.59.37,5.17,5.17,0,0,0,1.51-.52,12.73,12.73,0,0,0,2.84-1.47,24.9,24.9,0,0,0,2.41-2.1A0.44,0.44,0,0,0,131.11,262.89Z" transform="translate(-23.92 -190.36)"/><path class="cls-9" d="M135.2,260.38a2.77,2.77,0,0,0,.74.06,3.77,3.77,0,0,0,.79-0.29,5.75,5.75,0,0,0,1.55-1.05,8,8,0,0,0,1.08-1.13,8.72,8.72,0,0,0,.57-0.8,2.61,2.61,0,0,0,.32-0.69,2.69,2.69,0,0,0,.36-1.19,3.34,3.34,0,0,0,.21-1.24,0.43,0.43,0,0,0-.73-0.3,6.71,6.71,0,0,0-.64,1,3.16,3.16,0,0,0-.67.85,3.83,3.83,0,0,0-.45.55l-0.11.15,0,0.06-0.3.38c0.06-.08,0,0,0,0l-0.12.14-0.24.28-0.53.57c-0.34.36-.74,0.65-1.07,1-0.17.18-.34,0.33-0.51,0.5a2.26,2.26,0,0,0-.38.67A0.33,0.33,0,0,0,135.2,260.38Z" transform="translate(-23.92 -190.36)"/><path class="cls-9" d="M112.07,265.2a13.91,13.91,0,0,1-2.29-1.42c-0.71-.49-1.41-0.94-2.08-1.46a21.88,21.88,0,0,1-2-1.81c-0.32-.32-0.67-0.61-1-0.92a7.65,7.65,0,0,0-.94-0.86,0.28,0.28,0,0,0-.42.24,3.86,3.86,0,0,0,.33,1.31,6.74,6.74,0,0,0,.64,1.3,11.07,11.07,0,0,0,2,2.18,10.39,10.39,0,0,0,2.51,1.6c0.24,0.11.5,0.15,0.74,0.24a5.11,5.11,0,0,0,.64.2c0.49,0.1,1,.16,1.47.25S112.58,265.43,112.07,265.2Z" transform="translate(-23.92 -190.36)"/><path class="cls-9" d="M106.24,265.23h0Z" transform="translate(-23.92 -190.36)"/><path class="cls-9" d="M103,264.5a0.12,0.12,0,0,0,0,.07,0.17,0.17,0,0,1,0-.07h0Z" transform="translate(-23.92 -190.36)"/><path class="cls-9" d="M106.28,265.25l0,0s0,0,0,0h0l-0.07,0a0.81,0.81,0,0,0-.21-0.17l-0.21-.11a4.58,4.58,0,0,1-.39-0.26h0l0,0a3.64,3.64,0,0,0-.34-0.24l-0.17-.12,0,0-0.16-.13s-0.25-.21,0,0l-0.07-.06-0.18-.15a2.48,2.48,0,0,0-.26-0.2s0,0,0,0l0,0,0,0h0l-0.08-.08-0.08-.09a0.82,0.82,0,0,0-.25-0.15,0.33,0.33,0,0,0-.11-0.08l-0.12-.05,0.05,0-0.11-.06a0.38,0.38,0,0,0-.42.07,0.55,0.55,0,0,0-.13.34c0,0.14,0-.09,0,0a0.9,0.9,0,0,0,0,.18v0a0.78,0.78,0,0,0,0,.34c0,0.11.09,0.21,0.13,0.31h0a0.09,0.09,0,0,1,0,.05v0a2.07,2.07,0,0,0,.16.35,4,4,0,0,0,.4.52,2.81,2.81,0,0,0,.88.68,6,6,0,0,0,.62.25,1.36,1.36,0,0,0,.64.08,1.46,1.46,0,0,0,1-.1,0.54,0.54,0,0,0,.11-0.83A1.31,1.31,0,0,0,106.28,265.25Z" transform="translate(-23.92 -190.36)"/><polygon class="cls-9" points="80.2 73.36 80.2 73.36 80.2 73.36 80.2 73.36"/><path class="cls-9" d="M104.78,264.25l0,0C104.67,264.14,104.73,264.21,104.78,264.25Z" transform="translate(-23.92 -190.36)"/><path class="cls-9" d="M103.77,266.81l-0.23-.13a0.93,0.93,0,0,0-.23-0.22h0l-0.14-.13a1.87,1.87,0,0,0-.29-0.21,0.82,0.82,0,0,0-.17-0.11h0a0.49,0.49,0,0,0-.53-0.1,0.47,0.47,0,0,0-.19.15,0.53,0.53,0,0,0-.1.3s0,0,0,0a0.89,0.89,0,0,0,0,.5l0,0.11,0.08,0.19,0.11,0.15,0,0.05a2.67,2.67,0,0,0,.32.26l0.1,0.07a0.73,0.73,0,0,0,.4.1l0.1,0a1.52,1.52,0,0,0,.4,0l0.15,0a0.43,0.43,0,0,0,.19-0.1,0.29,0.29,0,0,0,.1-0.1,0.43,0.43,0,0,0,.1-0.19s0-.14,0-0.15A0.57,0.57,0,0,0,103.77,266.81Z" transform="translate(-23.92 -190.36)"/><path class="cls-9" d="M208.88,198.88a11.65,11.65,0,0,1,2.34,1.67,8.54,8.54,0,0,1,1.91,2.21,0.42,0.42,0,0,0,.77-0.32,9.44,9.44,0,0,0-1.06-2.61,8.22,8.22,0,0,0-2-2.09,11.27,11.27,0,0,0-5.49-2.11c-4.6-.55-9.22,1.41-12.79,4.19-2,1.54-4.06,3.3-5.13,5.61a0.38,0.38,0,0,0,.51.51,29.22,29.22,0,0,0,4.88-3.73,24.6,24.6,0,0,1,5.17-3.27A12.28,12.28,0,0,1,208.88,198.88Z" transform="translate(-23.92 -190.36)"/><path class="cls-9" d="M213.87,205.25a4.39,4.39,0,0,1,0,.64c0,0.49.09,1,.11,1.46s0,0.95,0,1.42-0.1.84-.1,1.25-0.08.59-.13,0.88-0.15.57-.19,0.87a0.44,0.44,0,0,0,.74.31,5.93,5.93,0,0,0,1-1.68,5.54,5.54,0,0,0,.45-2.23,7.09,7.09,0,0,0-.27-2.11,3.76,3.76,0,0,0-.48-1,2.75,2.75,0,0,0-.26-0.42c-0.09-.1-0.28-0.2-0.35-0.27a0.32,0.32,0,0,0-.54.23A4.3,4.3,0,0,0,213.87,205.25Z" transform="translate(-23.92 -190.36)"/><path class="cls-9" d="M200.59,200a3.3,3.3,0,0,0-.58,0c-0.21,0-.42,0-0.63,0a5.46,5.46,0,0,0-1.17.28,11,11,0,0,0-2.26,1.1A12.6,12.6,0,0,0,194,203a8.66,8.66,0,0,0-.81.95,4.89,4.89,0,0,0-.33.53,3.26,3.26,0,0,0-.2.62,0.39,0.39,0,0,0,.56.43l0.07,0h0a1.49,1.49,0,0,0,.31-0.12c0.15-.09.28-0.21,0.42-0.3,0.31-.21.59-0.47,0.89-0.7a22.43,22.43,0,0,1,1.86-1.34c0.63-.39,1.27-0.79,1.93-1.12,0.34-.17.67-0.35,1-0.55,0.17-.1.32-0.23,0.5-0.32s0.35-.17.52-0.28A0.39,0.39,0,0,0,200.59,200Z" transform="translate(-23.92 -190.36)"/><path class="cls-9" d="M196.4,205.93h0a0.8,0.8,0,0,0,.28,0,1.42,1.42,0,0,0,.2-0.09l0,0,0.1,0a2.09,2.09,0,0,0,.26-0.14l0.08,0,0.08,0,0.24-.1,0.2-.11c0.25-.13.52-0.27,0.76-0.43a3.24,3.24,0,0,0,.81-0.6,2.69,2.69,0,0,0,.33-0.34,0.65,0.65,0,0,0-.39-0.95,1.36,1.36,0,0,0-.4,0,1.85,1.85,0,0,0-.94.14,3.65,3.65,0,0,0-.82.4,2.75,2.75,0,0,0-.81.73l0,0-0.08.1-0.13.16a1,1,0,0,0-.17.29l-0.06.13a0.71,0.71,0,0,0-.07.5s0-.16,0,0a0.48,0.48,0,0,0,.26.49h0.27Z" transform="translate(-23.92 -190.36)"/><path class="cls-9" d="M198.15,207.26l0.17,0h0.06a0.69,0.69,0,0,0,.38-0.07l0.3-.15,0.28-.17,0.14-.07a0.69,0.69,0,0,0,.24-0.21,1.82,1.82,0,0,0,.54-0.48,0.84,0.84,0,0,0,.16-0.13,0.43,0.43,0,0,0,.11-0.4,0.42,0.42,0,0,0-.29-0.29,1,1,0,0,0-.32,0,1.08,1.08,0,0,0-.54,0l-0.31.11-0.12,0a1,1,0,0,0-.33.19l-0.14.11a1.9,1.9,0,0,0-.25.22,3.08,3.08,0,0,0-.27.36,0.71,0.71,0,0,0-.09.45,0.63,0.63,0,0,0,0,.19A0.33,0.33,0,0,0,198.15,207.26Z" transform="translate(-23.92 -190.36)"/><path class="cls-9" d="M202.75,249a4.44,4.44,0,0,0-.42,1c-0.13.31-.24,0.63-0.37,0.93a19.45,19.45,0,0,1-.91,1.94,8.41,8.41,0,0,1-2.9,3,15.34,15.34,0,0,1-4.57,1.7,13.87,13.87,0,0,1-2.48.31,15,15,0,0,0-2.3,0,0.31,0.31,0,0,0-.18.44,3.23,3.23,0,0,0,2.24,1.32,7.81,7.81,0,0,0,2.86,0,15.68,15.68,0,0,0,5.55-2,10.63,10.63,0,0,0,3.56-3.7,7.27,7.27,0,0,0,1-2.4,6.11,6.11,0,0,0,.09-1.32,2.6,2.6,0,0,0-.2-1.24A0.55,0.55,0,0,0,202.75,249Z" transform="translate(-23.92 -190.36)"/><path class="cls-9" d="M201.65,243.84a1.37,1.37,0,0,0-.29-0.21l-0.14-.06-0.08,0a1.22,1.22,0,0,0-.61-0.09,0.28,0.28,0,0,0-.27.35v0h0a0.69,0.69,0,0,0,0,.1,0.8,0.8,0,0,0,.08.31l0.05,0.09h0l0,0.09,0.06,0.12a1.59,1.59,0,0,0,.14.24l0.11,0.19,0,0h0a4.69,4.69,0,0,0,.25.53l0,0.05h0l0.08,0.21,0.06,0.18a1.87,1.87,0,0,0,.07.18l0.05,0.13,0-.07a2.34,2.34,0,0,0,.2.51l0,0c0-.07,0-0.08,0,0l0,0.06,0,0,0,0,0.06,0.16c0,0.09.06,0.19,0.1,0.28l0,0.09a0.4,0.4,0,1,0,0,.09,0.55,0.55,0,0,0,.74.19,1.29,1.29,0,0,0,.37-1.09l0,0a1.15,1.15,0,0,0,0-.54,2.51,2.51,0,0,0-.1-0.43,4.5,4.5,0,0,0-.46-0.91A4.16,4.16,0,0,0,201.65,243.84Z" transform="translate(-23.92 -190.36)"/><path class="cls-9" d="M201.52,246.78a0.36,0.36,0,0,0,.07.09h0Z" transform="translate(-23.92 -190.36)"/><path class="cls-9" d="M205.08,222.56a12.58,12.58,0,0,0,2,.14,7,7,0,0,1,1.87.45,6.05,6.05,0,0,1,2.88,2.36c1.69,2.75,1.21,6.69-.59,9.25a10.37,10.37,0,0,1-1.61,1.72,11.09,11.09,0,0,1-1,.76c-0.35.25-.77,0.36-1.11,0.62a0.49,0.49,0,0,0,.25.91,5,5,0,0,0,2.5-.64,7.61,7.61,0,0,0,2.15-1.58,9.48,9.48,0,0,0,2.4-5.39,10.63,10.63,0,0,0-1-6.13,7.05,7.05,0,0,0-3.76-3.3,6.79,6.79,0,0,0-2.61-.51,3.45,3.45,0,0,0-2.5.81A0.33,0.33,0,0,0,205.08,222.56Z" transform="translate(-23.92 -190.36)"/><path class="cls-9" d="M208.1,225.83a0.28,0.28,0,0,0-.19.47c0.17,0.22.39,0.4,0.54,0.62,0,0.05.1,0.21,0.19,0.32a3.35,3.35,0,0,1,.19.3,5.59,5.59,0,0,1,.66,1.41,4.15,4.15,0,0,1,.11,1.59,7.22,7.22,0,0,1-.11.84c0,0.22-.11.41-0.13,0.63a4.93,4.93,0,0,0-.33.74,0.47,0.47,0,0,0,.58.58,3.23,3.23,0,0,0,.92-0.75,2.06,2.06,0,0,0,.38-0.55,4.77,4.77,0,0,0,.32-0.62,4.51,4.51,0,0,0-1.11-4.68,4.35,4.35,0,0,0-.46-0.36,2.3,2.3,0,0,0-.24-0.17l-0.16-.07q-0.27,0-.15,0A3.19,3.19,0,0,0,208.1,225.83Z" transform="translate(-23.92 -190.36)"/><path class="cls-9" d="M207.7,228.41l0,0Z" transform="translate(-23.92 -190.36)"/><path class="cls-9" d="M207.66,232.08a1.76,1.76,0,0,0,.7-0.83,2,2,0,0,0,.17-0.74,2.1,2.1,0,0,0,0-.59,3,3,0,0,0-.28-0.9c0-.07-0.11-0.12-0.15-0.18l-0.14-.19a0.94,0.94,0,0,0-.22-0.22l0,0-0.13-.09a0.71,0.71,0,0,0-.17-0.11,0.87,0.87,0,0,0-.26-0.05,0.37,0.37,0,0,0-.37.37,0.58,0.58,0,0,0,0,.25v0l0,0.1s0,0,0,0a1.05,1.05,0,0,0,0,.21l0,0.12a0.82,0.82,0,0,0,0,.19v0.08a0.21,0.21,0,1,0,0,0,2.85,2.85,0,0,1,0,.41c0,0.13,0,.26,0,0.39v0l0,0.18a1.34,1.34,0,0,0,0,.27s0,0,0,.06V231a2.43,2.43,0,0,0-.08.46l0,0.07a0.59,0.59,0,0,0,.21.62,0.58,0.58,0,0,0,.66,0Z" transform="translate(-23.92 -190.36)"/><path class="cls-9" d="M204.88,232.26a1,1,0,0,0,.26-0.22l0.12-.16,0.08-.06a0.69,0.69,0,0,0,.12-0.17,1.6,1.6,0,0,0,.12-0.31,2.71,2.71,0,0,0,.08-0.39,0.72,0.72,0,0,0,0-.22,1.57,1.57,0,0,0,0-.27,1.42,1.42,0,0,0-.11-0.33,2.44,2.44,0,0,0-.14-0.29,0.62,0.62,0,0,0-.34-0.29h0l-0.06,0a0.33,0.33,0,0,0-.49.28v0a0.66,0.66,0,0,0-.05.32,2.06,2.06,0,0,1,0,.23c0,0.08,0,.16,0,0.24s0,0.09,0,.14a0.51,0.51,0,0,0,0,.12,2.76,2.76,0,0,1,0,.33c0,0.06,0,.13,0,0.19a0.59,0.59,0,0,0,0,.17l0,0.08,0,0.11v0.13a0.37,0.37,0,0,0,.13.39A0.37,0.37,0,0,0,204.88,232.26Z" transform="translate(-23.92 -190.36)"/><path class="cls-9" d="M51.52,256.89c-2.76-.55-5.66-1.59-7.21-4.12a8.29,8.29,0,0,1-1.14-4.18,9,9,0,0,1,.21-2.26,7.39,7.39,0,0,0,.44-2.14,0.27,0.27,0,0,0-.33-0.25,3.14,3.14,0,0,0-1.5,1.81,9.06,9.06,0,0,0-.69,2.66,8.88,8.88,0,0,0,1.22,5.3c1.74,2.94,5.53,5.3,9,4.14A0.5,0.5,0,0,0,51.52,256.89Z" transform="translate(-23.92 -190.36)"/><path class="cls-9" d="M38.68,238.41c-0.27-.2-0.6-0.31-0.87-0.51s-0.69-.48-1-0.73a17.14,17.14,0,0,1-1.68-1.3,8.87,8.87,0,0,1-2.33-3.6,8.12,8.12,0,0,1,1.86-8,10.76,10.76,0,0,1,1.81-1.54c0.36-.25.73-0.48,1.1-0.71a3.94,3.94,0,0,0,.87-0.88,0.27,0.27,0,0,0-.12-0.44c-1.67-.6-3.47.67-4.64,1.78a10.79,10.79,0,0,0-2.81,4.5,10.1,10.1,0,0,0,2.43,9.94,7.88,7.88,0,0,0,2.5,1.88,5.62,5.62,0,0,0,2.8.49C39,239.19,39,238.61,38.68,238.41Z" transform="translate(-23.92 -190.36)"/><path class="cls-9" d="M36.22,225.73a0.42,0.42,0,0,0-.4-0.31c-0.78-.05-1.4.93-1.68,1.53a6.13,6.13,0,0,0-.58,2.43,5.83,5.83,0,0,0,.51,2.42,2.94,2.94,0,0,0,1.75,1.68,0.52,0.52,0,0,0,.62-0.62,1.39,1.39,0,0,0-.13-0.35c-0.07-.27-0.2-0.5-0.29-0.77s-0.2-.52-0.29-0.77a5.13,5.13,0,0,1-.34-1.76,4.64,4.64,0,0,1,.31-1.72A3.43,3.43,0,0,0,36.22,225.73Z" transform="translate(-23.92 -190.36)"/><path class="cls-9" d="M37.62,231.64a0.43,0.43,0,0,0,.17.08,0.47,0.47,0,0,0,.56-0.18,0.61,0.61,0,0,0,0-.47,1.55,1.55,0,0,0,0-.5v-0.08a1.55,1.55,0,0,0-.08-0.4c0-.14-0.06-0.28-0.09-0.41s0-.16,0-0.24h0v-0.06a5.3,5.3,0,0,1,0-.89V228.4c0-.13,0-0.26.06-0.4a0.33,0.33,0,1,0,0-.09,1,1,0,0,0,0-.27s0-.06,0,0h0l0-.14a0.32,0.32,0,0,0,0-.16,0.54,0.54,0,0,0-.81-0.46l0,0a0.48,0.48,0,0,0-.16.09,1.3,1.3,0,0,0-.18.18l0,0a1.38,1.38,0,0,0-.34.39,2.15,2.15,0,0,0-.21.53,4,4,0,0,0-.15,1,5,5,0,0,0,.11,1,2.19,2.19,0,0,0,.13.4,3.37,3.37,0,0,0,.16.37,0.85,0.85,0,0,0,.23.25,1.2,1.2,0,0,0,.38.35c0.08,0,.17.06,0.24,0.1S37.56,231.6,37.62,231.64Z" transform="translate(-23.92 -190.36)"/><path class="cls-9" d="M40.83,230.62a1.13,1.13,0,0,0,0-.39l0-.19h0s0,0,0,0a2.89,2.89,0,0,0-.05-0.54,1.07,1.07,0,0,0,0-.18v0c0-.06,0-0.12,0-0.17l0-.18v0l0-.2a1.36,1.36,0,0,0,0-.22,0.54,0.54,0,0,0,0-.13,1.24,1.24,0,0,0,0-.35v0a0.58,0.58,0,0,0-.08-0.3A0.41,0.41,0,0,0,40,227.5a0.55,0.55,0,0,0-.25.16l-0.1.13a0.44,0.44,0,0,0-.06.07l-0.05.05a0.61,0.61,0,0,0-.08.12c0,0.09-.07.19-0.12,0.27a1.66,1.66,0,0,1-.09.21c0,0.06,0,.13,0,0.19a2.29,2.29,0,0,0-.05.56c0,0.18,0,.37.06,0.55a2.22,2.22,0,0,0,.81,1.25,1.69,1.69,0,0,0,.28.22,0.38,0.38,0,0,0,.55-0.42C40.87,230.79,40.85,230.71,40.83,230.62Z" transform="translate(-23.92 -190.36)"/><path class="cls-9" d="M39.38,228.31a0.09,0.09,0,1,0,0,0h0Z" transform="translate(-23.92 -190.36)"/><path class="cls-9" d="M39.38,228.29h0S39.4,228.26,39.38,228.29Z" transform="translate(-23.92 -190.36)"/><path class="cls-9" d="M46.88,250.19l0-.06c0-.1-0.06-0.2-0.09-0.3-0.13-.39-0.29-0.76-0.39-1.16-0.05-.19-0.09-0.38-0.13-0.57s-0.05-.35-0.07-0.51,0-.21,0-0.32-0.05-.25-0.08-0.38a2.53,2.53,0,0,0-.15-0.54,0.29,0.29,0,0,0-.47-0.12,2,2,0,0,0-.63,1.28,4.85,4.85,0,0,0-.07.72,6.1,6.1,0,0,0,.07.84,3.8,3.8,0,0,0,.43,1.41l0.13,0.17s0-.05,0,0l0.08,0.13,0.2,0.29a1.61,1.61,0,0,0,.49.47,1.3,1.3,0,0,0,.63.42,0.46,0.46,0,0,0,.57-0.44,1.44,1.44,0,0,0-.22-0.62,1.9,1.9,0,0,0-.21-0.58Z" transform="translate(-23.92 -190.36)"/><path class="cls-9" d="M48.72,248l0-.14c0-.09,0-0.17-0.05-0.26a0.86,0.86,0,0,0-.08-0.19,0.22,0.22,0,0,0,0-.05,1,1,0,0,0-.28-0.57l-0.07-.11a0.31,0.31,0,0,0-.37,0l-0.09.07a0.85,0.85,0,0,0-.38.35,1.26,1.26,0,0,0-.09.24l0,0.11a0.74,0.74,0,0,0-.07.15q0,0.12,0,.25s0,0.1,0,.15,0,0.24,0,.36a2.8,2.8,0,0,0,.12.88,0.89,0.89,0,0,0,.23.39l0,0.06a1.08,1.08,0,0,0,.5.4l0,0,0.08,0,0,0a0.52,0.52,0,0,0,.51.07,0.49,0.49,0,0,0,.29-0.46v-0.06a0.4,0.4,0,0,0,0-.11,0.56,0.56,0,0,0,0-.07,1.38,1.38,0,0,0,0-.42v0s0,0,0-.05,0-.08,0-0.13V249a1,1,0,0,0-.05-0.4l-0.08-.23c0-.15-0.1-0.29-0.16-0.43C48.71,248,48.75,248.15,48.72,248Z" transform="translate(-23.92 -190.36)"/><path class="cls-9" d="M49,249.08h0v0h0v0Z" transform="translate(-23.92 -190.36)"/><path class="cls-9" d="M49,249.07h0v0Z" transform="translate(-23.92 -190.36)"/><path class="cls-9" d="M55.39,201.51A7.33,7.33,0,0,0,54.2,200a14.39,14.39,0,0,0-2.93-2.3,17.92,17.92,0,0,0-7.1-2.52,13.72,13.72,0,0,0-8,1.1,11.75,11.75,0,0,0-5.08,5.23,13.3,13.3,0,0,0-1.31,4.75,12.76,12.76,0,0,0,0,2.47,5.4,5.4,0,0,0,.72,2.23,0.35,0.35,0,0,0,.64-0.08,10.66,10.66,0,0,0,.24-1.83c0-.65,0-1.31.1-2a13.69,13.69,0,0,1,.92-3.82,10.35,10.35,0,0,1,4.06-4.9c3.88-2.39,9.3-1.46,13.09.66A16.43,16.43,0,0,1,52.49,201c0.48,0.42.92,0.88,1.42,1.28s1,0.79,1.44,1.23a0.44,0.44,0,0,0,.72-0.42A14,14,0,0,0,55.39,201.51Z" transform="translate(-23.92 -190.36)"/><path class="cls-9" d="M33.54,215.72s0,0,0,0a1.66,1.66,0,0,0,0-.21c0-.06,0-0.12-0.07-0.18a0.94,0.94,0,0,0-.08-0.34l-0.1-.2-0.1-.2a0.62,0.62,0,0,0,0-.1l0,0.09-0.08-.19c-0.13-.28-0.3-0.54-0.44-0.81s-0.13-.26-0.21-0.39-0.06-.13-0.09-0.2l0-.09,0-.05a1.43,1.43,0,0,0-.37-0.51l0,0a0.67,0.67,0,0,0-.16-0.1,0.45,0.45,0,0,0-.3,0,1,1,0,0,0-.43,1.13c0,0.07,0,.15,0,0.22l0,0.11s0,0.16,0,.06,0-.06,0,0.06a0.51,0.51,0,0,0,0,.13l0,0.11,0.08,0.24a4.28,4.28,0,0,0,.46,1,3.92,3.92,0,0,0,.4.48l0.18,0.17a0.9,0.9,0,0,0,.34.19l0.18,0.11,0.09,0a0.38,0.38,0,0,0,.12,0l0.12,0.05a0.39,0.39,0,0,0,.48-0.48v0Z" transform="translate(-23.92 -190.36)"/><path class="cls-9" d="M38.16,200.84a0.45,0.45,0,0,0-.38-0.67c-1.82.16-3.24,1.77-4,3.3a9.15,9.15,0,0,0-.88,2.5,5.45,5.45,0,0,0,.13,2.64,0.33,0.33,0,0,0,.62,0c0.19-.75.45-1.51,0.69-2.24a9.31,9.31,0,0,1,1-2,12.79,12.79,0,0,1,1.35-1.74A18.39,18.39,0,0,0,38.16,200.84Z" transform="translate(-23.92 -190.36)"/><path class="cls-9" d="M38.1,204.79l0,0a1.36,1.36,0,0,0,.2-0.33l0,0a0.85,0.85,0,0,0,.14-0.21l0,0a0.87,0.87,0,0,0,.16-0.19,0.41,0.41,0,0,0-.06-0.49,0.73,0.73,0,0,0-.45-0.19,0.82,0.82,0,0,0-.47-0.05l-0.12,0h0a1.47,1.47,0,0,0-.85.45,3.29,3.29,0,0,0-.75,1.05,4.66,4.66,0,0,0-.56,1.51c0-.11,0-0.08,0,0l0,0.16a1.05,1.05,0,0,0,0,.26c0-.07,0-0.08,0,0l0,0.21a0.8,0.8,0,0,0,0,.43l0,0.08a0.83,0.83,0,0,0,.09.2,0.41,0.41,0,0,0,.54.14l0.09-.05,0.08-.06a1,1,0,0,0,.32-0.29l0.07-.11v0h0a2.51,2.51,0,0,0,.21-0.32l0-.08,0,0,0,0h0l0,0h0l0.08-.11c0-.07.09-0.16,0.13-0.23l0.29-.49c0.17-.28.35-0.56,0.53-0.84Z" transform="translate(-23.92 -190.36)"/><path class="cls-9" d="M37.55,203.28h0C37.51,203.27,37.52,203.28,37.55,203.28Z" transform="translate(-23.92 -190.36)"/><path class="cls-9" d="M39.53,205.58H39.48l-0.15,0a0.62,0.62,0,0,0-.41,0,2.94,2.94,0,0,0-.42.17,1.46,1.46,0,0,0-.45.47,1.8,1.8,0,0,0-.14.26,1.14,1.14,0,0,0-.15.79l0-.19a1,1,0,0,0,0,.42,0.77,0.77,0,0,0,.09.29A0.6,0.6,0,0,0,38,208l0,0a0.32,0.32,0,0,0,.45,0h0a0.6,0.6,0,0,0,.18-0.19l0.12-.14a1.46,1.46,0,0,0,.15-0.18,2.31,2.31,0,0,0,.24-0.33l0.22-.26a1.76,1.76,0,0,0,.21-0.32l0.05-.09a0.75,0.75,0,0,0,.1-0.37A0.4,0.4,0,0,0,39.53,205.58Z" transform="translate(-23.92 -190.36)"/><path class="cls-9" d="M40.6,207.23l-0.15.05a0.56,0.56,0,0,0-.22.07,0.86,0.86,0,0,0-.14.11l-0.08.08-0.07.08a0.78,0.78,0,0,0-.18.31V208l0,0.11c0,0.06,0,.13,0,0.19a0.73,0.73,0,0,0,0,.19,0.57,0.57,0,0,0,.21.39,0.33,0.33,0,0,0,.38.07,0.54,0.54,0,0,0,.25-0.12l0,0,0.09-.09,0.08-.09,0,0a0.73,0.73,0,0,0,.16-0.27l0,0.09,0.06-.13,0-.06a1,1,0,0,0,.07-0.16,0.46,0.46,0,0,0,0-.14l0-.09a0.46,0.46,0,0,0-.12-0.45A0.47,0.47,0,0,0,40.6,207.23Z" transform="translate(-23.92 -190.36)"/><path class="cls-9" d="M58.73,206.37l-0.14-.26a4.85,4.85,0,0,0-.42-0.63,3.4,3.4,0,0,0-.41-0.42l-0.22-.19-0.14-.11-0.18-.07a0.2,0.2,0,1,1,0,0l-0.07,0a0.53,0.53,0,0,0-.57,0,0.51,0.51,0,0,0-.18.54c0,0.05,0,.2,0,0a0.77,0.77,0,0,0,.09.35l0.15,0.25c0.1,0.17.19,0.34,0.29,0.51s0.22,0.32.33,0.49l0.16,0.25a1,1,0,0,0,.31.32l0.07,0.08c-0.1-.15,0,0,0,0a0.81,0.81,0,0,0,.47.37,0.52,0.52,0,0,0,.56-0.23,1,1,0,0,0,0-.87A1.05,1.05,0,0,0,58.73,206.37Z" transform="translate(-23.92 -190.36)"/></g></g></svg>