<svg xmlns="http://www.w3.org/2000/svg" viewBox="0 0 124.1 126.83"><defs><style>.cls-1{isolation:isolate;}.cls-2{fill:#ffebde;}.cls-3{fill:#ff5d4f;}.cls-4{fill:#71d0d9;}.cls-5{fill:#ffafa8;}.cls-6{fill:#fff9f2;opacity:0.15;}.cls-6,.cls-9{mix-blend-mode:overlay;}.cls-7{fill:#52284a;opacity:0.1;}.cls-7,.cls-8{mix-blend-mode:multiply;}.cls-8{fill:#492659;opacity:0.25;}.cls-9{fill:#fff7f7;opacity:0.5;}.cls-10{fill:#610f1d;}</style></defs><title>celular</title><g class="cls-1"><g id="OBJECTS"><path class="cls-2" d="M311.94,342.14a53.68,53.68,0,0,0-19.12,1.43,49.05,49.05,0,0,0-8.84,3.18,23.15,23.15,0,0,0-7.25,5.14,19.23,19.23,0,0,0-5.1,15.21l0,0.26a18.58,18.58,0,0,0,3.29,8.11,17,17,0,0,0,3,3.28l0.25,0.2c0.74,0.59,1.45,1.15,1.17,2.08a14.2,14.2,0,0,1-2,3.63l-0.27.4c-1,1.56-2.11,3.17-3.21,4.79-0.44.66-.93,1.31-1.39,1.94-0.67.9-1.35,1.83-2,2.79l-0.29.46-0.12.19a0.23,0.23,0,0,0,.31.33c2.69-1.53,5.33-3,7.84-4.32,2.09-1.12,4.21-2.22,6.31-3.29,0.79-.4,1.57-0.85,2.33-1.28l1.47-.83a9.63,9.63,0,0,1,1.56-.71c1-.33,2.28.25,3.39,0.76,0.31,0.14.6,0.27,0.87,0.38,8.11,3.21,14.79,4.83,21,5.12a35.25,35.25,0,0,0,16.21-2.94,23.7,23.7,0,0,0,11.81-11c2.58-5.43,2.2-11.91-1-17.78a32.27,32.27,0,0,0-12.84-12.21A46.23,46.23,0,0,0,311.94,342.14Zm-24,41.36-0.05,0h-0.06a0.45,0.45,0,0,0-.22,0,0.13,0.13,0,0,1-.08-0.08,0.14,0.14,0,0,1,0-.14h0a0.4,0.4,0,0,0,.11-0.16l0-.05a0.7,0.7,0,0,1,.23-0.23l0.2-.12,0.08,0,0,0h0a3,3,0,0,1,1.06-.38,2.89,2.89,0,0,1,.59-0.08h0.5a1.47,1.47,0,0,1,1,.25,0.17,0.17,0,0,1,0,.13,0.31,0.31,0,0,1-.09.22,1.33,1.33,0,0,1-.66.2l-0.28,0-0.13,0h-0.06l-0.13,0-0.15.05-0.23,0-0.25,0-0.4.09-0.24.05-0.2,0h-0.08l-0.06,0-0.13,0-0.1,0-0.12,0A0.36,0.36,0,0,1,287.94,383.5ZM329.84,378h0a0.23,0.23,0,0,0,.08-0.09l0-.09a1.08,1.08,0,0,1,.14-0.13l0.12-.1,0.11-.09,0.06,0,0.09,0,0.07,0,0.07-.05,0,0a0.42,0.42,0,0,1,.12-0.08,0.11,0.11,0,0,1,.11,0,0.11,0.11,0,0,1,0,.1,0.6,0.6,0,0,1-.1.23l-0.05.09,0,0.06,0,0.06-0.12.13,0,0-0.08.05-0.06,0a1,1,0,0,1-.26.13h-0.29a0.08,0.08,0,0,1-.1-0.09A0.12,0.12,0,0,1,329.84,378Zm4.95,3.48h0Zm-4-2h0v0l0,0,0.13-.15,0.08-.1,0.24-.26,0,0,0,0h0l0.2-.2,0.22-.21,0.1-.06,0.06,0,0.05,0a0.86,0.86,0,0,1,.2-0.15,0.14,0.14,0,0,1,.14,0,0.14,0.14,0,0,1,.05.14,1,1,0,0,1-.11.32v0a1,1,0,0,1-.21.37,1.94,1.94,0,0,1-.32.33,1.45,1.45,0,0,1-.39.24l-0.45.14a0.16,0.16,0,0,1-.14-0.09h0a0.14,0.14,0,0,1,0-.08A0.2,0.2,0,0,1,330.77,379.5Zm0.2,2.2a0.63,0.63,0,0,1,.17-0.2l0-.05,0,0h0l0-.06,0.15-.13,0.16-.13-0.05,0a0.43,0.43,0,0,0,.12-0.08l0.18-.16c0.31-.23.55-0.43,0.77-0.63l0.18-.15,0.19-.16,0.38-.37a1.13,1.13,0,0,1,.15-0.14l0.06,0,0.06,0,0.06-.06,0.14-.16a0.82,0.82,0,0,1,.23-0.16,0.16,0.16,0,0,1,.17,0,0.29,0.29,0,0,1,.13.24,1,1,0,0,1-.16.5,0.23,0.23,0,0,0,0,.1,0.53,0.53,0,0,1,0,.16,1.92,1.92,0,0,1-.19.31,4.85,4.85,0,0,1-.75.9,4,4,0,0,1-1,.67l-0.08,0H332l-0.08,0-0.1,0a1,1,0,0,1-.3.06h-0.17A0.39,0.39,0,0,1,331,382,0.22,0.22,0,0,1,331,381.7Zm0.28,3.22a1.61,1.61,0,0,1,.47-0.4l0.15-.1c0.23-.16.46-0.33,0.68-0.51l0,0a2.78,2.78,0,0,1,.39-0.37l0.15-.13,0.4-.36,0.26-.24c0.22-.2.44-0.41,0.67-0.64l0.3-.29,0.2-.21c0.35-.38.67-0.79,1-1.18l0.15-.19,0.2-.26a2.82,2.82,0,0,1,1-.94l0.1,0,0.06,0a0.2,0.2,0,0,1,.1.13A2.7,2.7,0,0,1,337,381a8.81,8.81,0,0,1-1,1.44,10.79,10.79,0,0,1-1.4,1.37,9.85,9.85,0,0,1-.85.58,2.64,2.64,0,0,1-.65.33c-0.28.15-.55,0.28-0.84,0.4a1.94,1.94,0,0,1-.82.23h0a0.25,0.25,0,0,1-.21-0.14A0.28,0.28,0,0,1,331.25,384.92Zm7.7-8.12a0.39,0.39,0,0,1-.49,0,0.2,0.2,0,0,1-.07-0.29,19.88,19.88,0,0,0,1.92-6.36,16.6,16.6,0,0,0-2.72-10.95c-2.14-3.24-5.15-5.46-8.07-7.65h0a15.68,15.68,0,0,1,5.71,3.23A18.61,18.61,0,0,1,341.34,365C342.28,369.5,341.38,373.93,338.95,376.8Zm-8.25-7.12c-1.55,3.38-4.77,6.33-9.31,8.54a53.15,53.15,0,0,1-7.32,2.86c-1.19.38-2.46,0.77-4,1.23-0.33.1-.67,0.23-1,0.35a5.63,5.63,0,0,1-2.49.54,5.87,5.87,0,0,1-2.9-1.71l-0.66-.56c-1.24-1-2.27-1.84-3.24-2.64a53.16,53.16,0,0,1-5.7-5.41c-3.36-3.76-5.23-7.71-5.39-11.42a10.64,10.64,0,0,1,1.46-6.08,9.68,9.68,0,0,1,4-3.58,11.66,11.66,0,0,1,10.78.31,14.39,14.39,0,0,1,4.51,4,12.81,12.81,0,0,1,1.42,2.4,0.23,0.23,0,0,0,.37.07,12.84,12.84,0,0,1,2.22-1.69,14.39,14.39,0,0,1,5.69-2,11.66,11.66,0,0,1,10.1,3.78,9.67,9.67,0,0,1,2.38,4.84A10.64,10.64,0,0,1,330.7,369.68Zm-34.88,14.26h0.35a9.11,9.11,0,0,1,1.83.43l0.66,0.19,1.75,0.49,1.13,0.32a47,47,0,0,0,10.64,1.73c1.94,0.08,3.87.07,5.34,0l1.3,0c1.3,0,2.64-.07,3.95,0h0a0.3,0.3,0,0,1,.24.27,0.22,0.22,0,0,1-.13.26,19.88,19.88,0,0,1-6.07,1,47.61,47.61,0,0,1-11.07-1,44.36,44.36,0,0,1-5.35-1.39,20.38,20.38,0,0,1-2.54-1l-0.38-.19a5.52,5.52,0,0,1-1.71-1.08A0.08,0.08,0,0,1,295.82,383.94Zm22.65-.25a0.38,0.38,0,0,1-.18.07l-0.15,0-0.05,0-0.15,0h-0.39a1.91,1.91,0,0,1-.29-0.06l-0.16,0a0.43,0.43,0,0,1-.23-0.1,0.37,0.37,0,0,1-.09-0.15l0-.09a0.18,0.18,0,0,1,0-.1l0-.08a0.38,0.38,0,0,1,.13-0.15,0.21,0.21,0,0,1,.11,0h0.28a1.86,1.86,0,0,1,.44,0l0.14,0,0.16,0,0.09,0.05,0.06,0,0.14,0.05a0.31,0.31,0,0,1,.22.3A0.27,0.27,0,0,1,318.47,383.7ZM316.35,385l1.07,0H318l0.49,0h0.09l0.34,0a1.92,1.92,0,0,1,.66.1l0.1,0,0.32,0a0.23,0.23,0,0,1,.17.19,0.09,0.09,0,0,1-.07.11,3.64,3.64,0,0,1-.4.12l-0.07,0a1.73,1.73,0,0,1-.7.2l-0.35.06a4.68,4.68,0,0,1-1.26.09,8.08,8.08,0,0,1-1.18-.16,5.39,5.39,0,0,1-.59-0.16,0.7,0.7,0,0,1-.27-0.13,0.16,0.16,0,0,1-.05-0.07,0.23,0.23,0,0,0-.19-0.14h0a0.15,0.15,0,0,1,.08-0.11,0.8,0.8,0,0,0,.22-0.09l0.09,0a0.78,0.78,0,0,1,.22,0l0.25,0,0.34,0h0.15Zm-15.06-40.2a2.46,2.46,0,0,1,.68-0.21,9.81,9.81,0,0,1,1.58-.15h0.9l0.25,0,0.32,0a3.09,3.09,0,0,1,.66.13,2.21,2.21,0,0,0,.41.07,1.48,1.48,0,0,1,.39.08,0.23,0.23,0,0,1,.14.21,0.2,0.2,0,0,1-.12.2,2.62,2.62,0,0,1-.65.18,2.88,2.88,0,0,0-.35.1,2.19,2.19,0,0,1-.34.09l-0.36.07-0.34.07a4.63,4.63,0,0,1-.47,0h-0.23a9.72,9.72,0,0,1-1.54,0,3.93,3.93,0,0,1-.75-0.14l-0.06,0a0.64,0.64,0,0,1-.2-0.08,0.56,0.56,0,0,1-.15-0.2l-0.05-.09a0.13,0.13,0,0,1,0-.09A0.65,0.65,0,0,1,301.29,344.82Zm-22.65,13c-2.59,4.56-3.1,10.06-1.32,14.34a0.07,0.07,0,0,1,0,.1,0.07,0.07,0,0,1-.11,0,14.07,14.07,0,0,1-1.69-8.33,19.51,19.51,0,0,1,7.87-13.36,28.18,28.18,0,0,1,7.23-3.85,32.14,32.14,0,0,1,3.92-1.17,16.5,16.5,0,0,1,4.13-.31,0.14,0.14,0,0,1,.18.13,0.31,0.31,0,0,1-.19.32l-0.07,0c-1.36.44-2.77,0.89-4.18,1.27a37.58,37.58,0,0,0-4.1,1.33C286.61,349.81,281.61,352.65,278.64,357.87Zm-0.55,29.38,2.92-4.86,0.2-.32a6.28,6.28,0,0,0,.65-1.24c0.31-.88-0.33-1.52-0.89-2.08a5.46,5.46,0,0,1-.51-0.56,4.86,4.86,0,0,1-1-2.57,0.18,0.18,0,0,1,.11-0.16h0a0.06,0.06,0,0,1,0,0l0.08,0.11a20.84,20.84,0,0,0,2,2.59l0,0c0.8,0.82,1.43,1.47,1.17,2.61a8.8,8.8,0,0,1-1.33,2.64c-0.18.28-.37,0.56-0.53,0.84l-0.62,1a0.23,0.23,0,0,0,.3.33c0.28-.13.56-0.25,0.84-0.36l0.31-.12a7.05,7.05,0,0,1,3.13-.75,0.29,0.29,0,0,1,.23.21,0.2,0.2,0,0,1-.07.22,5,5,0,0,1-1.31.64l-0.3.11c-0.53.21-1.05,0.45-1.6,0.7a28.86,28.86,0,0,0-3.27,1.73,0.39,0.39,0,0,1-.52,0A0.68,0.68,0,0,1,278.1,387.25Zm6.07-24.93a1.6,1.6,0,0,1-.06.28,0.48,0.48,0,0,0,0,.07,1.1,1.1,0,0,1-.07.26,5.75,5.75,0,0,0-.24.76,6.19,6.19,0,0,1-.23.69,0.43,0.43,0,0,1-.07.11,0.24,0.24,0,0,0,0,.08h0l0,0.12,0,0.1a1.68,1.68,0,0,1-.13.27,0.1,0.1,0,0,1-.1.05A0.19,0.19,0,0,1,283,365a1.33,1.33,0,0,1-.11-0.35l0-.06,0-.06a0.23,0.23,0,0,0,0-.14,0.42,0.42,0,0,1,0-.22,2.54,2.54,0,0,1,.12-0.83,6,6,0,0,1,.37-0.79,0.81,0.81,0,0,1,.15-0.21l0,0,0.14-.15,0.09-.09,0,0,0.06,0,0.08-.06a0.23,0.23,0,0,1,.26,0,0.23,0.23,0,0,1,.12.18C284.18,362.2,284.17,362.26,284.16,362.32Zm-1.38-1.47c-0.06.13-.14,0.25-0.21,0.37l-0.15.25a6.93,6.93,0,0,0-.49,1.12c-0.07.22-.14,0.44-0.2,0.66l-0.08.32,0,0.15h0l0,0.06a3.55,3.55,0,0,1-.1.37c0,0.1-.06.2-0.09,0.31h0a0.77,0.77,0,0,1-.26.42,0.15,0.15,0,0,1-.12,0,0.83,0.83,0,0,1-.25-0.38,2.33,2.33,0,0,1,0-.41,0.75,0.75,0,0,0,0-.08,2.5,2.5,0,0,1,.12-1l0-.11a5.9,5.9,0,0,1,.38-1,3.29,3.29,0,0,1,1.44-1.8l0.1,0a0.14,0.14,0,0,1,.08,0,0.23,0.23,0,0,1,.06.22A2.23,2.23,0,0,1,282.78,360.86ZM279,361c0.48-1.19,1.56-3.26,3.34-3.83h0a0.13,0.13,0,0,1,.07,0,0.1,0.1,0,0,1,0,.08,11,11,0,0,1-.8,1.25c-0.17.25-.35,0.49-0.51,0.75a11.37,11.37,0,0,0-1.05,2.08,11.59,11.59,0,0,0-.58,2.31h0c0,0.18,0,.37-0.06.56a6.23,6.23,0,0,1-.08.67l-0.11.52-0.13.62a0.2,0.2,0,0,1-.16.16,0.14,0.14,0,0,1-.14-0.09,4.65,4.65,0,0,1-.45-1.21,5.1,5.1,0,0,1,0-1.38A8.82,8.82,0,0,1,279,361Zm46.27,25.75a0.23,0.23,0,0,0,.1-0.08,0.45,0.45,0,0,1,.14-0.13l0.07,0,0.06,0h0a0.23,0.23,0,0,0,.11,0l0.09-.06,0.2-.06,0.06,0,0.41-.14,0.11,0,0.23-.07,0.05,0h0.08l0.17,0,0.34-.06,0.18,0H328a3.32,3.32,0,0,1,.44-0.09,0.19,0.19,0,0,1,.21.08,0.18,0.18,0,0,1,0,.17,1.2,1.2,0,0,1-.24.23l-0.23.15,0,0a1.92,1.92,0,0,1-.57.37l-0.09,0a2.86,2.86,0,0,1-.75.19,2.23,2.23,0,0,1-.84,0h-0.06l-0.11,0-0.14,0a0.43,0.43,0,0,1-.14-0.1,0.35,0.35,0,0,0-.13-0.07A0.1,0.1,0,0,1,325.32,386.77Z" transform="translate(-223.44 -333.07)"/><path class="cls-3" d="M272.41,447.6l0.12,0.72,0.14,0.67,0.16,0.76c0,0.2.08,0.39,0.13,0.6a0.23,0.23,0,0,0,.21.18h0.11l0.55-.1,0.22,0q2-.39,4-0.76l0.22,0,0.55-.1h0l0,0a0.23,0.23,0,0,0,.14-0.25c0-.2-0.06-0.4-0.1-0.59l-0.13-.77-0.12-.72-0.14-.67-0.16-.77c0-.19-0.08-0.39-0.13-0.59a0.23,0.23,0,0,0-.26-0.18h0l-0.55.1-0.22,0-4,.76-0.22,0-0.55.1h0l0,0a0.23,0.23,0,0,0-.13.24c0,0.2.06,0.4,0.1,0.59Z" transform="translate(-223.44 -333.07)"/><path class="cls-4" d="M283.29,344.05l0.13,0.21,0.07,0.12a0.23,0.23,0,0,0,.29.09c0.86-.39,1.74-0.76,2.62-1.09l1.51-.55a0.23,0.23,0,0,0,.15-0.27c-0.14-.58-0.29-1.15-0.44-1.72-0.5-1.79-1.31-4-3.19-5s-4-.61-5.94-0.32l-0.82.12c-7.31,1-14.85,2.22-22.39,3.59s-15,3.05-22.17,4.76l-0.81.18c-1.92.43-4.09,0.92-5.42,2.45s-1.36,3.94-1.17,5.79,0.52,4,.83,5.9c0.12,0.73.23,1.46,0.35,2.2q0.66,4.33,1.34,8.67c1.73,11,3.63,22.17,5.65,33.3s4.44,22.22,6.8,33.08q0.93,4.28,1.89,8.56c0.16,0.73.32,1.45,0.48,2.18,0.41,1.91.83,3.88,1.36,5.79s1.31,4,3.19,5a5.61,5.61,0,0,0,2.18.6,16.52,16.52,0,0,0,3.76-.28l0.82-.12c7.32-1,14.85-2.22,22.39-3.59s15-3.05,22.17-4.76l0.81-.18c1.92-.43,4.09-0.92,5.42-2.45s1.36-3.94,1.17-5.79-0.52-4-.83-5.89c-0.12-.74-0.24-1.47-0.35-2.21q-0.66-4.33-1.34-8.67c-1.73-11-3.63-22.17-5.64-33.3v0h-0.23l0.23,0a0.23,0.23,0,0,0-.15-0.17c-1.36-.46-2.75-1-4.14-1.5a0.23,0.23,0,0,0-.31.26l0,0.25q0.27,1.4.54,2.8c2.12,11.32,3.83,22.56,5.68,35a14.89,14.89,0,0,1,.09,5.57,6,6,0,0,1-3.73,4.14,30.24,30.24,0,0,1-5,1.37l-1.46.32c-5.25,1.21-10.47,2.31-15.5,3.25-2.72.51-5.41,1-8,1.4-2.36.38-4.76,0.75-7.12,1.09l-1.48.23a30.22,30.22,0,0,1-5.12.52,6,6,0,0,1-5-2.51c-1.72-2.5-2.34-5.88-2.95-9.15-0.21-1.1-.4-2.14-0.63-3.13-0.93-4-2-8.63-3-13.36-0.9-4.46-1.81-9.14-2.78-14.31q-0.28-1.47-.54-2.94l-0.4-2.13q-0.28-1.47-.56-2.93c-1-5.16-1.82-9.85-2.59-14.35-0.81-4.71-1.48-9.46-2.13-14l0-.22c-0.3-2.14-.61-4.28-0.93-6.43a14.89,14.89,0,0,1-.09-5.58,6,6,0,0,1,3.73-4.14,30.29,30.29,0,0,1,5-1.37l1.46-.32c8.13-1.88,16-3.44,23.49-4.65,2.36-.38,4.76-0.75,7.12-1.09l1.48-.23a30.19,30.19,0,0,1,5.12-.52A5.94,5.94,0,0,1,283.29,344.05ZM270.6,445.19a2.15,2.15,0,0,1,1.61-1l0.35-.06,1.94-.35,1-.18,2.08-.4a3.27,3.27,0,0,1,.86-0.06,1.7,1.7,0,0,1,1,.39,2.44,2.44,0,0,1,.69,1.44v0c0.08,0.4.15,0.79,0.24,1.21l0.11,0.57c0.11,0.57.23,1.18,0.32,1.81a2.51,2.51,0,0,1-.11,1.63,2.18,2.18,0,0,1-1.67,1l-2,.37-1.42.27-1.84.35a2.15,2.15,0,0,1-1.86-.33,2.59,2.59,0,0,1-.7-1.52l-0.19-.93-0.16-.82c-0.1-.51-0.19-1-0.27-1.54l-0.05-.31A2.38,2.38,0,0,1,270.6,445.19Z" transform="translate(-223.44 -333.07)"/><path class="cls-3" d="M320.67,357.06a11.42,11.42,0,0,0-5.41,1.4,17.37,17.37,0,0,0-2.42,1.58c-0.16.12-.33,0.28-0.52,0.45-0.61.56-1.3,1.19-2,1a2.64,2.64,0,0,1-1.16-1.53c-0.11-.24-0.21-0.47-0.33-0.66a17.29,17.29,0,0,0-1.64-2.38,11.42,11.42,0,0,0-4.48-3.34,9.28,9.28,0,0,0-8.86,1.07c-2.55,1.91-3.5,5.29-2.56,9,1,4,3.81,7.19,6.42,9.79,1.1,1.09,2.26,2.15,3.39,3.17l1.26,1.14c0.55,0.51,1.1,1,1.65,1.54h0l0.48,0.41,0.41,0.35c0.33,0.29.69,0.57,1,.85l0.43,0.31,0.13,0.09a0.23,0.23,0,0,0,.11,0h0.08l0.39-.1a40.23,40.23,0,0,0,3.84-1.3l0.88-.33,1.6-.58c1.43-.52,2.91-1.05,4.34-1.65,3.4-1.43,7.2-3.33,9.64-6.65,2.28-3.11,2.67-6.6,1-9.34A9.28,9.28,0,0,0,320.67,357.06Z" transform="translate(-223.44 -333.07)"/><path class="cls-5" d="M269.85,347.27c0.95-.23,2-0.44,3.13-0.64a6.2,6.2,0,0,1,4.82.77L278,347.6a0.23,0.23,0,0,0,.29,0,27.62,27.62,0,0,1,3.27-2,0.23,0.23,0,0,0,.08-0.34,3.84,3.84,0,0,0-1.34-1.23c-1.41-.74-3.17-0.47-4.72-0.24l-0.67.1c-6,.82-12.09,1.81-18.25,2.93s-12.21,2.49-18.06,3.88l-0.6.14H238c-1.53.34-3.27,0.73-4.32,1.93s-1.06,3.11-.91,4.58,0.42,3.23.68,4.84q0.14,0.88.28,1.75,0.54,3.53,1.09,7.06c1.42,9,3,18.1,4.6,27.15s3.62,18.1,5.54,27q0.76,3.49,1.54,7c0.13,0.59.26,1.18,0.39,1.78,0.33,1.55.68,3.16,1.11,4.71s1,3.16,2.51,3.94a4.39,4.39,0,0,0,1.7.46,13.32,13.32,0,0,0,3-.22l0.67-.1c6-.82,12.09-1.81,18.25-2.93s12.21-2.49,18.06-3.88l0.66-.15c1.54-.34,3.27-0.73,4.32-1.93s1.06-3.11.91-4.58-0.42-3.2-.67-4.79c-0.1-.6-0.19-1.2-0.28-1.8q-0.54-3.53-1.09-7.06c-1.42-9-3-18.11-4.6-27.15l-0.11-.57a0.23,0.23,0,0,0-.14-0.17l-0.08,0-0.75-.31a0.24,0.24,0,0,0-.2,0c-0.38.21-.77,0.41-1.16,0.6l-0.09,0-3.19,1.6c-2.1,1.06-4.23,2.17-6.33,3.29-4.15,2.21-8.33,4.55-12.45,7a1,1,0,0,1-1.16-.11,1,1,0,0,1-.2-1.12c0.72-1,1.43-2,2.16-3l0.47-.67c0.34-.58.76-1.15,1.16-1.7,0.23-.32.46-0.63,0.68-1l0.92-1.35,1-1.43,2.29-3.37,0.81-1.2c0.51-.76,1-1.52,1.54-2.27l0.34-.51c0.2-.3.4-0.62,0.62-0.91a0.23,0.23,0,0,0-.06-0.33,15.31,15.31,0,0,1-2.26-1.8,19.86,19.86,0,0,1-5.83-15.53,21.94,21.94,0,0,1,7.33-14.62,0.23,0.23,0,0,0,0-.36,3.3,3.3,0,0,0-1.25-.54,11,11,0,0,0-2.83-.08c-0.94.06-1.89,0.16-2.81,0.29l-0.56.09a7.6,7.6,0,0,1-2.15.14,0.08,0.08,0,0,1-.05-0.1,7.16,7.16,0,0,1,2.65-1Zm-4.21,89.56,3.4-.59,0.7-.13a10.1,10.1,0,0,1,2.72-.25,0.3,0.3,0,0,1,.29.24,0.41,0.41,0,0,1-.19.43,6.89,6.89,0,0,1-1.65.64l-0.34.1c-0.37.11-.75,0.21-1.13,0.3l-0.81.2a34.22,34.22,0,0,1-3.4.68l-0.73.12c-2.43.42-4.91,0.77-7.37,1.06l-0.39,0a5.56,5.56,0,0,1-3-.14,3.64,3.64,0,0,1-1.8-2,15.76,15.76,0,0,1-.7-2.41l-0.15-.65c-0.26-1.06-.49-2.14-0.72-3.19l-0.14-.63a68.68,68.68,0,0,1-1.24-7.58,0.09,0.09,0,0,1,0-.08l0,0,0,0a72.21,72.21,0,0,1,2.52,7.65l0.15,0.54c0.26,1,.53,1.93.78,2.91,0.06,0.23.11,0.46,0.16,0.7a11.67,11.67,0,0,0,.66,2.2,1.89,1.89,0,0,0,2,1.27,20.75,20.75,0,0,0,2.48-.26l0.83-.12C261,437.61,263.35,437.25,265.64,436.83ZM237.72,360c0.05,0.44.1,0.87,0.16,1.31a44.66,44.66,0,0,1,.46,5.78,0.1,0.1,0,0,1-.07,0,0.1,0.1,0,0,1-.06-0.06,23.78,23.78,0,0,1-.61-2.45c-0.07-.32-0.14-0.64-0.21-1-0.25-1.1-.48-2.21-0.68-3.31a9,9,0,0,1,0-4.41,4.34,4.34,0,0,1,3.32-2.79c1.77-.49,3.68-0.95,5.84-1.41l0.95-.21c0.63-.14,1.29-0.29,1.93-0.4l0.78-.14a12.6,12.6,0,0,1,2.14-.28h0a0.23,0.23,0,0,1,.21.2,0.35,0.35,0,0,1-.15.39,7,7,0,0,1-1.21.41l-0.42.12-0.68.21c-0.35.11-.7,0.23-1.06,0.32l-1.07.28c-0.82.21-1.63,0.43-2.46,0.62l-0.86.2-2.46.58-0.48.11a5.13,5.13,0,0,0-2.49,1C237.29,356.36,237.55,358.58,237.72,360Zm0.95,15.09a0.09,0.09,0,0,1,.08-0.08,0.06,0.06,0,0,1,.07,0,11.33,11.33,0,0,1,.78,2.55l0.12,0.51c0.23,1,.47,2.06.67,3.09,0.77,4,1.5,7.61,2.25,11.2,0.37,1.8.76,3.66,1.1,5.5,0.09,0.51.2,1,.31,1.53a25,25,0,0,1,.61,4,0.1,0.1,0,0,1-.09.11,0.21,0.21,0,0,1-.23-0.08,15.37,15.37,0,0,1-.87-2.51l-0.13-.46L243,399.37c-0.2-.66-0.4-1.32-0.58-2-1-3.69-1.72-7.47-2.4-11.12l0-.26c-0.32-1.73-.66-3.52-0.89-5.29-0.14-1.08-.25-2-0.33-2.91l0-.37A9.66,9.66,0,0,1,238.66,375.14ZM244,391l0-.08c-0.26-1-.46-2-0.64-3l-0.08-.42c-0.21-1.1-.39-2.23-0.56-3.44-0.08-.57-0.14-1.17-0.19-1.79a3.19,3.19,0,0,1,.12-1.47,0.12,0.12,0,0,1,.09-0.08h0a0.12,0.12,0,0,1,.08,0,3.31,3.31,0,0,1,.62,1.33c0.17,0.57.33,1.15,0.47,1.74q0.4,1.64.79,3.29l0.23,1c0.18,0.76.37,1.54,0.52,2.31l0.06,0.28a9.6,9.6,0,0,1,.28,3.17,0.39,0.39,0,0,1-.29.3,0.22,0.22,0,0,1-.26-0.09A9.46,9.46,0,0,1,244,391Zm2-6.7a3,3,0,0,1,.11-1.47,0.05,0.05,0,0,1,0,0h0l0.06,0a2.91,2.91,0,0,1,.65,1.21l0.11,0.32a14.61,14.61,0,0,1,.5,1.82c0.16,0.69.29,1.28,0.39,1.87a3.29,3.29,0,0,1,0,1.77h0a0.26,0.26,0,0,1-.19.17,0.32,0.32,0,0,1-.29-0.1,3.33,3.33,0,0,1-.71-1.63v-0.06c-0.14-.59-0.25-1.17-0.37-1.81a17.56,17.56,0,0,1-.26-1.88Zm5.19-.65a0.38,0.38,0,0,1,.06-0.1,0.24,0.24,0,0,0,0-.08s0,0,.09,0l0.09,0.06,0.08,0a0.5,0.5,0,0,0,.15.17,1.11,1.11,0,0,1,.18.29c0.09,0.23.17,0.47,0.25,0.7a3.45,3.45,0,0,1,.14.59,0.74,0.74,0,0,1,0,.24v0a0.43,0.43,0,0,0,0,.12,0.28,0.28,0,0,1,0,.06v0.08a0.32,0.32,0,0,0,0,0s0,0.09,0,.1a0.13,0.13,0,0,1-.1.1,0.11,0.11,0,0,1-.11,0l0,0,0-.06-0.09-.1a0.22,0.22,0,0,0-.06-0.09l0,0-0.08-.06a1,1,0,0,1-.1-0.17,3.8,3.8,0,0,1-.24-0.67c-0.06-.2-0.11-0.41-0.15-0.61a1.24,1.24,0,0,1,0-.33A0.77,0.77,0,0,0,251.25,383.61Zm2.67-.21a0.13,0.13,0,0,1,.09-0.11,0.16,0.16,0,0,1,.12,0l0,0.06,0,0.06a1,1,0,0,1,.2.29l0.06,0.11a1.05,1.05,0,0,1,.09.19l0.05,0.16a0.62,0.62,0,0,1,0,.21l0,0.17c0,0.06,0,.12,0,0.18a0.42,0.42,0,0,1,0,.18,0.2,0.2,0,0,1-.13.16,0.21,0.21,0,0,1-.22-0.06l0,0a0.31,0.31,0,0,1-.09-0.1l0-.05,0,0-0.09-.21,0,0a0.44,0.44,0,0,1-.07-0.16l0-.12a1.58,1.58,0,0,1,0-.31v-0.24a0.67,0.67,0,0,1,0-.1l0,0a0.23,0.23,0,0,0,0-.06V383.4ZM261,349.56a5.63,5.63,0,0,1-.73.29,4.22,4.22,0,0,0-.41.17l-0.36.15c-0.53.18-1.07,0.37-1.62,0.51a11.25,11.25,0,0,1-1.62.28h-0.1a2.56,2.56,0,0,1-1.41-.11,0.14,0.14,0,0,1-.07-0.08,0,0,0,0,1,0,0h0A2.68,2.68,0,0,1,256,350a11.51,11.51,0,0,1,1.65-.46,15.36,15.36,0,0,1,1.69-.23h0.36c0.16,0,.33,0,0.5,0a5.64,5.64,0,0,1,.8,0h0a0.13,0.13,0,0,1,.12.11A0.19,0.19,0,0,1,261,349.56Zm-11.15,37.87,0,0a0.25,0.25,0,0,1-.17.13,0.27,0.27,0,0,1-.22-0.08l0,0a1.09,1.09,0,0,1-.43-0.77l0-.15a5.07,5.07,0,0,1-.14-0.77l0-.25v0a7.65,7.65,0,0,1-.11-1.12v-0.09s0-.1,0-0.14V384a0.28,0.28,0,0,1,0-.13,0.22,0.22,0,0,0,0-.07,1.59,1.59,0,0,1,.08-0.39,0.2,0.2,0,0,1,.15-0.12h0a0.2,0.2,0,0,1,.13.07,2,2,0,0,1,.37.69l0.07,0.19a5.87,5.87,0,0,1,.26,1l0.08,0.37a5,5,0,0,1,.13.77v0.18A1.07,1.07,0,0,1,249.89,387.42ZM247,413.07a0.26,0.26,0,0,1,.2-0.16,0.22,0.22,0,0,1,.2.08,3.56,3.56,0,0,1,.61,1.53l0,0.2q0.21,0.89.41,1.78l0,0.2a11,11,0,0,1,.28,1.56c0,0.15,0,.29.06,0.44a3.2,3.2,0,0,1,.06.58v0.05a3.17,3.17,0,0,1-.09.82,0.2,0.2,0,0,1-.16.15,0.33,0.33,0,0,1-.3-0.09,1,1,0,0,1-.17-0.26l-0.06-.12-0.12-.19a1.5,1.5,0,0,1-.13-0.23,4.29,4.29,0,0,1-.16-0.51c0-.14-0.08-0.28-0.13-0.42a10.15,10.15,0,0,1-.4-1.74c-0.1-.6-0.18-1.2-0.25-1.8l0-.16A3.44,3.44,0,0,1,247,413.07ZM293.2,424a0.08,0.08,0,0,1,.07-0.09h0s0,0,0,0a2.29,2.29,0,0,0,.13.38,2.46,2.46,0,0,1,.09.24c0,0.12.06,0.25,0.09,0.38l0,0.18c0,0.15.07,0.3,0.11,0.45s0.12,0.45.16,0.68c0.08,0.4.16,0.8,0.2,1.18a4,4,0,0,1,0,.81c0,0.12,0,.25,0,0.37a0.19,0.19,0,0,1-.17.15,0.12,0.12,0,0,1-.15-0.07c0-.13-0.09-0.25-0.15-0.37a3.54,3.54,0,0,1-.25-0.76c-0.06-.38-0.1-0.76-0.14-1.15s0-.49,0-0.74,0-.32,0-0.48V425c0-.12,0-0.25,0-0.37a1.75,1.75,0,0,1,0-.26A1.94,1.94,0,0,0,293.2,424Zm-5-31.67a3.53,3.53,0,0,1,.2.43c0.07,0.19.12,0.39,0.18,0.58l0,0.1,0.16,0.53c0.11,0.37.23,0.75,0.32,1.12,0.2,0.82.37,1.66,0.53,2.47l0.16,0.78c0.67,3.33,1.26,6.74,1.83,10l0.26,1.51,0.27,1.5c0.26,1.44.52,2.93,0.73,4.4s0.29,3,.38,4.42c0,0.48.06,1,.09,1.45a0.17,0.17,0,0,1-.14.2,0.16,0.16,0,0,1-.18-0.14l-0.31-1.07c-0.52-1.78-1.06-3.63-1.43-5.49-0.56-2.85-1.05-5.76-1.52-8.58q-0.26-1.55-.52-3.1c-0.34-2-.67-3.94-1-5.9l0-.29c-0.13-.87-0.27-1.78-0.32-2.66,0-.23,0-0.46,0-0.69s0-.57-0.06-0.86a4.82,4.82,0,0,1,0-.66,4.54,4.54,0,0,0,0-.7h0.08a0.11,0.11,0,0,1,.06.06h0A3.59,3.59,0,0,0,288.17,392.34Zm-0.13,16c0.21,1.12.4,2.16,0.57,3.16l0.13,0.73c0.14,0.8.29,1.62,0.35,2.43,0,0.21,0,.41.06,0.62a5.84,5.84,0,0,1-.12,2.56,0.2,0.2,0,0,1-.16.13,0.18,0.18,0,0,1-.18-0.06,6.25,6.25,0,0,1-1-2.58l-0.09-.37c-0.21-.87-0.35-1.77-0.49-2.64l-0.08-.51c-0.16-1-.32-2-0.49-3.18l0-.12a7.92,7.92,0,0,1,0-3.12,0.32,0.32,0,0,1,.27-0.2,0.29,0.29,0,0,1,.29.09A8.16,8.16,0,0,1,288,408.31Zm-6.46,3h0a0.09,0.09,0,0,1,.07-0.06,0.09,0.09,0,0,1,.11,0l0.08,0.07a0.42,0.42,0,0,1,.18.21l0,0.08a0.24,0.24,0,0,0,0,.07l0.07,0.11,0.06,0.09a6.73,6.73,0,0,1,.23.67l0.06,0.2a4.75,4.75,0,0,1,.17.79,1.7,1.7,0,0,1,0,.35V414a0.86,0.86,0,0,1-.06.33l0,0.05a1.21,1.21,0,0,1-.06.21,0.16,0.16,0,0,1-.12.09,0.09,0.09,0,0,1-.09,0,1.69,1.69,0,0,1-.12-0.2l0,0a0.82,0.82,0,0,1-.15-0.27L282,414a1.74,1.74,0,0,1-.11-0.29c-0.06-.25-0.12-0.51-0.16-0.78s0-.3-0.07-0.45l-0.06-.37a0.52,0.52,0,0,1,0-.12,0.36,0.36,0,0,0,0-.1h0v-0.17a0.5,0.5,0,0,1,0-.3,0.23,0.23,0,0,0,0-.1v0Zm-1.47,22.52h0.8a1.63,1.63,0,0,1,.74.06,0.34,0.34,0,0,1,.19.23,0.3,0.3,0,0,1-.1.25,1.59,1.59,0,0,1-.63.28l-0.1,0-0.34.12-0.36.12c-0.44.12-.89,0.22-1.34,0.31l-1.64.34a7.59,7.59,0,0,1-.78.13l-0.15,0a0.76,0.76,0,0,1-.55-0.12l0,0a0.21,0.21,0,0,1,0-.26,1.12,1.12,0,0,1,.58-0.47l0.06,0a3,3,0,0,1,.51-0.18l0.23-.07c0.46-.15.94-0.29,1.46-0.42A10.26,10.26,0,0,1,280.12,433.81ZM285.41,415a0.94,0.94,0,0,1-.11.48,0.27,0.27,0,0,1-.19.11,0.26,0.26,0,0,1-.2,0,0.9,0.9,0,0,1-.26-0.4l-0.09-.2,0-.09a1.73,1.73,0,0,1-.14-0.35l-0.08-.32a12.4,12.4,0,0,1-.28-1.49c-0.05-.4-0.09-0.8-0.13-1.2l0-.33a7.3,7.3,0,0,1,0-.75c0-.07,0-0.14,0-0.21a1.61,1.61,0,0,1,0-.18,1.16,1.16,0,0,1,.06-0.31l0-.08h0a0.27,0.27,0,0,1,.22-0.16h0.09a0.21,0.21,0,0,1,.16.08l0.05,0.08a1.23,1.23,0,0,1,.16.26,1.87,1.87,0,0,1,.06.19l0,0.17c0.08,0.25.15,0.49,0.21,0.73l0.08,0.33c0.09,0.39.19,0.77,0.27,1.17a12.4,12.4,0,0,1,.22,1.5l0,0.33a2,2,0,0,1,0,.4v0.08C285.42,414.85,285.41,414.92,285.41,415Zm-5.49-2.1v-0.06a0.77,0.77,0,0,1,0-.23,0.24,0.24,0,0,0,0-.07v0c0-.08,0-0.08,0-0.09h0a0.23,0.23,0,0,0,.06.13h0a0.27,0.27,0,0,1,.06.08l0,0.13,0,0.09,0,0a0.23,0.23,0,0,0,0,.1h0l0,0,0,0a0.94,0.94,0,0,1,.06.17l0,0.1a3,3,0,0,1,.11.43,1.13,1.13,0,0,1,0,.23v0.08s0,0,0,.06a0.28,0.28,0,0,1-.1.18,0.19,0.19,0,0,1-.15,0,0.38,0.38,0,0,1-.2-0.24,1.21,1.21,0,0,1-.08-0.21,2.52,2.52,0,0,1-.06-0.4l0-.22a0.65,0.65,0,0,1,0-.19A0.28,0.28,0,0,0,279.92,412.89Z" transform="translate(-223.44 -333.07)"/><path class="cls-6" d="M227.63,380.41q1.52,8.81,3.18,17.6c0.31,1.64.63,3.27,0.94,4.9s0.59,3.28.9,4.91q1.41,7.54,2.92,15.06a10.68,10.68,0,0,0,7.78-1.46c3.42-1.92,7-4.84,8.76-8.41s1.66-7.78,1-11.65c-1.66-9.14-6.14-17.59-7.22-26.86a24.84,24.84,0,0,1,1.66-13.28,26.91,26.91,0,0,1,12-12.36c11.17-5.66,22.36.54,33,4.13,9.45,3.18,19.69,3.21,28.16-2.56a39.87,39.87,0,0,0,7.16-6.44,49.35,49.35,0,0,0-11.54-3.63,55.69,55.69,0,0,0-26.18,1.5,16.42,16.42,0,0,0-2.21-5.72,7.34,7.34,0,0,0-6.11-3.08,52.25,52.25,0,0,0-8.1.92q-4.37.63-8.73,1.34c-9.64,1.56-19.27,3.5-28.82,5.7a52.28,52.28,0,0,0-7.88,2.07,7.34,7.34,0,0,0-4.58,5.08,18,18,0,0,0,.11,6.84C225.1,363.49,226.17,372,227.63,380.41Z" transform="translate(-223.44 -333.07)"/><path class="cls-7" d="M346.14,362.26a22.77,22.77,0,0,1-13.44,7.42c-3.57.58-7.28,0-10.81-.61-4.35-.72-8.66-1.65-13-2.4-7.42-1.29-17.35-3.31-24.25.83-7.25,4.35-6.7,15.83-3.35,22.42,3.16,6.22,9.92,11.6,9.48,19.16-0.27,4.72-3.39,8.73-6.57,12-3.41,3.46-7.29,6.45-10.75,9.87-7.06,7-13.91,14.22-21.75,20.34a78.15,78.15,0,0,1-7.71,5.37l0.12,0.19a7.34,7.34,0,0,0,6.11,3.08,52.27,52.27,0,0,0,8.1-.92q4.37-.63,8.73-1.34c9.64-1.56,19.27-3.5,28.82-5.7a52.28,52.28,0,0,0,7.88-2.07,7.34,7.34,0,0,0,4.58-5.08,18,18,0,0,0-.11-6.84c-2.12-14.29-4.29-28.71-7-43-0.23-1.23-.47-2.46-0.71-3.7,9.4,2.87,19.27,4,28.81.84A28.62,28.62,0,0,0,343.55,382a20.89,20.89,0,0,0,3.8-9.3,22.12,22.12,0,0,0-1.12-10.14Z" transform="translate(-223.44 -333.07)"/><path class="cls-8" d="M278.82,381.36c1.89-.17,1.7-2.48.89-3.64a11.21,11.21,0,0,0-1.79-1.73,20.89,20.89,0,0,1-1.65-1.68A19.87,19.87,0,0,1,272,366a21.65,21.65,0,0,1-.49-2.63c-0.11-.9-0.11-1.82-0.26-2.72a0.26,0.26,0,0,0-.49,0,11.16,11.16,0,0,0-.17,4.38,19.4,19.4,0,0,0,1,4.35,19.8,19.8,0,0,0,4.74,7.64,14.11,14.11,0,0,1,1.88,1.81,1.63,1.63,0,0,1,.08,1.66A0.59,0.59,0,0,0,278.82,381.36Z" transform="translate(-223.44 -333.07)"/><path class="cls-8" d="M235.14,350.53c-2.35,1.27-2.77,4-2.69,6.45a9.14,9.14,0,0,0,0,1.15,25.56,25.56,0,0,0,.42,3.36c0.22,1.66.48,3.31,0.71,5q1.36,9.81,3,19.59,3.18,19.44,7.34,38.7,1.17,5.39,2.42,10.76c0.68,2.91,1.12,6.73,3.77,8.57a0.78,0.78,0,0,0,1-1.13c-1.56-2.2-2-4.82-2.64-7.39q-1.07-4.66-2.09-9.33-2-9.4-3.88-18.85-3.62-18.79-6.33-37.74-0.75-5.3-1.43-10.61a22.54,22.54,0,0,1-.19-2.41,7.26,7.26,0,0,1,.29-1,5.05,5.05,0,0,1,3.64-3c2-.57,4.12-0.84,6.18-1.22q13.63-2.52,27.25-5.07a31.14,31.14,0,0,1,5.85-.86,6.11,6.11,0,0,1,2.46.44,3.39,3.39,0,0,0,1.2.49,1.11,1.11,0,0,0,1-.51c0.85-2-2.92-2.61-4.15-2.66a26.22,26.22,0,0,0-5.91.72q-13.62,2.56-27.24,5.14c-2.15.41-4.33,0.74-6.46,1.26a10.73,10.73,0,0,0-3.16,1.25l0.19-.35A0.45,0.45,0,0,0,235.14,350.53Z" transform="translate(-223.44 -333.07)"/><path class="cls-8" d="M308,387.57a70.93,70.93,0,0,1-9.78-2.2q-2.43-.71-4.82-1.52c-1.55-.53-3.07-1.32-4.7-0.66a22.09,22.09,0,0,0-2.42,1.32L283.68,386c-1.72,1-3.42,2-5.11,3-0.85.51-1.71,1-2.55,1.53s-1.63,1.13-2.48,1.67c-1.63,1-3.3,2-4.85,3.2a0.32,0.32,0,0,0,.34.53c1.65-.76,3.23-1.67,4.83-2.53,0.9-.48,1.81-0.95,2.71-1.41a0.48,0.48,0,0,0,.51.38,13.16,13.16,0,0,0,3.77-1.67c1.29-.67,2.56-1.39,3.83-2.09s2.48-1.37,3.71-2.08a2.94,2.94,0,0,0,1.72-1.76,3.23,3.23,0,0,1,.87.24,0.55,0.55,0,0,0,.17.6,10.1,10.1,0,0,0,3,1.56c0.89,0.34,1.78.66,2.68,1a0.37,0.37,0,0,0-.1.21,21.65,21.65,0,0,0,.39,5.88c0.29,2,.67,3.93,1,5.89l2.12,11.77c0.58,3.22,1.19,6.44,1.78,9.66l0.52,3.32c0.1,0.82.21,1.64,0.29,2.46,0.48,4.57,1.12,9.12,1.54,13.71,0.05,0.59.1,1.18,0.12,1.77a4.55,4.55,0,0,1-1.11,2.09,6.31,6.31,0,0,1-2.75,1.37q-1.79.55-3.59,1.06-3.6,1-7.22,2-3.94,1-7.91,1.91a2.12,2.12,0,0,0,.29-0.49,3.83,3.83,0,0,0,0-2.25l-0.45-2.3a4.86,4.86,0,0,0-.7-2.21c-0.52-.63-1.24-0.5-1.93-0.69a0.64,0.64,0,0,0-.71.22,1.1,1.1,0,0,0,.87,1.62,1.2,1.2,0,0,0,.41,0c0,0.06.06,0.2,0,.11,0,0.27.11,0.54,0.16,0.81l0.45,2.3c0.08,0.4.18,0.8,0.23,1.21a0.67,0.67,0,0,1-.1.6,3.4,3.4,0,0,1-1.5.61c-0.72.21-1.45,0.39-2.18,0.54s-1.48.25-2.22,0.35l-1.07.16a0.64,0.64,0,0,1-.76-0.35,0.32,0.32,0,0,0-.56-0.12,1.06,1.06,0,0,0,.24,1.49,1.76,1.76,0,0,0,.4.24q-6.15,1.16-12.35,2c-2.8.39-5.6,0.74-8.41,1.07a19.42,19.42,0,0,1-4.11.31,4,4,0,0,1-1.56-.45,2.4,2.4,0,0,1-1.15-1.13,0.31,0.31,0,0,0-.59.11,4.14,4.14,0,0,0,.22,1.31,2.56,2.56,0,0,0,1,1.22,5.21,5.21,0,0,0,3.48.86c2.68-.11,5.37-0.48,8-0.8,5.32-.65,10.62-1.5,15.88-2.49s10.36-2.11,15.49-3.4q4-1,7.87-2.11,1.91-.54,3.8-1.11a13.87,13.87,0,0,0,3.41-1.3l0,0a0.39,0.39,0,0,0,.14.23,0.86,0.86,0,0,0,1.36.38c1.31-1.12,1.63-3.14,1.7-4.78a26.57,26.57,0,0,0-.18-4c0-.17,0-0.35,0-0.52,0-.75-0.2-1.48-0.29-2.22-0.05-.44-0.11-0.86-0.18-1.28-0.43-3.12-1-6.23-1.54-9.34q-2.16-12.06-4.33-24.11c-0.4-2.23-.79-4.45-1.21-6.68a24.42,24.42,0,0,0-1.82-6.51c2.14,0.71,4.3,1.35,6.49,1.89a52.69,52.69,0,0,0,13.44,1.69A33.56,33.56,0,0,0,337.84,385a25.3,25.3,0,0,0,4.15-4.15,17.16,17.16,0,0,0,1.59-2.33,5.56,5.56,0,0,0,.67-1.59,9.65,9.65,0,0,1,.27-1.39,0.57,0.57,0,0,0,0-.44,20.29,20.29,0,0,0,1.21-2.55,15.23,15.23,0,0,0,1.07-5,12.12,12.12,0,0,0-.17-2.53,6.68,6.68,0,0,0-.35-1.32,4.35,4.35,0,0,0-.72-1.08,0.57,0.57,0,0,0-1,.47c0,0.38,0,.76.08,1.14s0.13,0.68.17,1a10.14,10.14,0,0,1,0,2.22,15,15,0,0,1-1.09,4.34,21.89,21.89,0,0,1-4.3,6.62,30,30,0,0,1-13.2,8A42.19,42.19,0,0,1,308,387.57Z" transform="translate(-223.44 -333.07)"/><path class="cls-8" d="M316.72,376c-1.5.65-3,1.23-4.58,1.79a14.85,14.85,0,0,1-4.82,1.17c-3.47,0-6.33-2.25-8.77-4.45-0.22-.2-0.53.16-0.35,0.38,2,2.47,4.31,5.32,7.63,5.93a11.6,11.6,0,0,0,5.53-.6c1.76-.56,3.51-1.2,5.23-1.88,6-2.36,12.68-6.72,13-13.85a10.75,10.75,0,0,0-.91-4.94,7.81,7.81,0,0,0-1.37-2.11,3.73,3.73,0,0,0-.94-0.77,4.61,4.61,0,0,0-1.24-.36,0.51,0.51,0,0,0-.5.73,18,18,0,0,0,1,1.62,8.53,8.53,0,0,1,1,1.53,8.18,8.18,0,0,1,.83,3.54,10.82,10.82,0,0,1-3.18,7.31A22.19,22.19,0,0,1,316.72,376Z" transform="translate(-223.44 -333.07)"/><path class="cls-9" d="M269.89,397.18a18,18,0,0,0,3.18-3.59q1.43-2,2.75-4a32.9,32.9,0,0,0,4.42-8.6,0.29,0.29,0,0,0-.5-0.26,38.39,38.39,0,0,0-2.65,4.06q-1.23,2-2.53,4t-2.71,3.93a28.66,28.66,0,0,0-2.63,4C269,397.11,269.59,397.42,269.89,397.18Z" transform="translate(-223.44 -333.07)"/><path class="cls-9" d="M311.27,363.17a11.3,11.3,0,0,1,16.91.11,8.62,8.62,0,0,0,1,1,7.36,7.36,0,0,1,1,.87,0.44,0.44,0,0,0,.76-0.36,8.34,8.34,0,0,0-.71-2.29,9,9,0,0,0-1.79-1.95,13.52,13.52,0,0,0-4.29-2.56,13.35,13.35,0,0,0-13.59,2.89,19.2,19.2,0,0,0-5.14-5.41,0.47,0.47,0,0,0,.18-0.82,10.86,10.86,0,0,0-1.68-1,7.46,7.46,0,0,0-1.79-.69,7.54,7.54,0,0,0-1.92-.3,4.54,4.54,0,0,0-1.95.26,8.37,8.37,0,0,0-5,1.26,8.71,8.71,0,0,0-3.65,5.95,9.65,9.65,0,0,0,.27,4.22,14.28,14.28,0,0,0,.75,2.09,9.28,9.28,0,0,0,1.24,1.86,0.29,0.29,0,0,0,.5-0.24c-0.16-.54-0.24-1.1-0.4-1.64s-0.33-1.17-.44-1.77a12.24,12.24,0,0,1-.15-3.4,7.33,7.33,0,0,1,2.55-5c3.28-2.68,8-.77,11,1.47A16.68,16.68,0,0,1,309.5,363,1,1,0,0,0,311.27,363.17Z" transform="translate(-223.44 -333.07)"/><path class="cls-9" d="M311.89,342.4A64.34,64.34,0,0,0,294,343a40.87,40.87,0,0,0-4.93,1.26,24.85,24.85,0,0,0-4.65,1.9,0.3,0.3,0,0,0-.1.44,31.68,31.68,0,0,0-4.29,2.55,25.23,25.23,0,0,0-6.42,6.58,15.3,15.3,0,0,0-2,4.12,30.72,30.72,0,0,0-1.08,4.35,15.61,15.61,0,0,0-.12,2.26,0.37,0.37,0,0,0,.74.06,22.74,22.74,0,0,1,1-4.26,16.82,16.82,0,0,1,2-3.83,28.25,28.25,0,0,1,5.71-6.51c4.8-3.9,10.89-5.89,16.93-6.85,12.76-2,26.54.09,37,8a36.24,36.24,0,0,1,6.91,6.88,27,27,0,0,1,4.69,9.15,0.65,0.65,0,0,0,1.28-.07c0.16-3.43-1.4-6.43-3.3-9.18a37.39,37.39,0,0,0-6.23-6.92,41.2,41.2,0,0,0-8-5.47,0.41,0.41,0,0,0-.17-0.26,25.76,25.76,0,0,0-8.21-3.28A63.67,63.67,0,0,0,311.89,342.4Z" transform="translate(-223.44 -333.07)"/><path class="cls-9" d="M277.56,446.5a3.4,3.4,0,0,0,1.78-.57,0.44,0.44,0,0,0-.13-0.74,3.12,3.12,0,0,0-1.91-.07c-0.58.09-1.16,0.2-1.74,0.32a16,16,0,0,0-2.11.56l-0.07-.15a0.48,0.48,0,0,0-.9.17c0,0.14,0,.28,0,0.41l-0.36.2c-0.26.15-.25,0.65,0.12,0.65l0.31,0c0,0.07,0,.14,0,0.21l0.28,1.43,0.27,1.38c0,0.23.09,0.46,0.14,0.69a1.51,1.51,0,0,0,.14.4,1.23,1.23,0,0,0,.34.34,0.54,0.54,0,0,0,.81-0.25,1,1,0,0,0,.14-0.42,1.72,1.72,0,0,0,0-.39c0-.23-0.1-0.46-0.15-0.69l-0.3-1.37-0.3-1.37,0-.09c0.66-.1,1.31-0.23,2-0.35S277,446.58,277.56,446.5Z" transform="translate(-223.44 -333.07)"/><path class="cls-9" d="M291.29,440.29a48.06,48.06,0,0,0,5.43-1.34,7.55,7.55,0,0,0,4.28-3.15,6,6,0,0,0,.64-1.78,9.47,9.47,0,0,0,.64-4.15,39.37,39.37,0,0,0-.7-5.07c-0.31-1.74-.62-3.48-0.94-5.22-1.23-6.81-2.61-13.59-3.84-20.4-0.68-3.8-1.15-7.73-2.39-11.4a0.43,0.43,0,0,0-.81.15,67.29,67.29,0,0,0,1.4,9.94c0.57,3.26,1.14,6.51,1.67,9.78s1,6.61,1.61,9.91,1.18,6.56,1.73,9.85c0.1,0.6.19,1.2,0.24,1.8a0.46,0.46,0,0,0-.13.33,23.5,23.5,0,0,1-.07,2.9c0,0.13,0,.26,0,0.38a9.2,9.2,0,0,1-.58,1.54,7.8,7.8,0,0,1-.83,1.28,8.13,8.13,0,0,1-2.55,1.35,38.24,38.24,0,0,1-4.83,1.19q-2.9.63-5.8,1.23c-7.85,1.62-15.75,3-23.72,3.93-2.22.25-4.45,0.44-6.67,0.63-1.63.14-4.45,0.69-5.23-1.28a0.41,0.41,0,0,0-.77.14c-0.12,1.92,1.77,3,3.48,3.15a23.79,23.79,0,0,0,3.22-.1c1.08-.06,2.16-0.15,3.23-0.25,4.34-.39,8.67-1,13-1.64s8.6-1.49,12.88-2.36Q288.06,441,291.29,440.29Z" transform="translate(-223.44 -333.07)"/><path class="cls-9" d="M236.29,344.65c2.4-.64,4.82-1.15,7.26-1.6,5-.93,10.07-1.68,15.11-2.5L274.22,338c2.79-.45,5.72-1.19,8.55-0.78a8.13,8.13,0,0,1,5.26,3.21,0.43,0.43,0,0,0,.74-0.24c-0.07-2.19-1.85-3.85-3.81-4.6-2.44-.93-5.13-0.67-7.65-0.28-5.56.86-11.12,1.8-16.68,2.7-5.41.88-10.83,1.7-16.22,2.67-2.58.46-5.16,1-7.7,1.63a42.84,42.84,0,0,0-7.25,2.36,9.22,9.22,0,0,0-1.23.67c0.07-.17.14-0.35,0.22-0.52a0.46,0.46,0,0,0-.73-0.51,10.23,10.23,0,0,0-1.4,1.81,8.37,8.37,0,0,0-.8,2.23,17.36,17.36,0,0,0-.37,4.94,80.39,80.39,0,0,0,1.6,10.5c1.39,7.65,2.86,15.29,4.3,22.93S234,402,235.4,409.56s2.91,15.28,4.36,22.92c1.38,7.29,2.6,14.72,5,21.77a22.24,22.24,0,0,0,1,2.49c0.3,0.62,1.38.32,1.18-.39-1-3.48-2-6.91-2.7-10.45s-1.32-7.3-2-10.94q-2.12-11.23-4.23-22.47c-3.45-18.46-7.88-37.13-9.75-55.82-0.29-2.88-1.17-6.68,1-9.06C230.92,345.66,233.92,345.28,236.29,344.65Z" transform="translate(-223.44 -333.07)"/><path class="cls-10" d="M302.89,381.11c1.05,0.85,2.26,2.17,3.68,2.32,1.23,0.13,2.42-.55,3.57-0.9q2-.6,4-1.23a53.6,53.6,0,0,0,7.35-2.87c3.84-1.88,7.58-4.68,9.41-8.66a10.87,10.87,0,0,0,1-6.32,10,10,0,0,0-2.44-5,11.87,11.87,0,0,0-10.3-3.85,14.54,14.54,0,0,0-5.78,2,13,13,0,0,0-2.26,1.72,13,13,0,0,0-1.44-2.44,14.54,14.54,0,0,0-4.58-4.07,11.87,11.87,0,0,0-11-.32,10,10,0,0,0-4.12,3.67,10.87,10.87,0,0,0-1.49,6.21c0.2,4.38,2.61,8.38,5.45,11.57a53.63,53.63,0,0,0,5.73,5.43Q301.26,379.81,302.89,381.11ZM291.56,363.6c-0.83-3.29-.25-6.74,2.48-8.8a9.07,9.07,0,0,1,8.64-1,11.16,11.16,0,0,1,4.39,3.27,17,17,0,0,1,1.62,2.35c0.41,0.71.74,2,1.61,2.3,1,0.35,2-.91,2.7-1.45a17,17,0,0,1,2.39-1.56,11.16,11.16,0,0,1,5.3-1.37,9.07,9.07,0,0,1,7.61,4.22c1.75,2.93,1,6.34-1,9.08-2.34,3.19-6,5.07-9.54,6.57-1.95.82-3.95,1.5-5.93,2.23-1.58.58-3.07,1.19-4.7,1.62l-0.22.06H306.8l-0.11,0-0.55-.39q-0.53-.41-1-0.84l-0.89-.76c-0.55-.52-1.09-1-1.65-1.54-1.56-1.42-3.15-2.81-4.65-4.3C295.17,370.56,292.52,367.45,291.56,363.6Z" transform="translate(-223.44 -333.07)"/><path class="cls-10" d="M280.68,446.77h0l-0.11-.58c-0.08-.4-0.16-0.8-0.24-1.21v0a2.65,2.65,0,0,0-.76-1.57,2.36,2.36,0,0,0-2.05-.39l-2.29.44-0.37.07-0.38.07-2.3.42a2.36,2.36,0,0,0-1.77,1.1,2.6,2.6,0,0,0-.14,1.73l0.05,0.31c0.09,0.52.17,1,.27,1.55l0.19,1,0.16,0.79a2.77,2.77,0,0,0,.78,1.65,2.36,2.36,0,0,0,2.05.39l2.16-.42,0.51-.1,0.51-.09,2.1-.38a2.4,2.4,0,0,0,1.84-1.11,2.7,2.7,0,0,0,.14-1.77C280.91,448,280.79,447.34,280.68,446.77Zm-1.88,2.48-0.54.1-0.22,0q-2,.36-4,0.76l-0.22,0-0.54.1h-0.05c0-.19-0.08-0.39-0.12-0.58l-0.16-.77-0.14-.68-0.12-.71-0.13-.77c0-.2-0.07-0.39-0.1-0.59l0,0,0.54-.1,0.22,0,4-.76,0.22,0,0.54-.1h0.05c0,0.19.08,0.39,0.12,0.58l0.16,0.77,0.14,0.68,0.12,0.71,0.08,0.49h0l0,0.28c0,0.2.07,0.39,0.1,0.59Z" transform="translate(-223.44 -333.07)"/><path class="cls-10" d="M316.34,340.37a55.69,55.69,0,0,0-26.18,1.5,16.42,16.42,0,0,0-2.21-5.72,7.34,7.34,0,0,0-6.11-3.08,52.25,52.25,0,0,0-8.1.92q-4.37.63-8.73,1.34c-9.64,1.56-19.27,3.5-28.82,5.7a52.28,52.28,0,0,0-7.88,2.07,7.34,7.34,0,0,0-4.58,5.08,18,18,0,0,0,.11,6.84c1.26,8.47,2.34,16.94,3.79,25.38q1.52,8.81,3.18,17.6c0.31,1.64.63,3.27,0.94,4.9s0.59,3.28.9,4.91q1.65,8.79,3.41,17.55c1.11,5.49,2.36,10.94,3.64,16.39,1.12,4.76,1.57,10.95,4.39,15.06a7.34,7.34,0,0,0,6.11,3.08,52.27,52.27,0,0,0,8.1-.92q4.37-.63,8.73-1.34c9.64-1.56,19.27-3.5,28.82-5.7a52.28,52.28,0,0,0,7.88-2.07,7.34,7.34,0,0,0,4.58-5.08,18,18,0,0,0-.11-6.84c-2.12-14.29-4.29-28.71-7-43-0.23-1.23-.47-2.46-0.71-3.7,9.4,2.87,19.27,4,28.81.84A28.62,28.62,0,0,0,343.55,382a20.89,20.89,0,0,0,3.8-9.3,22.12,22.12,0,0,0-1.12-10.14c-2.07-6-6.58-11.08-11.73-14.73A46,46,0,0,0,316.34,340.37Zm-12.77,83.43q0.68,4.33,1.34,8.66c0.41,2.69.9,5.38,1.17,8.08,0.19,1.88.2,4.1-1.12,5.62-1.47,1.69-4.05,2.07-6.11,2.56q-11,2.63-22.16,4.76t-22.38,3.59c-2.09.29-4.64,0.87-6.62-.17-1.77-.93-2.57-3-3.07-4.83-0.72-2.62-1.24-5.31-1.83-8q-1-4.28-1.89-8.56-3.59-16.5-6.8-33.08-3-16.61-5.64-33.29-0.68-4.33-1.34-8.66c-0.41-2.69-.9-5.38-1.17-8.08-0.19-1.88-.2-4.1,1.12-5.62,1.47-1.69,4.05-2.07,6.11-2.56q11-2.63,22.16-4.76t22.38-3.59c2.09-.29,4.64-0.87,6.62.17,1.77,0.93,2.57,3,3.07,4.83,0.16,0.57.3,1.14,0.44,1.72l-1.51.55q-1.33.51-2.64,1.1c-0.07-.12-0.13-0.23-0.21-0.35a6.17,6.17,0,0,0-5.17-2.61,30.41,30.41,0,0,0-5.16.53l-1.48.23c-2.38.34-4.78,0.71-7.12,1.09-7.47,1.21-15.38,2.77-23.51,4.65l-1.46.32a30.42,30.42,0,0,0-5,1.38,6.17,6.17,0,0,0-3.87,4.3,15.07,15.07,0,0,0,.09,5.66c0.33,2.21.64,4.43,1,6.64,0.65,4.61,1.33,9.38,2.14,14.06,0.77,4.46,1.62,9.16,2.59,14.35q0.28,1.47.56,2.93l0.21,1.06,0.19,1.07c0.18,1,.36,2,0.54,2.94,1,5.19,1.88,9.88,2.78,14.31,1,4.72,2,9.41,3,13.37,0.23,1,.42,2,0.63,3.12,0.61,3.29,1.24,6.69,3,9.23a6.17,6.17,0,0,0,5.17,2.61,30.43,30.43,0,0,0,5.16-.53l1.48-.23c2.37-.34,4.77-0.71,7.12-1.09q3.93-.64,8-1.4c5-.94,10.22-2,15.51-3.25l1.46-.32a30.42,30.42,0,0,0,5-1.38,6.17,6.17,0,0,0,3.87-4.3A15.07,15.07,0,0,0,300,427c-1.85-12.48-3.56-23.73-5.69-35.05q-0.26-1.4-.54-2.8l0-.25q2.05,0.79,4.14,1.5l0,0.08Q300.94,407.11,303.57,423.79Zm-36.5-75.12a10.49,10.49,0,0,0,2.77-.23q1.39-.2,2.79-0.29a10.8,10.8,0,0,1,2.77.08,3.09,3.09,0,0,1,1.16.5,22.28,22.28,0,0,0-7.41,14.78,20.17,20.17,0,0,0,5.9,15.72,15.48,15.48,0,0,0,2.3,1.82c-0.35.48-.67,1-1,1.43-0.79,1.15-1.56,2.32-2.34,3.48l-2.29,3.37-1.89,2.78c-0.61.89-1.31,1.74-1.85,2.67l-0.46.65c-0.73,1-1.44,2-2.16,3a1.18,1.18,0,0,0,.23,1.42,1.21,1.21,0,0,0,1.44.14q6.15-3.6,12.44-7,3.14-1.67,6.32-3.29l3.19-1.59c0.42-.21.85-0.42,1.26-0.65l0.83,0.34,0.11,0.57c1.64,9.07,3.19,18.2,4.6,27.14q0.56,3.53,1.09,7.06c0.09,0.6.19,1.2,0.28,1.8,0.25,1.57.51,3.19,0.67,4.78,0.14,1.43.18,3.21-.85,4.4s-2.69,1.52-4.19,1.86l-0.66.15c-5.85,1.39-11.93,2.7-18.05,3.88s-12.27,2.1-18.23,2.93l-0.67.1c-1.52.23-3.24,0.49-4.58-.21s-2-2.41-2.39-3.79c-0.43-1.55-.77-3.15-1.11-4.7-0.13-.59-0.26-1.19-0.39-1.78q-0.78-3.49-1.54-7c-1.92-8.85-3.79-17.92-5.54-27s-3.19-18.2-4.6-27.14q-0.56-3.53-1.09-7.06c-0.09-.6-0.19-1.2-0.28-1.8-0.25-1.57-.51-3.19-0.67-4.78-0.14-1.43-.18-3.21.85-4.4s2.69-1.52,4.19-1.86l0.66-.15c5.85-1.39,11.92-2.7,18.05-3.88S269,344.9,275,344.08l0.67-.1c1.52-.23,3.24-0.49,4.58.21a3.6,3.6,0,0,1,1.26,1.16,28.12,28.12,0,0,0-3.3,2.07l-0.26-.21a6.49,6.49,0,0,0-5-.81c-1.06.18-2.11,0.39-3.15,0.65a7.79,7.79,0,0,0-2.89,1.11A0.29,0.29,0,0,0,267.07,348.67Zm75,11.1c3,5.41,3.73,11.89,1,17.57-2.35,5-6.8,8.64-11.7,10.88a35,35,0,0,1-16.1,2.92c-7.25-.33-14.23-2.46-20.94-5.11-1.25-.5-3-1.6-4.41-1.14a9.75,9.75,0,0,0-1.6.73c-1.27.69-2.5,1.44-3.8,2.1q-3.18,1.61-6.32,3.29-4,2.11-7.85,4.33l0.42-.65c1-1.63,2.26-3.13,3.34-4.72s2.15-3.19,3.22-4.8a16.38,16.38,0,0,0,2.25-4.09c0.36-1.19-.7-1.87-1.49-2.52a16.78,16.78,0,0,1-3-3.23,18.34,18.34,0,0,1-3.25-8l0-.26a19.1,19.1,0,0,1,5-15,23.12,23.12,0,0,1,7.18-5.09,48.72,48.72,0,0,1,8.8-3.17,53.62,53.62,0,0,1,19-1.42,45.78,45.78,0,0,1,17.38,5.28A32.15,32.15,0,0,1,342,359.77Z" transform="translate(-223.44 -333.07)"/><path class="cls-10" d="M255.39,438a1.67,1.67,0,0,1-1.74-1.13,16.92,16.92,0,0,1-.81-2.86c-0.29-1.16-.61-2.3-0.93-3.45a72.53,72.53,0,0,0-2.53-7.68c-0.13-.33-0.59-0.13-0.56.18a69.33,69.33,0,0,0,1.25,7.61c0.28,1.27.55,2.55,0.86,3.82a21.48,21.48,0,0,0,.86,3.09,3.84,3.84,0,0,0,1.92,2.13,6.62,6.62,0,0,0,3.46.12q3.7-.43,7.38-1.06c1.38-.24,2.8-0.44,4.15-0.81,0.64-.18,1.3-0.31,1.94-0.5a8.84,8.84,0,0,0,2-.77,0.58,0.58,0,0,0-.2-1.1A13.75,13.75,0,0,0,269,436l-3.4.59q-3.45.62-6.93,1.07A31.32,31.32,0,0,1,255.39,438Z" transform="translate(-223.44 -333.07)"/><path class="cls-10" d="M275.7,435.73a1.2,1.2,0,0,0,.49.2,2.29,2.29,0,0,0,.4,0,7.75,7.75,0,0,0,.81-0.13l1.5-.31c0.5-.1,1-0.2,1.49-0.34,0.24-.07.47-0.17,0.71-0.24a2,2,0,0,0,.83-0.37,0.51,0.51,0,0,0-.15-0.86,1.89,1.89,0,0,0-.92-0.08c-0.25,0-.5,0-0.75,0a10.42,10.42,0,0,0-1.5.28c-0.5.12-1,.26-1.48,0.42a5.21,5.21,0,0,0-.78.27,1.44,1.44,0,0,0-.74.6A0.41,0.41,0,0,0,275.7,435.73Z" transform="translate(-223.44 -333.07)"/><path class="cls-10" d="M287.51,393.11c0,0.52.07,1,.1,1.55,0.06,1,.22,2,0.36,3,0.3,2,.63,3.94,1,5.91,0.67,3.89,1.28,7.8,2,11.68,0.45,2.24,1.11,4.39,1.74,6.58a0.39,0.39,0,0,0,.77-0.15c-0.13-2-.2-3.93-0.47-5.89s-0.65-3.94-1-5.9c-0.67-3.85-1.32-7.72-2.09-11.55-0.22-1.09-.42-2.19-0.68-3.27-0.14-.56-0.32-1.11-0.48-1.67-0.07-.23-0.13-0.47-0.21-0.7s-0.32-.62-0.42-0.94-0.6-.34-0.59,0S287.49,392.66,287.51,393.11Z" transform="translate(-223.44 -333.07)"/><path class="cls-10" d="M293,424c0,0.2,0,.42,0,0.62s0,0.38,0,.57c0,0.41,0,.82.06,1.23s0.07,0.78.14,1.17a6.83,6.83,0,0,0,.4,1.18,0.41,0.41,0,0,0,.77-0.14,7.31,7.31,0,0,0,.05-1.22c0-.4-0.12-0.81-0.2-1.2s-0.19-.76-0.28-1.14c0-.19-0.08-0.38-0.14-0.57s-0.17-.4-0.22-0.6A0.29,0.29,0,0,0,293,424Z" transform="translate(-223.44 -333.07)"/><path class="cls-10" d="M249.13,419.28a10.44,10.44,0,0,0-.12-1,12.78,12.78,0,0,0-.33-1.79q-0.2-.89-0.41-1.78a4.21,4.21,0,0,0-.71-1.82,0.46,0.46,0,0,0-.78.14,4,4,0,0,0-.08,2c0.07,0.61.15,1.21,0.25,1.81a10.46,10.46,0,0,0,.41,1.78c0.11,0.31.17,0.64,0.3,0.94a4.83,4.83,0,0,0,.26.44,1.8,1.8,0,0,0,.27.43,0.5,0.5,0,0,0,.85-0.15A3.57,3.57,0,0,0,249.13,419.28Z" transform="translate(-223.44 -333.07)"/><path class="cls-10" d="M242.85,392.38q-1.16-5.58-2.24-11.18c-0.21-1.07-.45-2.14-0.7-3.2a13.64,13.64,0,0,0-.89-3,0.31,0.31,0,0,0-.58.11,11.63,11.63,0,0,0,.06,2.71c0.08,1,.2,2,0.33,2.92,0.24,1.86.6,3.72,0.94,5.56,0.7,3.73,1.4,7.48,2.41,11.14,0.29,1.06.62,2.1,0.93,3.15a19,19,0,0,0,1,3c0.16,0.33.77,0.28,0.76-.14a40.83,40.83,0,0,0-.92-5.56C243.62,396.06,243.24,394.22,242.85,392.38Z" transform="translate(-223.44 -333.07)"/><path class="cls-10" d="M238.75,355.32a6.14,6.14,0,0,1,2.86-1.06l3.32-.78c1.18-.28,2.35-0.6,3.53-0.9,0.59-.15,1.16-0.36,1.75-0.54a10.55,10.55,0,0,0,1.66-.55,0.54,0.54,0,0,0-.19-1,20.18,20.18,0,0,0-3,.42c-1,.16-1.93.41-2.89,0.61-2,.42-3.93.88-5.85,1.41a4.62,4.62,0,0,0-3.47,2.94,9.27,9.27,0,0,0,0,4.53c0.2,1.11.43,2.22,0.68,3.32s0.46,2.31.83,3.44c0.09,0.28.57,0.33,0.58,0a57.58,57.58,0,0,0-.62-7.09C237.78,358.55,237.54,356.44,238.75,355.32Z" transform="translate(-223.44 -333.07)"/><path class="cls-10" d="M254.68,351.07a3,3,0,0,0,1.64.12,11.58,11.58,0,0,0,1.65-.29c0.56-.14,1.11-0.33,1.66-0.52,0.26-.09.49-0.22,0.75-0.31a5.75,5.75,0,0,0,.76-0.3A0.41,0.41,0,0,0,261,349a5.94,5.94,0,0,0-.83,0c-0.29,0-.56,0-0.84,0a15.52,15.52,0,0,0-1.72.23,11.7,11.7,0,0,0-1.68.47,2.86,2.86,0,0,0-1.39.81A0.31,0.31,0,0,0,254.68,351.07Z" transform="translate(-223.44 -333.07)"/><path class="cls-10" d="M244.94,387.06q-0.38-1.65-.79-3.29c-0.14-.58-0.3-1.17-0.47-1.75a3.5,3.5,0,0,0-.67-1.42,0.34,0.34,0,0,0-.58.1,3.42,3.42,0,0,0-.14,1.58c0,0.6.11,1.21,0.19,1.8,0.16,1.15.34,2.3,0.56,3.45s0.42,2.3.72,3.42a9.86,9.86,0,0,0,1.29,3.24,0.56,0.56,0,0,0,1-.31,10.8,10.8,0,0,0-.34-3.52C245.48,389.25,245.2,388.15,244.94,387.06Z" transform="translate(-223.44 -333.07)"/><path class="cls-10" d="M247.76,386.09a14.9,14.9,0,0,0-.51-1.85,4,4,0,0,0-.81-1.62,0.29,0.29,0,0,0-.49.09,3.71,3.71,0,0,0-.11,1.79,17.84,17.84,0,0,0,.26,1.91c0.11,0.61.23,1.22,0.37,1.82a3.64,3.64,0,0,0,.78,1.8,0.52,0.52,0,0,0,.87-0.16,3.5,3.5,0,0,0,0-1.89C248,387.34,247.91,386.72,247.76,386.09Z" transform="translate(-223.44 -333.07)"/><path class="cls-10" d="M249.33,387.7a0.5,0.5,0,0,0,.4.12,0.49,0.49,0,0,0,.31-0.23,1.48,1.48,0,0,0,.21-1.25,7.55,7.55,0,0,0-.19-1.05,6.89,6.89,0,0,0-.3-1.14,2.78,2.78,0,0,0-.49-0.95,0.42,0.42,0,0,0-.71.13,1.8,1.8,0,0,0-.1.46,0.5,0.5,0,0,0,0,.24v0.15c0,0.07,0,.15,0,0.22a8.16,8.16,0,0,0,.11,1.18,7.54,7.54,0,0,0,.18,1.06A1.49,1.49,0,0,0,249.33,387.7Z" transform="translate(-223.44 -333.07)"/><path class="cls-10" d="M251,384.23c0,0.21.1,0.42,0.16,0.63a4,4,0,0,0,.26.72,1.29,1.29,0,0,0,.13.2,0.73,0.73,0,0,0,.14.12s-0.05,0,0,0a1.55,1.55,0,0,0,.14.15,0.23,0.23,0,0,0,.05.1,0.36,0.36,0,0,0,.64-0.2s0-.11,0-0.13a1.07,1.07,0,0,0,0-.19,0.16,0.16,0,0,0,0,0,0.37,0.37,0,0,0,0-.07,1,1,0,0,0,0-.32,3.72,3.72,0,0,0-.15-0.63c-0.08-.24-0.16-0.48-0.25-0.72a1.33,1.33,0,0,0-.22-0.36q-0.17-.14-0.08-0.08s0,0,0,0a0.45,0.45,0,0,0-.24-0.17,0.29,0.29,0,0,0-.49.15,0.5,0.5,0,0,0-.11.29c0,0.05,0,.06,0,0a0.38,0.38,0,1,1,0,.11A1.41,1.41,0,0,0,251,384.23Z" transform="translate(-223.44 -333.07)"/><path class="cls-10" d="M253.65,383.67v0.24a1.83,1.83,0,0,0,0,.36l0,0.12a0.68,0.68,0,0,0,.11.25l0.09,0.22,0,0.12a0.53,0.53,0,0,0,.16.18h0a0.43,0.43,0,0,0,.75-0.2,0.51,0.51,0,0,0,.05-0.24c0-.07,0-0.13,0-0.19l0-.17a0.69,0.69,0,0,0,0-.25l-0.06-.17a1.23,1.23,0,0,0-.1-0.23,1.61,1.61,0,0,0-.31-0.47l0-.07a0.36,0.36,0,0,0-.64.2v0.07l0,0.05A0.74,0.74,0,0,0,253.65,383.67Z" transform="translate(-223.44 -333.07)"/><path class="cls-10" d="M286.8,411.82c0.17,1.06.33,2.12,0.58,3.17a7.39,7.39,0,0,0,1.13,3,0.44,0.44,0,0,0,.74-0.13,7.78,7.78,0,0,0,.07-3.28c-0.08-1.07-.3-2.13-0.48-3.18s-0.37-2.11-.57-3.17a8.36,8.36,0,0,0-1-3.14,0.58,0.58,0,0,0-1,.17,8.44,8.44,0,0,0,.05,3.33Q286.54,410.23,286.8,411.82Z" transform="translate(-223.44 -333.07)"/><path class="cls-10" d="M283.62,411.18c0.05,0.51.1,1,.16,1.54a12.52,12.52,0,0,0,.29,1.52l0.08,0.32a2.43,2.43,0,0,0,.2.48,1.65,1.65,0,0,0,.41.68,0.53,0.53,0,0,0,.73-0.13,1.66,1.66,0,0,0,.16-0.79,2.6,2.6,0,0,0,0-.53c0-.11,0-0.22,0-0.33a12.58,12.58,0,0,0-.22-1.53c-0.11-.51-0.23-1-0.35-1.51-0.06-.25-0.13-0.5-0.21-0.75s-0.06-.25-0.11-0.37a1.85,1.85,0,0,0-.23-0.39,0.52,0.52,0,0,0-.88.16,1.71,1.71,0,0,0-.09.45c0,0.13,0,.26,0,0.39A7.45,7.45,0,0,0,283.62,411.18Z" transform="translate(-223.44 -333.07)"/><path class="cls-10" d="M281.3,411.75v0.17s0,0,0,0a0.79,0.79,0,0,0,0,.21c0,0.27.1,0.53,0.13,0.8s0.1,0.53.16,0.8a3.67,3.67,0,0,0,.18.48,1,1,0,0,0,.2.35,2,2,0,0,0,.14.23,0.36,0.36,0,0,0,.62-0.11,1.45,1.45,0,0,0,.07-0.26,1.07,1.07,0,0,0,.08-0.42,2.85,2.85,0,0,0,0-.52,5,5,0,0,0-.18-0.82c-0.09-.3-0.18-0.6-0.3-0.89a2.48,2.48,0,0,0-.14-0.22s0,0,0,0l-0.05-.11a0.64,0.64,0,0,0-.28-0.32l0,0a0.33,0.33,0,0,0-.57.18v0A0.71,0.71,0,0,0,281.3,411.75Z" transform="translate(-223.44 -333.07)"/><path class="cls-10" d="M279.71,412.54a1.3,1.3,0,0,0,0,.4V413a0.16,0.16,0,1,1,0,0,0.9,0.9,0,0,0,0,.27l0,0.22a2.77,2.77,0,0,0,.06.44,1.77,1.77,0,0,0,.11.29,0.56,0.56,0,0,0,.3.32,0.4,0.4,0,0,0,.41-0.07,0.5,0.5,0,0,0,.17-0.31s0-.07,0-0.1a1.79,1.79,0,0,0,0-.33,3.21,3.21,0,0,0-.12-0.46,2.11,2.11,0,0,0-.1-0.3l-0.07-.11,0,0a0.57,0.57,0,0,1,0-.12c0-.07-0.05-0.15-0.08-0.22a0.51,0.51,0,0,0-.12-0.16c0.1,0.11,0,0,0,0a0.28,0.28,0,0,0-.35-0.15,0.29,0.29,0,0,0-.19.32v0Z" transform="translate(-223.44 -333.07)"/><path class="cls-10" d="M278.85,358a22.55,22.55,0,0,1,11.52-9.42,37.61,37.61,0,0,1,4.07-1.32c1.43-.39,2.84-0.84,4.26-1.3,0.45-.14.52-0.89,0-0.91a16.92,16.92,0,0,0-4.19.32,32.59,32.59,0,0,0-3.95,1.17,28.42,28.42,0,0,0-7.29,3.88,19.76,19.76,0,0,0-8,13.52,14.3,14.3,0,0,0,1.72,8.46,0.31,0.31,0,0,0,.55-0.27C275.66,367.6,276.47,362.16,278.85,358Z" transform="translate(-223.44 -333.07)"/><path class="cls-10" d="M301.1,345.72a1.06,1.06,0,0,0,.33.13,4.13,4.13,0,0,0,.8.15,9.85,9.85,0,0,0,1.58,0c0.24,0,.48,0,0.72,0s0.42-.1.7-0.14,0.46-.14.69-0.19a2.76,2.76,0,0,0,.7-0.2,0.45,0.45,0,0,0,0-.83c-0.27-.11-0.56-0.08-0.83-0.16a3.3,3.3,0,0,0-.71-0.14,6.86,6.86,0,0,0-.71-0.09h-0.77a10.09,10.09,0,0,0-1.62.15,2.7,2.7,0,0,0-.75.24,0.66,0.66,0,0,0-.36.74A1,1,0,0,0,301.1,345.72Z" transform="translate(-223.44 -333.07)"/><path class="cls-10" d="M329.38,351.82c3,2.2,5.94,4.41,8,7.55a16.41,16.41,0,0,1,2.68,10.8,19.71,19.71,0,0,1-1.9,6.29c-0.28.58,0.58,0.92,0.94,0.49,2.78-3.28,3.29-7.94,2.45-12a18.76,18.76,0,0,0-6.15-10.27,15.78,15.78,0,0,0-5.8-3.27A0.26,0.26,0,0,0,329.38,351.82Z" transform="translate(-223.44 -333.07)"/><path class="cls-10" d="M337.19,378.87a3.85,3.85,0,0,0-1.27,1.27c-0.37.46-.73,0.92-1.13,1.35l-0.06.06-0.14.14-0.31.31c-0.21.21-.42,0.41-0.64,0.61s-0.43.4-.66,0.59a4.42,4.42,0,0,0-.57.53c-0.22.17-.44,0.34-0.67,0.5a2.4,2.4,0,0,0-.69.57,0.5,0.5,0,0,0,.36.77,2.14,2.14,0,0,0,1-.26c0.28-.12.55-0.26,0.82-0.4a2.65,2.65,0,0,0,.66-0.34,10.1,10.1,0,0,0,.87-0.59,11.14,11.14,0,0,0,1.43-1.39,9.07,9.07,0,0,0,1.06-1.48,2.89,2.89,0,0,0,.55-1.95A0.42,0.42,0,0,0,337.19,378.87Z" transform="translate(-223.44 -333.07)"/><path class="cls-10" d="M322.77,386.9c-1.75-.09-3.52,0-5.26,0s-3.55,0-5.33,0a46.68,46.68,0,0,1-10.59-1.72l-2.88-.81a10.82,10.82,0,0,0-2.9-.64,0.27,0.27,0,0,0-.22.43,7.09,7.09,0,0,0,2.15,1.32,21,21,0,0,0,2.57,1,44.21,44.21,0,0,0,5.38,1.39,47.72,47.72,0,0,0,11.12,1,20.4,20.4,0,0,0,6.14-1A0.52,0.52,0,0,0,322.77,386.9Z" transform="translate(-223.44 -333.07)"/><path class="cls-10" d="M328.43,385.58a3.38,3.38,0,0,0-.49.09,0.66,0.66,0,0,0-.23,0l-0.18,0-0.32.06a1.49,1.49,0,0,0-.28.07l-0.06,0-0.34.1-0.42.14H326l-0.18.06-0.15.09-0.09,0-0.15.05a0.66,0.66,0,0,0-.23.21h0a0.29,0.29,0,0,0,0,.53h0a0.66,0.66,0,0,0,.23.16,1.1,1.1,0,0,0,.24,0s0.24,0,.11,0a2.47,2.47,0,0,0,.93,0,3.05,3.05,0,0,0,.81-0.22,2.38,2.38,0,0,0,.73-0.47l0.23-.15a1.4,1.4,0,0,0,.29-0.27,0.4,0.4,0,0,0,0-.45A0.42,0.42,0,0,0,328.43,385.58Z" transform="translate(-223.44 -333.07)"/><path class="cls-10" d="M282.71,357.43a0.35,0.35,0,0,0-.39-0.46c-1.71.54-2.85,2.38-3.49,4a9.1,9.1,0,0,0-.66,2.62,5.3,5.3,0,0,0,0,1.45,5,5,0,0,0,.47,1.27,0.39,0.39,0,0,0,.74-0.14c0.08-.38.16-0.76,0.24-1.14s0.08-.83.15-1.24a11.39,11.39,0,0,1,.57-2.27,11.19,11.19,0,0,1,1-2C281.82,358.77,282.33,358.15,282.71,357.43Z" transform="translate(-223.44 -333.07)"/><path class="cls-10" d="M281.85,363.78l0-.15,0.08-.31c0.06-.22.12-0.44,0.19-0.65a6.73,6.73,0,0,1,.47-1.09c0.12-.21.25-0.41,0.36-0.62a2.46,2.46,0,0,0,.21-0.61,0.41,0.41,0,0,0-.56-0.5,3.44,3.44,0,0,0-1.57,1.92,6.11,6.11,0,0,0-.4,1.08,3,3,0,0,0-.15,1.26,2.67,2.67,0,0,0,0,.49,1.05,1.05,0,0,0,.32.5,0.35,0.35,0,0,0,.42,0,1,1,0,0,0,.33-0.54c0.06-.24.14-0.43,0.2-0.69v-0.06Z" transform="translate(-223.44 -333.07)"/><path class="cls-10" d="M282.58,364.51a0.49,0.49,0,0,0,0,.2,1.58,1.58,0,0,0,.14.44,0.39,0.39,0,0,0,.66.05,2.68,2.68,0,0,0,.19-0.41,1.18,1.18,0,0,0,.05-0.14h0a0.64,0.64,0,0,0,.11-0.18,6.24,6.24,0,0,0,.24-0.72,5.61,5.61,0,0,1,.23-0.73,1.32,1.32,0,0,0,.09-0.32v0a4.07,4.07,0,0,0,.09-0.48,0.44,0.44,0,0,0-.24-0.43,0.46,0.46,0,0,0-.5.05l-0.08.06a0.3,0.3,0,1,0-.09.05,1.28,1.28,0,0,0-.14.14,0.72,0.72,0,1,1-.07.07l-0.07.07a1.05,1.05,0,0,0-.19.26,6.09,6.09,0,0,0-.38.82,2.78,2.78,0,0,0-.13.91A0.63,0.63,0,0,0,282.58,364.51Z" transform="translate(-223.44 -333.07)"/><path class="cls-10" d="M331.4,382.28h0.16a1.27,1.27,0,0,0,.36-0.08l0.13-.05a0.55,0.55,0,0,0,.13-0.05l-0.09,0a0.77,0.77,0,0,0,.22-0.07,4.14,4.14,0,0,0,1-.7,5.06,5.06,0,0,0,.79-0.94,2.12,2.12,0,0,0,.21-0.35,0.74,0.74,0,0,0,.07-0.22l0,0a1.17,1.17,0,0,0,.18-0.59,0.45,0.45,0,0,0-.64-0.44,1,1,0,0,0-.29.21l-0.07.08-0.07.07-0.06.06-0.12.08a1.29,1.29,0,0,0-.17.16l-0.36.35c-0.12.11-.26,0.2-0.38,0.31s-0.49.42-.75,0.62a2.36,2.36,0,0,0-.23.21l0,0-0.11.09a1.32,1.32,0,0,0-.26.23c0,0.06,0,0,0,0h0l-0.06.08a0.74,0.74,0,0,0-.24.3,0.46,0.46,0,0,0,.11.52A0.61,0.61,0,0,0,331.4,382.28Z" transform="translate(-223.44 -333.07)"/><path class="cls-10" d="M331.38,379.84a1.69,1.69,0,0,0,.45-0.27,2.14,2.14,0,0,0,.36-0.37,1.17,1.17,0,0,0,.26-0.47,1.1,1.1,0,0,0,.13-0.42,0.38,0.38,0,0,0-.15-0.33,0.37,0.37,0,0,0-.36,0,1.32,1.32,0,0,0-.31.23,0.55,0.55,0,0,0-.16.11l-0.12.12c-0.11.1-.22,0.2-0.33,0.31l0.1-.1c-0.13.14-.27,0.28-0.4,0.43l-0.13.17-0.07.09,0,0a0.42,0.42,0,0,0-.12.2,0.36,0.36,0,0,0,0,.24,0.38,0.38,0,0,0,.41.21Z" transform="translate(-223.44 -333.07)"/><path class="cls-10" d="M330.74,378.07l0.06-.06,0.13-.14a0.43,0.43,0,0,0,.07-0.13l0.07-.12a0.76,0.76,0,0,0,.13-0.33,0.34,0.34,0,0,0-.14-0.31,0.34,0.34,0,0,0-.34,0,0.78,0.78,0,0,0-.21.15l-0.09.06h0a0.38,0.38,0,0,0-.12.07l-0.06,0-0.13.11a1.15,1.15,0,0,0-.35.39l0.05-.1a0.86,0.86,0,0,1-.11.15,0.33,0.33,0,0,0-.09.16,0.29,0.29,0,0,0,0,.2,0.32,0.32,0,0,0,.33.17l0.27,0h-0.11a0.8,0.8,0,0,0,.49-0.18Z" transform="translate(-223.44 -333.07)"/><path class="cls-10" d="M285.09,384.25a8.09,8.09,0,0,0-3.55.88c-0.29.11-.57,0.24-0.85,0.37l0.62-1a13.48,13.48,0,0,0,1.89-3.55c0.3-1.29-.45-2-1.28-2.87a21.74,21.74,0,0,1-2.08-2.67c-0.22-.31-0.63,0-0.6.29a5.08,5.08,0,0,0,1,2.68c0.54,0.73,1.72,1.41,1.37,2.43a8.48,8.48,0,0,1-.83,1.52l-1,1.59-2,3.27c-0.36.6,0.25,1.6,1,1.15a28.82,28.82,0,0,1,3.24-1.71c0.52-.24,1-0.48,1.58-0.69a6.62,6.62,0,0,0,1.66-.79A0.49,0.49,0,0,0,285.09,384.25Z" transform="translate(-223.44 -333.07)"/><path class="cls-10" d="M290.41,381.92l-0.51,0a3.08,3.08,0,0,0-.65.09,3.13,3.13,0,0,0-1.14.42h0l-0.11.06-0.21.12a0.93,0.93,0,0,0-.3.3l0,0.08c0,0.06,0,.08,0,0l-0.06.07a0.38,0.38,0,0,0,.28.59h0.11a0.25,0.25,0,1,1,.1,0q0.1,0,0,0a0.6,0.6,0,0,0,.32,0l0.23-.06,0.17,0a2.6,2.6,0,0,0,.31,0l0.24-.05,0.44-.1,0.45-.09c0.1,0,.2-0.07.3-0.1l0.17,0a2.22,2.22,0,0,0,1-.29,0.49,0.49,0,0,0,.06-0.69A1.64,1.64,0,0,0,290.41,381.92Z" transform="translate(-223.44 -333.07)"/><path class="cls-10" d="M288.1,382.42h0Z" transform="translate(-223.44 -333.07)"/><path class="cls-10" d="M315.65,384.85a1.21,1.21,0,0,0-.33.06,2.42,2.42,0,0,1-.27.13c-0.23.06-.39,0.43-0.12,0.57q0.07,0.09.09,0a0.39,0.39,0,0,0,.12.16,0.88,0.88,0,0,0,.34.17,5.67,5.67,0,0,0,.61.17,8.42,8.42,0,0,0,1.22.17,4.93,4.93,0,0,0,1.32-.1,3.23,3.23,0,0,0,1.13-.29,3.8,3.8,0,0,0,.42-0.13A0.39,0.39,0,0,0,320,385l-0.37,0a3.82,3.82,0,0,0-1.06-.15c-0.18,0-.4-0.05-0.61-0.06l-0.56,0-1.23.05Z" transform="translate(-223.44 -333.07)"/><path class="cls-10" d="M316.52,383.47h0a0.37,0.37,0,0,0,0,.11,0.59,0.59,0,0,0,.15.24,0.65,0.65,0,0,0,.34.15,4,4,0,0,0,.48.1H318a0.63,0.63,0,0,0,.23-0.06l0.14,0a0.6,0.6,0,0,0,.29-0.13,0.49,0.49,0,0,0,.18-0.33,0.53,0.53,0,0,0-.37-0.52l-0.14-.05a0.6,0.6,0,0,0-.15-0.08,1.31,1.31,0,0,0-.26,0l-0.24,0a4,4,0,0,0-.49,0H317a0.44,0.44,0,0,0-.21.09,0.58,0.58,0,0,0-.19.21,0.37,0.37,0,0,0-.05.1h0A0.41,0.41,0,0,0,316.52,383.47Z" transform="translate(-223.44 -333.07)"/></g></g></svg>