<svg xmlns="http://www.w3.org/2000/svg" viewBox="0 0 203.83 147.53"><defs><style>.cls-1{isolation:isolate;}.cls-2{fill:#ff5d4f;}.cls-3{fill:#ffd37a;}.cls-4{fill:#ffafa8;}.cls-5{fill:#fff9f2;opacity:0.15;}.cls-5,.cls-8{mix-blend-mode:overlay;}.cls-6{fill:#52284a;opacity:0.1;}.cls-6,.cls-7{mix-blend-mode:multiply;}.cls-7{fill:#492659;opacity:0.25;}.cls-8{fill:#fff7f7;opacity:0.5;}.cls-9{fill:#610f1d;}</style></defs><title>coracao</title><g class="cls-1"><g id="OBJECTS"><path class="cls-2" d="M43,373.7c1,2.28,2.16,4.61,3.38,6.92,0.6,1.13,1.23,2.28,1.88,3.43,0.41,0.73.82,1.46,1.22,2.2,0.81,1.47,1.65,3,2.55,4.42l0.83,1.3L53,392.24h0l0.26,0.39L53.57,393a0.23,0.23,0,0,0,.16.1,0.24,0.24,0,0,0,.18,0,4.92,4.92,0,0,1,.69-0.46,8.49,8.49,0,0,1,5.16-.71,26,26,0,0,1,11,3.93,0.23,0.23,0,0,0,.24,0l1.31-.72,3.25-1.79c5.3-2.9,10.68-5.82,16-8.68l8-4.3,4-2.14,1.81-1a0.23,0.23,0,0,0,.1-0.3c-0.36-.77-0.69-1.55-1-2.33a27.67,27.67,0,0,1-1.57-7.32,20.63,20.63,0,0,1,0-3.68,5.48,5.48,0,0,1,1.12-3.34,0.19,0.19,0,0,1,.16,0,0.11,0.11,0,0,1,.09.06,7,7,0,0,1,.41,3.08c0,0.21,0,.42,0,0.62a30.93,30.93,0,0,0,.26,4,26.75,26.75,0,0,0,5.2,12.5,27.67,27.67,0,0,0,4.46,4.54c0.82,0.67,1.62,1.29,2.43,1.88l0.53,0.41c0.25,0.2.51,0.4,0.79,0.59l0.16,0.11a12.61,12.61,0,0,1,1.15.83,0.33,0.33,0,0,1,.11.43,0.6,0.6,0,0,1-.6.33,8.2,8.2,0,0,1-1.87-.65l-0.57-.24a8.56,8.56,0,0,1-1.09-.5,22.61,22.61,0,0,1-3.22-2.24,26.29,26.29,0,0,1-5.47-6.34,0.23,0.23,0,0,0-.3-0.08l-2.33,1.24-4.42,2.35-9,4.84c-5.25,2.83-10.84,5.86-18.14,9.85a0.23,0.23,0,0,0-.12.22c0,0.29,0,.59,0,0.87s0,0.4,0,.58c0.05,1.11.07,2,.06,2.89A22.29,22.29,0,0,1,72,408a12,12,0,0,1-2.31,4.68,0.23,0.23,0,0,0,0,.31l0.16,0.18,0.47,0.51c5.16,5.57,10.89,11.15,17.49,17.05,5.46,4.88,11.42,9.89,18.75,15.77l1.4,1.12,2.29,1.84a0.23,0.23,0,0,0,.29,0l2.38-1.91,1.31-1.05c7.32-5.87,13.28-10.88,18.75-15.77,6.61-5.9,12.33-11.48,17.49-17.05A172,172,0,0,0,165.7,395a131.55,131.55,0,0,0,12.17-21.28c4-9,6.3-17.6,6.73-25.57a44.92,44.92,0,0,0-4.28-22.33,33.47,33.47,0,0,0-14.61-15.35,34.1,34.1,0,0,0-23-2.35,43.84,43.84,0,0,0-20.15,11.09,59.88,59.88,0,0,0-7.5,8.61c-1,1.34-1.94,2.81-3.18,4.78-0.47.75-1,1.57-1.48,2.52-0.3.55-.67,1.07-1,1.59-0.19.28-.38,0.55-0.56,0.83a0.71,0.71,0,0,1-.91.21,0.53,0.53,0,0,1-.28-0.68l0.21-.63a14.57,14.57,0,0,1,.83-2.09l0.37-.69,0.21-.39a0.23,0.23,0,0,0,0-.23l-0.11-.18-0.16-.26c-1.23-2-2.21-3.44-3.18-4.78a59.89,59.89,0,0,0-7.5-8.61,43.84,43.84,0,0,0-20.15-11.09,34.1,34.1,0,0,0-23,2.35A33.47,33.47,0,0,0,40.53,325.8a44.92,44.92,0,0,0-4.28,22.33C36.69,356.09,39,364.7,43,373.7Zm17.66-37.64h0c0,0.06,0,.13-0.05.23a0.24,0.24,0,0,0,0,.06,0.71,0.71,0,0,1,0,.13h0v0.06s0,0.06,0,.07a0.58,0.58,0,0,1,0,.17l0,0.17a1.37,1.37,0,0,1-.13.34l-0.06.15c0,0.07-.05.13-0.08,0.19l0,0-0.06.14h0l-0.07.08,0,0A0.24,0.24,0,0,1,60,338l-0.09,0a0.24,0.24,0,0,1-.19,0,0.31,0.31,0,0,1-.12-0.15,0.23,0.23,0,0,0,0-.07l0-.06a0.28,0.28,0,0,1,0-.07s0-.09,0-0.18a1,1,0,0,1,0-.12,3.21,3.21,0,0,1,0-.38,1.16,1.16,0,0,1,.14-0.44l0.07-.14a0.44,0.44,0,0,1,.1-0.13l0.12-.1a0.23,0.23,0,0,0,.07-0.09l0,0,0,0,0.2-.19a0.22,0.22,0,0,1,.27,0A0.21,0.21,0,0,1,60.64,336.05Zm-6.89-4.89a2.41,2.41,0,0,1-.12.37l-0.05.14c-0.08.22-.17,0.45-0.26,0.67l-0.11.27c-0.27.69-.54,1.37-0.75,2.08s-0.4,1.43-.56,2.13a6.17,6.17,0,0,1-.75,1.92,0.25,0.25,0,0,1-.22.11,0.14,0.14,0,0,1-.13-0.08c-0.69-1.4-.26-3.23.13-4.49a15.69,15.69,0,0,1,.86-2.26,7.3,7.3,0,0,1,.56-1l0.06-.09a2.14,2.14,0,0,1,.31-0.39,1,1,0,0,1,.27-0.16l0.21-.1a0.37,0.37,0,0,1,.37,0,0.35,0.35,0,0,1,.18.31,2.35,2.35,0,0,0,0,.25A1,1,0,0,1,53.76,331.16Zm-1.11-5.25a14.36,14.36,0,0,1-1.17,3l-0.4.86c-0.67,1.49-1.17,2.72-1.56,3.87h0c-0.5,1.46-.89,2.78-1.2,4-0.14.55-.28,1.1-0.43,1.65l-0.11.42c-0.06.21-.1,0.44-0.15,0.67a4.83,4.83,0,0,1-.38,1.3,0.35,0.35,0,0,1-.36.17,0.38,0.38,0,0,1-.33-0.26,4.5,4.5,0,0,1,0-1.54c0-.2,0-0.39.05-0.58a15.36,15.36,0,0,1,.32-2.23,31.25,31.25,0,0,1,1.16-4.1,33.15,33.15,0,0,1,1.73-4.06,10.14,10.14,0,0,1,2.48-3.42,0.26,0.26,0,0,1,.16-0.06,0.22,0.22,0,0,1,.12,0A0.19,0.19,0,0,1,52.65,325.91ZM42.3,355.5a0.23,0.23,0,0,1,.14,0h0.08a1,1,0,0,1,.53.42,5.52,5.52,0,0,1,.41,1.11l0.12,0.42c0.2,0.64.38,1.3,0.56,1.94,0.1,0.39.21,0.77,0.32,1.16a85.65,85.65,0,0,0,4,11.1c0.32,0.72.68,1.45,1,2.16,0.51,1,1,2.13,1.46,3.22a11.93,11.93,0,0,0,.67,1.34,11.82,11.82,0,0,1,.63,1.25c0.19,0.47.42,0.92,0.64,1.36s0.41,0.82.59,1.23a0.26,0.26,0,0,1-.14.3,0.24,0.24,0,0,1-.3,0,13.33,13.33,0,0,1-1-1.32c-0.15-.21-0.3-0.41-0.46-0.62s-0.36-.47-0.53-0.72h0c-0.67-1-1.22-1.86-1.7-2.71a69,69,0,0,1-4.81-10.77c-0.63-1.77-1.2-3.62-1.74-5.66a29.37,29.37,0,0,1-.65-2.89c0-.12,0-0.24-0.07-0.37C41.92,356.69,41.76,355.89,42.3,355.5ZM53.66,338l0-.15a2.12,2.12,0,0,1,0-.66V337a9.2,9.2,0,0,1,.28-1.69,8.57,8.57,0,0,1,.55-1.6,4,4,0,0,1,.33-0.61,1.69,1.69,0,0,1,.29-0.33,0.39,0.39,0,0,1,.12-0.08,0.33,0.33,0,0,0,.26,0l0.06-.06a0.1,0.1,0,0,1,0,.06l0.08,0.17a0.84,0.84,0,0,1,.08.2,1.28,1.28,0,0,1,0,.32,4.14,4.14,0,0,1-.08.58l0,0.12c-0.06.35-.14,0.7-0.21,1l-0.07.33-0.16.81L55,336.9a3,3,0,0,1-.38,1.13l0,0.06a1.39,1.39,0,0,1-.28.52,0.28,0.28,0,0,1-.22.09,0.38,0.38,0,0,1-.26-0.16,0.76,0.76,0,0,1-.12-0.32A2,2,0,0,0,53.66,338Zm4.32-1.5c-0.07.3-.14,0.61-0.2,0.92l0,0.12a2.48,2.48,0,0,1-.2.68c0,0.09-.08.2-0.12,0.28s-0.09.19-.11,0.25a0.28,0.28,0,0,1-.27.2h0a0.29,0.29,0,0,1-.27-0.2c0-.12-0.08-0.21-0.12-0.31l0-.11a0.9,0.9,0,0,0-.09-0.24,1.66,1.66,0,0,1,0-.26,2,2,0,0,1,0-.23,5.4,5.4,0,0,1,.16-1.22,6.51,6.51,0,0,1,.4-1.2l0-.08a3,3,0,0,1,.18-0.36,1.94,1.94,0,0,1,.23-0.28l0.2-.23a0.43,0.43,0,0,1,.7.42,0.23,0.23,0,0,0,0,.08v0.1c0,0.05,0,.1,0,0.15a1.24,1.24,0,0,1,0,.21c0,0.08,0,.15-0.06.23l-0.06.2-0.09.35C58.07,336.12,58,336.29,58,336.47Zm-3,48.39,0.09,0a0.14,0.14,0,0,1,.1,0L55.3,385l0.13,0.12,0.14,0.18,0.06,0.09c0.12,0.17.24,0.32,0.37,0.47a8,8,0,0,1,.59.81L56.79,387c0.16,0.23.3,0.46,0.44,0.69l0.27,0.43,0.06,0.1,0.09,0.14a0.43,0.43,0,0,1,.06.16h0a0.19,0.19,0,0,0,.11.21c0.1,0.16.2,0.33,0.29,0.5a0.22,0.22,0,0,1-.06.24,0.11,0.11,0,0,1-.15,0,4.8,4.8,0,0,1-.53-0.43l-0.07-.08a0.39,0.39,0,0,0-.11-0.07l-0.09-.05a1.28,1.28,0,0,1-.18-0.18l-0.06-.06a8.61,8.61,0,0,1-.87-1.06,7.17,7.17,0,0,1-.66-1.18c-0.05-.13-0.1-0.25-0.14-0.38l-0.12-.31a1.27,1.27,0,0,1-.12-0.48l0-.23A0.06,0.06,0,0,1,55,384.86Zm-3.88-62a32.54,32.54,0,0,0-6.64,12.46,44.47,44.47,0,0,0-1.44,7.1c-0.1.83-.17,1.68-0.25,2.49,0,0.42-.07.85-0.12,1.27s-0.05.59-.08,0.88a21,21,0,0,1-.36,2.8,0.27,0.27,0,0,1-.27.22,0.34,0.34,0,0,1-.35-0.23h0a14.82,14.82,0,0,1-.44-4.33,39.11,39.11,0,0,1,.3-4.22,41.27,41.27,0,0,1,1.95-8.49,32.61,32.61,0,0,1,7.78-12.65A27.94,27.94,0,0,1,63,313.1a23.09,23.09,0,0,1,6.37-.88,26.06,26.06,0,0,1,8.09,1.32,38,38,0,0,1,7.23,3.26l0.09,0.05A22.09,22.09,0,0,1,88,319l1.75,1.47L91,321.53a0.29,0.29,0,0,1,0,.42,0.37,0.37,0,0,1-.48.14c-1.28-.76-2.58-1.44-3.81-2.07-0.67-.34-1.32-0.73-2-1.1s-1.14-.67-1.73-1a36.45,36.45,0,0,0-7.7-3.14,22.53,22.53,0,0,0-13.51.56A26.77,26.77,0,0,0,51.11,322.86Zm47.56,6.64-0.27-.2-0.08,0-0.15-.07A1.36,1.36,0,0,1,98,329l-0.44-.37,0,0,0,0-0.17-.12h0a3.75,3.75,0,0,1-.32-0.29l0,0-0.41-.39c-0.29-.27-0.59-0.56-0.86-0.85a1.94,1.94,0,0,1-.16-0.2l-0.12-.15a2.75,2.75,0,0,1-.19-0.22,0.15,0.15,0,0,1,0-.07l0-.07,0,0L95,326.06a1.05,1.05,0,0,1-.26-0.43,0.23,0.23,0,0,0,0-.1l-0.14-.19a0.09,0.09,0,0,1,0-.09,0.12,0.12,0,0,1,.11-0.06l0.22,0.08H95a0.55,0.55,0,0,1,.22,0l0.16,0.07,0.14,0.06a0.23,0.23,0,0,0,.1,0h0a0.86,0.86,0,0,1,.21.06L96,325.63l0.07,0,0.16,0.08a1.49,1.49,0,0,1,.25.13A17.78,17.78,0,0,1,98,327a3.58,3.58,0,0,1,.36.36l0.07,0.08h0l0,0,0.08,0.09,0.11,0.11a4.41,4.41,0,0,1,.31.35,0.91,0.91,0,0,1,.14.23l0,0.06,0,0h0a0.33,0.33,0,0,0,.11.13,3.17,3.17,0,0,1,.47.74,3.1,3.1,0,0,0,.33.51l0.14,0.19a0.29,0.29,0,0,1-.09.36,0.31,0.31,0,0,1-.39,0L99.43,330l0,0-0.08-.06-0.07,0-0.11,0h0A2.13,2.13,0,0,1,98.67,329.5Zm5,19.44a18.14,18.14,0,0,1,.67-3.1l0-.11a5.14,5.14,0,0,1,1.31-2.46,0.57,0.57,0,0,1,.36-0.14,0.49,0.49,0,0,1,.19,0,0.57,0.57,0,0,1,.34.5,5.78,5.78,0,0,1-.34,2c-0.08.27-.16,0.54-0.22,0.8a23.3,23.3,0,0,0-.5,2.68c-0.06.51-.09,1-0.12,1.51s-0.05.93-.1,1.39c0,0.23,0,.46-0.07.7a11.77,11.77,0,0,1-.28,2,0.24,0.24,0,0,1-.21.19,0.34,0.34,0,0,1-.33-0.15,6.81,6.81,0,0,1-.83-2.87A13.35,13.35,0,0,1,103.69,348.94Zm7.77,91.46,6.18-5.07L118,435c1.23-1,2.5-2.07,3.81-3l1-.76a31.44,31.44,0,0,1,3.19-2.16,0.27,0.27,0,0,1,.37,0,0.35,0.35,0,0,1,0,.45,31.35,31.35,0,0,1-2.79,2.84l-0.87.82c-1.15,1.1-2.41,2.13-3.63,3.13l-0.32.26c-2.39,2-5.22,4.27-8.13,6.59a0.89,0.89,0,0,1-1.24,0c-0.94-.88-1.93-1.75-2.88-2.59l-1.55-1.37-0.86-.77-1.26-1.13-0.1-.09a4.75,4.75,0,0,1-1.56-2,0.09,0.09,0,0,1,0-.08,0.09,0.09,0,0,1,.07,0h0.05a4.88,4.88,0,0,1,2.35,1.1c0.84,0.59,1.68,1.24,2.39,1.79,1.38,1.08,2.7,2.26,3.82,3.29a0.23,0.23,0,0,0,.3,0Zm-19.29-27h0Zm0.67,0.09a0.17,0.17,0,0,1-.18,0,1.23,1.23,0,0,1-.23-0.17l-0.13-.12-0.07,0a0.23,0.23,0,0,1-.09-0.06l-0.25-.3a0.23,0.23,0,0,0-.1-0.13,1.31,1.31,0,0,1-.34-0.44l-0.09-.15a5,5,0,0,1-.27-0.5,1.83,1.83,0,0,1-.13-0.31,0.91,0.91,0,0,1,0-.12v0a0.23,0.23,0,0,0,0-.09h0l0-.06a0.16,0.16,0,0,1,.06-0.16,0.17,0.17,0,0,1,.16,0l0,0a0.23,0.23,0,0,0,.13.1l0.09,0a1.58,1.58,0,0,1,.24.21,4.82,4.82,0,0,1,.37.42l0.37,0.47a0.26,0.26,0,0,1,.06.11l0,0.09,0.23,0.41a0.42,0.42,0,0,1,0,.17,0.24,0.24,0,0,0,0,.08l0,0.1a1.28,1.28,0,0,1,.09.28A0.17,0.17,0,0,1,92.85,413.54Zm-3.61,2.6,0.15,0.18,0,0,0,0,0.17,0.21,0.08,0.11a0.39,0.39,0,0,1,0,.15,0.23,0.23,0,0,0,0,.06l0,0.07,0,0.11a0.85,0.85,0,0,1,.07.29,0.32,0.32,0,0,1-.21.33,0.74,0.74,0,0,1-.55-0.1l-0.06,0-0.05,0a0.9,0.9,0,0,1-.37-0.21l-0.08-.06-0.1-.08-0.06-.05-0.72-.71-0.54-.56-0.25-.26-0.48-.53a5.34,5.34,0,0,1-.64-0.91,0.48,0.48,0,0,1,.41-0.7,0.44,0.44,0,0,1,.22.06,9.43,9.43,0,0,1,1.89,1.6L89.1,416Zm-0.62,3.3a10.37,10.37,0,0,1,.74.93l0.24,0.32a2,2,0,0,1,.5,1.17A0.25,0.25,0,0,1,90,422a0.24,0.24,0,0,1-.15.06,2.24,2.24,0,0,1-1.26-.61l-0.25-.2a10.68,10.68,0,0,1-.91-0.77c-0.73-.72-1.43-1.44-2.07-2.13l-0.54-.58c-0.51-.54-1-1.11-1.52-1.68L83,415.75a9.62,9.62,0,0,1-.68-0.82,1.49,1.49,0,0,1-.43-1.13,0.25,0.25,0,0,1,.15-0.16,1.56,1.56,0,0,1,1.17.49,8.84,8.84,0,0,1,.78.69l0.39,0.36c0.52,0.47,1,1,1.51,1.46l0.62,0.61C87.18,417.92,87.87,418.64,88.61,419.44Zm1.18,5.83c0.37,0.34.73,0.68,1.11,1,0.21,0.19.41,0.39,0.6,0.59s0.37,0.39.57,0.57l0.23,0.2a8.33,8.33,0,0,1,.93.92,0.3,0.3,0,0,1,0,.39,0.32,0.32,0,0,1-.4.08,7.88,7.88,0,0,1-1.23-.72l-0.15-.1c-0.2-.14-0.41-0.26-0.62-0.38s-0.52-.31-0.77-0.49l-0.59-.42c-0.7-.51-1.42-1-2.09-1.58-1.57-1.3-3.13-2.7-4.77-4.29s-3-3-4.45-4.62a32.76,32.76,0,0,1-2.11-2.57l-0.28-.38a9.58,9.58,0,0,1-.65-0.94L75,412.25a1.9,1.9,0,0,1-.39-0.92,0.15,0.15,0,0,1,.06-0.13,0.24,0.24,0,0,1,.2,0,2.07,2.07,0,0,1,.85.56L76,412a9.23,9.23,0,0,1,.71.69l0.45,0.45c0.64,0.61,1.27,1.26,1.87,1.9l0.3,0.31c1.5,1.56,3,3.09,4.57,4.55s3,2.75,4.76,4.34C89,424.54,89.41,424.91,89.8,425.27Zm-0.49-13-0.14.18,0.1,0.08,0.08,0.08,0.21,0.22,0,0,0.07,0.07L89.74,413l0.14,0.14,0.17,0.16,0.28,0.25c0.13,0.11.26,0.22,0.38,0.34l0.08,0.08L91,414.15l0.14,0.14a0.64,0.64,0,0,1,.17.34,1.09,1.09,0,0,1,0,.15,0.37,0.37,0,0,1-.07.29,0.42,0.42,0,0,1-.26.14,0.7,0.7,0,0,1-.24.06,0.76,0.76,0,0,1-.32-0.1l-0.19-.1a5.62,5.62,0,0,1-.5-0.35,5.05,5.05,0,0,1-.63-0.63,9.26,9.26,0,0,1-.67-0.89l0,0h0L88.36,413l0-.07-0.08-.14a0.68,0.68,0,0,1-.11-0.34,0.23,0.23,0,0,0,0-.11l0-.08a0.32,0.32,0,0,1,.16-0.34h0a0.34,0.34,0,0,1,.4.09l0.07,0a0.56,0.56,0,0,1,.21.13l0.18,0.18,0.19-.14h0Zm88.4-68.6a1.29,1.29,0,0,1,0-.22c0-.09,0-0.18,0-0.27s0-.17,0-0.26l0-.3c0-.18,0-0.37,0-0.55,0-.48.07-1,0.09-1.42l0-.38c0-.1,0-0.21,0-0.33a2.92,2.92,0,0,1,.2-1.27,0.29,0.29,0,0,0,0-.08,0.89,0.89,0,0,1,.06-0.23l0,0a0.61,0.61,0,0,0,.11-0.18,0.1,0.1,0,0,1,.07-0.05,0.83,0.83,0,0,0,.18.16l0.08,0.06a0.94,0.94,0,0,1,.13.21l0,0.06a3.1,3.1,0,0,1,.52,1.71,10.71,10.71,0,0,1,0,1.82,6,6,0,0,1-.41,2c-0.06.14-.11,0.29-0.17,0.45a2.12,2.12,0,0,1-.67,1.15,0.38,0.38,0,0,1-.29,0,0.26,0.26,0,0,1-.17-0.13,1.91,1.91,0,0,1,0-1.08,5.28,5.28,0,0,0,.06-0.53A1.78,1.78,0,0,0,177.71,343.63Zm-0.38-9.1a0.28,0.28,0,0,1-.33-0.18,13.59,13.59,0,0,0-1.12-2.91c-0.25-.5-0.46-1-0.67-1.55s-0.36-.88-0.56-1.31a24.81,24.81,0,0,0-3.23-5.19A26.48,26.48,0,0,0,152,313.54l-1.12,0a30.61,30.61,0,0,0-10.78,2,32.45,32.45,0,0,0-5.44,2.65c-0.72.44-1.42,0.91-2.11,1.38-1,.65-2,1.33-3,1.88a0.41,0.41,0,0,1-.49-0.1,0.29,0.29,0,0,1,0-.39,16.58,16.58,0,0,1,5.48-4.64,33.13,33.13,0,0,1,6.52-2.94,29.37,29.37,0,0,1,24.07,2.26,28.59,28.59,0,0,1,8.61,7.89,25.25,25.25,0,0,1,2.86,5.17,10.84,10.84,0,0,1,.74,2.71c0.08,0.62.13,1.25,0.17,1.86,0,0.34.05,0.69,0.08,1A0.23,0.23,0,0,1,177.32,334.53ZM152.49,377l0.23,0.07a1.61,1.61,0,0,1,.15-0.22l0.12-.13,0.19-.16,0.07,0,0.05,0a0.23,0.23,0,0,0,.13,0l0.1-.07a0.13,0.13,0,0,1,.11,0,0.13,0.13,0,0,1,0,.14l0,0.06a0.24,0.24,0,0,0,0,.11,0.31,0.31,0,0,1,0,.1l-0.1.23a1.05,1.05,0,0,1-.08.17l0,0.06a1.31,1.31,0,0,1-.16.19l-0.05.06a0.47,0.47,0,0,1-.11.1l-0.08,0h-0.18a0.38,0.38,0,0,1-.13,0,0.26,0.26,0,0,1-.07-0.08,0.32,0.32,0,0,0,0-.07,0.39,0.39,0,0,1,0-.11,0.84,0.84,0,0,1,0-.12,0.54,0.54,0,0,1,.06-0.13l-0.2-.12h0Zm3.17,0.16a0.43,0.43,0,0,1,0,.27l0,0.07-0.07.21,0,0.05a1,1,0,0,1,0,.12,0.23,0.23,0,0,0-.11.17l0,0.17a1.1,1.1,0,0,1-.11.3L155,379a2.28,2.28,0,0,1-.3.46l-0.06.07a0.86,0.86,0,0,1-.28.25,0.56,0.56,0,0,1-.56,0,0.59,0.59,0,0,1-.28-0.5,0.91,0.91,0,0,1,.1-0.39l0-.07a1.51,1.51,0,0,1,.15-0.31l0.11-.16,0.13-.19a2.81,2.81,0,0,1,.39-0.52l0.16-.12a0.23,0.23,0,0,0,.09-0.15,1.17,1.17,0,0,1,.18-0.17L155,377a0.48,0.48,0,0,1,.25-0.15l0.08,0,0.09-.06a0.19,0.19,0,0,1,.18,0,0.21,0.21,0,0,1,.06.24A0.24,0.24,0,0,0,155.67,377.13Zm8.94,0.76,0.33-.6a15.84,15.84,0,0,1,.92-1.55l0.2-.29a3.72,3.72,0,0,1,1.28-1.34l0.07,0h0.07a0.08,0.08,0,0,1,.05.06,2.14,2.14,0,0,1,0,1.06,10.78,10.78,0,0,1-.4,1.25,22.85,22.85,0,0,1-1.06,2.31c-0.74,1.46-1.56,2.93-2.43,4.37a40.22,40.22,0,0,1-2.89,4.29l-0.43.56a9.93,9.93,0,0,1-1.15,1.34,8.16,8.16,0,0,0-.67.72,4.6,4.6,0,0,1-1.09,1,0.41,0.41,0,0,1-.45,0,0.37,0.37,0,0,1-.14-0.4,4.82,4.82,0,0,1,.68-1.24,7.49,7.49,0,0,0,.56-0.92,11,11,0,0,1,.81-1.34c0.15-.23.31-0.46,0.45-0.69,0.43-.7.9-1.41,1.34-2.09s0.93-1.41,1.37-2.13C162.91,380.83,163.77,379.37,164.6,377.89Zm-2.19-.8h0l-0.06.34a4.82,4.82,0,0,1-.27,1,13.44,13.44,0,0,1-.6,1.25c-0.53,1-1,1.68-1.4,2.32-0.56.83-1.14,1.61-1.73,2.34l-0.16.2a5.57,5.57,0,0,1-.72.79,4,4,0,0,1-1.18.68A0.32,0.32,0,0,1,156,386a0.47,0.47,0,0,1-.15-0.45,4,4,0,0,1,.55-1.25c0.16-.23.35-0.45,0.53-0.67l0.34-.42c0.51-.65,1-1.32,1.52-2s1-1.5,1.54-2.29c0.22-.35.46-0.72,0.7-1.05a6.4,6.4,0,0,1,.56-0.64l0.34-.37a0.24,0.24,0,0,1,.18-0.1l0.12,0A0.38,0.38,0,0,1,162.41,377.09Zm-4.39,1.1s0,0.08,0,.13v0.19a1.2,1.2,0,0,1-.08.27l-0.17.41-0.06.13,0.21,0.1-0.24,0-0.08.2,0,0.1-0.15.25a6.35,6.35,0,0,1-.71.93,3,3,0,0,1-.38.38,3,3,0,0,1-.31.2l-0.16.1a1.19,1.19,0,0,1-.26.14H155.4l-0.1,0a0.43,0.43,0,0,1-.43-0.05,0.42,0.42,0,0,1,0-.48l0,0h0v0h0v0a0.88,0.88,0,0,1,0-.1h0l0.09-.12h0l0-.05,0.16-.24a2.23,2.23,0,0,1,.21-0.29l0.08-.09,0.28-.32,0.33-.45,0.18-.24,0.25-.34,0.05-.07h0a0.23,0.23,0,0,0,.06-0.11l0.05-.08,0.16-.26a2,2,0,0,1,.14-0.22,0.51,0.51,0,0,0,.09-0.09l0.08-.1a0.65,0.65,0,0,1,.43-0.27h0.06a0.09,0.09,0,0,1,.12,0l0,0.07A0.59,0.59,0,0,1,158,378.19Zm-21.87-57.51a3.88,3.88,0,0,1,1.56-1.37l0.22-.13a14.54,14.54,0,0,1,2.06-1.05,25.73,25.73,0,0,1,4.6-1.48,22.07,22.07,0,0,1,4.75-.47h0.06a13.5,13.5,0,0,1,2,.2l0.42,0.06a9.51,9.51,0,0,1,1.58.42l0.72,0.23a0.17,0.17,0,0,1,.11.21,0.12,0.12,0,0,1-.14.13,11.75,11.75,0,0,0-1.38,0c-0.32,0-.64,0-1,0-0.49,0-1,0-1.45.08l-0.92.06a29.42,29.42,0,0,0-4.43.6,26.53,26.53,0,0,0-4.46,1.33c-0.47.19-.94,0.39-1.41,0.59l-0.66.28-0.5.23a3.55,3.55,0,0,1-1.51.48,0.28,0.28,0,0,1-.24-0.12A0.38,0.38,0,0,1,136.15,320.68Zm6.36-.16a9,9,0,0,1,2.22-.7,10.5,10.5,0,0,1,2-.21h0.4a3.91,3.91,0,0,1,1.16.19l0.22,0.07a3,3,0,0,1,.34.12l0.18,0.09a1.82,1.82,0,0,0,.32.16,0.26,0.26,0,0,1,.19.29,0.25,0.25,0,0,1-.25.22,1.52,1.52,0,0,0-.38.08l-0.17,0-0.19,0-0.25,0-0.07,0a0.7,0.7,0,0,1-.36.1h-0.29l-0.44,0h0c-0.65.06-1.33,0.12-2,.23s-1.2.25-1.77,0.38l-0.34.08-0.31.08A2.56,2.56,0,0,1,141,322a0.13,0.13,0,0,1,0-.09A2.52,2.52,0,0,1,142.5,320.52Zm2.13,5.36a0.39,0.39,0,0,0,.11-0.09h0v0l0.06-.08,0.09-.08,0,0a0.49,0.49,0,0,1,.16-0.13l0.14-.06,0.08,0a4,4,0,0,1,.59-0.18,3.55,3.55,0,0,1,.62-0.08,1.38,1.38,0,0,1,.51,0h0.05a1.21,1.21,0,0,1,.33.07l0.1,0a0.28,0.28,0,0,1,.27.2,0.27,0.27,0,0,1-.11.28l-0.1,0-0.06,0a1.7,1.7,0,0,1-.32.23,0.92,0.92,0,0,1-.29.16l-0.17.06-0.07,0a3,3,0,0,1-.53.13,4.38,4.38,0,0,1-.71.07,0.77,0.77,0,0,1-.19,0l-0.14-.06H145l-0.07,0-0.12,0a0.33,0.33,0,0,1-.21-0.25A0.21,0.21,0,0,1,144.64,325.88Zm1.38,2.7,0,0,0-.06a0.43,0.43,0,0,1,.16-0.15l0,0h0l0.1-.07,0.06,0,0.08,0a1.51,1.51,0,0,1,.41-0.2l0.08,0,0.18,0a1.25,1.25,0,0,1,.31,0h0.36a0.65,0.65,0,0,1,.25.07,0.25,0.25,0,0,1,.11.16,0.26,0.26,0,0,1,0,.2h0a0.71,0.71,0,0,1-.26.22l-0.08,0-0.16.08a1.2,1.2,0,0,1-.29.14l-0.24.07a1.58,1.58,0,0,1-.48,0h-0.19l-0.13,0h-0.06a0.41,0.41,0,0,1-.17-0.05l-0.07,0h-0.05a0.08,0.08,0,0,1,0-.06A0.09,0.09,0,0,1,146,328.58Zm-2.64-4.33,0.12-.16,0.09-.13a1.57,1.57,0,0,1,.25-0.23l0.07,0a3.86,3.86,0,0,1,.45-0.29,7.39,7.39,0,0,1,1.28-.54,4.9,4.9,0,0,1,1.41-.26,2.84,2.84,0,0,1,.69.11,0.93,0.93,0,0,1,.47.33,0.21,0.21,0,0,1,0,.19,1,1,0,0,1-.48.37l-0.12,0-0.15.06h0l-0.23.09-0.79.16L146,324l-0.39.09-0.23.05-0.21,0h0l-0.08,0-0.16,0-0.15,0-0.33.07-0.23,0a2,2,0,0,1-.33,0h-0.31a0.16,0.16,0,0,1-.16-0.07A0.09,0.09,0,0,1,143.38,324.25Zm6,83a0.18,0.18,0,0,1-.06-0.21l0.35-.56a18.77,18.77,0,0,1,1.05-1.59l0.61-.81c0.29-.39.57-0.77,0.87-1.15l1.54-1.95,1.49-1.88a149.65,149.65,0,0,0,9.95-14.29c1.53-2.51,3-5.1,4.36-7.7,0.22-.43.44-0.86,0.66-1.29,0.43-.85.88-1.73,1.36-2.56l1.05-1.78,1.22-2.05a0.33,0.33,0,0,1,.3-0.17,0.48,0.48,0,0,1,.19,0,0.33,0.33,0,0,1,.2.41l-0.08.25a43,43,0,0,1-1.64,4.51c-0.61,1.35-1.31,2.76-2.21,4.44A139.55,139.55,0,0,1,161.2,394c-1.73,2.43-3.57,4.83-5.48,7.13-1.06,1.27-2,2.32-3,3.31-0.5.5-1,1-1.6,1.55a10.86,10.86,0,0,1-1.15.9l-0.54.39A0.1,0.1,0,0,1,149.34,407.22Zm-18.92,17.84,0.09-.09,0,0h0l0,0,0.12-.14a1.63,1.63,0,0,1,.21-0.22l0.31-.27c0.39-.34.79-0.67,1.23-1a1.35,1.35,0,0,1,.29-0.2,0.37,0.37,0,0,0,.28-0.21l0.07,0,0.13-.08,0.19-.15a2.13,2.13,0,0,1,.46-0.31h0l0.12-.06,0.06,0,0.48-.31a1.63,1.63,0,0,1,.73-0.31,0.27,0.27,0,0,1,.24.1,0.45,0.45,0,0,1,.1.38,1.58,1.58,0,0,1-.43.63l-0.41.45a0.23,0.23,0,0,0,0,.07l-0.14.18a3.61,3.61,0,0,1-.38.35l-0.18.15-0.08.07-0.1.08a0.23,0.23,0,0,0-.14.09l-0.14.18a1.12,1.12,0,0,1-.16.13l-0.08.06c-0.45.33-.88,0.62-1.32,0.88l-0.1.06a2.44,2.44,0,0,1-.63.31,1.15,1.15,0,0,0-.22.09l-0.14.06a0.49,0.49,0,0,1-.32,0l-0.09,0a0.85,0.85,0,0,0-.19-0.08,0.13,0.13,0,0,1-.06-0.05,1.09,1.09,0,0,0,0-.22,0.67,0.67,0,0,1,0-.13A0.5,0.5,0,0,1,130.42,425.06Z" transform="translate(-17.16 -304.7)"/><path class="cls-3" d="M193.91,326.08a5,5,0,0,0,1.62.83l0.62,0.15c0.89,0.21,1.6.37,1.88,1.37a2.49,2.49,0,0,1-.05,1c0,0.11,0,.22-0.06.32-0.14.92-.22,1.67-0.27,2.36a9.36,9.36,0,0,0,.53,4.47,5,5,0,0,0,2.43,2.55,6.48,6.48,0,0,0,1.73.51l0.28,0h0l0.48,0h0.2c0.25,0,.51,0,0.77,0a9.12,9.12,0,0,0,1.87-.4,7,7,0,0,0,1.46-.64,11.24,11.24,0,0,0,3.23-2.86,31.48,31.48,0,0,0,4.07-7.55l0.26-.61c0.69-1.6,1.38-3.31,2.05-5.09l0-.08a39.59,39.59,0,0,0,1.48-4.4,0.23,0.23,0,0,0-.18-0.28l-0.18,0-3.93-.66-2-.33-2.93-.51c-2.36-.43-4.8-0.87-7.22-1.1-3.64-.35-6.21.25-8.08,1.9a6,6,0,0,0-2.11,6.32A5.74,5.74,0,0,0,193.91,326.08Z" transform="translate(-17.16 -304.7)"/><path class="cls-4" d="M68.47,411a11.48,11.48,0,0,0,1.78-4.35,22.79,22.79,0,0,0,.46-4.91c0-.67,0-1.4-0.06-2.3a0.23,0.23,0,0,0-.34-0.19l-11.2,6.13c-2.87,1.58-5.81,3.15-8.65,4.68q-3.69,2-7.37,4l-2,1.09c-2,1.07-4,2.18-6,3.25-1.53.82-2.81,1.48-4,2.09a26.14,26.14,0,0,1-2.53,1.05c-0.56.21-1.15,0.43-1.71,0.67-0.06,0-.08,0-0.09,0s0,0,0-.08c0.44-.33.82-0.63,1.16-0.94a6.49,6.49,0,0,1,.58-0.44c0.16-.11.32-0.23,0.48-0.35a22.91,22.91,0,0,1,2-1.43c1.13-.74,2.31-1.45,3.45-2.14l0.81-.49c2.19-1.33,4.44-2.64,6.62-3.9L44,411.16c8.25-4.81,16.43-9.47,24.32-13.85a0.23,0.23,0,0,0,0-.41,24.77,24.77,0,0,0-7.67-2.67,10.3,10.3,0,0,0-4.24,0,3.37,3.37,0,0,0-1.6.88l-0.15.17a0.23,0.23,0,0,0,.1.37,27.88,27.88,0,0,1,3.06,1.23,0.28,0.28,0,0,1,.17.33,0.46,0.46,0,0,1-.39.37,20.11,20.11,0,0,1-3.84-.06c-1.4-.2-2.47-0.32-3.47-0.42-4.51-.43-8.09.14-10.95,1.74a12.53,12.53,0,0,0-3.66,3,10,10,0,0,0-1.21,1.9l-0.08.17a0.23,0.23,0,0,0,.17.32,18,18,0,0,1,2.79.79,0.31,0.31,0,0,1,.21.34,0.26,0.26,0,0,1-.28.23c-0.93,0-2,.11-3.23.24-0.26,0-.51.07-0.75,0.12s-0.5.09-.77,0.12l-0.25,0a10,10,0,0,0-1.12.14,17.86,17.86,0,0,0-5.08,1.57,10.38,10.38,0,0,0-5.5,7.31,8.19,8.19,0,0,0-.12,2.21c0,0.35.06,0.68,0.1,1a0.23,0.23,0,0,0,.39.14,11.56,11.56,0,0,1,1.29-1A10.28,10.28,0,0,1,26.38,416a0.34,0.34,0,0,1,.38.2,0.28,0.28,0,0,1-.13.35,30,30,0,0,0-3.28,2.71l-0.07.06a12.09,12.09,0,0,0-2.69,3.31,7.83,7.83,0,0,0-.37,6.51c0.9,2.14,3,3.57,6.11,4.24a9.23,9.23,0,0,0,1.92.21,8.18,8.18,0,0,0,5.63-2.21A11.94,11.94,0,0,0,36.35,428a14.23,14.23,0,0,0,.59-1.35,6.83,6.83,0,0,1,1.3-2.36,0.31,0.31,0,0,1,.3-0.1,0.43,0.43,0,0,1,.3.27c0.57,1.55-.24,3.49-1.2,5.35l-0.05.1,0,0.08a0.23,0.23,0,0,0,.15.33,7.31,7.31,0,0,1,1,.35l0.42,0.17a7.23,7.23,0,0,0,2.18.48,8.67,8.67,0,0,0,7.16-3.7,15.86,15.86,0,0,0,2.29-4.36c0.26-.72.49-1.46,0.7-2.17l0.16-.54a3.7,3.7,0,0,1,1.05-2,0.32,0.32,0,0,1,.24-0.08,0.3,0.3,0,0,1,.2.14,4,4,0,0,1,.27,3l0,0.23c0,0.26-.08.52-0.14,0.79a0.23,0.23,0,0,0,.18.27l0.19,0,0.33,0.07A5.83,5.83,0,0,0,55,423a7,7,0,0,0,2.51-.41c2.7-.93,4.8-3.45,5.75-6.91A21.75,21.75,0,0,0,64,410.3c0-.51,0-1,0-1.53s0-1,0-1.44c0-.18,0-0.37,0-0.55a4.05,4.05,0,0,1,.39-2.25,0.4,0.4,0,0,1,.3-0.18,0.32,0.32,0,0,1,.27.1,5,5,0,0,1,1,2.84c0,0.18,0,.36.08,0.54a21.85,21.85,0,0,1,.2,3.94c0,0.2,0,.41,0,0.61a0.23,0.23,0,0,0,.31.23,2.75,2.75,0,0,0,.43-0.19A4.82,4.82,0,0,0,68.47,411Z" transform="translate(-17.16 -304.7)"/><path class="cls-5" d="M18.15,414.9a9.14,9.14,0,0,0,.12,3.25,5.45,5.45,0,0,0,.57,1.5,1.81,1.81,0,0,0,.34.41c4.23,2.49,9.11.75,12.91-2.49,4.62-3.93,8.48-9,14-11.81,5-2.57,10.54-2.43,16-2.79,4.2-.28,9.08-0.91,10.4-5.6C73.92,392,72,387,69,382.5c-6-8.84-15.89-17.46-13-29.29,1.38-5.58,4.86-10.61,10.27-12.84,4.86-2,10.43-1.61,15.35,0a35.87,35.87,0,0,1,14,8.86c4.53,4.44,8.75,9.84,14.6,12.62,6,2.85,13.75,1.38,19-2.46,4.44-3.24,6-8.53,7.13-13.65,1.35-6.19,2.34-12.42,5.11-18.19a38.44,38.44,0,0,1,12.42-14.5A40.84,40.84,0,0,1,165,307.46a36,36,0,0,0-17.29-2.6,43.61,43.61,0,0,0-22.43,8.89,58,58,0,0,0-14.83,16.89A58,58,0,0,0,95.6,313.75a43.61,43.61,0,0,0-22.43-8.89,34.52,34.52,0,0,0-23,5.77,38.56,38.56,0,0,0-13.42,17.85,49.44,49.44,0,0,0-2.48,24.25,84.41,84.41,0,0,0,8.41,26q1.67,3.39,3.55,6.66c0.55,1.1,1.1,2.21,1.7,3.29s1.26,2.16,1.92,3.22c0.33,0.53.66,1.06,1,1.59s0.5,0.87.81,1.26L51,394.7a27.08,27.08,0,0,0-7.37.12A15.2,15.2,0,0,0,34,400.28,11,11,0,0,0,32.47,403a4,4,0,0,0-.19.68c-0.37,0-.75,0-1.13,0a16.14,16.14,0,0,0-6.33,1.83A12.72,12.72,0,0,0,18.15,414.9Z" transform="translate(-17.16 -304.7)"/><path class="cls-6" d="M186,342c-3-2.78-4.34-6.8-7.19-9.64-3.6-3.59-10.14-.69-13.43,2-4.32,3.54-3.81,9.08-3,14.05,0.92,5.75,1.65,11,.55,16.79-0.94,5-2.86,9.92-6.57,13.49-3.36,3.24-7.69,5.07-12,6.71-5.28,2-11,3.62-15.52,7.12-3.44,2.66-5.42,6.5-7.9,10-5.32,7.48-12,13.82-21.19,15.79-6.69,1.44-13.51.95-20.29,1.09a31.62,31.62,0,0,0-6.49.61c5.49,5.59,11.26,10.91,17.18,16,6.31,5.46,12.8,10.69,19.34,15.86l0,0a1.35,1.35,0,0,0,1.85,0l0,0c6.54-5.17,13-10.4,19.34-15.86s12.45-11.14,18.26-17.13a188.42,188.42,0,0,0,16.26-19,138.35,138.35,0,0,0,12.94-21.07,84.41,84.41,0,0,0,8.41-26,55.56,55.56,0,0,0,.44-9.86C186.66,342.57,186.31,342.27,186,342Z" transform="translate(-17.16 -304.7)"/><path class="cls-7" d="M43.37,376.2a88.09,88.09,0,0,0,10.39,16.59c0.94,1.16,2.94-.38,2.08-1.6a168.83,168.83,0,0,1-10.27-15.81c-1.48-2.69-2.86-5.44-4.19-8.2s-2.29-6.06-4.05-8.63a0.11,0.11,0,0,0-.2.05c0.1,3,1.48,6.1,2.49,8.88A83.71,83.71,0,0,0,43.37,376.2Z" transform="translate(-17.16 -304.7)"/><path class="cls-7" d="M199.29,339c3.33,1.76,7.19.19,10-1.85A21.3,21.3,0,0,0,216,329c0.9-2.06,1.48-4.32,2.19-6.45,0.58-1.71,1.58-3.56,1.32-5.38a0.37,0.37,0,0,0-.62-0.16,7.71,7.71,0,0,0-1.62,3.16,32.54,32.54,0,0,1-2.35,5,38,38,0,0,1-5.61,7.37c-2.12,2.07-5.41,4.47-8.58,3.77-1.69-.38-2-1.73-3.14-2.63a0.81,0.81,0,0,0-.7-0.34C194.54,334.66,197.93,338.31,199.29,339Z" transform="translate(-17.16 -304.7)"/><path class="cls-7" d="M68.3,413a1.91,1.91,0,0,0,2.85,1.8c-0.08.27-.16,0.54-0.25,0.82a1.57,1.57,0,0,0,1.86,2,20.41,20.41,0,0,0,1.78,2c2.1,2.13,4.22,4.23,6.43,6.25q6.62,6.06,13.64,11.64c2.95,2.35,6.06,5.15,9.56,6.86-0.48,1.31.7,2.71,1.76,3.36a3.25,3.25,0,0,0,.76.33c0.12,1.68,1.93,3.37,3.66,2.14,2-1.39,4-2.55,5.91-4,2.19-1.7,4.32-3.47,6.47-5.23,4.19-3.44,8.36-6.9,12.45-10.45a221.42,221.42,0,0,0,22.69-22.72,118.06,118.06,0,0,0,16.73-24.37,90.75,90.75,0,0,0,6.46-17.31h0c2.47-4.16,3.39-9.34,3.94-14.09a52.71,52.71,0,0,0-.58-15.19,0.24,0.24,0,0,0-.47.06c0.13,2,.17,4,0.12,6-0.09-7.36-1.38-14.73-4.66-21.23a0.15,0.15,0,0,0-.28.12c3.71,17.07,2.65,33.47-4.61,49.41-5.1,11.2-12.22,21.35-20,30.84s-16.57,19.49-26,27.49q-3.52,3-7.09,5.92c-4.42,3.63-9.18,8.64-15.46,5.54-4.4-2.17-8.27-5.75-12-8.86s-7.59-6.46-11.24-9.85c-1.88-1.74-3.78-3.47-5.63-5.24a21.24,21.24,0,0,0-2.56-2.15c1.33-5,1.21-10.74-1.3-15.32,2.4-.87,4.71-2.66,6.83-3.89l8.72-5.08c5.52-3.22,11.12-6.33,16.6-9.63,0.12,0.2.23,0.41,0.35,0.6,2.23,3.53,7.14,8.06,11.65,6.18a0.46,0.46,0,0,0,.2-0.76,35.49,35.49,0,0,0-4.55-2.76,15.83,15.83,0,0,1-5-4.78,20.8,20.8,0,0,1-3-6.66c-0.65-2.38-.65-4.88-1.33-7.23a0.07,0.07,0,0,0-.13,0c-1.5,3.84-.85,9.22.86,13.35-5.64,3.13-11.17,6.47-16.76,9.68l-8.74,5c-2.15,1.24-4.91,2.38-6.87,4.07a0.54,0.54,0,0,0-.88.53l0.05,0.28-0.18.2a0.76,0.76,0,0,0,.42,1.26A34.07,34.07,0,0,0,70,404.76a7.56,7.56,0,0,1-1.62,3.09c-0.83.85-1.83,0.92-2.75,1.53a0.7,0.7,0,0,0-.14,1.09l0.18,0.18-0.13.21,0-.1a0.41,0.41,0,0,0-.65-0.08,9.81,9.81,0,0,0-1.34,2.66,18.79,18.79,0,0,1-2,3.17c-2.06,2.7-4.66,4.23-8.1,3.73A1.31,1.31,0,0,0,52,421.66a0.57,0.57,0,0,0-.15.1A11.88,11.88,0,0,0,50.26,424l0,0a12.32,12.32,0,0,1-3.52,2.47,10.43,10.43,0,0,1-8.42.68,0.52,0.52,0,0,0,0-.2,3.57,3.57,0,0,0,0-.44,0.46,0.46,0,0,0-.69-0.39,9.53,9.53,0,0,0-1.18,1.07,15.49,15.49,0,0,1-8.85,3.27c-2.07.09-4.48-.12-6.05-1.64-1.27-1.23-1.05-2.64-1.85-4a0.15,0.15,0,0,0-.21-0.05,2,2,0,0,0-.81,1.93c-0.45,1.56.77,3.49,1.72,4.63a8.87,8.87,0,0,0,6.81,2.92A11.88,11.88,0,0,0,34.77,432a12.71,12.71,0,0,0,2.3-2.29,1.42,1.42,0,0,0,.42.5,0.15,0.15,0,0,0-.1.22c1.57,2.07,5.85,2.4,7.52.27a0.51,0.51,0,0,0,.1-0.39l0.07,0c2.68-1,6.65-3.59,7.56-6.71a4,4,0,0,0,.2-0.54,2.16,2.16,0,0,0,2.07.66,3,3,0,0,0,1.23-.55A9.82,9.82,0,0,0,62.38,420c1.54-1.62,3.38-4.51,3.51-7.09A2.42,2.42,0,0,0,68.3,413Z" transform="translate(-17.16 -304.7)"/><path class="cls-7" d="M97,318.57a52.14,52.14,0,0,1,3.79,5.55,55.72,55.72,0,0,1,5.32,12.21,1.27,1.27,0,0,0,2.28.3,5.89,5.89,0,0,0,.87-5.25c-0.6-2.42-2.32-3.76-3.69-5.72a0.74,0.74,0,0,0-1.37.37c0,0.14,0,.29,0,0.44-0.63-1.08-1.3-2.14-2-3.18a57,57,0,0,0-3.8-5c-1.41-1.64-3-3.74-5-4.64a0.09,0.09,0,0,0-.12.12C94.18,315.59,95.83,317,97,318.57Z" transform="translate(-17.16 -304.7)"/><path class="cls-8" d="M104.8,364.41a24,24,0,0,0-.11,2.51,21.57,21.57,0,0,0,.26,2.31,25.94,25.94,0,0,0,1.28,4.77,27.46,27.46,0,0,0,2.06,4.44c0.75,1.3,1.79,2.92,3.23,3.52a0.35,0.35,0,0,0,.21,0l0.3,0.44a35.69,35.69,0,0,0,3.09,4,23.84,23.84,0,0,0,1.73,1.75,4.48,4.48,0,0,0,1.09.74,8.76,8.76,0,0,0,.92.47,0.53,0.53,0,0,0,.59-0.76,2.94,2.94,0,0,0-.23-0.45,0.65,0.65,0,0,0-.21-0.23,6,6,0,0,0-.6-1c-0.5-.58-1-1.14-1.51-1.73-0.89-1.05-1.76-2.12-2.55-3.24a43,43,0,0,1-4.19-7.33,48.3,48.3,0,0,1-4-16.34,36.78,36.78,0,0,1-.18-4.75c0.09-1.64.38-3.24,0.51-4.87,0-.34-0.46-0.36-0.56-0.08a21.34,21.34,0,0,0-.91,4.29c-0.2,1.44-.43,2.9-0.53,4.35a32,32,0,0,0,.36,7A0.31,0.31,0,0,0,104.8,364.41Z" transform="translate(-17.16 -304.7)"/><path class="cls-8" d="M71.84,398.06a0.49,0.49,0,0,0,.29-0.72c-1.08-1.45-3.37-1.9-5-2.32a35,35,0,0,0-3.92-.76,0.48,0.48,0,0,0-.23-0.34,6.06,6.06,0,0,0-1.08-.45,5,5,0,0,0-1.29-.33,6.44,6.44,0,0,0-1.17-.08,13,13,0,0,0-1.36.18c-1.5.28-3.37,1-4,2.47a0.29,0.29,0,0,0,.25.44l0.3,0a2.15,2.15,0,0,0-.24.53,19.14,19.14,0,0,0-5.28-.24,25.74,25.74,0,0,0-6.15,1.18,12.59,12.59,0,0,0-1.26.28,13.33,13.33,0,0,0-3.58,1.54,8,8,0,0,0-2.6,2.49,6.12,6.12,0,0,0-.55,1.09,3.07,3.07,0,0,0-.78,2,0.75,0.75,0,0,0,.19.42,9.37,9.37,0,0,0-3.3.6,0.64,0.64,0,0,0-.56-0.48,5.23,5.23,0,0,0-2.1.42,12.33,12.33,0,0,0-1.87.91,16.26,16.26,0,0,0-3.36,2.69,11.43,11.43,0,0,0-2.28,3.52,7.33,7.33,0,0,0-.59,2.38,13,13,0,0,0-.46,1.7,7.92,7.92,0,0,0-.13,1.56,1.61,1.61,0,0,0,.1.77,5.36,5.36,0,0,0,.33.49,0.29,0.29,0,0,0,.46.06,2.1,2.1,0,0,0,.71-0.92c0.14-.42.29-0.83,0.42-1.25a20.83,20.83,0,0,1,.79-2.42,10.17,10.17,0,0,1,3.12-4.12c3-2.29,6.59-3.48,10-5a0.45,0.45,0,0,0-.11-0.81l-0.37,0a7,7,0,0,0,1.72-1.63,13.07,13.07,0,0,1,1.9-1.73,17.25,17.25,0,0,1,4.67-2.42,25.93,25.93,0,0,1,6.11-1.16,49.68,49.68,0,0,0,6.44-.63,0.4,0.4,0,0,0,0-.77l-0.07,0,0.48-.24a9,9,0,0,1,1.85-.6,13.23,13.23,0,0,1,4-.08,31.89,31.89,0,0,1,4.77.9C68.51,397.46,70.25,398.3,71.84,398.06Z" transform="translate(-17.16 -304.7)"/><path class="cls-8" d="M36.94,360.74c0.13,0.37.8,0.35,0.74-.1a80.1,80.1,0,0,1-.78-11.88A54.29,54.29,0,0,1,38.42,337a37.92,37.92,0,0,1,8.38-16.55C60,306,83.7,308.62,98.73,318.27c1,0.66,2.17,1.37,3.28,2.16l-0.08-.07a48.36,48.36,0,0,0-4.36-3.49c-0.59-.41-1.2-0.81-1.82-1.19a0.5,0.5,0,0,0-.12-0.26A17.87,17.87,0,0,0,94,313.6a12.49,12.49,0,0,0-2-1.37,30.36,30.36,0,0,0-4.46-2c-1-.38-2.09-0.72-3.15-1s-2.13-.65-3.22-0.9a40.63,40.63,0,0,0-8.31-1c-1.68-.13-3.37-0.22-5.06-0.23a26.81,26.81,0,0,0-10.63,1.69,18,18,0,0,0-4.52,2.67c-0.27.22-.55,0.47-0.82,0.74A19,19,0,0,0,47,315.93a43.27,43.27,0,0,0-4.49,5.66,19.22,19.22,0,0,0-2.11,3.87,36.34,36.34,0,0,0-3.36,7.79,48.11,48.11,0,0,0-1,24.6A25.67,25.67,0,0,0,36.94,360.74Z" transform="translate(-17.16 -304.7)"/><path class="cls-8" d="M108.1,340.41c0.8-1.11,1.46-2.31,2.24-3.44s1.51-2.15,2.25-3.24a55,55,0,0,1,4.93-6.19,55.94,55.94,0,0,1,12.11-10,52.46,52.46,0,0,1,14.48-6.09c5.68-1.43,11.8-2.06,17.55-.73a29.51,29.51,0,0,1,8.68,3.52,36.94,36.94,0,0,1,3.78,2.7c0.64,0.51,1.24,1.11,1.91,1.58s1.36,0.91,2,1.39c0.44,0.32.89-.28,0.69-0.69-0.32-.65-0.68-1.26-1.06-1.87a9.06,9.06,0,0,0-1.57-1.77,25.54,25.54,0,0,0-3.57-2.77,31.81,31.81,0,0,0-8.13-3.82q-1.14-.35-2.29-0.6l-0.74-.22a35.25,35.25,0,0,0-5.65-1,42.55,42.55,0,0,0-11.35.47A45.51,45.51,0,0,0,125,316.07a53.82,53.82,0,0,0-4.51,3.77c-0.72.67-1.4,1.37-2,2.1a5.73,5.73,0,0,0-1,1.24c-0.2.43-.36,0.88-0.54,1.32a0.35,0.35,0,0,0,0,.18,49.59,49.59,0,0,0-5.6,7.15,27.27,27.27,0,0,0-2.19,4.06,23.43,23.43,0,0,0-1.56,4.31A0.27,0.27,0,0,0,108.1,340.41Z" transform="translate(-17.16 -304.7)"/><path class="cls-8" d="M191.93,323.42a5,5,0,0,0,.13,1.59c0.25,1,1,2.19,2.12,2.2a0.32,0.32,0,0,0,.3-0.4,10,10,0,0,0-.34-1.13,5.87,5.87,0,0,1-.15-1.17,4.84,4.84,0,0,1,.46-2.39,8,8,0,0,1,3.92-3.61,15.27,15.27,0,0,1,6.35-1.15c2.45,0,4.9.12,7.35,0.21l4.09,0.12c0.68,0,1.36,0,2,0a4,4,0,0,0,2.14-.43,0.64,0.64,0,0,0,0-1.08,3.68,3.68,0,0,0-1.91-.54c-0.72-.07-1.44-0.11-2.16-0.14l-4.21-.18c-2.7-.1-5.41-0.29-8.11-0.2h-0.19c-0.74-.16-1.45-0.44-2.2-0.53a9.4,9.4,0,0,0-2.54,0,9.26,9.26,0,0,0-3.81,1.48,10.49,10.49,0,0,0-3,3,7.66,7.66,0,0,0-.85,1.87,3,3,0,0,0,0,2.16A0.59,0.59,0,0,0,191.93,323.42Z" transform="translate(-17.16 -304.7)"/><path class="cls-9" d="M104.23,354.88a0.53,0.53,0,0,0,1-.1,18.21,18.21,0,0,0,.36-2.72c0.1-1,.11-1.93.22-2.9a23,23,0,0,1,.49-2.65,9.81,9.81,0,0,0,.57-2.86,0.76,0.76,0,0,0-1.27-.56,5.56,5.56,0,0,0-1.42,2.68,18.5,18.5,0,0,0-.67,3.14,13.51,13.51,0,0,0-.1,3A6.94,6.94,0,0,0,104.23,354.88Z" transform="translate(-17.16 -304.7)"/><path class="cls-9" d="M67.39,414.65l0.4-.18c1.35,1.48,2.7,2.95,4.1,4.38,5.81,6,11.95,11.67,18.26,17.13s12.8,10.69,19.34,15.86l0,0a1.35,1.35,0,0,0,1.85,0l0,0c6.54-5.17,13-10.4,19.34-15.86s12.45-11.14,18.26-17.13a188.42,188.42,0,0,0,16.26-19,138.35,138.35,0,0,0,12.94-21.07,84.41,84.41,0,0,0,8.41-26,52.58,52.58,0,0,0-.37-16.81c3.06-1.34,6-3,8.94-4.57l0.21-.11c-0.06.35-.11,0.69-0.15,1a11.06,11.06,0,0,0,.4,4.72,7.87,7.87,0,0,0,7.12,5.34,11.2,11.2,0,0,0,8.43-3.25,25.12,25.12,0,0,0,5.32-8.49c0.89-2.05,1.71-4.13,2.48-6.23,0.72-1.94,2.15-4.74,2-6.84a2.21,2.21,0,0,0-2-2L215.9,315c-4.08-.68-8.15-1.46-12.25-2-3.69-.51-7.59-0.47-10.67,1.9-2.59,2-4.31,5.26-3.55,8.57a7.75,7.75,0,0,0,2.94,4.43,6.93,6.93,0,0,0,1.22.7c-2.69,1.42-5.39,2.81-8.08,4.21a42.83,42.83,0,0,0-1.39-4.28,38.55,38.55,0,0,0-13.42-17.85,34.52,34.52,0,0,0-23-5.77,43.61,43.61,0,0,0-22.43,8.89,58,58,0,0,0-14.83,16.89A58,58,0,0,0,95.6,313.75a43.61,43.61,0,0,0-22.43-8.89,34.52,34.52,0,0,0-23,5.77,38.56,38.56,0,0,0-13.42,17.85,49.44,49.44,0,0,0-2.48,24.25,84.41,84.41,0,0,0,8.41,26q1.67,3.39,3.55,6.66c0.55,1.1,1.1,2.21,1.7,3.29s1.26,2.16,1.92,3.22c0.33,0.53.66,1.06,1,1.59s0.5,0.87.81,1.26L51,394.7a27.08,27.08,0,0,0-7.37.12A15.2,15.2,0,0,0,34,400.28,11,11,0,0,0,32.47,403a4,4,0,0,0-.19.68c-0.37,0-.75,0-1.13,0a16.14,16.14,0,0,0-6.33,1.83,12.72,12.72,0,0,0-6.67,9.34,9.14,9.14,0,0,0,.12,3.25,5.45,5.45,0,0,0,.57,1.5,1.81,1.81,0,0,0,.36.44c-0.11.15-.23,0.3-0.33,0.46a10.51,10.51,0,0,0-1.3,8.59,8.71,8.71,0,0,0,2.24,3.79,11,11,0,0,0,4.52,2.48c3.39,1,7,.86,9.9-1.32A12.88,12.88,0,0,0,36.47,432a4,4,0,0,0,1.07,1,6.7,6.7,0,0,0,2.5.87,9.71,9.71,0,0,0,5.24-.54,13.68,13.68,0,0,0,7.38-8.1l0.05-.15a5.06,5.06,0,0,0,1.33.48,7.47,7.47,0,0,0,3,0,10.48,10.48,0,0,0,5-2.66,13.9,13.9,0,0,0,4-7.8A5,5,0,0,0,67.39,414.65Zm124.77-91.32a5.78,5.78,0,0,1,2-6.07c2.16-1.91,5.11-2.12,7.9-1.85,3.39,0.33,6.77,1.05,10.12,1.61l5.91,1,0.18,0a40.06,40.06,0,0,1-1.5,4.45q-1,2.56-2,5.08a34,34,0,0,1-4.3,8.1,11.15,11.15,0,0,1-3.17,2.8,6.85,6.85,0,0,1-1.42.62,7.87,7.87,0,0,1-2.76.42l-0.47,0-0.3,0a6.2,6.2,0,0,1-1.63-.48,4.77,4.77,0,0,1-2.33-2.44,9.12,9.12,0,0,1-.51-4.35c0.05-.78.15-1.56,0.27-2.34a3.76,3.76,0,0,0,.1-1.46c-0.38-1.38-1.51-1.36-2.65-1.69a4.75,4.75,0,0,1-1.55-.8A5.53,5.53,0,0,1,192.17,323.34ZM48.45,383.93q-1-1.69-1.88-3.42-1.8-3.4-3.38-6.91c-3.6-8-6.23-16.66-6.71-25.49a44.52,44.52,0,0,1,4.25-22.22,33.45,33.45,0,0,1,14.51-15.24c7-3.56,15.27-4.07,22.85-2.33a43.49,43.49,0,0,1,20,11,59.62,59.62,0,0,1,7.47,8.58c1.11,1.55,2.15,3.15,3.17,4.77l0.26,0.44c-0.19.36-.39,0.72-0.58,1.08A20.72,20.72,0,0,0,107.4,337c-0.34,1,1.08,1.47,1.6.68s1.12-1.59,1.59-2.43,1-1.69,1.48-2.51c1-1.61,2.06-3.22,3.17-4.77a59.6,59.6,0,0,1,7.47-8.58,43.48,43.48,0,0,1,20-11c7.58-1.73,15.85-1.22,22.85,2.33a33.45,33.45,0,0,1,14.51,15.24,44.52,44.52,0,0,1,4.25,22.22c-0.48,8.82-3.12,17.46-6.71,25.49a130.94,130.94,0,0,1-12.15,21.24,173.25,173.25,0,0,1-15.18,18.69c-5.53,6-11.41,11.61-17.48,17s-12.37,10.65-18.74,15.76l-3.69,3-3.69-3C100.37,441.22,94.09,436,88,430.57s-11.95-11.07-17.48-17l-0.62-.69a12.33,12.33,0,0,0,2.35-4.77,22.65,22.65,0,0,0,.7-5.6c0-1,0-1.94-.06-2.9,0-.4,0-0.93,0-1.45q9.05-5,18.13-9.85l9-4.84,4.42-2.35,2.21-1.17,0.12-.06a26.58,26.58,0,0,0,5.51,6.4,22.8,22.8,0,0,0,3.25,2.26,17.22,17.22,0,0,0,1.67.75,8.26,8.26,0,0,0,1.92.67c0.61,0.11,1.27-.67.68-1.17a14.43,14.43,0,0,0-1.33-1c-0.47-.31-0.87-0.67-1.32-1-0.83-.61-1.62-1.22-2.42-1.87a27.45,27.45,0,0,1-4.42-4.5,26.65,26.65,0,0,1-5.15-12.4,31.1,31.1,0,0,1-.26-4,9,9,0,0,0-.42-3.8,0.4,0.4,0,0,0-.62-0.08,5.69,5.69,0,0,0-1.18,3.48,21,21,0,0,0,0,3.72,27.9,27.9,0,0,0,1.59,7.38q0.44,1.19,1,2.35l-1.81,1-4,2.14-8,4.3q-8,4.31-16,8.68l-4.55,2.51a26.29,26.29,0,0,0-11.06-4,8.86,8.86,0,0,0-5.3.74,5.15,5.15,0,0,0-.73.48c-0.17-.27-0.36-0.54-0.53-0.8l-1-1.58C50.88,388.42,49.7,386.13,48.45,383.93Zm15.73,20.48a5.51,5.51,0,0,0-.43,2.92c0,1,0,2,0,3a21.74,21.74,0,0,1-.71,5.37c-0.8,2.91-2.66,5.74-5.61,6.75a6.79,6.79,0,0,1-2.43.4,5.65,5.65,0,0,1-1.1-.1l-0.52-.11c0.05-.26.1-0.53,0.14-0.8,0.16-1.11.41-2.4-.28-3.36a0.5,0.5,0,0,0-.76-0.1,4.29,4.29,0,0,0-1.19,2.3c-0.25.83-.5,1.67-0.8,2.49a15.81,15.81,0,0,1-2.26,4.3,8.5,8.5,0,0,1-7,3.61,7,7,0,0,1-2.11-.46,13.8,13.8,0,0,0-1.41-.52l0.1-.19c0.8-1.56,1.85-3.79,1.21-5.54a0.6,0.6,0,0,0-1-.26c-1,1-1.28,2.53-1.93,3.77a11.83,11.83,0,0,1-2.44,3.29,8.08,8.08,0,0,1-7.34,2c-2.52-.53-4.93-1.67-5.95-4.1a7.61,7.61,0,0,1,.36-6.31,12,12,0,0,1,2.64-3.24,30.71,30.71,0,0,1,3.32-2.75,0.53,0.53,0,0,0-.41-1,10.39,10.39,0,0,0-4.21,1.47,12,12,0,0,0-1.32,1.07c0-.33-0.07-0.66-0.1-1a7.92,7.92,0,0,1,.12-2.15A10.15,10.15,0,0,1,26.22,408a17.76,17.76,0,0,1,5-1.55,12.62,12.62,0,0,1,1.34-.15c0.53,0,1-.18,1.52-0.23,1.07-.11,2.14-0.2,3.22-0.24a0.52,0.52,0,0,0,.14-1,18.17,18.17,0,0,0-2.83-.8l0.08-.17a9.81,9.81,0,0,1,1.18-1.86,12.3,12.3,0,0,1,3.6-2.93c3.29-1.84,7.12-2.06,10.81-1.71,1.16,0.11,2.31.26,3.46,0.42a20.48,20.48,0,0,0,3.88.06,0.62,0.62,0,0,0,.31-1.14,28.16,28.16,0,0,0-3.08-1.24l0.13-.15a3.16,3.16,0,0,1,1.49-.82,10,10,0,0,1,4.14,0,24.67,24.67,0,0,1,7.6,2.65Q56,403.9,43.9,411c-2.95,1.72-5.92,3.41-8.83,5.18-1.43.87-2.86,1.72-4.26,2.63a23.27,23.27,0,0,0-2,1.44c-0.35.28-.73,0.5-1.06,0.8s-0.75.63-1.15,0.92a0.29,0.29,0,0,0,.29.49c1.41-.6,2.89-1,4.26-1.73s2.71-1.38,4-2.1c2.68-1.43,5.34-2.9,8-4.35,5.33-2.91,10.7-5.75,16-8.66l11.2-6.13c0,0.76.06,1.53,0.06,2.29a22.76,22.76,0,0,1-.45,4.86,11.35,11.35,0,0,1-1.74,4.27,4.62,4.62,0,0,1-1.5,1.34,2.6,2.6,0,0,1-.39.17c0-.21,0-0.41,0-0.62a22.45,22.45,0,0,0-.21-4c-0.18-1.17-.25-2.6-1.09-3.5A0.6,0.6,0,0,0,64.19,404.41Z" transform="translate(-17.16 -304.7)"/><path class="cls-9" d="M110.14,441.19c-1.25-1.14-2.51-2.27-3.84-3.3-0.79-.61-1.58-1.22-2.4-1.8a4.82,4.82,0,0,0-2.55-1.14,0.32,0.32,0,0,0-.3.4,5.17,5.17,0,0,0,1.73,2.2l2.12,1.9c1.47,1.32,3,2.61,4.42,4a1.13,1.13,0,0,0,1.54,0q4.09-3.27,8.13-6.59c1.34-1.1,2.71-2.2,4-3.4a44.87,44.87,0,0,0,3.68-3.68,0.54,0.54,0,0,0-.66-0.85,47.26,47.26,0,0,0-4.26,2.93c-1.46,1-2.84,2.2-4.22,3.34Q113.83,438.18,110.14,441.19Z" transform="translate(-17.16 -304.7)"/><path class="cls-9" d="M135.27,421.3a1.84,1.84,0,0,0-.84.35l-0.34.22L134,422l-0.17.08a3.8,3.8,0,0,0-.7.48,1.42,1.42,0,0,0-.33.24q-0.08,0,0,0t-0.08,0a1.62,1.62,0,0,0-.39.26c-0.4.33-.8,0.66-1.2,1l-0.31.27a3.7,3.7,0,0,0-.35.39c0-.05,0,0-0.05,0l-0.13.13a0.73,0.73,0,0,0-.2.41c0,0.12,0,.23,0,0.36a0.31,0.31,0,0,0,.23.3c0.09,0,.18.1,0.27,0.13a0.73,0.73,0,0,0,.46,0c0.1,0,.26-0.13.33-0.14a3,3,0,0,0,.79-0.4c0.46-.28.9-0.58,1.34-0.89a2.31,2.31,0,0,0,.27-0.21l0.15-.2,0,0.07,0.31-.27a6.5,6.5,0,0,0,.59-0.52l0.14-.18,0-.07,0.07-.08,0.28-.3a2,2,0,0,0,.54-0.79A0.62,0.62,0,0,0,135.27,421.3Z" transform="translate(-17.16 -304.7)"/><path class="cls-9" d="M173.6,369.28c-0.75,1.28-1.52,2.55-2.27,3.83s-1.36,2.58-2,3.86q-2.06,3.91-4.36,7.69A148.84,148.84,0,0,1,155,398.92c-1,1.28-2,2.55-3,3.83-0.5.65-1,1.31-1.48,2s-0.94,1.43-1.41,2.17a0.4,0.4,0,0,0,.54.54,19.77,19.77,0,0,0,1.7-1.31c0.54-.51,1.07-1,1.6-1.55,1.05-1,2-2.18,3-3.33q2.88-3.47,5.49-7.15a139.33,139.33,0,0,0,9.36-15.1c0.78-1.46,1.54-2.94,2.22-4.46a45.59,45.59,0,0,0,1.73-4.79A0.61,0.61,0,0,0,173.6,369.28Z" transform="translate(-17.16 -304.7)"/><path class="cls-9" d="M129.63,321.64c1.77-1,3.38-2.22,5.11-3.27a32.08,32.08,0,0,1,5.4-2.63,30.29,30.29,0,0,1,11.81-2,26.28,26.28,0,0,1,19.28,9.76,24.67,24.67,0,0,1,3.2,5.14c0.44,0.94.77,1.93,1.23,2.86a13.63,13.63,0,0,1,1.1,2.86,0.52,0.52,0,0,0,1-.14c-0.09-1-.13-1.94-0.25-2.9a11.08,11.08,0,0,0-.76-2.77,25.5,25.5,0,0,0-2.89-5.21,28.63,28.63,0,0,0-8.68-8,29.69,29.69,0,0,0-24.26-2.28,33.39,33.39,0,0,0-6.56,3,16.61,16.61,0,0,0-5.55,4.72A0.6,0.6,0,0,0,129.63,321.64Z" transform="translate(-17.16 -304.7)"/><path class="cls-9" d="M177.58,342c0,0.29,0,.57-0.07.86s0,0.35-.05.53,0,0.34,0,.51a3.6,3.6,0,0,0,0,1.72,0.58,0.58,0,0,0,.79.21,3.43,3.43,0,0,0,.94-1.7,6.29,6.29,0,0,0,.43-2.06,10.86,10.86,0,0,0,0-1.86,3.24,3.24,0,0,0-.58-1.85,1.12,1.12,0,0,0-.16-0.26c-0.07-.08-0.18-0.13-0.25-0.21a0.28,0.28,0,0,0-.47.12,1.92,1.92,0,0,1-.13.2,1.08,1.08,0,0,0-.09.3,4.08,4.08,0,0,0-.24,1.7C177.66,340.81,177.64,341.41,177.58,342Z" transform="translate(-17.16 -304.7)"/><path class="cls-9" d="M42.45,349.91a30.85,30.85,0,0,0,.44-3.71c0.12-1.25.21-2.51,0.36-3.76a44.24,44.24,0,0,1,1.44-7.06A32.17,32.17,0,0,1,51.28,323,26.6,26.6,0,0,1,62,315.57,22.19,22.19,0,0,1,75.33,315,36.5,36.5,0,0,1,83,318.14c1.25,0.66,2.43,1.45,3.69,2.09s2.55,1.31,3.8,2.06a0.6,0.6,0,0,0,.72-0.93l-3-2.55a22.87,22.87,0,0,0-3.34-2.2,38.27,38.27,0,0,0-7.27-3.28,24.85,24.85,0,0,0-14.6-.44A28.24,28.24,0,0,0,51,320a33.08,33.08,0,0,0-7.84,12.73,41.36,41.36,0,0,0-2,8.54,39.13,39.13,0,0,0-.3,4.24,15,15,0,0,0,.45,4.4A0.56,0.56,0,0,0,42.45,349.91Z" transform="translate(-17.16 -304.7)"/><path class="cls-9" d="M94.52,325.67a1.41,1.41,0,0,0,.37.61v0a0.39,0.39,0,0,0,.1.17,2.51,2.51,0,0,0,.19.22c0.08,0.09.13,0.19,0.27,0.34,0.4,0.44.86,0.84,1.28,1.25a4.62,4.62,0,0,0,.38.35l0.16,0.11a0.53,0.53,0,0,0,.12.11l0.34,0.28a2.08,2.08,0,0,0,.31.24,1.34,1.34,0,0,0,.21.1A5.07,5.07,0,0,0,99,330l0.14,0.06,0.14,0.1,0.38,0.31a0.53,0.53,0,0,0,.68,0,0.52,0.52,0,0,0,.13-0.67,5.3,5.3,0,0,1-.46-0.67,3.24,3.24,0,0,0-.53-0.83l-0.06-.07,0-.06a1.15,1.15,0,0,0-.18-0.29,5.51,5.51,0,0,0-.37-0.42l-0.17-.18s-0.1-.09,0,0a4.6,4.6,0,0,0-.46-0.46,17.82,17.82,0,0,0-1.56-1.17,3.73,3.73,0,0,0-.43-0.22L96,325.35a1.25,1.25,0,0,0-.31-0.09,0.18,0.18,0,0,0-.1-0.06,2.22,2.22,0,0,0-.28-0.12,0.79,0.79,0,0,0-.31,0L94.77,325a0.35,0.35,0,0,0-.39.51Z" transform="translate(-17.16 -304.7)"/><path class="cls-9" d="M53.7,382.08c-0.37-.88-0.87-1.71-1.23-2.59s-0.94-1.7-1.29-2.59c-0.72-1.82-1.68-3.58-2.48-5.38a85.21,85.21,0,0,1-4-11.07c-0.3-1-.55-2.08-0.88-3.11a8.87,8.87,0,0,0-.55-1.57,0.86,0.86,0,0,0-1.09-.46c-0.76.55-.39,1.71-0.26,2.5a29.54,29.54,0,0,0,.66,2.91c0.51,1.91,1.08,3.81,1.75,5.68a69.88,69.88,0,0,0,4.83,10.81c0.52,0.92,1.12,1.85,1.71,2.73,0.31,0.46.67,0.88,1,1.34a13.72,13.72,0,0,0,1,1.34A0.51,0.51,0,0,0,53.7,382.08Z" transform="translate(-17.16 -304.7)"/><path class="cls-9" d="M58,388.53c-0.05-.08,0-0.14-0.05,0a0.58,0.58,0,0,0-.08-0.31c0-.09-0.11-0.17-0.17-0.26-0.24-.38-0.46-0.76-0.72-1.13a12.76,12.76,0,0,0-.81-1.14c-0.12-.14-0.24-0.29-0.35-0.45s-0.13-.2-0.21-0.29-0.18-.16-0.27-0.24a0.37,0.37,0,0,0-.63.26l0,0.23a1.49,1.49,0,0,0,.14.56c0.09,0.22.16,0.46,0.25,0.68a7.36,7.36,0,0,0,.68,1.22,8.65,8.65,0,0,0,.89,1.09A2.06,2.06,0,0,0,57,389a0.31,0.31,0,0,0,.13.08h0l0.09,0.09a5.05,5.05,0,0,0,.56.45,0.4,0.4,0,0,0,.55-0.55C58.23,388.9,58.12,388.72,58,388.53Z" transform="translate(-17.16 -304.7)"/><path class="cls-9" d="M92.23,427.28c-0.41-.37-0.76-0.79-1.17-1.16-0.78-.69-1.51-1.42-2.29-2.1-1.61-1.42-3.2-2.86-4.76-4.33s-3.07-3-4.56-4.54c-0.72-.75-1.43-1.51-2.18-2.22-0.4-.38-0.75-0.8-1.18-1.15a3.33,3.33,0,0,0-1.22-.85,0.44,0.44,0,0,0-.55.42,3,3,0,0,0,.61,1.32,16.28,16.28,0,0,0,1,1.34A33.38,33.38,0,0,0,78,416.58q2.15,2.4,4.47,4.64c1.54,1.49,3.13,2.93,4.79,4.3,0.86,0.71,1.79,1.36,2.69,2,0.45,0.33.93,0.57,1.39,0.87a9.26,9.26,0,0,0,1.41.85,0.53,0.53,0,0,0,.64-0.82A11,11,0,0,0,92.23,427.28Z" transform="translate(-17.16 -304.7)"/><path class="cls-9" d="M83.15,416.27c0.66,0.78,1.37,1.51,2.06,2.26s1.37,1.44,2.07,2.14a14.91,14.91,0,0,0,1.18,1,2.44,2.44,0,0,0,1.4.66,0.47,0.47,0,0,0,.46-0.46,2.27,2.27,0,0,0-.55-1.31,15.69,15.69,0,0,0-1-1.26c-0.69-.75-1.4-1.49-2.13-2.2s-1.4-1.41-2.14-2.08c-0.39-.35-0.76-0.75-1.18-1.06a1.76,1.76,0,0,0-1.35-.53,0.47,0.47,0,0,0-.34.34,1.69,1.69,0,0,0,.46,1.31C82.43,415.49,82.8,415.87,83.15,416.27Z" transform="translate(-17.16 -304.7)"/><path class="cls-9" d="M86.25,415.29c0.24,0.27.49,0.53,0.74,0.79s0.48,0.5.73,0.75l0.37,0.37,0.08,0.08,0.15,0.11a1.65,1.65,0,0,0,.21.16,1.12,1.12,0,0,0,.47.26l0.07,0a1,1,0,0,0,.71.11,0.55,0.55,0,0,0,.37-0.57A1.09,1.09,0,0,0,90,417a1.14,1.14,0,0,0-.07-0.15l0,0a0.61,0.61,0,0,0-.07-0.23,1.85,1.85,0,0,0-.15-0.2l-0.12-.15,0-.06A1.84,1.84,0,0,0,89.4,416l-0.21-.21L88.46,415a9.58,9.58,0,0,0-1.93-1.64,0.7,0.7,0,0,0-.95.95A5.59,5.59,0,0,0,86.25,415.29Z" transform="translate(-17.16 -304.7)"/><path class="cls-9" d="M87.91,412.43v0a1,1,0,0,0,.17.48l0.05,0.1,0,0,0.07,0.16,0.08,0.11a9.08,9.08,0,0,0,.66.88,5.24,5.24,0,0,0,.66.66,6,6,0,0,0,.52.36l0.22,0.12a0.91,0.91,0,0,0,.42.12,0.94,0.94,0,0,0,.32-0.08,0.59,0.59,0,0,0,.47-0.68,0.78,0.78,0,0,0,0-.15,0.88,0.88,0,0,0-.22-0.46L91.18,414l-0.31-.3c-0.21-.21-0.45-0.39-0.66-0.59l-0.31-.3-0.1-.08-0.07-.07-0.14-.15-0.16-.17-0.12-.09-0.06-.05L89.11,412a0.79,0.79,0,0,0-.29-0.19l0,0a0.54,0.54,0,0,0-.9.53Z" transform="translate(-17.16 -304.7)"/><path class="cls-9" d="M90.73,411.25s0,0,0,0a1.3,1.3,0,0,0,0,.15,2,2,0,0,0,.14.37,5.28,5.28,0,0,0,.29.52,2,2,0,0,0,.5.66c-0.12-.08,0,0,0,0l0.09,0.11L92,413.32a0.45,0.45,0,0,0,.18.12h0l0.1,0.1a1.46,1.46,0,0,0,.27.2,0.4,0.4,0,0,0,.44,0,0.4,0.4,0,0,0,.14-0.41A1.49,1.49,0,0,0,93,413l0-.1a0.63,0.63,0,0,0-.08-0.27l-0.15-.27-0.08-.14,0,0a0.5,0.5,0,0,0-.11-0.2l-0.08-.1-0.09-.11-0.19-.24a5.13,5.13,0,0,0-.39-0.44,1.87,1.87,0,0,0-.28-0.24l-0.15-.07h0l-0.14-.1a0.39,0.39,0,0,0-.43,0,0.39,0.39,0,0,0-.14.41A1,1,0,0,0,90.73,411.25Z" transform="translate(-17.16 -304.7)"/><path class="cls-9" d="M52.87,326a0.44,0.44,0,0,0-.72-0.42,10.4,10.4,0,0,0-2.54,3.5,33.88,33.88,0,0,0-1.74,4.09,31.73,31.73,0,0,0-1.17,4.13,15.58,15.58,0,0,0-.32,2.26,7.26,7.26,0,0,0,0,2.19,0.62,0.62,0,0,0,1.12.15,9.5,9.5,0,0,0,.55-2c0.18-.69.37-1.38,0.54-2.07,0.33-1.36.74-2.7,1.2-4s1-2.58,1.55-3.85A20.28,20.28,0,0,0,52.87,326Z" transform="translate(-17.16 -304.7)"/><path class="cls-9" d="M51.35,338.87a6.43,6.43,0,0,0,.78-2c0.16-.71.35-1.42,0.56-2.12s0.47-1.38.74-2.06c0.12-.31.25-0.63,0.37-0.94a3.92,3.92,0,0,0,.19-0.54,2.66,2.66,0,0,0,0-.61,0.6,0.6,0,0,0-.9-0.52,2.47,2.47,0,0,0-.52.3,2.93,2.93,0,0,0-.41.52,7.56,7.56,0,0,0-.58,1,16,16,0,0,0-.88,2.29c-0.44,1.45-.82,3.24-0.11,4.66A0.44,0.44,0,0,0,51.35,338.87Z" transform="translate(-17.16 -304.7)"/><path class="cls-9" d="M55.27,336.84c0.09-.46.18-0.92,0.28-1.37s0.2-.91.28-1.38a5.54,5.54,0,0,0,.11-0.73,1.55,1.55,0,0,0,0-.38,2.49,2.49,0,0,0-.17-0.4,0.3,0.3,0,0,0-.43-0.17q0,0.12-.17.06a0.61,0.61,0,0,0-.27.16,1.84,1.84,0,0,0-.32.36,4.28,4.28,0,0,0-.35.65,8.82,8.82,0,0,0-.56,1.64,9.31,9.31,0,0,0-.28,1.73,2.81,2.81,0,0,0,0,.86c0,0.18.07,0.21,0.11,0.39a1,1,0,0,0,.16.41,0.53,0.53,0,0,0,.82.11,1.56,1.56,0,0,0,.34-0.61A3.52,3.52,0,0,0,55.27,336.84Z" transform="translate(-17.16 -304.7)"/><path class="cls-9" d="M58.33,334a0.66,0.66,0,0,0-.8.1,6.91,6.91,0,0,0-.45.53,4.16,4.16,0,0,0-.23.46,6.82,6.82,0,0,0-.42,1.24,5.66,5.66,0,0,0-.17,1.27,2.36,2.36,0,0,0,0,.26,1.81,1.81,0,0,0,0,.29,0.49,0.49,0,1,1,0,.13c0.07,0.2.14,0.32,0.21,0.54a0.51,0.51,0,0,0,1,0c0-.07.1-0.22,0.11-0.25s0.07-.16.12-0.27a3.11,3.11,0,0,0,.23-0.83c0.06-.3.12-0.61,0.2-0.91s0.16-.58.23-0.87,0.09-.29.12-0.43a3.3,3.3,0,0,0,0-.39v-0.1q0,0.1,0,0A0.67,0.67,0,0,0,58.33,334Z" transform="translate(-17.16 -304.7)"/><path class="cls-9" d="M60.67,335.62a0.46,0.46,0,0,0-.53.07l-0.21.2a1.13,1.13,0,0,0-.26.23l0.13-.1a0.81,0.81,0,0,0-.29.3l-0.07.15a1.35,1.35,0,0,0-.16.54,2.66,2.66,0,0,0,0,.38,1.6,1.6,0,0,0,0,.2s0,0.1,0,.14a0.4,0.4,0,0,0,0,.11,0.33,0.33,0,0,0,.07.15h0l0,0.05a0.51,0.51,0,0,0,.19.2,0.47,0.47,0,0,0,.37.06l0.14-.06a0.5,0.5,0,0,0,.16-0.16l0.1-.11a1.35,1.35,0,0,0,.09-0.2l-0.06.14c0.05-.13.12-0.26,0.17-0.39l0.05-.15a1.52,1.52,0,0,0,.14-0.39l0-.13a0.81,0.81,0,0,0,0-.24v0h0v-0.07h0a1,1,0,0,0,0-.17c0-.07,0-0.15.05-0.22A0.44,0.44,0,0,0,60.67,335.62Z" transform="translate(-17.16 -304.7)"/><path class="cls-9" d="M159.14,386.31a22.81,22.81,0,0,0-1.28,2.05,16.92,16.92,0,0,0-1.25,2.2,0.64,0.64,0,0,0,.93.71,12.32,12.32,0,0,0,1.8-1.77,16.52,16.52,0,0,0,1.61-1.92,40.09,40.09,0,0,0,2.91-4.31c0.87-1.43,1.69-2.89,2.44-4.38a23.23,23.23,0,0,0,1.07-2.34,11,11,0,0,0,.41-1.27,2.37,2.37,0,0,0,0-1.16,0.37,0.37,0,0,0-.53-0.22,4.75,4.75,0,0,0-1.56,1.7c-0.47.68-.85,1.45-1.26,2.17q-1.23,2.18-2.55,4.32C161,383.52,160,384.89,159.14,386.31Z" transform="translate(-17.16 -304.7)"/><path class="cls-9" d="M161.72,376.61c-0.31.35-.65,0.65-0.92,1s-0.49.72-.72,1.08q-0.73,1.16-1.53,2.27c-0.49.69-1,1.37-1.52,2-0.29.37-.61,0.72-0.88,1.1a4.21,4.21,0,0,0-.59,1.32,0.66,0.66,0,0,0,.81.8,4.25,4.25,0,0,0,1.24-.71,7.4,7.4,0,0,0,.91-1c0.62-.76,1.2-1.54,1.74-2.35s1-1.55,1.41-2.34a13.69,13.69,0,0,0,.61-1.27,7.25,7.25,0,0,0,.34-1.41A0.55,0.55,0,0,0,161.72,376.61Z" transform="translate(-17.16 -304.7)"/><path class="cls-9" d="M156.16,379.06l-0.29.4-0.16.22h0l-0.07.08-0.32.37c-0.15.17-.25,0.37-0.38,0.54l0,0.05-0.1.14a0.75,0.75,0,0,0-.07.16v0h0v0h0a0.63,0.63,0,0,0,0,.77,0.65,0.65,0,0,0,.67.11l0,0,0.17,0a1.54,1.54,0,0,0,.35-0.18,5.22,5.22,0,0,0,.47-0.3,3.25,3.25,0,0,0,.42-0.42,6.6,6.6,0,0,0,.73-1l0.15-.26,0.05-.11,0.09-.2h0l0,0,0.06-.14,0.17-.42a1.39,1.39,0,0,0,.1-0.33v-0.09a1.15,1.15,0,0,0,0-.23,0.82,0.82,0,0,0-.21-0.65,0.31,0.31,0,0,0-.41-0.16,0.87,0.87,0,0,0-.59.36l-0.07.1c-0.09.11,0,0,0,0a1.66,1.66,0,0,0-.25.36c-0.08.14-.17,0.28-0.25,0.42v0l0,0-0.07.09Z" transform="translate(-17.16 -304.7)"/><path class="cls-9" d="M155.75,376.62a0.41,0.41,0,0,0-.46,0l-0.09.06a0.71,0.71,0,0,0-.37.22l-0.17.18a1.19,1.19,0,0,0-.2.2,2.26,2.26,0,0,1-.2.23l0.16-.13a2.91,2.91,0,0,0-.73.89l-0.11.16a1.69,1.69,0,0,0-.17.35,1.28,1.28,0,0,0-.14.56,0.82,0.82,0,0,0,.39.68,0.79,0.79,0,0,0,.8,0,1.28,1.28,0,0,0,.4-0.37,2.48,2.48,0,0,0,.33-0.51l0.19-.36,0.09-.17a1.34,1.34,0,0,0,.16-0.55l0,0.21a2.23,2.23,0,0,1,.11-0.28,1,1,0,0,0,.05-0.21h0c0-.1.07-0.2,0.11-0.3a0.66,0.66,0,0,0,0-.4v0A0.43,0.43,0,0,0,155.75,376.62Z" transform="translate(-17.16 -304.7)"/><path class="cls-9" d="M153.78,376.19a0.34,0.34,0,0,0-.38,0l-0.1.06a0.25,0.25,0,0,0-.12,0,0.38,0.38,0,0,0-.16.1l-0.17.14a1.29,1.29,0,0,0-.15.16,2,2,0,0,0-.19.28,0.77,0.77,0,0,0-.1.22,1,1,0,0,0,0,.18,0.63,0.63,0,0,0,0,.18s0,0,0,0a0.44,0.44,0,0,0,.16.23,0.43,0.43,0,0,0,.27.09h0.07l0.14,0,0.16-.07a0.69,0.69,0,0,0,.18-0.16,2,2,0,0,0,.22-0.27l0.05-.09a1.63,1.63,0,0,0,.1-0.22l0.08-.2a0.5,0.5,0,0,0,0-.2l0-.1A0.34,0.34,0,0,0,153.78,376.19Z" transform="translate(-17.16 -304.7)"/><path class="cls-9" d="M149.39,317.88c0.79,0,1.56-.13,2.36-0.14s1.55-.13,2.34-0.09a0.4,0.4,0,0,0,.11-0.78,17.56,17.56,0,0,0-2.34-.65,17.21,17.21,0,0,0-2.46-.27,22.5,22.5,0,0,0-4.86.48,25.9,25.9,0,0,0-4.64,1.49A14.84,14.84,0,0,0,137.8,319a4.63,4.63,0,0,0-1.86,1.61,0.54,0.54,0,0,0,.46.8,5.57,5.57,0,0,0,2.11-.73c0.69-.29,1.37-0.59,2.07-0.87a26.16,26.16,0,0,1,4.42-1.32A29.59,29.59,0,0,1,149.39,317.88Z" transform="translate(-17.16 -304.7)"/><path class="cls-9" d="M149.36,320c-0.17-.06-0.31-0.17-0.47-0.24s-0.38-.13-0.57-0.2a4.08,4.08,0,0,0-1.22-.21,10,10,0,0,0-2.41.2,9.16,9.16,0,0,0-2.28.72,2.7,2.7,0,0,0-1.66,1.53,0.31,0.31,0,0,0,.14.34A3.34,3.34,0,0,0,143,322c0.7-.16,1.4-0.33,2.1-0.46s1.34-.17,2-0.23l0.43,0h0.29a0.93,0.93,0,0,0,.47-0.13c0.13,0,.3,0,0.44-0.06a3.26,3.26,0,0,1,.52-0.13A0.49,0.49,0,0,0,149.36,320Z" transform="translate(-17.16 -304.7)"/><path class="cls-9" d="M145.09,324.45q0.15,0,0,0a1.23,1.23,0,0,0,.29,0l0.6-.14c0.4-.08.81-0.15,1.21-0.24l0.27-.1,0.31-.12a1.15,1.15,0,0,0,.6-0.47,0.43,0.43,0,0,0,0-.44,1.17,1.17,0,0,0-.6-0.42,2.91,2.91,0,0,0-.76-0.11,5.21,5.21,0,0,0-1.48.27,7.61,7.61,0,0,0-1.32.56,4.75,4.75,0,0,0-.55.36,1.76,1.76,0,0,0-.28.26c-0.08.09-.15,0.22-0.21,0.29a0.35,0.35,0,0,0,.34.58h0.28a2.39,2.39,0,0,0,.39,0l0.56-.12Z" transform="translate(-17.16 -304.7)"/><path class="cls-9" d="M146.74,326.48l0.25-.09a1.15,1.15,0,0,0,.36-0.21,1.52,1.52,0,0,0,.33-0.24l0.1-.05a0.49,0.49,0,0,0,.23-0.56,0.51,0.51,0,0,0-.47-0.36h0a1.4,1.4,0,0,0-.4-0.09,1.54,1.54,0,0,0-.6,0,3.73,3.73,0,0,0-.66.09,4.19,4.19,0,0,0-.63.19l-0.23.1a0.72,0.72,0,0,0-.23.19l-0.12.11q-0.17.22-.06,0.07l-0.07.05a0.52,0.52,0,0,0,.23.86l0.08,0,0.1,0s0.1,0,.07,0l0.15,0.06a1,1,0,0,0,.31,0,4.67,4.67,0,0,0,.73-0.08A3.14,3.14,0,0,0,146.74,326.48Z" transform="translate(-17.16 -304.7)"/><path class="cls-9" d="M148.24,327.69a0.88,0.88,0,0,0-.33-0.09h-0.37a1.48,1.48,0,0,0-.37,0l-0.26.07a2,2,0,0,0-.56.28l-0.16.12h0l-0.06,0a0.66,0.66,0,0,0-.24.24l0,0a0.33,0.33,0,0,0,.14.54h0.05a0.68,0.68,0,0,0,.33.09h0l0.25,0a2.06,2.06,0,0,0,.63,0l0.24-.07a1.42,1.42,0,0,0,.35-0.16l0.23-.12a1,1,0,0,0,.33-0.29A0.51,0.51,0,0,0,148.24,327.69Z" transform="translate(-17.16 -304.7)"/></g></g></svg>