<svg xmlns="http://www.w3.org/2000/svg" viewBox="0 0 118.63 177.74"><defs><style>.cls-1{isolation:isolate;}.cls-2{fill:#ffafa8;}.cls-3{fill:#71d0d9;}.cls-4{fill:#ff5d4f;}.cls-5{fill:#ffd37a;}.cls-6{fill:#fff9f2;opacity:0.15;}.cls-6,.cls-9{mix-blend-mode:overlay;}.cls-7{fill:#52284a;opacity:0.1;}.cls-7,.cls-8{mix-blend-mode:multiply;}.cls-8{fill:#492659;opacity:0.25;}.cls-9{fill:#fff7f7;opacity:0.5;}.cls-10{fill:#610f1d;}</style></defs><title>jarra</title><g class="cls-1"><g id="OBJECTS"><path class="cls-2" d="M379.44,60.59a3,3,0,0,0,2.17,2,7.35,7.35,0,0,0,.94.2,0.23,0.23,0,0,0,.27-0.25q0-.35-0.06-0.69c0-.25,0-0.52,0-0.84V60.86c0-.08,0-0.16,0-0.24a1.14,1.14,0,0,1,.13-0.48l0.17-.22h0l0,0a0.72,0.72,0,0,1,.45-0.22,0.61,0.61,0,0,1,.52.2,1.38,1.38,0,0,1,.38.54,2.33,2.33,0,0,1,.06.26l0,0.15c0.06,0.31.12,0.65,0.16,1s0.07,0.59.11,0.89a0.25,0.25,0,0,0,.24.21h0.16l4.73,0.13h0.29a0.24,0.24,0,0,0,.17-0.1,0.29,0.29,0,0,0,.06-0.21c0-.31-0.06-0.59-0.07-0.85a5.57,5.57,0,0,1,.07-1.08,2.35,2.35,0,0,1,.29-0.91,0.73,0.73,0,0,1,.61-0.36,0.68,0.68,0,0,1,.58.32,4.09,4.09,0,0,1,.24,1.4v0.14c0,0.41.06,0.79,0.1,1.16l0.06,0.35a0.23,0.23,0,0,0,.22.19c2.16,0,4.13.06,6,.07h0a0.23,0.23,0,0,0,.23-0.27l0-.16c0-.15,0-0.31-0.06-0.46a7.87,7.87,0,0,1,0-.81c0-.15,0-0.29,0-0.44a2.36,2.36,0,0,1,.13-0.61,0.89,0.89,0,0,1,.82-0.63,0.86,0.86,0,0,1,.8.6l0,0.15a2.56,2.56,0,0,1,.08.51q0,0.23,0,.46c0,0.24,0,.48.07,0.72s0.07,0.46.12,0.69l0,0.07a0.23,0.23,0,0,0,.23.18h6.35a0.23,0.23,0,0,0,.23-0.24c0-.11,0-0.21,0-0.31l0-.61a4.34,4.34,0,0,1,0-.57V61.33a2.11,2.11,0,0,1,.1-0.67,0.94,0.94,0,0,1,.3-0.45,0.76,0.76,0,0,1,.38-0.16,0.82,0.82,0,0,1,.82.4,3.7,3.7,0,0,1,.39,1.55l0.07,0.6c0,0.06,0,.13,0,0.19l0,0.17a0.23,0.23,0,0,0,.23.21h6.61a0.23,0.23,0,0,0,.23-0.25c0-.2,0-0.4,0-0.6a7,7,0,0,1,.12-1.53,0.77,0.77,0,0,1,.54-0.53l0.06,0a0.28,0.28,0,0,1,.13,0,0.9,0.9,0,0,1,.5.17,0.79,0.79,0,0,1,.23.28,0.23,0.23,0,0,0,0,.08l0.08,0.18a5.83,5.83,0,0,1,.28,1.44L418.68,63a0.23,0.23,0,0,0,.23.21h6.76a0.23,0.23,0,0,0,.23-0.27c0-.16,0-0.33-0.06-0.48s0-.47,0-0.7a6,6,0,0,1,0-.7,3.27,3.27,0,0,1,.09-0.53,1,1,0,0,1,.18-0.38L425.91,60h0l0.21,0.11,0-.06,0-.09a0.58,0.58,0,0,1,.29-0.23,0.6,0.6,0,0,1,.33,0,0.63,0.63,0,0,1,.5.39l0,0.06,0.07,0.1a1,1,0,0,1,.11.32,4.56,4.56,0,0,1,.08.46l0,0.17h0v0c0,0.22.07,0.45,0.12,0.68l0,0.21c0,0.1,0,.2.06,0.31l0,0.25a1.75,1.75,0,0,1,0,.3,0.23,0.23,0,0,0,.07.16,0.22,0.22,0,0,0,.16.07l5.31-.09,1.08,0,0.68,0a0.23,0.23,0,0,0,.22-0.26l-0.06-.43c0-.24,0-0.47-0.06-0.71V61.53a3.85,3.85,0,0,1,0-.72,2,2,0,0,1,.05-0.38,0.86,0.86,0,0,1,.18-0.32,0.61,0.61,0,0,1,.41-0.27,0.74,0.74,0,0,1,.57.12,0.94,0.94,0,0,1,.3.29,1.66,1.66,0,0,1,.14.3,3.67,3.67,0,0,1,.22.73l0,0.15c0,0.16.08,0.33,0.11,0.49s0,0.29.07,0.44l0.06,0.39a0.21,0.21,0,0,0,.24.19l0.89,0a12.43,12.43,0,0,0,3.14-.35,3,3,0,0,0,2.18-2,13.49,13.49,0,0,0,.48-3.37c0.12-2.11.07-4.28-1.08-5.89a3.69,3.69,0,0,0-1.9-1.35,0.23,0.23,0,0,0-.31.21v0.17c0,0.17,0,.33,0,0.5a3.41,3.41,0,0,1-.14.74,1.31,1.31,0,0,1-.53.84,0.81,0.81,0,0,1-.53.09,0.52,0.52,0,0,1-.25-0.07l-0.17-.13a1.06,1.06,0,0,1-.24-0.4,1.62,1.62,0,0,1,0-.32l0-.25c0-.17,0-0.33,0-0.49s0-.32,0-0.49,0-.35,0-0.53a0.23,0.23,0,0,0-.22-0.24h-2.26l-3.93-.08h0a0.23,0.23,0,0,0-.23.22l-0.08,1a4.52,4.52,0,0,1-.18,1.12l0,0-0.11.25v0l0,0.08a0.77,0.77,0,0,1-.77.36,0.79,0.79,0,0,1-.65-0.57,3.32,3.32,0,0,1-.1-1.38l0.06-.92a0.23,0.23,0,0,0-.23-0.25l-2.94-.06-3.22-.05h-1a0.2,0.2,0,0,0-.18.08,0.23,0.23,0,0,0-.06.19,4.81,4.81,0,0,1,0,.55c0,0.21,0,.41,0,0.62s0,0.41-.05.62V51.5a1.75,1.75,0,0,1,0,.25,1.62,1.62,0,0,1-.14.3,1.83,1.83,0,0,1-.2.29,0.71,0.71,0,0,1-.7.34,0.7,0.7,0,0,1-.58-0.49l0-.11a1.53,1.53,0,0,1-.13-0.7q0-.31,0-0.62t0-.65l0-.16a3,3,0,0,1,0-.4,0.2,0.2,0,0,0,0,0,0.23,0.23,0,0,0-.23-0.23c-2.48,0-4.92,0-7.23-.05h0a0.23,0.23,0,0,0-.23.28,3,3,0,0,1,0,.71q0,0.34,0,.67a5.88,5.88,0,0,1-.14.88,1.14,1.14,0,0,1-.51.86,0.73,0.73,0,0,1-.71,0,0.8,0.8,0,0,1-.19-0.14,1.18,1.18,0,0,1-.27-0.76c0-.24,0-0.49-0.06-0.73s0-.26,0-0.39,0-.23,0-0.35,0-.26,0-0.39a1.24,1.24,0,0,1,0-.38,0.23,0.23,0,0,0-.22-0.29q-3.25,0-6.51,0a0.23,0.23,0,0,0-.22.28,4.74,4.74,0,0,1,0,1.38,6.22,6.22,0,0,1-.13,1,2,2,0,0,1-.18.48,0.94,0.94,0,0,1-.55.47,0.78,0.78,0,0,1-.87-0.38,1.43,1.43,0,0,1-.14-0.66c0-.13,0-0.27,0-0.4s0-.24,0-0.36,0-.52,0-0.76a7.3,7.3,0,0,1,0-.73,0.23,0.23,0,0,0-.07-0.17,0.25,0.25,0,0,0-.17-0.07c-2,0-4,.05-6,0.09a0.23,0.23,0,0,0-.22.28,3.66,3.66,0,0,1,.05.39c0,0.29,0,.57,0,0.84s0,0.59,0,.9a2.18,2.18,0,0,1,0,.39,2.79,2.79,0,0,1-.14.32,0.83,0.83,0,0,1-.51.45,0.7,0.7,0,0,1-.6-0.13,1.26,1.26,0,0,1-.41-0.93c0-.12,0-0.24,0-0.36s0-.34,0-0.51,0-.58-0.07-0.91a2,2,0,0,1,0-.41,0.23,0.23,0,0,0-.06-0.18,0.23,0.23,0,0,0-.18-0.08l-5.83.12a0.26,0.26,0,0,0-.17.11,0.3,0.3,0,0,0,0,.21c0,0.11,0,.23,0,0.34v0.46c0,0.22,0,.44,0,0.66s0,0.46,0,.7v0.32a2.27,2.27,0,0,1-.3,1.22,0.77,0.77,0,0,1-.64.36h0a0.74,0.74,0,0,1-.62-0.36,2.29,2.29,0,0,1-.29-1.22V52c0-.22,0-0.43,0-0.65s0-.45,0-0.67V50.24c0-.12,0-0.25,0-0.39a0.23,0.23,0,0,0-.23-0.25h-0.45c-2,0-4.43,0-5.69,1.74-1.15,1.61-1.2,3.78-1.08,5.89A13.5,13.5,0,0,0,379.44,60.59Z" transform="translate(-351.84 -47.15)"/><path class="cls-3" d="M411.41,134l0.4,0.34a7.34,7.34,0,0,0,1.67,1.18,1.6,1.6,0,0,0,.67.15,4.34,4.34,0,0,0,2.48-1.35L417,134a13.49,13.49,0,0,0,3.08-3.37c0.61-1,1.49-2.91.57-4.27a2.81,2.81,0,0,0-3.14-1,3.71,3.71,0,0,0-1.65,1.26l0,0c-0.46.59-.94,1.21-1.38,1.87a0.3,0.3,0,0,1-.09.11l0.11,0.21h0l-0.15-.18-0.05,0,0,0.23h0l-0.07-.23h-0.06l-0.06,0-0.13.19,0.09-.22a0.34,0.34,0,0,1-.1-0.13c-0.42-.64-0.89-1.24-1.35-1.83l0-.06a3.71,3.71,0,0,0-1.65-1.26,2.81,2.81,0,0,0-3.14,1c-0.92,1.36,0,3.26.57,4.27A13.47,13.47,0,0,0,411.41,134Z" transform="translate(-351.84 -47.15)"/><path class="cls-3" d="M443.13,164.49c0.81,0.44,1.67.83,2.49,1.2l0.08,0a2.15,2.15,0,0,0,.9.19,6.36,6.36,0,0,0,2.9-1.1l0.58-.32a9.25,9.25,0,0,0,4-3.61,4.14,4.14,0,0,0-.12-4.41,3.72,3.72,0,0,0-3.83-1.38,4.23,4.23,0,0,0-2.05,1.35l-0.14.16a6.47,6.47,0,0,0-.7.9,0.73,0.73,0,0,1-.5.43h0a2.38,2.38,0,0,1-1.17-1.07c-0.12-.16-0.23-0.31-0.32-0.42a4.23,4.23,0,0,0-2.05-1.35,3.72,3.72,0,0,0-3.83,1.38,4.14,4.14,0,0,0-.12,4.41A9.26,9.26,0,0,0,443.13,164.49Z" transform="translate(-351.84 -47.15)"/><path class="cls-4" d="M383.4,198.94a34.52,34.52,0,0,0,3.54,1.73l1.92,0.83c0.25,0.11.48,0.23,0.72,0.35l0.11,0,0.11,0c0.24-.12.47-0.24,0.72-0.35l1.92-.83a34.51,34.51,0,0,0,3.54-1.73,10.82,10.82,0,0,0,4.86-5,5.74,5.74,0,0,0-.74-6.26,5.86,5.86,0,0,0-5.82-1.55,7.36,7.36,0,0,0-3.26,2,4.93,4.93,0,0,0-.48.62,2,2,0,0,1-1,.94h0a0.69,0.69,0,0,1-.48-0.37,6.68,6.68,0,0,0-4-3.15,5.86,5.86,0,0,0-5.82,1.55,5.74,5.74,0,0,0-.74,6.26A10.82,10.82,0,0,0,383.4,198.94Z" transform="translate(-351.84 -47.15)"/><path class="cls-4" d="M401.9,172.52l0.37,0.26a2.8,2.8,0,0,0,1.52.7h0.1a3.4,3.4,0,0,0,1.66-.82c0.17-.13.34-0.26,0.51-0.36l0.55-.34,2-1.25,1.46-.88c1.31-.78,2.65-1.59,3.94-2.46,3.06-2.05,6.43-4.65,8.18-8.38,1.64-3.49,1.35-7-.78-9.36a9.28,9.28,0,0,0-8.49-2.75,11.42,11.42,0,0,0-5,2.41,17.28,17.28,0,0,0-2.07,2c-0.15.17-.29,0.37-0.45,0.59a2.64,2.64,0,0,1-1.43,1.28c-0.71.1-1.25-.66-1.74-1.32-0.15-.2-0.29-0.39-0.42-0.55a17.33,17.33,0,0,0-2.07-2,11.41,11.41,0,0,0-5-2.41,9.28,9.28,0,0,0-8.49,2.75c-2.13,2.37-2.42,5.87-.78,9.36,1.75,3.72,5.12,6.32,8.18,8.38,1.29,0.86,2.64,1.67,3.94,2.46l1.45,0.88c0.72,0.44,1.43.88,2.14,1.33Z" transform="translate(-351.84 -47.15)"/><path class="cls-4" d="M399.85,96h0a24.2,24.2,0,0,0,4.3,2.45c0.77,0.35,1.57.67,2.45,1l0.3,0.11c0.25,0.09.49,0.18,0.73,0.28l0.09,0,0.09,0c0.23-.1.48-0.19,0.72-0.28l0.31-.11c0.88-.33,1.68-0.66,2.45-1a24.23,24.23,0,0,0,4.3-2.45,14.84,14.84,0,0,0,5.63-7.34,9.44,9.44,0,0,0-1-8,7.18,7.18,0,0,0-6.88-3.15,6.24,6.24,0,0,0-3.83,2.27,5.8,5.8,0,0,0-.51.8c-0.35.61-.82,1.44-1.25,1.47a0.64,0.64,0,0,1-.5-0.32l-0.07-.06L407,81.37l0,0-0.07-.12a13.15,13.15,0,0,0-1-1.46,6.24,6.24,0,0,0-3.83-2.27,7.18,7.18,0,0,0-6.89,3.15,9.44,9.44,0,0,0-1,8A14.84,14.84,0,0,0,399.85,96Z" transform="translate(-351.84 -47.15)"/><path class="cls-5" d="M358.84,199.78a35.17,35.17,0,0,0,12.42,12.86c5.26,3.3,11.73,5.67,19.78,7.25a107.79,107.79,0,0,0,20.23,2.43h0.18a112.11,112.11,0,0,0,20.91-2.43c8.06-1.58,14.53-4,19.78-7.25a35.17,35.17,0,0,0,12.42-12.86c4-7.34,3.76-16.81,3.59-25.17,0-1,0-2-.05-2.92-0.15-11.69-.63-23.53-1.43-35.19-0.4-5.78-.92-11.65-1.42-17.33V119c-0.66-7.47-1.65-15.51-4.35-23.68a58.47,58.47,0,0,0-8.09-16.25,36.37,36.37,0,0,0-14.1-11.58A42.12,42.12,0,0,0,431.35,65h-0.06l-3.78.07c-3.67,0-7.39.05-11.08,0L411.7,65l-4.72.06c-3.68,0-7.41,0-11.08,0L392.11,65H392a42.09,42.09,0,0,0-7.35,2.53,36.37,36.37,0,0,0-14.1,11.58,58.44,58.44,0,0,0-8.09,16.25c-3.73,11.28-4.93,23.15-5.77,33.39-0.86,10.51-1.8,22.93-2.33,35.28a160.93,160.93,0,0,0,0,16.94C354.82,186.94,355.65,193.86,358.84,199.78ZM404.07,68.12a6.72,6.72,0,0,1-1,.1h-0.23c-0.25,0-.5,0-0.74.08l-0.6.07c-0.49,0-1,.09-1.45.15l-1,.11c-0.71.07-1.48,0.17-2.42,0.31l-0.64.12a3.82,3.82,0,0,1-1.84.1,0.32,0.32,0,0,1-.22-0.23,0.3,0.3,0,0,1,.08-0.28h0a3.7,3.7,0,0,1,1.93-.77l0.33-.07a24.82,24.82,0,0,1,2.64-.41,15.3,15.3,0,0,1,1.64-.08l1,0a7.4,7.4,0,0,1,.77.08l0.54,0.06h0.11a5.33,5.33,0,0,1,1.1.17,0.27,0.27,0,0,1,.17.28A0.17,0.17,0,0,1,404.07,68.12Zm-9.19,9.69a8.8,8.8,0,0,1,9-1.82,8.19,8.19,0,0,1,3.62,3,0.24,0.24,0,0,0,.38,0,8.18,8.18,0,0,1,3.63-3,8.8,8.8,0,0,1,9,1.82,10.86,10.86,0,0,1,3.11,9.3,15.24,15.24,0,0,1-5.15,9.21,23.11,23.11,0,0,1-5.27,3.51c-0.88.44-1.81,0.85-2.85,1.26l-0.5.21a4.28,4.28,0,0,1-4.39,0l-0.5-.21c-1-.41-2-0.82-2.85-1.26a23.1,23.1,0,0,1-5.27-3.51,15.24,15.24,0,0,1-5.15-9.21A10.86,10.86,0,0,1,394.88,77.81Zm30.33-9.29a5.24,5.24,0,0,1-.57,0h-0.05a4,4,0,0,0-.51,0H424c-0.17,0-.34,0-0.52,0h-0.07l-0.33,0-0.28,0c-0.22,0-.44,0-0.66,0l-0.59,0a3.83,3.83,0,0,1-1.14-.16,0.12,0.12,0,0,1-.09-0.1,0.16,0.16,0,0,1,.07-0.15h0a2.58,2.58,0,0,1,1.11-.42l0.2,0a6,6,0,0,1,1-.11h0.14l0.37,0,0.27,0a4.28,4.28,0,0,1,.69.13l0.27,0.09L424.75,68a3.2,3.2,0,0,1,.58.22,0.1,0.1,0,0,1,.07.13A0.23,0.23,0,0,1,425.21,68.53Zm8.67,39a8.85,8.85,0,0,1-3.72,5.34,19.84,19.84,0,0,1-3.36,1.88l-0.53.26a6.07,6.07,0,0,1-2.3.78,4.8,4.8,0,0,1-2.3-.73l-0.62-.31a19.8,19.8,0,0,1-3.36-1.88,8.85,8.85,0,0,1-3.72-5.34,5.66,5.66,0,0,1,2.23-5.75,5.41,5.41,0,0,1,7.53,1.08,0.24,0.24,0,0,0,.37,0,5.41,5.41,0,0,1,7.53-1.08h0A5.66,5.66,0,0,1,433.88,107.57ZM428.32,69l0-.28h0A11.71,11.71,0,0,1,434,69a26.74,26.74,0,0,1,5.46,2,34.68,34.68,0,0,1,14.94,14.8,50.89,50.89,0,0,1,4.27,10.83,39.52,39.52,0,0,1,1.61,11.52,0.2,0.2,0,0,1-.18.19,0.16,0.16,0,0,1-.19-0.12c-0.42-1.67-.79-3.38-1.15-5-0.52-2.42-1.06-4.91-1.78-7.33-2.26-7.62-5.89-13.84-10.79-18.48a30.7,30.7,0,0,0-8.3-5.68A29.51,29.51,0,0,0,433.13,70c-0.64-.17-1.3-0.32-1.94-0.47-0.93-.21-1.89-0.43-2.81-0.72l-0.07.22h0ZM464.64,179c0,1.15-.13,2.24-0.27,3.33A13.1,13.1,0,0,1,464,184a5.6,5.6,0,0,1-.6,1.53,0.4,0.4,0,0,1-.4.17,0.3,0.3,0,0,1-.25-0.23,6.15,6.15,0,0,1-.11-1.41V184a14.6,14.6,0,0,1,.1-1.53c0.1-1,.2-2.05.28-3.13,0-.51.07-1,0.1-1.52s0.07-1.15.12-1.73c0-.13,0-0.28,0-0.44,0-.69.06-1.63,0.55-1.91a0.24,0.24,0,0,1,.12,0H464c0.07,0,.41.29,0.56,1.93A25.36,25.36,0,0,1,464.64,179Zm-0.46-20.17c0,1-.12,2.09-0.25,3.17l-0.06.54c-0.1.83-.2,1.7-0.37,2.52a0.13,0.13,0,0,1-.15.13,0.27,0.27,0,0,1-.25-0.22c-0.07-.72-0.1-1.47-0.12-2.19,0-.33,0-0.66,0-1,0-1.06-.07-2.13-0.08-3.18,0-1.93,0-4-.12-6.28q-0.06-1.65-.12-3.29-0.06-1.48-.11-3c0-.53,0-1.06,0-1.59s0-1.06,0-1.59,0-1.07,0-1.57V141a2.42,2.42,0,0,1,.16-1,0.07,0.07,0,0,1,.07-0.05h0a0.25,0.25,0,0,1,.18.09,2.63,2.63,0,0,1,.36,1.07c0,0.11,0,.22.07,0.32,0.11,0.47.17,0.94,0.24,1.43,0.14,1,.28,2.06.38,3.16,0.19,2,.31,4.06.35,6.36S464.26,156.74,464.18,158.78Zm-81.62-74h0v0.07l-0.06-.06-0.08.05h0l0,0-0.12.08,0,0a0.51,0.51,0,0,0-.12.07l-0.06,0a0.53,0.53,0,0,0-.14,0,0.23,0.23,0,0,0,0-.09,0.32,0.32,0,0,1,0-.16,0.22,0.22,0,0,0,0-.06,0.86,0.86,0,0,1,0-.31v0a0.12,0.12,0,0,0,0-.1,0.88,0.88,0,0,1,.09-0.21L382,84l0.11-.19,0,0a0.58,0.58,0,0,1,.06-0.11l0.25-.33A2.61,2.61,0,0,1,382.8,83a2.71,2.71,0,0,1,.49-0.35l0.22-.11a0.81,0.81,0,0,1,.35-0.09h0.08a1.2,1.2,0,0,1,.27,0h0a0.38,0.38,0,0,1,.32.21,0.29,0.29,0,0,1,0,.31,1.42,1.42,0,0,1-.18.22l0,0.06a0.62,0.62,0,0,1-.13.18l-0.07.06-0.17.15-0.3.26,0,0,0,0,0,0-0.18.16-0.18.15a1.83,1.83,0,0,1-.3.24l0,0-0.14.13a0.79,0.79,0,0,1-.13.11h0Zm-3.63-1.6L379,83l0-.05,0-.08h0l0-.05a3.09,3.09,0,0,1,.26-0.5h0a8,8,0,0,1,1.39-1.57,7,7,0,0,1,1.74-1.24,8.09,8.09,0,0,1,1-.37,1.81,1.81,0,0,1,.28,0L384,79a1.19,1.19,0,0,1,.5,0,0.15,0.15,0,0,1,.11.09,0.3,0.3,0,0,1,0,.25,1.07,1.07,0,0,1-.23.28l-0.06.06-0.13.15A1.35,1.35,0,0,1,384,80l-0.06.06-0.62.58c-0.14.13-.29,0.24-0.43,0.36l-0.26.21-0.2.16h0l-0.16.12-0.34.28c-0.23.2-.46,0.42-0.69,0.63s-0.46.43-.7,0.63l-0.15.14a2.1,2.1,0,0,1-.29.24l-0.11.06-0.06,0-0.1.1A1,1,0,0,1,379,84a0.26,0.26,0,0,1-.18-0.16A0.94,0.94,0,0,1,378.93,83.15Zm4.54,3.25a0.34,0.34,0,0,1-.09-0.32L383.17,86h0l0.23,0a0.23,0.23,0,0,0,0,0,0.52,0.52,0,0,1,0-.14,0.88,0.88,0,0,1,.18-0.29l0.31-.4a0.49,0.49,0,0,1,.16-0.11l0.15-.11,0.08-.06s0,0,0,0l0.13-.05,0.08,0,0.09,0,0.15-.08a0.92,0.92,0,0,1,.22-0.1,0.37,0.37,0,0,1,.35.09,0.34,0.34,0,0,1,.06.37,0.85,0.85,0,0,1-.09.16l-0.14.19a0.23,0.23,0,0,0,0,.08,0.5,0.5,0,0,1-.09.18l-0.12.14-0.11.13a0.63,0.63,0,0,1-.21.2l-0.41.27a0.6,0.6,0,0,1-.39.11h-0.06A0.34,0.34,0,0,1,383.48,86.41Zm2.74-11c-0.44.27-.88,0.57-1.3,0.86l-0.38.26c-0.25.17-.5,0.32-0.75,0.48s-0.55.33-.81,0.52l-0.05,0A28.45,28.45,0,0,0,380,79.7a20.08,20.08,0,0,0-2.6,2.77c-0.38.49-.75,1-1.14,1.51-0.17.23-.34,0.47-0.53,0.68a3.15,3.15,0,0,1-.31.3,3.4,3.4,0,0,0-.39.39,0.09,0.09,0,0,1-.06,0,0.09,0.09,0,0,1,0-.07,4.37,4.37,0,0,0,.07-0.46,2.67,2.67,0,0,1,.11-0.57,7.52,7.52,0,0,1,.34-0.83,11,11,0,0,1,1-1.69,21.46,21.46,0,0,1,2.59-3,16.57,16.57,0,0,1,3.14-2.42,9.78,9.78,0,0,1,1.82-.88,15.13,15.13,0,0,1,1.92-.46h0.06a0.29,0.29,0,0,1,.27.19A0.22,0.22,0,0,1,386.21,75.4Zm21.11,48.85a4.71,4.71,0,0,1,2.66-.81,4.63,4.63,0,0,1,2.34.62,5,5,0,0,1,1.69,1.6,0.23,0.23,0,0,0,.39,0,5,5,0,0,1,1.69-1.6,4.75,4.75,0,0,1,5,.19,4.56,4.56,0,0,1,1.56,5.25,10.93,10.93,0,0,1-3.19,4.81,26.15,26.15,0,0,1-4.48,3.35c-1,.57-2-0.21-2.84-0.9-0.22-.17-0.42-0.33-0.62-0.47a21.76,21.76,0,0,1-2.55-2,10.94,10.94,0,0,1-3.19-4.81A4.57,4.57,0,0,1,407.33,124.25ZM389.89,167.5c-4-3-6.61-6.56-7.49-10.17a10.65,10.65,0,0,1,.26-6.25,9.68,9.68,0,0,1,3.27-4.29A11.68,11.68,0,0,1,396.56,145a14.39,14.39,0,0,1,5.19,3.07,12.81,12.81,0,0,1,1.85,2.08,0.24,0.24,0,0,0,.38,0,12.82,12.82,0,0,1,1.85-2.08A14.39,14.39,0,0,1,411,145a11.66,11.66,0,0,1,10.63,1.77,9.67,9.67,0,0,1,3.27,4.29,10.65,10.65,0,0,1,.26,6.25c-0.88,3.61-3.47,7.13-7.49,10.17a53.15,53.15,0,0,1-6.64,4.21c-1.09.6-2.27,1.22-3.69,2l-0.15.08c-0.81.43-1.66,0.87-2.52,1.23-1.25.52-2.62-.25-3.84-0.94l-0.67-.37c-1.41-.74-2.58-1.37-3.69-2A53.11,53.11,0,0,1,389.89,167.5Zm-18.54,27a0.16,0.16,0,0,1-.15.1,0.32,0.32,0,0,1-.15,0H371a0.25,0.25,0,0,1-.13,0h0a0.44,0.44,0,0,0-.2-0.13,0.65,0.65,0,0,1-.26-0.24c-0.12-.15-0.23-0.3-0.33-0.46a6.21,6.21,0,0,1-.45-0.84,7.44,7.44,0,0,1-.39-1,2.3,2.3,0,0,1-.1-0.57,0.93,0.93,0,0,1,0-.26,0.73,0.73,0,0,1,0-.12l0-.06a0.2,0.2,0,0,1,.13-0.14,0.19,0.19,0,0,1,.16,0l0.08,0.06,0.08,0.08a1.34,1.34,0,0,1,.16.22,1.79,1.79,0,0,1,.15.31l0,0.07c0.13,0.28.26,0.57,0.4,0.85s0.24,0.45.37,0.67l0.1,0.18,0.19,0.31,0.09,0.14,0.08,0.13a0.46,0.46,0,0,1,.06.19,0.24,0.24,0,0,0,0,.06l0.06,0.17a0.27,0.27,0,0,1,0,.14,0.22,0.22,0,0,0,0,.07,0.45,0.45,0,0,1,0,.16h0Zm-6.4-2.52c0.39,0.88.8,1.78,1.24,2.66,0.29,0.57.61,1.15,0.93,1.71a17.59,17.59,0,0,1,1.78,3.82,0.21,0.21,0,0,1-.09.22,0.15,0.15,0,0,1-.18,0c-1.68-1.14-2.75-3.09-3.69-5a26.69,26.69,0,0,1-1.31-3,13.69,13.69,0,0,1-.43-1.5,1.57,1.57,0,0,1,0-1.22,0.24,0.24,0,0,1,.17-0.11h0a1.63,1.63,0,0,1,.82,1c0.21,0.44.43,0.87,0.62,1.32Zm2,1.24c-0.19-.42-0.38-0.86-0.53-1.3l0-.13a2,2,0,0,1-.17-1.24,0.28,0.28,0,0,1,.15-0.17,0.3,0.3,0,0,1,.24,0,1.61,1.61,0,0,1,.56.6c0.14,0.23.27,0.47,0.4,0.71l0.48,0.91,0.34,0.65,0.41,0.76,0.32,0.59,0.17,0.31a6.59,6.59,0,0,1,.53,1.12,1.12,1.12,0,0,1-.05.84,0.24,0.24,0,0,1-.21.11,1.46,1.46,0,0,1-1.08-.85,16.41,16.41,0,0,1-1.38-2.68Zm4.43-1.45,0-.07a6,6,0,0,1-.23-0.68,2.07,2.07,0,0,1-.07-0.37s0-.07,0-0.12,0-.09,0-0.13v-0.06a0.2,0.2,0,0,1,.1-0.23,0.2,0.2,0,0,1,.24.09l0,0.05,0.09,0.13,0,0,0,0a2.23,2.23,0,0,1,.19.28l0,0a5.71,5.71,0,0,1,.31.6l0.11,0.25a0.41,0.41,0,0,1,.05.2,0.23,0.23,0,0,0,0,.06l0.09,0.3,0,0.1,0,0.15v0.11h0a0.35,0.35,0,0,0,0,.17,0.44,0.44,0,0,1,0,.14,0.13,0.13,0,0,1-.08.09,0.16,0.16,0,0,1-.15,0,0.5,0.5,0,0,1-.14-0.13,0.23,0.23,0,0,0-.06-0.08h0l0,0a0.74,0.74,0,0,1-.14-0.14l-0.06-.1-0.17-.29A1.39,1.39,0,0,1,371.43,191.77Zm2.46-74.44a1.68,1.68,0,0,1,0-.42l0-.12a2.4,2.4,0,0,1,.1-0.42l0.1-.27a0.56,0.56,0,0,1,.07-0.17l0-.06a0.1,0.1,0,0,1,.1-0.08l0.06,0v0.08l0,0.06a0.79,0.79,0,0,1,0,.25v0.07a0.28,0.28,0,0,0,0,.08v0.07a2.72,2.72,0,0,1,0,.46V117a1.84,1.84,0,0,1-.07.44l-0.08.23a0.28,0.28,0,0,1-.11.17,0.18,0.18,0,0,1-.13,0,0.19,0.19,0,0,1-.12-0.06,0.3,0.3,0,0,1-.06-0.2ZM367,109.8l0,0.39c0,0.42-.06.86-0.1,1.29-0.12,1-.26,2.09-0.44,3.38l0,0.3a22.75,22.75,0,0,1-1.49,6.25,0.09,0.09,0,0,1-.11.07,0.28,0.28,0,0,1-.21-0.21,22.37,22.37,0,0,1,.5-6.29l0.09-.52,0.14-.81c0.14-.87.29-1.77,0.5-2.63,0-.2.09-0.4,0.14-0.61a5.57,5.57,0,0,1,.83-2.25h0a0.15,0.15,0,0,1,.11.08A3.85,3.85,0,0,1,367,109.8Zm1.59,2.55,0.09-.06a0.19,0.19,0,0,1,.13.1l0,0.05a0.79,0.79,0,0,1,.14.53v0.21c0,0.19,0,.37,0,0.56,0,0.53-.07,1-0.13,1.54,0,0.22-.05.45-0.08,0.67s-0.07.68-.12,1l0,0.15a3.83,3.83,0,0,1-.12.64l0,0.1a1.54,1.54,0,0,1-.12.32,0.79,0.79,0,0,1-.2.21l-0.1.08a0.34,0.34,0,0,1-.28.1,0.38,0.38,0,0,1-.28-0.18l-0.07-.1a0.74,0.74,0,0,1-.14-0.25,2.4,2.4,0,0,1,0-.5,3.84,3.84,0,0,1,0-.63l0-.12c0.07-.51.16-1,0.24-1.54l0-.14a11.39,11.39,0,0,1,.34-1.5c0.06-.18.12-0.36,0.19-0.54l0.09-.25a1.27,1.27,0,0,1,.18-0.34,0.36,0.36,0,0,1,.08-0.09l0.09,0h0Zm-2.44,25.77a4.71,4.71,0,0,1,2.66-.81,4.63,4.63,0,0,1,2.34.62,5,5,0,0,1,1.69,1.6,0.23,0.23,0,0,0,.39,0,5,5,0,0,1,1.69-1.6,4.75,4.75,0,0,1,5,.19,4.56,4.56,0,0,1,1.56,5.25,10.93,10.93,0,0,1-3.19,4.81,26.14,26.14,0,0,1-4.48,3.35c-1,.57-2-0.21-2.84-0.9-0.22-.17-0.42-0.33-0.62-0.47a21.74,21.74,0,0,1-2.55-2,10.93,10.93,0,0,1-3.19-4.81A4.57,4.57,0,0,1,366.14,138.13Zm5.6-20.67,0.23-.05a1.19,1.19,0,0,0,0-.13,1.14,1.14,0,0,1,0-.14,4.51,4.51,0,0,1,.09-0.59l0-.18c0-.14.06-0.28,0.09-0.41l0.06-.27a1,1,0,0,1,.06-0.17l0,0,0,0h0v0l0,0a0.78,0.78,0,0,1,.1-0.21l0-.05,0.06-.17a0.12,0.12,0,0,1,.1-0.09,0.13,0.13,0,0,1,.08,0l0,0.24,0,0.05a0.72,0.72,0,0,1,0,.17s0,0.09,0,.12v0.06a0.22,0.22,0,0,0,0,.08,1.31,1.31,0,0,1,0,.18v0.08a0.68,0.68,0,0,0,0,.28,2.07,2.07,0,0,1,0,.24v0.21a5.39,5.39,0,0,1,0,.63,0.29,0.29,0,0,1,0,.12,0.61,0.61,0,0,0,0,.1l0,0.06,0,0.07a1.11,1.11,0,0,1-.06.19l-0.08.1a0.93,0.93,0,0,0-.15.13,0.23,0.23,0,0,1-.15,0,0.26,0.26,0,0,1-.2-0.11,0.22,0.22,0,0,0-.07-0.08l0-.05a0.22,0.22,0,0,1,0-.1,1.11,1.11,0,0,1,0-.22l-0.23,0h0Zm-1.21-3.4a0.65,0.65,0,0,1,.24.55,0.21,0.21,0,0,0,0,.05l0,0.08,0,0.21v0s0,0.22,0,.25,0,0.08,0,.12v0.07c0,0.23,0,.46,0,0.69v0.3c0,0.19,0,.39,0,0.58s0,0.26,0,.39a0.83,0.83,0,0,1-.16.41l0,0a0.5,0.5,0,0,1-.53.39,0.51,0.51,0,0,1-.42-0.45l0,0a1.66,1.66,0,0,1-.06-1l0.11-.94a5.22,5.22,0,0,1,.2-1l0.08-.2,0,0,0-.09,0-.1a0.48,0.48,0,0,1,.26-0.31l0.1-.08a0.11,0.11,0,0,1,.07,0Zm0.41,67.59c-0.22-.17-0.42-0.33-0.62-0.47a21.74,21.74,0,0,1-2.55-2,10.94,10.94,0,0,1-3.19-4.81,4.57,4.57,0,0,1,1.56-5.25,4.71,4.71,0,0,1,2.66-.81,4.63,4.63,0,0,1,2.34.62,5,5,0,0,1,1.69,1.6,0.23,0.23,0,0,0,.39,0,5,5,0,0,1,1.69-1.6,4.75,4.75,0,0,1,5,.19,4.56,4.56,0,0,1,1.56,5.25,10.93,10.93,0,0,1-3.19,4.81,26.15,26.15,0,0,1-4.48,3.35C372.81,183.12,371.82,182.34,370.94,181.65Zm89.44-30.21a5.58,5.58,0,0,1-.44,2.38,0.22,0.22,0,0,1-.36,0,5.57,5.57,0,0,1-.44-2.38c0-.79,0-1.62,0-2.53,0-.5,0-1,0.08-1.5,0-.34,0-0.69.06-1a6.27,6.27,0,0,1,.4-2.31l0.05,0h0l0.05,0a6.29,6.29,0,0,1,.4,2.32c0,0.34,0,.69.06,1,0,0.5.07,1,.08,1.5C460.39,149.83,460.4,150.66,460.38,151.44Zm-8.16-51.53a0.74,0.74,0,0,1,0-.31v0l0,0h0a0.23,0.23,0,0,0,0-.19,0.28,0.28,0,0,1,.52-0.12l0.12,0.22a1.94,1.94,0,0,1,.16.31,2.17,2.17,0,0,0,.11.24,1.63,1.63,0,0,1,.11.27s0,0.09,0,.14l0,0.08,0,0.1,0,0a0.23,0.23,0,0,0,0,.15h0a0.77,0.77,0,0,1,.08.23l0,0.15,0,0.07c0.07,0.3.14,0.62,0.2,1,0,0.1,0,.19,0,0.28a1,1,0,0,1,0,.2,0.3,0.3,0,0,0,0,.09,0.93,0.93,0,0,1,0,.1,0.78,0.78,0,0,1-.09.42l0,0.05a0.48,0.48,0,0,1-.35.3,0.31,0.31,0,0,1-.31-0.12l0,0a0.92,0.92,0,0,1-.3-0.48l-0.06-.14a1.35,1.35,0,0,1-.11-0.31c-0.08-.41-0.14-0.79-0.19-1.16l0-.22a7.36,7.36,0,0,1-.08-0.81s0-.08,0-0.14a0.23,0.23,0,0,0,0-.1h0V99.91Zm4.26,4.18c0,0.07,0,.15,0,0.22a2.52,2.52,0,0,1,0,.47,2.12,2.12,0,0,1-.11.32c0,0.1-.08.2-0.11,0.31a0.16,0.16,0,0,1-.15.14,0.24,0.24,0,0,1-.24-0.16l-0.12-.29a4.76,4.76,0,0,1-.29-0.82l-0.1-.42c-0.06-.25-0.12-0.51-0.18-0.77-0.1-.51-0.18-1-0.25-1.53,0-.31-0.1-0.62-0.15-0.93-0.14-.82-0.28-1.65-0.43-2.47,0-.16-0.06-0.32-0.1-0.49a3.36,3.36,0,0,1-.08-1.77,0.23,0.23,0,0,1,.13-0.13,0.1,0.1,0,0,1,.09,0,3.42,3.42,0,0,1,1,1.8l0.09,0.25a19.7,19.7,0,0,1,.68,2.46,16.27,16.27,0,0,1,.37,2.6A10,10,0,0,1,456.48,104.09Zm-5.15-1.6c0,0.05,0,.1,0,0.15v0.08a0.79,0.79,0,0,1-.06.37,0.18,0.18,0,0,1-.14.09,0.17,0.17,0,0,1-.15,0,0.79,0.79,0,0,1-.15-0.35l0-.13,0-.15,0-.1a0.54,0.54,0,0,1,0-.11V102.2a2.54,2.54,0,0,1,0-.37v-0.21a1,1,0,0,1,0-.19l0-.21a0.19,0.19,0,0,1,.15-0.19h0a0.19,0.19,0,0,1,.17.14l0.09,0.23,0,0.08,0.08,0.28a2.9,2.9,0,0,1,.07.43v0.07A1.25,1.25,0,0,1,451.32,102.49Zm-7.23,21.86a0.24,0.24,0,0,0,.38,0,8.18,8.18,0,0,1,3.63-3,8.8,8.8,0,0,1,9,1.82,10.86,10.86,0,0,1,3.11,9.3,15.24,15.24,0,0,1-5.15,9.21,23.11,23.11,0,0,1-5.27,3.51c-0.88.44-1.81,0.85-2.85,1.26l-0.5.21a4.28,4.28,0,0,1-4.39,0l-0.5-.21c-1-.41-2-0.82-2.85-1.26a23.1,23.1,0,0,1-5.27-3.51,15.24,15.24,0,0,1-5.15-9.21,10.86,10.86,0,0,1,3.11-9.3,8.8,8.8,0,0,1,9-1.82A8.19,8.19,0,0,1,444.09,124.35Zm12.86,26a2.78,2.78,0,0,1,0-.31c0-.19,0-0.38,0-0.57s0-.36,0-0.54,0-.5,0-0.74v-0.37c0-.12,0-0.25,0-0.37a2,2,0,0,1,0-.68,0.22,0.22,0,0,1,.16-0.13,0.09,0.09,0,0,1,.09,0,1.27,1.27,0,0,1,.25.52c0,0.17.09,0.35,0.13,0.53a6.86,6.86,0,0,1,.16,1.22,6.13,6.13,0,0,1-.06,1.24,1.87,1.87,0,0,1-.09.33l-0.05.16a0.83,0.83,0,0,1-.3.52,0.27,0.27,0,0,1-.34-0.11,0.75,0.75,0,0,1-.07-0.44v-0.06C457,150.54,457,150.46,457,150.38Zm-3.58-.87a0.82,0.82,0,0,1,0-.15,0.23,0.23,0,0,0,0-.07l0-.08a0.09,0.09,0,0,1,0-.11h0.07l0.1,0.13,0,0a0.74,0.74,0,0,1,.16.26v0l0,0a0.76,0.76,0,0,1,.08.19,1.15,1.15,0,0,1,0,.26,0.7,0.7,0,0,1,0,.28,1.05,1.05,0,0,1-.1.18,0.21,0.21,0,0,1-.2.1,0.19,0.19,0,0,1-.16-0.14l0-.09a0.74,0.74,0,0,1,0-.13,1.31,1.31,0,0,1,0-.21,0.88,0.88,0,0,1,0-.09s0-.07,0-0.1v-0.18C453.38,149.62,453.38,149.57,453.38,149.51Zm2-1.48a0.9,0.9,0,0,1,.08.25l0,0.26a2.46,2.46,0,0,1,.06.57c0,0.22,0,.44,0,0.66l0,0.38s0,0.06,0,.08,0,0.11,0,.14v0.15a2,2,0,0,1,0,.24,1,1,0,0,1-.06.18l0,0.07a0.14,0.14,0,0,1-.16.08l0-.06a1.19,1.19,0,0,1-.17-0.24,1.22,1.22,0,0,1-.08-0.21l0-.09,0-.08a1.26,1.26,0,0,1-.05-0.39V150q0-.19,0-0.38a4.41,4.41,0,0,1,.05-0.85c0-.06,0-0.12,0-0.18a1.8,1.8,0,0,0,0-.2,0.7,0.7,0,0,1,.12-0.29A0.14,0.14,0,0,1,455.33,148Zm-16.45,6.07a5.41,5.41,0,0,1,7.53,1.08,0.24,0.24,0,0,0,.37,0,5.41,5.41,0,0,1,7.53-1.08h0a5.66,5.66,0,0,1,2.23,5.75,8.85,8.85,0,0,1-3.72,5.34,19.84,19.84,0,0,1-3.36,1.88l-0.53.26a6.07,6.07,0,0,1-2.3.78,4.78,4.78,0,0,1-2.3-.73l-0.62-.31a19.8,19.8,0,0,1-3.36-1.88,8.85,8.85,0,0,1-3.72-5.34A5.66,5.66,0,0,1,438.89,154.1Zm-3.79-68.73a4.71,4.71,0,0,1,2.66-.81,4.63,4.63,0,0,1,2.34.62,5,5,0,0,1,1.69,1.6,0.23,0.23,0,0,0,.39,0,5,5,0,0,1,1.69-1.6,4.75,4.75,0,0,1,5,.19,4.56,4.56,0,0,1,1.56,5.25,10.93,10.93,0,0,1-3.19,4.81,26.15,26.15,0,0,1-4.48,3.35c-1,.57-2-0.21-2.84-0.9-0.22-.17-0.42-0.33-0.62-0.47a21.75,21.75,0,0,1-2.55-2,10.94,10.94,0,0,1-3.19-4.81A4.57,4.57,0,0,1,435.09,85.38Zm14,117.49a1.18,1.18,0,0,1-.23.45l-0.14.21a2.13,2.13,0,0,1-.45.6l-0.11.11a5.36,5.36,0,0,1-.75.67c-0.12.09-.25,0.17-0.38,0.26l0,0-0.13.08-0.13.06-0.07,0h0l-0.06,0-0.22.09h0l-0.14,0h-0.05a0.69,0.69,0,0,1-.32,0h-0.09l0,0.23,0-.25a0.08,0.08,0,0,1,0-.08,0.23,0.23,0,0,0,0-.08,0.55,0.55,0,0,1,.06-0.16,0.23,0.23,0,0,0,.08-0.1l0-.12,0.08-.1,0,0a0.56,0.56,0,0,0,.16-0.18l0,0,0.07-.07,0.21-.19,0.26-.24,0.12-.11c0.1-.09.21-0.19,0.35-0.3l0,0h0l0,0h0l0.15-.12,0.33-.28,0.07-.06a1.38,1.38,0,0,1,.18-0.15l0.07,0,0.09-.06,0,0,0.15-.12a1.15,1.15,0,0,1,.39-0.24,0.24,0.24,0,0,1,.23.07A0.27,0.27,0,0,1,449.12,202.87Zm-2.33-.09a0.23,0.23,0,0,0,0,.09,0.32,0.32,0,0,1,0,.08l-0.11.14,0,0.06-0.07.09a0.52,0.52,0,0,1-.14.1l0,0a0.76,0.76,0,0,1-.36.1h-0.29v0.23h0l0-.23a0.22,0.22,0,0,1-.11,0l-0.06,0,0,0a0.08,0.08,0,0,1,0-.05,0.23,0.23,0,0,0,0-.07,0.16,0.16,0,0,1,0-.06l0.05-.07,0-.06,0.06-.1,0-.07a0.8,0.8,0,0,1,.11-0.13l0,0a0.77,0.77,0,0,1,.25-0.18l0.05,0,0.09,0,0.13,0,0.09,0a0.61,0.61,0,0,1,.3-0.13h0a0.2,0.2,0,0,1,.19.14A0.54,0.54,0,0,1,446.79,202.78Zm-0.5,4.65,0.17-.14,0.37-.3c0.56-.45,1.14-0.92,1.71-1.4l0.91-.76c0.39-.32.78-0.64,1.16-1,0.19-.16.38-0.31,0.57-0.46l0.51-.4,0.28-.24c0.24-.21.49-0.43,0.75-0.62a0.18,0.18,0,0,1,.11,0,0.17,0.17,0,0,1,.11,0,0.32,0.32,0,0,1,.09.35,8.73,8.73,0,0,1-.75,1.16l-0.29.42a7.47,7.47,0,0,1-.54.73,17.56,17.56,0,0,1-1.89,1.94,20.36,20.36,0,0,1-2.31,1.76,3.39,3.39,0,0,1-2.34.77,0.06,0.06,0,0,1,0,0,0.13,0.13,0,0,1,0-.1A3.6,3.6,0,0,1,446.29,207.43ZM387.94,98a10.93,10.93,0,0,1-3.19,4.81,26.14,26.14,0,0,1-4.48,3.35c-1,.57-2-0.21-2.84-0.9-0.22-.17-0.42-0.33-0.62-0.47a21.74,21.74,0,0,1-2.55-2A10.93,10.93,0,0,1,371.06,98a4.57,4.57,0,0,1,1.56-5.25,4.72,4.72,0,0,1,2.66-.81,4.63,4.63,0,0,1,2.34.62,5,5,0,0,1,1.69,1.6,0.23,0.23,0,0,0,.39,0,5,5,0,0,1,1.69-1.6,4.75,4.75,0,0,1,5,.19A4.56,4.56,0,0,1,387.94,98Zm-9.09,87.37a7.59,7.59,0,0,1,4.54-1.48,8.15,8.15,0,0,1,3.34.72,8.64,8.64,0,0,1,2.79,2,0.23,0.23,0,0,0,.34,0,8.64,8.64,0,0,1,2.79-2,7.83,7.83,0,0,1,7.88.75,7.29,7.29,0,0,1,2.72,7.5,11.31,11.31,0,0,1-4.85,6.87,26.22,26.22,0,0,1-4.4,2.42c-0.63.28-1.29,0.51-1.93,0.73l-0.47.16-0.56.23a3.61,3.61,0,0,1-1.29.39h0a5.34,5.34,0,0,1-1.59-.41l-0.29-.11c-0.77-.27-1.57-0.59-2.46-1a26.25,26.25,0,0,1-4.4-2.42,11.31,11.31,0,0,1-4.85-6.87A7.29,7.29,0,0,1,378.85,185.39Zm7.94,29.34h0.09a1.18,1.18,0,0,1,.68.06l0.32,0.07,0.43,0.1,0.38,0.11c0.39,0.12.79,0.24,1.19,0.33l0.44,0.09a10.2,10.2,0,0,1,1.21.3,3.81,3.81,0,0,0,.73.14,3.3,3.3,0,0,1,.73.15,0.37,0.37,0,0,1,.23.31,0.21,0.21,0,0,1-.13.21,3.26,3.26,0,0,1-1.21.27l-0.42,0-0.13,0a1.6,1.6,0,0,1-.38,0l-0.43,0-0.26,0a5.28,5.28,0,0,1-.73-0.11,8.06,8.06,0,0,1-1.76-.6,4.07,4.07,0,0,1-.55-0.35l-0.17-.12a1,1,0,0,1-.43-0.5,0.23,0.23,0,0,0,0-.07,0.35,0.35,0,0,1-.08-0.31A0.31,0.31,0,0,1,386.79,214.73Zm16.67-8a4.57,4.57,0,0,1,1.56-5.25,4.71,4.71,0,0,1,2.66-.81,4.63,4.63,0,0,1,2.34.62,5,5,0,0,1,1.69,1.6,0.23,0.23,0,0,0,.39,0,5,5,0,0,1,1.69-1.6,4.75,4.75,0,0,1,5,.19,4.56,4.56,0,0,1,1.56,5.25,10.93,10.93,0,0,1-3.19,4.81,26.13,26.13,0,0,1-4.48,3.35c-1,.57-2-0.21-2.84-0.9-0.22-.17-0.42-0.33-0.62-0.47a21.74,21.74,0,0,1-2.55-2A10.93,10.93,0,0,1,403.46,206.77Zm10.67-27a9.68,9.68,0,0,1,3.27-4.29A11.66,11.66,0,0,1,428,173.71a14.39,14.39,0,0,1,5.19,3.07,12.81,12.81,0,0,1,1.85,2.08,0.24,0.24,0,0,0,.38,0,12.82,12.82,0,0,1,1.85-2.08,14.39,14.39,0,0,1,5.19-3.07,11.66,11.66,0,0,1,10.63,1.77,9.67,9.67,0,0,1,3.27,4.29,10.65,10.65,0,0,1,.26,6.25c-0.88,3.61-3.47,7.13-7.49,10.17a53.15,53.15,0,0,1-6.64,4.21c-1.09.6-2.27,1.22-3.69,2l-0.15.08c-0.81.43-1.66,0.87-2.52,1.23-1.25.52-2.62-.25-3.84-0.94l-0.67-.37c-1.41-.74-2.58-1.37-3.69-2a53.1,53.1,0,0,1-6.64-4.21c-4-3-6.61-6.56-7.49-10.17A10.65,10.65,0,0,1,414.13,179.77Zm19.19,35.57c0.31-.09.62-0.2,0.91-0.31a8.44,8.44,0,0,1,1.26-.39c0.64-.13,1.32-0.28,2.08-0.47a39.79,39.79,0,0,0,4.12-1.22,31.32,31.32,0,0,0,12.47-8.24,31,31,0,0,0,4.29-6c0.3-.55.58-1.12,0.86-1.68s0.53-1.09.82-1.61l0.33-.57a11,11,0,0,0,.58-1.05c0.11-.24.2-0.48,0.3-0.72a9.37,9.37,0,0,1,.39-0.92,0.16,0.16,0,0,1,.15-0.09h0.07a0.19,0.19,0,0,1,.15.18,8.16,8.16,0,0,1-.25,1.41c-0.05.22-.11,0.45-0.15,0.68l-0.09.47a11.27,11.27,0,0,1-.4,1.66,22,22,0,0,1-1.86,3.86,32.23,32.23,0,0,1-10.76,11.08,31,31,0,0,1-7.44,3.34,24.74,24.74,0,0,1-4,.85l-0.18,0a10.47,10.47,0,0,1-1.9.13,7.68,7.68,0,0,1-1.14-.18l-0.65-.12A0.11,0.11,0,0,1,433.31,215.34Zm28.62-96.1c0,0.17,0,.35,0,0.52v0.14a7.78,7.78,0,0,1-.12,1.09,0.13,0.13,0,0,1-.14.12,0.23,0.23,0,0,1-.23-0.14,8,8,0,0,1-.25-1.08l0-.18c0-.19-0.08-0.38-0.13-0.56s-0.11-.42-0.14-0.63l0-.2c-0.12-.79-0.24-1.53-0.3-2.31l0-.5a18.6,18.6,0,0,1,0-4.42,0.08,0.08,0,0,1,.07,0h0a0.09,0.09,0,0,1,.08,0,15.54,15.54,0,0,1,1.21,4.83,15.1,15.1,0,0,1,.14,2.51C462,118.69,462,119,461.93,119.24Zm-67.44-5.87a7.83,7.83,0,0,1,7.88.75,7.29,7.29,0,0,1,2.72,7.5,11.31,11.31,0,0,1-4.85,6.87,26.24,26.24,0,0,1-4.4,2.42c-0.63.28-1.29,0.51-1.93,0.73l-0.47.16-0.56.23a3.61,3.61,0,0,1-1.29.39A5.1,5.1,0,0,1,390,132l-0.29-.11c-0.77-.27-1.57-0.59-2.46-1a26.25,26.25,0,0,1-4.4-2.42,11.31,11.31,0,0,1-4.85-6.87,7.29,7.29,0,0,1,2.72-7.5,7.59,7.59,0,0,1,4.54-1.48,8.16,8.16,0,0,1,3.34.72,8.64,8.64,0,0,1,2.79,2,0.23,0.23,0,0,0,.34,0A8.64,8.64,0,0,1,394.49,113.38Zm-4.16-42.89a19.33,19.33,0,0,0-3,1.08l-0.48.2c-1.2.51-2.18,1-3.1,1.46a28,28,0,0,0-5.66,4c-6,5.5-10,13.3-12.61,24.55-1.15,5-2,10.21-2.78,15.22l0,0.25c-0.95,6-1.85,11.24-2.76,16.16,0,0,0,.06-0.09,0a0.1,0.1,0,0,1-.1-0.08,172.63,172.63,0,0,1,2-18.8c1.42-9.07,3.18-20.36,8.54-29.65a35.08,35.08,0,0,1,8.33-9.88,27.55,27.55,0,0,1,5.4-3.46,16.2,16.2,0,0,1,2.91-1.1,21.77,21.77,0,0,1,2.61-.45l0.63-.09a0.33,0.33,0,0,1,.36.26A0.2,0.2,0,0,1,390.33,70.48ZM359.8,137.93l0.05,0a5.55,5.55,0,0,1,.13,1.89c0,0.34,0,.68,0,1s0,0.64,0,1c0,0.68-.12,1.37-0.2,2.05,0,0.15,0,.3-0.08.45s-0.07.31-.09,0.47,0,0.17,0,.26a3,3,0,0,1-.13.73,0.29,0.29,0,0,1-.29.19,0.22,0.22,0,0,1-.21-0.18,3.15,3.15,0,0,1-.08-0.81v-0.18c0-.16,0-0.33,0-0.49s0-.38,0-0.58a17.45,17.45,0,0,1,.12-2h0c0.06-.51.15-1,0.24-1.53l0.08-.46a5.09,5.09,0,0,1,.61-1.85Zm7,63.64a32.65,32.65,0,0,0,7,7.11,36.14,36.14,0,0,0,8.9,4.93,0.3,0.3,0,0,1-.16.59,26.39,26.39,0,0,1-5.66-1.77,23,23,0,0,1-5-3.13,37.75,37.75,0,0,1-12.14-17.8,49.31,49.31,0,0,1-2.43-12.42c-0.15-2.22-.11-4.45,0-6.35a27.21,27.21,0,0,1,.78-6.22,0.09,0.09,0,0,1,.08.07c0.15,1.5.17,3.05,0.19,4.55,0,0.81,0,1.63.05,2.44,0.08,2,.27,4.19.59,6.8C360.09,188.82,362.71,196,366.81,201.57Z" transform="translate(-351.84 -47.15)"/><path class="cls-3" d="M425,196.05c1.29,0.86,2.64,1.67,3.94,2.46l1.45,0.88c0.72,0.44,1.43.88,2.14,1.33l0.78,0.49,0.37,0.26a2.8,2.8,0,0,0,1.52.7h0.1a3.4,3.4,0,0,0,1.66-.82c0.17-.13.34-0.26,0.51-0.36l0.55-.34,2-1.25,1.46-.88c1.31-.78,2.65-1.59,3.94-2.46,3.06-2.05,6.43-4.65,8.18-8.38,1.64-3.49,1.35-7-.78-9.36a9.27,9.27,0,0,0-8.49-2.75,11.42,11.42,0,0,0-5,2.41,17.28,17.28,0,0,0-2.07,2c-0.15.17-.29,0.37-0.45,0.59a2.64,2.64,0,0,1-1.43,1.28c-0.7.1-1.25-.66-1.74-1.32-0.15-.2-0.29-0.39-0.42-0.55a17.35,17.35,0,0,0-2.07-2,11.41,11.41,0,0,0-5-2.41,9.27,9.27,0,0,0-8.49,2.75c-2.13,2.37-2.42,5.87-.78,9.36C418.62,191.4,422,194,425,196.05Z" transform="translate(-351.84 -47.15)"/><path class="cls-3" d="M411.17,212.84a1.6,1.6,0,0,0,.67.15,4.34,4.34,0,0,0,2.48-1.35l0.37-.31a13.49,13.49,0,0,0,3.08-3.37c0.61-1,1.49-2.91.57-4.27a2.81,2.81,0,0,0-3.14-1h0a3.71,3.71,0,0,0-1.65,1.26l0,0c-0.46.59-.94,1.21-1.38,1.87a0.3,0.3,0,0,1-.09.11l0.11,0.21h0L412,206l-0.05,0,0,0.23h0l-0.07-.23h-0.06l-0.06,0-0.13.19,0.09-.22a0.34,0.34,0,0,1-.1-0.13c-0.42-.64-0.89-1.24-1.35-1.83l0-.06a3.71,3.71,0,0,0-1.65-1.26,2.81,2.81,0,0,0-3.14,1c-0.92,1.36,0,3.26.57,4.27a13.47,13.47,0,0,0,3.08,3.37l0.4,0.34A7.34,7.34,0,0,0,411.17,212.84Z" transform="translate(-351.84 -47.15)"/><path class="cls-3" d="M427.4,102.8a4.23,4.23,0,0,0-2.05,1.35l-0.14.16a6.47,6.47,0,0,0-.7.9,0.73,0.73,0,0,1-.5.43h0a2.37,2.37,0,0,1-1.17-1.07c-0.12-.16-0.23-0.3-0.32-0.42a4.23,4.23,0,0,0-2.05-1.35,3.73,3.73,0,0,0-3.83,1.38,4.14,4.14,0,0,0-.12,4.41,9.26,9.26,0,0,0,4,3.61c0.81,0.44,1.67.83,2.49,1.2l0.08,0a2.14,2.14,0,0,0,.9.19,6.36,6.36,0,0,0,2.9-1.1l0.58-.32a9.26,9.26,0,0,0,4-3.61,4.14,4.14,0,0,0-.12-4.41A3.73,3.73,0,0,0,427.4,102.8Z" transform="translate(-351.84 -47.15)"/><path class="cls-4" d="M439.17,95.17l0.4,0.34a7.34,7.34,0,0,0,1.67,1.18,1.6,1.6,0,0,0,.67.15,4.34,4.34,0,0,0,2.48-1.35l0.37-.31a13.49,13.49,0,0,0,3.08-3.37c0.61-1,1.49-2.91.57-4.27a2.81,2.81,0,0,0-3.14-1h0a3.7,3.7,0,0,0-1.65,1.26l0,0c-0.46.59-.94,1.21-1.38,1.87a0.3,0.3,0,0,1-.09.11l0.11,0.21h0l-0.15-.18-0.05,0,0,0.23h0L442,89.91h-0.06l-0.06,0-0.13.19,0.09-.22a0.34,0.34,0,0,1-.1-0.13c-0.42-.64-0.89-1.24-1.35-1.83l0-.06a3.7,3.7,0,0,0-1.65-1.26,2.81,2.81,0,0,0-3.14,1c-0.92,1.36,0,3.26.57,4.27A13.47,13.47,0,0,0,439.17,95.17Z" transform="translate(-351.84 -47.15)"/><path class="cls-4" d="M431.75,126a9.44,9.44,0,0,0-1,8,14.84,14.84,0,0,0,5.63,7.34,24.2,24.2,0,0,0,4.3,2.45c0.77,0.35,1.57.67,2.45,1l0.3,0.11c0.25,0.09.49,0.18,0.73,0.28l0.09,0,0.09,0c0.23-.1.48-0.19,0.72-0.28l0.31-.11c0.88-.33,1.68-0.66,2.45-1a24.22,24.22,0,0,0,4.3-2.45,14.84,14.84,0,0,0,5.63-7.34,9.44,9.44,0,0,0-1-8,7.17,7.17,0,0,0-6.88-3.15,6.24,6.24,0,0,0-3.83,2.27,5.8,5.8,0,0,0-.51.8c-0.35.61-.82,1.44-1.25,1.47a0.64,0.64,0,0,1-.5-0.32l-0.07-.06-0.18-.29,0,0-0.07-.12a13.16,13.16,0,0,0-1-1.46,6.24,6.24,0,0,0-3.83-2.27A7.17,7.17,0,0,0,431.75,126Z" transform="translate(-351.84 -47.15)"/><path class="cls-3" d="M382.81,94a3.71,3.71,0,0,0-1.65,1.26l0,0c-0.46.59-.94,1.21-1.38,1.87a0.3,0.3,0,0,1-.09.11l0.11,0.21h0l-0.15-.18-0.05,0,0,0.23h0l-0.07-.23h-0.06l-0.06,0-0.13.19,0.09-.22a0.34,0.34,0,0,1-.1-0.13c-0.42-.64-0.89-1.24-1.35-1.83l0-.06A3.7,3.7,0,0,0,376.2,94a2.81,2.81,0,0,0-3.14,1c-0.92,1.36,0,3.26.57,4.27a13.47,13.47,0,0,0,3.08,3.37l0.4,0.34a7.33,7.33,0,0,0,1.67,1.18,1.6,1.6,0,0,0,.67.15,4.34,4.34,0,0,0,2.48-1.35l0.37-.31a13.49,13.49,0,0,0,3.08-3.37c0.61-1,1.49-2.91.57-4.27A2.81,2.81,0,0,0,382.81,94Z" transform="translate(-351.84 -47.15)"/><path class="cls-4" d="M391.4,118.37a0.69,0.69,0,0,1-.48-0.37,6.68,6.68,0,0,0-4-3.15,5.86,5.86,0,0,0-5.82,1.55,5.74,5.74,0,0,0-.74,6.26,10.82,10.82,0,0,0,4.86,5,34.49,34.49,0,0,0,3.54,1.73l1.92,0.83c0.25,0.11.48,0.23,0.72,0.35l0.11,0,0.11,0c0.23-.12.47-0.24,0.72-0.35l1.92-.83a34.51,34.51,0,0,0,3.54-1.73,10.82,10.82,0,0,0,4.86-5,5.74,5.74,0,0,0-.74-6.26,5.86,5.86,0,0,0-5.82-1.55,7.36,7.36,0,0,0-3.26,2,4.92,4.92,0,0,0-.48.62,2,2,0,0,1-1,.94h0Z" transform="translate(-351.84 -47.15)"/><path class="cls-3" d="M370.22,147.92l0.4,0.34a7.34,7.34,0,0,0,1.67,1.18,1.6,1.6,0,0,0,.67.15,4.34,4.34,0,0,0,2.48-1.35l0.37-.31a13.49,13.49,0,0,0,3.08-3.37c0.61-1,1.49-2.91.57-4.27a2.81,2.81,0,0,0-3.14-1,3.71,3.71,0,0,0-1.65,1.26l0,0c-0.46.59-.94,1.21-1.38,1.87a0.3,0.3,0,0,1-.09.11l0.11,0.21h0l-0.15-.18-0.05,0,0,0.23h0l-0.07-.23H373l-0.06,0-0.13.19,0.09-.22a0.34,0.34,0,0,1-.1-0.13c-0.42-.64-0.89-1.24-1.35-1.83l0-.06a3.7,3.7,0,0,0-1.65-1.26,2.81,2.81,0,0,0-3.14,1c-0.92,1.36,0,3.26.57,4.27A13.47,13.47,0,0,0,370.22,147.92Z" transform="translate(-351.84 -47.15)"/><path class="cls-4" d="M379.47,171.29a2.81,2.81,0,0,0-3.14-1,3.71,3.71,0,0,0-1.65,1.26l0,0c-0.46.59-.94,1.21-1.38,1.87a0.3,0.3,0,0,1-.09.11l0.11,0.21h0l-0.15-.18-0.05,0,0,0.23h0l-0.07-.23H373l-0.06,0-0.13.19,0.09-.22a0.34,0.34,0,0,1-.1-0.13c-0.42-.64-0.89-1.24-1.35-1.83l0-.06a3.7,3.7,0,0,0-1.65-1.26,2.81,2.81,0,0,0-3.14,1c-0.92,1.36,0,3.26.57,4.27a13.47,13.47,0,0,0,3.08,3.37l0.4,0.34a7.34,7.34,0,0,0,1.67,1.18,1.6,1.6,0,0,0,.67.15,4.34,4.34,0,0,0,2.48-1.35l0.37-.31a13.49,13.49,0,0,0,3.08-3.37C379.51,174.55,380.39,172.65,379.47,171.29Z" transform="translate(-351.84 -47.15)"/><path class="cls-6" d="M358,174a45,45,0,0,0,25.3,7.58c8.29-.23,17.27-4.37,19.07-13.29,1.05-5.23-2-10.07-4.5-14.41-2.72-4.78-5.44-9.87-5.24-15.54,0.18-5.18,2.59-9.55,6.26-13.11,3.15-3.06,7.29-5.48,9.67-9.25a10.07,10.07,0,0,0,.67-9.8c-1.43-2.74-4.05-4.74-6.58-6.51-4.85-3.4-12.18-7.24-11.78-14.19,0.26-4.47,3.34-8.31,6.31-11.4a43.67,43.67,0,0,1,5.48-4.93l0.37-.27,0-.2c-0.19-1-.33-1.92-0.46-2.88a45.14,45.14,0,0,1-.45-9.2,24.83,24.83,0,0,1,2.54-9.36c-2.49,0-5,.06-7.48.1l-9.93.19c-2.75.05-6-.25-8.13,1.78-1.71,1.59-2.18,4.06-2.23,6.3a25.21,25.21,0,0,0,.21,3.58,6.86,6.86,0,0,0,1.44,3.91c1.62,1.82,4.27,1.91,6.6,2a37.07,37.07,0,0,0-13.25,9,52.22,52.22,0,0,0-9.9,16c-5.25,12.69-6.4,26.37-7.6,39.91q-0.64,7.28-1.15,14.56c-0.41,5.9-.78,11.81-1.07,17.72-0.11,2.32-.2,4.64-0.25,7A40.64,40.64,0,0,0,358,174Z" transform="translate(-351.84 -47.15)"/><path class="cls-7" d="M470.43,181.24c0-2.49,0-5,0-7.48q-0.09-8.77-.41-17.54-0.66-17.59-2.29-35.13c-1-10.77-2.07-21-6.25-31.11a52.22,52.22,0,0,0-9.9-16,37.06,37.06,0,0,0-13.25-9c2.32-.05,5-0.15,6.6-2a5.32,5.32,0,0,0,1.13-2.2c-3.47,2.26-8.32,3.12-12,4-3.39.79-7.35,1.61-10,4a14.42,14.42,0,0,0-3.25,5.54c-0.59,1.53-1.3,3.6.06,4.91,1.2,1.16,3.13,1.62,4.66,2.14A40.46,40.46,0,0,1,432,84.08a31.61,31.61,0,0,1,6.59,5.39,21,21,0,0,1,4.31,5.16c1.56,3.08-.09,5.45-1.35,8.25-2.15,4.81-2.48,11-1.7,16.11,1.69,11.23,9.12,20.48,12.79,31,4,11.53,2.24,23.56-3,34.39-9,18.57-28.21,29.14-48.29,30.8-14.56,1.2-29.91-2.1-42.29-10a37.61,37.61,0,0,0,6.56,6.77,51.31,51.31,0,0,0,18.88,9.22,103.6,103.6,0,0,0,54.49,0A51.31,51.31,0,0,0,457.83,212a34,34,0,0,0,11-15.32,35.72,35.72,0,0,0,1.6-11.1C470.48,184.15,470.46,182.69,470.43,181.24Z" transform="translate(-351.84 -47.15)"/><path class="cls-8" d="M381.5,63.31c1.11,0.05,2.21.08,3.32,0.09a0.35,0.35,0,0,0,0,.17A4.65,4.65,0,0,0,387,65.45a25.94,25.94,0,0,0,2.7,1.2,33.55,33.55,0,0,0,5.69,1.56,69.57,69.57,0,0,0,12.07,1c7.71,0.07,15.65.06,23.17-1.82a37.11,37.11,0,0,0,6-2.07,29.2,29.2,0,0,0,2.8-1.42,14,14,0,0,0,1.34-.85,2.6,2.6,0,0,0,.22-0.19h0c0.09,0,.08,0,0,0a1.45,1.45,0,0,0,.85-0.13,6.31,6.31,0,0,0,.66-0.31,5,5,0,0,0,1.07-.79,2.17,2.17,0,0,0,.2-0.23,1.14,1.14,0,0,0,.29-0.47v0a0.15,0.15,0,1,1,0,0,0.7,0.7,0,0,1,.1-0.24,0.81,0.81,0,0,0,.08-0.4,0.67,0.67,0,0,0-.13-0.33,2.64,2.64,0,0,0,.51-1.55c0.08-.19.16-0.38,0.23-0.58a10.3,10.3,0,0,0-.18-6.7,0.72,0.72,0,0,0-1.39.38c0.6,2.67.27,7-2.52,8.33a9.62,9.62,0,0,1-3.08.76c-14.38,1.81-29,.92-43.5,1.06-2.93,0-5.86,0-8.78,0-1.44,0-2.88.12-4.31,0.07-1,0-2.49-.43-2.15-1.76a0.32,0.32,0,0,0-.52-0.3,1.87,1.87,0,0,0,.07,2.47A3.78,3.78,0,0,0,381.5,63.31Z" transform="translate(-351.84 -47.15)"/><path class="cls-8" d="M468.31,181.66q0.13-6.17.14-12.34c0-8.19-.19-16.37-0.53-24.55q-0.15-3.46-.33-6.91c-0.06-1.15-.16-2.3-0.25-3.45a17.34,17.34,0,0,0-.67-3.47,0.51,0.51,0,0,0-.43-0.34c-0.21-4.75-.54-9.49-1-14.21-0.46-4.31-1.06-8.6-1.91-12.85-0.42-2.1-.91-4.18-1.45-6.26s-1-4.18-1.58-6.25c-0.3-1.06-.61-2.1-1-3.14a0.31,0.31,0,0,0-.6.17c0.48,2.1,1,4.19,1.48,6.29s0.79,4.22,1.13,6.36c0.67,4.21,1.22,8.43,1.69,12.66,1,8.53,1.39,17.11,1.55,25.69,0.17,9.57-.28,19.16-0.1,28.71,0.2,10.48.26,21.67-5.12,31-10.2,17.76-33.8,21.13-52.41,20.7-8.25-.19-16.43-0.68-24.39-3.1a54.09,54.09,0,0,1-10.83-4.58c-1.72-1-3.41-2-5-3.15q-1.21-.85-2.35-1.78c-0.77-.63-1.56-1.22-2.29-1.9l-2.17-2a0.3,0.3,0,0,0-.47.36,19.75,19.75,0,0,0,1.82,2.35c0.68,0.76,1.34,1.55,2.08,2.25a42.13,42.13,0,0,0,4.76,3.88,49,49,0,0,0,10.92,5.59,73.66,73.66,0,0,0,24.58,4.16,13.7,13.7,0,0,0,1.85.32c0.84,0.08,1.69.16,2.54,0.19,0.59,0.13,1.2.21,1.81,0.28,1.38,0.15,2.77.23,4.16,0.28a53.13,53.13,0,0,0,8.27-.25,36.85,36.85,0,0,0,8-1.84c0.77-.27,1.54-0.56,2.31-0.85,8-1.34,15.91-3.84,22.36-9,0.5-.4,1-0.83,1.47-1.26-0.38.69-.73,1.37-1.06,2.09a0.81,0.81,0,0,0,1.27,1,19.21,19.21,0,0,0,3.11-4.81c0.46-.92.89-1.87,1.29-2.82a33.42,33.42,0,0,0,2.14-2.67,30.38,30.38,0,0,0,3.81-7.29,27.28,27.28,0,0,0,1.12-4c0.14-.72.25-1.44,0.34-2.16,0-.32.09-0.64,0.1-1a3.27,3.27,0,0,0-.24-1.2C468.22,185,468.27,183.31,468.31,181.66Z" transform="translate(-351.84 -47.15)"/><path class="cls-8" d="M383.07,99.88a28.2,28.2,0,0,1-4.69,4.35,0.34,0.34,0,0,0,.33.56c2.32-.63,4.23-2.59,5.6-4.48A11.71,11.71,0,0,0,386.1,97c0.31-1,.64-2.86-0.37-3.57a0.56,0.56,0,0,0-.82.33,6.65,6.65,0,0,0,.1,1.59,5.2,5.2,0,0,1-.33,1.63A11.16,11.16,0,0,1,383.07,99.88Z" transform="translate(-351.84 -47.15)"/><path class="cls-8" d="M412.07,95.69c-0.89.68-1.82,1.32-2.76,1.94L408,98.5a2.56,2.56,0,0,0-1.25,1.14,0.68,0.68,0,0,0,.65.86,2.45,2.45,0,0,0,1.41-.62l1.42-.9,1.2-.8h0.12a5.31,5.31,0,0,0,.77-0.07c0.2-.07.39-0.17,0.58-0.25a13,13,0,0,0,1.29-.71,17.3,17.3,0,0,0,2.22-1.65c0.34-.28.53-0.66,0.84-0.92s0.77-.56,1.11-0.91a13.07,13.07,0,0,0,3.5-6.85A13.94,13.94,0,0,0,422,84.2a3,3,0,0,0-.9-2.41,0.57,0.57,0,0,0-.29-0.13c0-.18-0.07-0.35-0.12-0.53-0.53-2-1.74-4.27-4-4.72a0.28,0.28,0,0,0-.27.47,9.43,9.43,0,0,1,2.42,9.87C417.82,90.47,415.09,93.39,412.07,95.69Z" transform="translate(-351.84 -47.15)"/><path class="cls-8" d="M403.09,117.26a0.41,0.41,0,0,0-.44-0.22c0-.23,0-0.46-0.08-0.69a6.67,6.67,0,0,0-.27-1.2,2.71,2.71,0,0,0-.85-1.09,0.61,0.61,0,0,0-1,.42,5.15,5.15,0,0,0,.06,1.44,7.79,7.79,0,0,1,.19,1.13,8.89,8.89,0,0,1-.15,2.56,11.31,11.31,0,0,1-2.12,4.59,16.14,16.14,0,0,1-4,3.56c-0.79.51-1.6,1-2.43,1.46a8.51,8.51,0,0,0-2.23,1.58,0.33,0.33,0,0,0,.23.56,9.39,9.39,0,0,0,4.47-1.48,18.56,18.56,0,0,0,3.86-2.75l0.36-.35a2.11,2.11,0,0,0,1-.39,5.65,5.65,0,0,0,1.08-.92,11.15,11.15,0,0,0,1.73-2.46C403.29,121.38,404.1,119,403.09,117.26Z" transform="translate(-351.84 -47.15)"/><path class="cls-8" d="M431.8,103.84a4.1,4.1,0,0,0-.86-1.8,0.44,0.44,0,0,0-.82.22c0,0.55-.11,1.12-0.12,1.67a12.85,12.85,0,0,1-.08,1.71,7.93,7.93,0,0,1-1.14,3.11,9.53,9.53,0,0,1-2.13,2.39,11,11,0,0,1-1.38.93c-0.26.15-.52,0.28-0.77,0.44s-0.45.39-.7,0.54a0.46,0.46,0,0,0-.23.4,0.39,0.39,0,0,0,.09.27l0,0.06a0.46,0.46,0,0,0,.45.12,9.67,9.67,0,0,0,1-.15,6,6,0,0,0,.9-0.4,12,12,0,0,0,1.65-1l0.3-.24h0a4.46,4.46,0,0,0,.8-0.38,7,7,0,0,0,.76-0.62,7.36,7.36,0,0,0,1.24-1.45,6.39,6.39,0,0,0,.82-1.69,4.2,4.2,0,0,0,.12-1.81c0-.07,0-0.15,0-0.22A7.18,7.18,0,0,0,431.8,103.84Z" transform="translate(-351.84 -47.15)"/><path class="cls-8" d="M443.45,94.45c-0.77.63-1.76,1-2.46,1.72a0.66,0.66,0,0,0,.46,1.11,4.87,4.87,0,0,0,2.48-1.06A12.59,12.59,0,0,0,446,94.45a11.24,11.24,0,0,0,2.74-4.76,5.36,5.36,0,0,0,0-2.92,1.17,1.17,0,0,0-1.13-1c-0.83.12-.67,1-0.56,1.6,0.33,1.71-.66,3.59-1.61,4.94A10.79,10.79,0,0,1,443.45,94.45Z" transform="translate(-351.84 -47.15)"/><path class="cls-8" d="M419.14,128.65a9.8,9.8,0,0,1-1.33,2.91,11.92,11.92,0,0,1-2,2.36,15.66,15.66,0,0,0-2.42,2c-0.27.37,0.18,0.75,0.53,0.69a3.93,3.93,0,0,0,1.55-.79c0.49-.34,1-0.71,1.42-1.09a13.77,13.77,0,0,0,2.4-2.55,10,10,0,0,0,1.48-3.2,6.36,6.36,0,0,0,.11-3.61,0.76,0.76,0,0,0-1.48.2c0,0.53,0,1.07,0,1.6A7.4,7.4,0,0,1,419.14,128.65Z" transform="translate(-351.84 -47.15)"/><path class="cls-8" d="M372.37,150.51c2.36-.49,4.24-2.42,5.53-4.36a11.45,11.45,0,0,0,1.49-3.34c0.36-1.33.53-3-.36-4.15a0.77,0.77,0,0,0-.92-0.12,0.8,0.8,0,0,0-.35.86,8.37,8.37,0,0,1,.21,1.75,7.82,7.82,0,0,1-.33,1.68,11.65,11.65,0,0,1-1.25,2.81,18.49,18.49,0,0,1-4.3,4.38C371.85,150.23,372.11,150.57,372.37,150.51Z" transform="translate(-351.84 -47.15)"/><path class="cls-8" d="M445.35,144c-0.83.53-2,1-2.56,1.84a0.36,0.36,0,0,0,.22.53,4.84,4.84,0,0,0,2.7-.66,18.13,18.13,0,0,0,2.55-1.35,24.05,24.05,0,0,0,4-3.11,0.26,0.26,0,0,0,.27.08,6.1,6.1,0,0,0,2.77-2.51,32,32,0,0,0,2.11-3.42,16.2,16.2,0,0,0,1.39-3.59A7.05,7.05,0,0,0,459,130a3.28,3.28,0,0,0-.63-1.87,0.53,0.53,0,0,0-.44-0.24,11.29,11.29,0,0,0-.73-3.8,1.39,1.39,0,0,0-1.14-1,0.9,0.9,0,0,0-.88.79,3.8,3.8,0,0,0,.25,1.61,12.84,12.84,0,0,1,.24,1.37,15.68,15.68,0,0,1-3.06,11,20.71,20.71,0,0,1-4.5,4.43C447.26,142.86,446.3,143.43,445.35,144Z" transform="translate(-351.84 -47.15)"/><path class="cls-8" d="M422.22,158.42a17,17,0,0,0,1-4,5.35,5.35,0,0,0,0-2.06c-0.19-.68-0.34-1.37-0.56-2.05a0.4,0.4,0,0,0-.65-0.2c-0.07-.43-0.15-0.85-0.25-1.27a4.91,4.91,0,0,0-2-3.28,0.63,0.63,0,0,0-.94.54,12.41,12.41,0,0,0,.78,3.07,11.54,11.54,0,0,1,.41,3,15.3,15.3,0,0,1-1.28,6.07c-1.81,4.2-5.24,7.4-8.91,10q-1.63,1.15-3.32,2.23a29.43,29.43,0,0,0-3.39,2.29,0.76,0.76,0,0,0,.73,1.26,21.84,21.84,0,0,0,3.47-1.77c1.07-.62,2.12-1.26,3.15-1.94a35,35,0,0,0,5.89-4.79c0.27-.28.53-0.56,0.78-0.85h0.13a6.56,6.56,0,0,0,3-2.6A16.39,16.39,0,0,0,422.22,158.42Z" transform="translate(-351.84 -47.15)"/><path class="cls-8" d="M451.4,161.48A10.41,10.41,0,0,1,449,164c-0.49.38-1,.66-1.54,1s-0.88.77-1.32,1.14a0.27,0.27,0,0,0,.19.45,5.45,5.45,0,0,0,2-.34,13.26,13.26,0,0,0,1.77-1,12,12,0,0,0,3.08-2.86,9.15,9.15,0,0,0,1.62-3.87c0.21-1.29.45-3.38-.75-4.25a0.75,0.75,0,0,0-1,.27,3.77,3.77,0,0,0-.1,1.85,7,7,0,0,1-.11,1.78A9.22,9.22,0,0,1,451.4,161.48Z" transform="translate(-351.84 -47.15)"/><path class="cls-8" d="M450.37,193a10.91,10.91,0,0,0,1.21-1.13,10.28,10.28,0,0,0,1-1.36,16.92,16.92,0,0,0,1.55-3.16c0.78-2.08,1.6-4.48.9-6.67a0.55,0.55,0,0,0-.42-0.36c0-.32,0-0.63,0-0.95a7,7,0,0,0-.75-3.47,1.22,1.22,0,0,0-1-.74,1,1,0,0,0-.67,1.07,7.37,7.37,0,0,0,.17,1.8,12.21,12.21,0,0,1,.14,1.71,19,19,0,0,1-5,12.45,36.77,36.77,0,0,1-6,5.44c-1.12.82-2.27,1.61-3.43,2.38a11,11,0,0,0-3.22,2.54,0.4,0.4,0,0,0,.34.6,8.73,8.73,0,0,0,3.3-1.43c1.08-.64,2.16-1.29,3.2-2a43.33,43.33,0,0,0,5.77-4.53,26.84,26.84,0,0,0,2.47-2.69l-0.06.17C449.68,193.05,450.14,193.22,450.37,193Z" transform="translate(-351.84 -47.15)"/><path class="cls-8" d="M418.38,201.73c-0.9,0-.89,1.09-1,1.66a16.21,16.21,0,0,1-2.09,5.21,14,14,0,0,1-2,2.55,15.31,15.31,0,0,0-2.28,2.23,0.44,0.44,0,0,0,.49.64,5.17,5.17,0,0,0,2.43-1.5,15.21,15.21,0,0,0,1.93-2.07,16.08,16.08,0,0,0,2.71-5.12q0.21-.66.35-1.33a4.44,4.44,0,0,0,.2-1.51A0.86,0.86,0,0,0,418.38,201.73Z" transform="translate(-351.84 -47.15)"/><path class="cls-8" d="M396.94,195.35a15.72,15.72,0,0,1-3.61,3.47,23,23,0,0,1-2.18,1.34,7.59,7.59,0,0,0-2.2,1.34,0.53,0.53,0,0,0,.37.88,5.71,5.71,0,0,0,2.6-.9,22.68,22.68,0,0,0,2.44-1.45,20.54,20.54,0,0,0,1.89-1.45,0.26,0.26,0,0,0,.26,0,5.27,5.27,0,0,0,1.16-.55,6.69,6.69,0,0,0,1-.92,10,10,0,0,0,1.62-2.36,12,12,0,0,0,1-2.63,5.85,5.85,0,0,0,.17-1.44,3.41,3.41,0,0,0-.25-1.42,0.48,0.48,0,0,0-.08-0.11,10.25,10.25,0,0,0,0-1.13c-0.06-.92-0.14-2.14-1-2.72a0.7,0.7,0,0,0-1,.41,2.52,2.52,0,0,0,0,1.28,12.56,12.56,0,0,1,.11,1.3,10,10,0,0,1-.24,2.36A12.18,12.18,0,0,1,396.94,195.35Z" transform="translate(-351.84 -47.15)"/><path class="cls-8" d="M373.62,180.86a16.29,16.29,0,0,0,1.64-1.19,15,15,0,0,0,2.95-3,8.13,8.13,0,0,0,1.43-3.87c0.14-1.32.23-3-.65-4.12a0.42,0.42,0,0,0-.65.08c-0.6,1.16-.2,2.57-0.3,3.83a6.84,6.84,0,0,1-1.32,3.53,14.51,14.51,0,0,1-2.64,2.68c-0.33.27-2.86,1.76-2.09,2.36A1.49,1.49,0,0,0,373.62,180.86Z" transform="translate(-351.84 -47.15)"/><path class="cls-9" d="M378.81,61.67a0.52,0.52,0,0,0,1-.14c0.13-1,.21-1.91.31-2.86a9.25,9.25,0,0,1,.54-2.64,5.43,5.43,0,0,1,3.85-3,40.14,40.14,0,0,1,6.31-1c2.41-.27,4.82-0.45,7.24-0.59,9.59-.53,19.22-0.23,28.82-0.12,2.71,0,5.43.08,8.14,0.09l4.13,0c1.39,0,2.75-.19,4.13-0.23a0.77,0.77,0,0,0,0-1.55c-1.26-.06-2.51-0.28-3.78-0.32l-3.78-.07c-2.52,0-5-.07-7.57-0.1-5-.06-10.06-0.14-15.08-0.17s-10,0-15,.27q-2,.11-3.91.27a0.58,0.58,0,0,0-.49-0.35c-3.31-.15-6.71-0.54-10,0.1a7.38,7.38,0,0,0-3.75,1.84A4,4,0,0,0,378.85,53a2.36,2.36,0,0,0,0,1.18,0.9,0.9,0,0,0,.2.4c-0.09.16-.18,0.32-0.26,0.5A8.6,8.6,0,0,0,378.81,61.67Z" transform="translate(-351.84 -47.15)"/><path class="cls-9" d="M354.81,161.42c-0.37,6.09-.59,12.19-0.51,18.28,0.11,8.78,1.13,18.41,6.94,25.43a17.82,17.82,0,0,0,2.35,2.2,0.32,0.32,0,0,0,.46-0.46c-0.69-.88-1.23-1.83-1.85-2.75a26.78,26.78,0,0,1-1.62-2.75,29.46,29.46,0,0,1-1.19-2.94c-0.39-1-.73-2-1-3.06a55.9,55.9,0,0,1-1.83-13c-0.2-5.18,0-10.39.22-15.56,0.26-5.66.67-11.3,1.15-16.94,1-11.22,2.36-22.4,4.06-33.53,1.53-9.95,3-20.25,7.31-29.45a43,43,0,0,1,7.84-11.6,41.44,41.44,0,0,1,5-4.49C384,69.41,386,68.25,387.83,67c0.47-.32,1-0.54,1.49-0.82s0.94-.64,1.4-1a0.59,0.59,0,0,0-.45-1.07,20.86,20.86,0,0,0-6.45,2.76A42.65,42.65,0,0,0,378.21,71c-1,.89-2,1.83-2.92,2.82a29.29,29.29,0,0,0-2.74,2.59c-0.9,1.06-1.74,2.17-2.54,3.31a50.89,50.89,0,0,0-4.07,6.86,55,55,0,0,0-3,7.47,78,78,0,0,0-2.18,8.9c-2.42,12.27-4.32,24.66-5.57,37.1-0.35,3.46-.68,6.93-0.9,10.4a61.07,61.07,0,0,0-.08,10.65A0.4,0.4,0,0,0,354.81,161.42Z" transform="translate(-351.84 -47.15)"/><path class="cls-9" d="M438.28,66a14.36,14.36,0,0,0-4-1.69,3.37,3.37,0,0,0-1.24-.24,0.43,0.43,0,0,0-.42.46,0.27,0.27,0,0,0,0,.25,5.6,5.6,0,0,0,.63.79,6.37,6.37,0,0,0,1,.65l0.77,0.46,1.51,1c1.36,0.88,2.71,1.76,4,2.7a75.2,75.2,0,0,1,7.62,6.17,54.18,54.18,0,0,1,11.39,15c0.66,1.29,1.26,2.62,1.8,4q1.06,3,1.85,6a0.42,0.42,0,0,0,.77.08,0.34,0.34,0,0,0,.38-0.37,24,24,0,0,0-.72-4.72c-0.27-1-.61-1.9-1-2.83a40.94,40.94,0,0,0-5.29-10.73,51.81,51.81,0,0,0-14.3-14Q440.78,67.35,438.28,66Z" transform="translate(-351.84 -47.15)"/><path class="cls-9" d="M413.56,77a12.13,12.13,0,0,0-3.32,1.59,7.38,7.38,0,0,0-2.39,2.17h0a3.56,3.56,0,0,0-2.11-2.21,7.48,7.48,0,0,0-3.07-.76h-0.25a0.62,0.62,0,0,0-.22-0.14,4.06,4.06,0,0,0-1.09-.1,6.48,6.48,0,0,0-1.09,0,7.24,7.24,0,0,0-2.1.47,7.56,7.56,0,0,0-3.23,2.19,7.28,7.28,0,0,0-1.45,4.07c-0.09.91-.08,2.4,0.88,2.85a12.1,12.1,0,0,0,1.73,6,13.12,13.12,0,0,0,5.73,5.17,0.27,0.27,0,0,0,.32-0.41,28.65,28.65,0,0,1-4-4.53,11.62,11.62,0,0,1-2-5.85C395.71,84,398,80,401.77,79.62a6.19,6.19,0,0,1,2.82.38c0.94,0.36,1.67,1,2.59,1.42a0.43,0.43,0,0,0,.49-0.11,0.34,0.34,0,0,0,.46.32A19.48,19.48,0,0,0,410.72,80a13.69,13.69,0,0,1,2.95-1.41,4.91,4.91,0,0,1,3.17,0,16.83,16.83,0,0,1,1.57.67,10.27,10.27,0,0,0,1.56.51,0.37,0.37,0,0,0,.36-0.61A6.58,6.58,0,0,0,413.56,77Z" transform="translate(-351.84 -47.15)"/><path class="cls-9" d="M437.93,87.71c1.15-.42,2.36.18,3.47,0.44a0.4,0.4,0,0,0,.44-0.58C440,84.8,435,86,435.12,89.46a8.48,8.48,0,0,0,1.62,4.37,9.77,9.77,0,0,0,1.51,1.67A4.89,4.89,0,0,0,440,96.66a0.26,0.26,0,0,0,.29-0.38A13.82,13.82,0,0,0,439.18,95a10.65,10.65,0,0,1-1-1.47,12.23,12.23,0,0,1-1.38-3.28A2,2,0,0,1,437.93,87.71Z" transform="translate(-351.84 -47.15)"/><path class="cls-9" d="M442.33,89.57a6.6,6.6,0,0,0,1.29-1,5.64,5.64,0,0,1,1.46-.84,4.47,4.47,0,0,1,1.78-.23,5.61,5.61,0,0,1,.93.14c0.33,0.08.68,0.09,1,.19,0.55,0.19.79-.58,0.37-0.88a3.7,3.7,0,0,0-1-.6,4.81,4.81,0,0,0-1.17-.22,5.43,5.43,0,0,0-2.29.35,5,5,0,0,0-1.81,1.12,2.45,2.45,0,0,0-.89,1.78A0.28,0.28,0,0,0,442.33,89.57Z" transform="translate(-351.84 -47.15)"/><path class="cls-9" d="M376.35,93.28a3.21,3.21,0,0,0-2,.51,3.75,3.75,0,0,0-1.46,3.67,7.6,7.6,0,0,0,1.81,3.79,10.85,10.85,0,0,0,3.09,2.78,0.31,0.31,0,0,0,.42-0.42,24.85,24.85,0,0,0-2.1-2.54,9.23,9.23,0,0,1-1.59-2.91,3,3,0,0,1,.37-2.86,1.65,1.65,0,0,1,1.31-.55c0.28,0,.57,0,0.85.05a7.18,7.18,0,0,0,1-.06c0.27,0,.52-0.4.25-0.61A3.31,3.31,0,0,0,376.35,93.28Z" transform="translate(-351.84 -47.15)"/><path class="cls-9" d="M379.84,96.65a2,2,0,0,0,.63-0.32,9,9,0,0,1,.73-0.52,4.85,4.85,0,0,1,1.64-.65,6.41,6.41,0,0,1,2-.06l1.07,0.14c0.18,0,.36,0,0.54,0a2.14,2.14,0,0,0,.56,0,0.38,0.38,0,0,0,.26-0.64,2.87,2.87,0,0,0-1-.65,4.9,4.9,0,0,0-1.27-.32,6.34,6.34,0,0,0-2.45.17,5.84,5.84,0,0,0-1.89.9,3.81,3.81,0,0,0-.78.75,1.42,1.42,0,0,0-.32.87A0.27,0.27,0,0,0,379.84,96.65Z" transform="translate(-351.84 -47.15)"/><path class="cls-9" d="M432.47,104.12a4,4,0,0,0-1.08-1,6.14,6.14,0,0,0-2.74-.85,6,6,0,0,0-2.74.47,5.18,5.18,0,0,0-1.3.76,2.49,2.49,0,0,0-.58.63,3.13,3.13,0,0,0-1.15-.92,5.68,5.68,0,0,0-2-.54,5,5,0,0,0-3.34.92,4.31,4.31,0,0,0-1.8,3,5.43,5.43,0,0,0,1,3.59,7.81,7.81,0,0,0,1.36,1.49,4.31,4.31,0,0,0,1.61,1,0.26,0.26,0,0,0,.25-0.43c-0.39-.48-0.88-0.87-1.23-1.38a6.71,6.71,0,0,1-.82-1.59c-0.36-1-.82-2.26-0.24-3.32a3.1,3.1,0,0,1,2.39-1.55,4.93,4.93,0,0,1,1.81.19,8.57,8.57,0,0,0,1.94.49,0.38,0.38,0,0,0,.35-0.19,1.65,1.65,0,0,0,1-.26,11.74,11.74,0,0,1,1.09-.45,5.86,5.86,0,0,1,2.28-.27,5.37,5.37,0,0,1,2,.58c0.35,0.18.71,0.36,1.06,0.55s0.63,0.42,1,.61a0.4,0.4,0,0,0,.59-0.45A3.82,3.82,0,0,0,432.47,104.12Z" transform="translate(-351.84 -47.15)"/><path class="cls-9" d="M410.15,124a4.49,4.49,0,0,0-.64.11,4.34,4.34,0,0,0-.56.24,3,3,0,0,0-1.37,1.19,4.46,4.46,0,0,0-.73,1.74,4.81,4.81,0,0,0,.09,2,3.75,3.75,0,0,0,.32.88,3.48,3.48,0,0,0,.62.76,0.26,0.26,0,0,0,.29.05,9.21,9.21,0,0,0,3.83,4.52,0.3,0.3,0,0,0,.37-0.47,12.37,12.37,0,0,1-3-5,2.94,2.94,0,0,1,.22-2.61,4.5,4.5,0,0,1,2.39-1.32,0.4,0.4,0,0,0,.09-0.72,2.22,2.22,0,0,0-2-.19,2.94,2.94,0,0,1,.46-0.34A0.44,0.44,0,0,0,410.15,124Z" transform="translate(-351.84 -47.15)"/><path class="cls-9" d="M414.67,128.4a1.67,1.67,0,0,0,.71-0.41c0.23-.17.47-0.35,0.72-0.51a4.35,4.35,0,0,1,1.67-.59,13.13,13.13,0,0,1,4,.54,0.39,0.39,0,0,0,.38-0.65,5.48,5.48,0,0,0-4.71-1.23,5.24,5.24,0,0,0-2,.81c-0.54.36-1.33,1-1.16,1.79A0.37,0.37,0,0,0,414.67,128.4Z" transform="translate(-351.84 -47.15)"/><path class="cls-9" d="M380.43,122.74a0.38,0.38,0,0,0,.21,0,7.81,7.81,0,0,0,1.08,2.89,10.18,10.18,0,0,0,3.93,3.72,0.29,0.29,0,0,0,.35-0.45,17.18,17.18,0,0,1-3.35-4,6.57,6.57,0,0,1-.57-4.7A4.46,4.46,0,0,1,385.3,117a7.13,7.13,0,0,1,2.7-.27c0.92,0.09,1.73.55,2.63,0.69a0.33,0.33,0,0,0,.37-0.48,3.26,3.26,0,0,0-2.39-1.42,0.57,0.57,0,0,0-.16-0.81,6.13,6.13,0,0,0-.94-0.36,4,4,0,0,0-1.1-.21,8.28,8.28,0,0,0-2.17.15A6.22,6.22,0,0,0,381,116a6.07,6.07,0,0,0-1.48,3.49C379.38,120.38,379.21,122.42,380.43,122.74Z" transform="translate(-351.84 -47.15)"/><path class="cls-9" d="M391.44,117.76a0.3,0.3,0,0,0,.36.36,5.21,5.21,0,0,0,1.31-.76,9.11,9.11,0,0,1,1.46-.77,8.34,8.34,0,0,1,3.2-.7,7.54,7.54,0,0,1,3.11.66,12.79,12.79,0,0,1,3,1.76c0.29,0.24.79-.07,0.56-0.43a6.63,6.63,0,0,0-2.71-2.52,9,9,0,0,0-3.82-.89,8.69,8.69,0,0,0-3.73.83C393.16,115.75,391.71,116.65,391.44,117.76Z" transform="translate(-351.84 -47.15)"/><path class="cls-9" d="M431.48,126.4a5.5,5.5,0,0,0-.82,2.35,11.19,11.19,0,0,0,1.5,9.49,17.59,17.59,0,0,0,2.67,3.14,21,21,0,0,0,1.66,1.34,17.07,17.07,0,0,0,1.83,1.1,0.27,0.27,0,0,0,.33-0.42c-0.35-.39-0.66-0.82-1-1.2s-0.78-.8-1.15-1.22c-0.71-.81-1.45-1.59-2.09-2.46a11.56,11.56,0,0,1-2.42-5.86c-0.26-3.66,2.31-7.45,6.15-7.77a7.11,7.11,0,0,1,2.95.37c1,0.35,1.82,1.09,2.88,1.25a0.57,0.57,0,0,0,.68-0.68,3.4,3.4,0,0,0-2.3-2.23,9,9,0,0,0-3.35-.74,8.34,8.34,0,0,1-2.14-.1,4.82,4.82,0,0,0-3.29,1.1A10,10,0,0,0,431.48,126.4Z" transform="translate(-351.84 -47.15)"/><path class="cls-9" d="M458.06,126.62c-0.32-1.25-1.64-2.07-2.71-2.63a9.22,9.22,0,0,0-3.78-1,8.84,8.84,0,0,0-3.86.67,5.54,5.54,0,0,0-3,2.38,0.39,0.39,0,0,0,.53.53c1-.45,1.9-1.19,3-1.58a8.7,8.7,0,0,1,3.4-.55,8.22,8.22,0,0,1,3.24.87c1,0.5,1.8,1.34,2.83,1.76A0.35,0.35,0,0,0,458.06,126.62Z" transform="translate(-351.84 -47.15)"/><path class="cls-9" d="M370.77,139.4a0.38,0.38,0,0,0,.09-0.68,2.07,2.07,0,0,0-2.34.08,0.31,0.31,0,0,0-.31-0.2,3,3,0,0,0-2.5,2.6,3.9,3.9,0,0,0,.1,2.05,2.37,2.37,0,0,0,1.25,1.52,0.22,0.22,0,0,0,.16,0,9.33,9.33,0,0,0,1.08,1.93,7.06,7.06,0,0,0,2.78,2.66,0.31,0.31,0,0,0,.35-0.45c-0.53-.88-1.35-1.56-1.92-2.43a10.11,10.11,0,0,1-1.35-3,3.44,3.44,0,0,1,.42-2.89A3.53,3.53,0,0,1,370.77,139.4Z" transform="translate(-351.84 -47.15)"/><path class="cls-9" d="M376.57,138.8a6.27,6.27,0,0,0-3.62,2.67,0.45,0.45,0,0,0,.61.61c0.62-.36,1.08-0.92,1.66-1.33a5.72,5.72,0,0,1,1.66-.8,6.65,6.65,0,0,1,1.76-.24c0.64,0,1.27.09,1.91,0.11a0.41,0.41,0,0,0,.2-0.75A5.16,5.16,0,0,0,376.57,138.8Z" transform="translate(-351.84 -47.15)"/><path class="cls-9" d="M442.1,156.39a3.75,3.75,0,0,1,1.25-.15,2.77,2.77,0,0,1,1.24.3c0.38,0.24.68-.27,0.44-0.58a2.93,2.93,0,0,0-.61-0.67,2.64,2.64,0,0,0-.74-0.34,3.17,3.17,0,0,0-1.81,0l-0.07,0a4.79,4.79,0,0,0-.68.06,3.12,3.12,0,0,0-1.73,1,3.36,3.36,0,0,0-.82,1.78,4.27,4.27,0,0,0,0,1c0,0.14,0,.28,0,0.43s0.08,0.32.1,0.49a0.29,0.29,0,0,0,.13.21A5.64,5.64,0,0,0,439,161a8.56,8.56,0,0,0,2.11,3.43,0.26,0.26,0,0,0,.41-0.31c-1-1.83-1.85-3.92-1.13-6A2.78,2.78,0,0,1,442.1,156.39Z" transform="translate(-351.84 -47.15)"/><path class="cls-9" d="M447.36,157.4c0.45-.23.8-0.61,1.24-0.86a4,4,0,0,1,1.49-.51c1.38-.17,2.7.42,4.06,0.48a0.38,0.38,0,0,0,.19-0.69,6.77,6.77,0,0,0-4.64-1,4.21,4.21,0,0,0-1.78.71,1.9,1.9,0,0,0-1,1.6A0.27,0.27,0,0,0,447.36,157.4Z" transform="translate(-351.84 -47.15)"/><path class="cls-9" d="M386.57,148.43a7.45,7.45,0,0,0-2.16,3.62,8.1,8.1,0,0,0-.32,2.18,6.93,6.93,0,0,0,.43,2.17l0,0.07a12.85,12.85,0,0,0,2,6,17.66,17.66,0,0,0,2.94,3.47,15,15,0,0,0,3.78,2.73c0.25,0.11.57-.21,0.32-0.41a31.79,31.79,0,0,1-2.83-2.4,16.37,16.37,0,0,1-2.25-3,13.35,13.35,0,0,1-2.14-6.75,6.62,6.62,0,0,1,2.74-5.69,10.26,10.26,0,0,1,6.74-1.57,11.28,11.28,0,0,1,3.63,1,27.53,27.53,0,0,0,3.61,1.82,0.52,0.52,0,0,0,.63-0.63,3.29,3.29,0,0,0-1.06-1.56,10.54,10.54,0,0,0-1.86-1.18A13.56,13.56,0,0,0,397,147a14.15,14.15,0,0,0-2-.18,0.41,0.41,0,0,0-.35-0.44,9.2,9.2,0,0,0-2.33-.11,10.87,10.87,0,0,0-2.21.32A9,9,0,0,0,386.57,148.43Z" transform="translate(-351.84 -47.15)"/><path class="cls-9" d="M419.15,149a34,34,0,0,1,4.65,2.79,0.36,0.36,0,0,0,.49-0.49c-1.35-2.86-4.82-4.37-7.8-4.8a12.74,12.74,0,0,0-9.06,2.06c-1.27.89-3,2.2-3.24,3.83a0.29,0.29,0,0,0,.44.25,9.5,9.5,0,0,0,2-1.62,13,13,0,0,1,2.21-1.48,12,12,0,0,1,5.09-1.48A11.66,11.66,0,0,1,419.15,149Z" transform="translate(-351.84 -47.15)"/><path class="cls-9" d="M369.42,170.72a9.18,9.18,0,0,0,1.12-.44,0.46,0.46,0,0,0,.09-0.72c-0.81-.68-1.93-0.19-2.67.43a0.69,0.69,0,0,0-.22-0.07,1.54,1.54,0,0,0-1,.72h0a1.31,1.31,0,0,0-.36.44,2.88,2.88,0,0,0-.24.61,4.44,4.44,0,0,0-.16,1.23,1.59,1.59,0,0,0,0,.19l0,0.13,0,0.13,0,0.18a3.35,3.35,0,0,0,.15.53,2.26,2.26,0,0,0,.56,1,0.27,0.27,0,0,0,.12.06,8.65,8.65,0,0,0,.88,1.77,13.87,13.87,0,0,0,2.48,3c0.21,0.19.59-.06,0.41-0.32A14.59,14.59,0,0,1,368,174a3.27,3.27,0,0,1,.55-2.5A2.38,2.38,0,0,1,369.42,170.72Z" transform="translate(-351.84 -47.15)"/><path class="cls-9" d="M375.73,170.25a5.62,5.62,0,0,0-1.89,1.25,2.67,2.67,0,0,0-1,2,0.28,0.28,0,0,0,.41.24,10.92,10.92,0,0,0,1.23-1.33,4.36,4.36,0,0,1,1.56-1,6.65,6.65,0,0,1,4.05.15,0.34,0.34,0,0,0,.33-0.57A4.37,4.37,0,0,0,375.73,170.25Z" transform="translate(-351.84 -47.15)"/><path class="cls-9" d="M382.87,187.71a7.37,7.37,0,0,1,3.07-.53,3.79,3.79,0,0,1,2.13,1.07,0.44,0.44,0,0,0,.72-0.42c-0.28-1.86-2.47-2.3-4.05-2.11a3.54,3.54,0,0,0-2.73-.26,6.33,6.33,0,0,0-2.78,2,6.11,6.11,0,0,0-1.51,3,4,4,0,0,0,1,3.49,10.54,10.54,0,0,0,1.54,3.38,18.29,18.29,0,0,0,1.88,2.3,3.46,3.46,0,0,0,2.33,1.29,0.25,0.25,0,0,0,.13-0.47,5.91,5.91,0,0,1-2-1.76,15.79,15.79,0,0,1-1.65-2.4,7.35,7.35,0,0,1-1-5A4.51,4.51,0,0,1,382.87,187.71Z" transform="translate(-351.84 -47.15)"/><path class="cls-9" d="M396.33,186.93a7.4,7.4,0,0,1,3.38.91,14.48,14.48,0,0,1,3,2.12,0.35,0.35,0,0,0,.55-0.42,6.21,6.21,0,0,0-2.85-3,9,9,0,0,0-4.06-1,8.45,8.45,0,0,0-4,1c-1.06.56-2.59,1.54-2.87,2.8a0.31,0.31,0,0,0,.44.34,7.6,7.6,0,0,0,1.36-1,8,8,0,0,1,1.55-.94A8.1,8.1,0,0,1,396.33,186.93Z" transform="translate(-351.84 -47.15)"/><path class="cls-9" d="M420.75,179.21a9.33,9.33,0,0,1,6.44-1.26,15.1,15.1,0,0,1,4,1.3c0.66,0.31,1.29.66,1.92,1a2.83,2.83,0,0,0,2.06.65,0.48,0.48,0,0,0,.33-0.58,2.4,2.4,0,0,0-1.29-1.55,19.21,19.21,0,0,0-2-1.2l-0.22-.1a0.49,0.49,0,0,0-.19-0.75,12.31,12.31,0,0,0-2.92-.85,27.48,27.48,0,0,0-2.84-.2,14.61,14.61,0,0,0-5.47.47,8,8,0,0,0-3.58,2.68,6.14,6.14,0,0,0-1,1.92,3.73,3.73,0,0,0,0,2.16l0,0.05c0,0.13-.05.25-0.07,0.38a11.67,11.67,0,0,0,2,8.2,20.16,20.16,0,0,0,7.31,6.44,0.27,0.27,0,0,0,.32-0.41c-1.7-2-3.76-3.66-5.31-5.79a11.66,11.66,0,0,1-2.52-7A6.66,6.66,0,0,1,420.75,179.21Z" transform="translate(-351.84 -47.15)"/><path class="cls-9" d="M450.91,178.28a34.36,34.36,0,0,1,4.67,3.13,0.41,0.41,0,0,0,.6-0.46,5.5,5.5,0,0,0-1.26-2,12.35,12.35,0,0,0-1.94-1.55,12.73,12.73,0,0,0-4.58-1.79,13.06,13.06,0,0,0-9.43,1.82,13.25,13.25,0,0,0-2.19,1.73c-0.48.48-1.39,1.39-1.1,2.15a0.31,0.31,0,0,0,.28.21A1.49,1.49,0,0,0,437,181l1.06-1a11.94,11.94,0,0,1,2.19-1.5,12.11,12.11,0,0,1,5.29-1.44A11.54,11.54,0,0,1,450.91,178.28Z" transform="translate(-351.84 -47.15)"/><path class="cls-9" d="M407.86,203.86a3.64,3.64,0,0,1,2.42-.21,0.42,0.42,0,0,0,.4-0.69,2.78,2.78,0,0,0-2.88-.49,1.69,1.69,0,0,0-.35,0l-0.46.06q-0.11,0,0,0l-0.22,0-0.15.05a2.83,2.83,0,0,0-1.43,1.1,2.41,2.41,0,0,0-.33,1.57,2.26,2.26,0,0,0,.23.74,1.12,1.12,0,0,0,.27.34c0.14,2.17,1.76,3.95,3.35,5.36a0.3,0.3,0,0,0,.43-0.43c-1.26-1.55-2.78-3.27-2.54-5.42A2.54,2.54,0,0,1,407.86,203.86Z" transform="translate(-351.84 -47.15)"/><path class="cls-9" d="M412.24,205.79a3.19,3.19,0,0,0,.7-0.7,7.69,7.69,0,0,1,.75-0.72,5.11,5.11,0,0,1,1.78-.9,4.56,4.56,0,0,1,2.08-.08c0.75,0.15,1.44.49,2.18,0.66a0.34,0.34,0,0,0,.38-0.49c-0.93-1.53-3.35-1.68-4.9-1.26a5.62,5.62,0,0,0-2.19,1.16,4.63,4.63,0,0,0-.84.9,2,2,0,0,0-.46,1.13A0.35,0.35,0,0,0,412.24,205.79Z" transform="translate(-351.84 -47.15)"/><path class="cls-10" d="M470.43,181.24c0-2.49,0-5,0-7.48q-0.09-8.77-.41-17.54-0.66-17.59-2.29-35.13c-1-10.77-2.07-21-6.25-31.11a52.22,52.22,0,0,0-9.9-16,37.06,37.06,0,0,0-13.25-9c2.32-.05,5-0.15,6.6-2a6.86,6.86,0,0,0,1.44-3.91,25.18,25.18,0,0,0,.21-3.58c-0.05-2.23-.52-4.71-2.23-6.3-2.18-2-5.37-1.73-8.13-1.78l-9.93-.19c-3.31-.06-6.62-0.09-9.93-0.13q-4.64-.05-9.28,0c-3.31,0-6.62.07-9.93,0.13l-9.93.19c-2.75.05-6-.25-8.13,1.78-1.71,1.59-2.18,4.06-2.23,6.3a25.21,25.21,0,0,0,.21,3.58,6.86,6.86,0,0,0,1.44,3.91c1.62,1.82,4.27,1.91,6.6,2a37.07,37.07,0,0,0-13.25,9,52.22,52.22,0,0,0-9.9,16c-5.25,12.69-6.4,26.37-7.6,39.91q-0.64,7.28-1.15,14.56c-0.41,5.9-.78,11.81-1.07,17.72-0.27,5.67-.43,11.36-0.14,17,0.32,6.35.87,13,3.09,19A33.28,33.28,0,0,0,365.57,212a51.31,51.31,0,0,0,18.88,9.22,103.6,103.6,0,0,0,54.49,0A51.31,51.31,0,0,0,457.83,212a34,34,0,0,0,11-15.32,35.72,35.72,0,0,0,1.6-11.1C470.48,184.15,470.46,182.69,470.43,181.24ZM385,62.69c0-.3-0.07-0.59-0.11-0.89s-0.1-.7-0.17-1c0-.14,0-0.3-0.09-0.44a1.59,1.59,0,0,0-.44-0.64,0.91,0.91,0,0,0-1.41.18l0.07-.08-0.18.23a1.37,1.37,0,0,0-.17.6c0,0.12,0,.25,0,0.37,0,0.29,0,.57,0,0.86s0,0.46.06,0.69a7.13,7.13,0,0,1-.91-0.2,2.76,2.76,0,0,1-2-1.82,13.4,13.4,0,0,1-.47-3.32c-0.11-1.9-.11-4.15,1-5.74,1.28-1.79,3.87-1.64,5.94-1.64v0c0,0.16,0,.31,0,0.47,0,0.34,0,.68,0,1s0,0.68,0,1a2.49,2.49,0,0,0,.32,1.34,1,1,0,0,0,1.65,0,2.5,2.5,0,0,0,.34-1.34c0-.34,0-0.68,0-1s0-.68,0-1c0-.16,0-0.31,0-0.47s0,0,0-.07l5.83-.12a2.38,2.38,0,0,0,0,.5c0,0.29.06,0.57,0.07,0.86s0,0.58,0,.86a1.17,1.17,0,0,0,1.28,1.29,1.05,1.05,0,0,0,.67-0.57,2.9,2.9,0,0,0,.16-0.36,2.34,2.34,0,0,0,.05-0.45q0-.45,0-0.9c0-.29,0-0.58,0-0.86a3.83,3.83,0,0,0-.05-0.41c2,0,4-.07,6-0.09,0,0.5.08,1,.07,1.5,0,0.25,0,.51,0,0.76a1.66,1.66,0,0,0,.16.76,1,1,0,0,0,1.12.5,1.15,1.15,0,0,0,.71-0.58,2.18,2.18,0,0,0,.21-0.54,6.43,6.43,0,0,0,.13-1,5,5,0,0,0-.05-1.44q3.25,0,6.51,0a1.46,1.46,0,0,0,0,.45q0,0.19,0,.39c0,0.25,0,.5,0,0.74s0,0.5.06,0.74a1.4,1.4,0,0,0,.33.89,1,1,0,0,0,.24.19,1,1,0,0,0,.91,0,1.32,1.32,0,0,0,.64-1,6,6,0,0,0,.15-0.91q0-.34,0-0.68a3.23,3.23,0,0,0,0-.77q3.61,0,7.23.05h0a4.51,4.51,0,0,0,0,.6q0,0.32,0,.64t0,0.61a1.76,1.76,0,0,0,.16.81l0,0.07a0.93,0.93,0,0,0,.78.67,0.94,0.94,0,0,0,.93-0.45h0a1.74,1.74,0,0,0,.2-0.29,1.94,1.94,0,0,0,.16-0.35,3.14,3.14,0,0,0,.06-0.43q0-.32.05-0.64t0-.64a5.12,5.12,0,0,0,0-.57l4.19,0.07,2.94,0.06c0,0.1,0,.2,0,0.31l0,0.62a3.49,3.49,0,0,0,.12,1.48,1,1,0,0,0,.83.72,1,1,0,0,0,1-.48,3.09,3.09,0,0,0,.17-0.4l-0.11.25a4.06,4.06,0,0,0,.34-1.6l0-.56c0-.1,0-0.19,0-0.29l3.93,0.08c0.69,0,1.47,0,2.26,0,0,0.34,0,.68,0,1,0,0.17,0,.34,0,0.51s0,0.17,0,.26A1.77,1.77,0,0,0,439,52a1.3,1.3,0,0,0,.29.49l0.21,0.16a0.76,0.76,0,0,0,.38.12,1,1,0,0,0,.65-0.12,1.55,1.55,0,0,0,.64-1,3.65,3.65,0,0,0,.15-0.79q0-.26,0-0.52V50.19a3.49,3.49,0,0,1,1.79,1.27c1.14,1.6,1.14,3.84,1,5.74a13.38,13.38,0,0,1-.47,3.32,2.76,2.76,0,0,1-2,1.82,14.08,14.08,0,0,1-3.49.36h-0.48l0-.15c0-.22-0.06-0.45-0.1-0.67s-0.1-.44-0.15-0.66a3.84,3.84,0,0,0-.24-0.77,1.67,1.67,0,0,0-.15-0.33,1.16,1.16,0,0,0-.37-0.36,0.93,0.93,0,0,0-1.3.23,1,1,0,0,0-.21.38,2.27,2.27,0,0,0-.06.42,4,4,0,0,0,0,.75c0,0.27,0,.54.07,0.81l0.06,0.43-1.76,0-5.3.09a1.91,1.91,0,0,0,0-.34l0-.25c0-.17-0.07-0.34-0.11-0.52-0.07-.33-0.12-0.67-0.16-1l0,0.31a6,6,0,0,0-.11-0.65,1.26,1.26,0,0,0-.14-0.38l-0.1-.13a0.87,0.87,0,0,0-.68-0.53,0.83,0.83,0,0,0-.45.06,0.79,0.79,0,0,0-.42.36l0,0.09,0,0.05a1.25,1.25,0,0,0-.22.46,3.44,3.44,0,0,0-.1.56,6.19,6.19,0,0,0,0,.72c0,0.24,0,.48,0,0.72s0,0.33.06,0.5h-1.41c-1.78,0-3.56,0-5.35,0l-0.06-.58a5.31,5.31,0,0,0-.37-1.69l0.11,0.26-0.06-.18a1.08,1.08,0,0,0-.37-0.53,1.11,1.11,0,0,0-.62-0.22,0.5,0.5,0,0,0-.24,0h0a1,1,0,0,0-.71.71,7.2,7.2,0,0,0-.12,1.59c0,0.2,0,.4,0,0.6h-6.61c0-.12,0-0.24,0-0.36l-0.06-.6a3.84,3.84,0,0,0-.43-1.65,1.06,1.06,0,0,0-1-.5,1,1,0,0,0-.5.21,1.16,1.16,0,0,0-.38.54,2.66,2.66,0,0,0-.12.85,4.63,4.63,0,0,0,0,.6l0,0.61c0,0.1,0,.2,0,0.31H401l0-.07c0-.22-0.08-0.45-0.12-0.67s-0.05-.46-0.07-0.7,0-.3,0-0.45a3.77,3.77,0,0,0-.11-0.7,1.08,1.08,0,0,0-1-.79,1.11,1.11,0,0,0-1,.79,2.56,2.56,0,0,0-.14.67c0,0.15,0,.3,0,0.45a8.32,8.32,0,0,0,0,.84c0,0.21.06,0.42,0.09,0.63q-3,0-6-.07l-0.06-.34c0-.38-0.08-0.76-0.1-1.13a4.69,4.69,0,0,0-.27-1.63,0.9,0.9,0,0,0-.8-0.46,1,1,0,0,0-.8.46,2.48,2.48,0,0,0-.33,1,5.85,5.85,0,0,0-.08,1.13c0,0.29,0,.58.07,0.87v0.05h-0.29l-4.73-.13H385Zm79.36,137A35,35,0,0,1,452,212.44c-6,3.75-12.82,5.87-19.71,7.22a110.58,110.58,0,0,1-20.87,2.42,106.24,106.24,0,0,1-20.37-2.42c-6.89-1.35-13.73-3.47-19.71-7.22A35,35,0,0,1,359,199.67c-3.08-5.72-4-12.33-4.37-18.73a158.62,158.62,0,0,1,0-16.92c0.5-11.77,1.37-23.53,2.33-35.27,0.92-11.27,2.16-22.48,5.76-33.34a58.08,58.08,0,0,1,8.06-16.19,36,36,0,0,1,14-11.51,42.23,42.23,0,0,1,7.31-2.51l3.79,0.07q5.54,0.07,11.08,0l4.73-.06,4.73,0.06q5.54,0,11.08,0l3.79-.07a42.24,42.24,0,0,1,7.31,2.51,36,36,0,0,1,14,11.51,58.08,58.08,0,0,1,8.06,16.19c2.59,7.83,3.61,15.45,4.34,23.62,0.52,5.83,1,11.65,1.44,17.49q1.2,17.56,1.43,35.18C468,180.69,468.75,191.52,464.36,199.67Z" transform="translate(-351.84 -47.15)"/><path class="cls-10" d="M402.51,113.94a8.06,8.06,0,0,0-8.11-.78,8.89,8.89,0,0,0-2.86,2.08,8.89,8.89,0,0,0-2.86-2.08,8.06,8.06,0,0,0-8.11.78,7.53,7.53,0,0,0-2.81,7.74,11.54,11.54,0,0,0,4.95,7,26.78,26.78,0,0,0,4.44,2.44c0.81,0.36,1.63.7,2.47,1a6.7,6.7,0,0,0,2,.53,6.6,6.6,0,0,0,1.93-.63c0.81-.28,1.63-0.55,2.42-0.9a26.78,26.78,0,0,0,4.44-2.44,11.54,11.54,0,0,0,4.95-7A7.53,7.53,0,0,0,402.51,113.94Zm0,8.63a10.69,10.69,0,0,1-4.77,4.9,33.75,33.75,0,0,1-3.51,1.72l-1.92.83c-0.25.11-.49,0.23-0.73,0.36-0.24-.12-0.48-0.25-0.73-0.36l-1.92-.83a33.73,33.73,0,0,1-3.51-1.72,10.69,10.69,0,0,1-4.77-4.9,5.52,5.52,0,0,1,.7-6,5.64,5.64,0,0,1,5.59-1.48,6.43,6.43,0,0,1,3.84,3.06c0.93,1.33,1.67-.54,2.29-1.15a7.14,7.14,0,0,1,3.16-1.91,5.64,5.64,0,0,1,5.59,1.48A5.52,5.52,0,0,1,402.47,122.58Z" transform="translate(-351.84 -47.15)"/><path class="cls-10" d="M400.65,185.21a8.06,8.06,0,0,0-8.11-.78,8.89,8.89,0,0,0-2.86,2.08,8.9,8.9,0,0,0-2.86-2.08,8.06,8.06,0,0,0-8.11.78,7.53,7.53,0,0,0-2.81,7.74,11.54,11.54,0,0,0,4.95,7,26.77,26.77,0,0,0,4.44,2.44c0.81,0.36,1.63.7,2.47,1a6.7,6.7,0,0,0,2,.53,6.6,6.6,0,0,0,1.93-.63c0.81-.28,1.63-0.55,2.42-0.9a26.78,26.78,0,0,0,4.44-2.44,11.54,11.54,0,0,0,4.95-7A7.53,7.53,0,0,0,400.65,185.21Zm0,8.63a10.69,10.69,0,0,1-4.77,4.9,33.73,33.73,0,0,1-3.51,1.72l-1.92.83c-0.25.11-.49,0.23-0.73,0.36-0.24-.12-0.48-0.25-0.73-0.36l-1.92-.83a33.74,33.74,0,0,1-3.51-1.72,10.69,10.69,0,0,1-4.77-4.9,5.52,5.52,0,0,1,.7-6,5.64,5.64,0,0,1,5.59-1.48,6.43,6.43,0,0,1,3.84,3.06c0.93,1.33,1.67-.54,2.29-1.15a7.14,7.14,0,0,1,3.16-1.91,5.64,5.64,0,0,1,5.59,1.48A5.52,5.52,0,0,1,400.62,193.84Z" transform="translate(-351.84 -47.15)"/><path class="cls-10" d="M457.29,123a9,9,0,0,0-9.28-1.87,8.42,8.42,0,0,0-3.73,3.09,8.43,8.43,0,0,0-3.72-3.09,9,9,0,0,0-9.28,1.87,11.12,11.12,0,0,0-3.19,9.5,15.43,15.43,0,0,0,5.23,9.36,23.52,23.52,0,0,0,5.32,3.55c0.93,0.47,1.89.89,2.87,1.27a5.08,5.08,0,0,0,5.56,0c1-.38,1.93-0.8,2.87-1.27a23.52,23.52,0,0,0,5.32-3.55,15.43,15.43,0,0,0,5.23-9.36A11.12,11.12,0,0,0,457.29,123Zm0.28,11a14.65,14.65,0,0,1-5.54,7.22,24.09,24.09,0,0,1-4.26,2.43c-0.8.36-1.61,0.69-2.44,1-0.36.13-.71,0.25-1,0.4-0.33-.15-0.68-0.26-1-0.4-0.82-.31-1.64-0.64-2.44-1a24.1,24.1,0,0,1-4.26-2.43A14.65,14.65,0,0,1,431,134a9.28,9.28,0,0,1,.93-7.84,7,7,0,0,1,6.66-3,6.05,6.05,0,0,1,3.69,2.19,13,13,0,0,1,1,1.43l0.07,0.12,0,0,0.22,0.35h0c1.11,1.41,2-1.25,2.61-1.95a6.05,6.05,0,0,1,3.69-2.19,7,7,0,0,1,6.66,3A9.28,9.28,0,0,1,457.57,134Z" transform="translate(-351.84 -47.15)"/><path class="cls-10" d="M396.77,96.5a23.52,23.52,0,0,0,5.32,3.55c0.93,0.47,1.89.89,2.87,1.27a5.08,5.08,0,0,0,5.56,0c1-.38,1.93-0.8,2.87-1.27a23.52,23.52,0,0,0,5.32-3.55,15.43,15.43,0,0,0,5.23-9.36,11.12,11.12,0,0,0-3.19-9.5,9,9,0,0,0-9.28-1.87,8.42,8.42,0,0,0-3.73,3.09A8.43,8.43,0,0,0,404,75.77a9,9,0,0,0-9.28,1.87,11.12,11.12,0,0,0-3.19,9.5A15.43,15.43,0,0,0,396.77,96.5Zm-1.39-15.73a7,7,0,0,1,6.66-3,6.05,6.05,0,0,1,3.69,2.19,12.92,12.92,0,0,1,1,1.43l0.07,0.12,0,0,0.22,0.35h0c1.11,1.41,2-1.25,2.61-1.95a6.05,6.05,0,0,1,3.69-2.19,7,7,0,0,1,6.66,3,9.28,9.28,0,0,1,.93,7.84,14.65,14.65,0,0,1-5.54,7.22,24.1,24.1,0,0,1-4.26,2.43c-0.8.36-1.61,0.69-2.44,1-0.36.13-.71,0.25-1,0.4-0.33-.15-0.68-0.26-1-0.4-0.82-.31-1.64-0.64-2.44-1A24.1,24.1,0,0,1,400,95.83a14.65,14.65,0,0,1-5.54-7.22A9.28,9.28,0,0,1,395.38,80.77Z" transform="translate(-351.84 -47.15)"/><path class="cls-10" d="M448.49,153.45A5.63,5.63,0,0,0,446.6,155a5.64,5.64,0,0,0-7.85-1.12,5.91,5.91,0,0,0-2.32,6,9,9,0,0,0,3.81,5.49,19.77,19.77,0,0,0,3.4,1.9,6.84,6.84,0,0,0,3,1.06,8.24,8.24,0,0,0,2.92-1.06,19.78,19.78,0,0,0,3.4-1.9,9,9,0,0,0,3.81-5.49,5.91,5.91,0,0,0-2.32-6A5.66,5.66,0,0,0,448.49,153.45Zm5.24,3.17a3.89,3.89,0,0,1,.1,4.17,8.86,8.86,0,0,1-3.86,3.51c-1.23.67-2.84,1.83-4.17,1.23-0.86-.39-1.72-0.78-2.56-1.23a8.86,8.86,0,0,1-3.86-3.51,3.89,3.89,0,0,1,.1-4.17,3.48,3.48,0,0,1,3.58-1.3A4,4,0,0,1,445,156.6c0.55,0.63,1.51,2.46,2.39,1a7.68,7.68,0,0,1,.81-1,4,4,0,0,1,1.94-1.28A3.48,3.48,0,0,1,453.72,156.61Z" transform="translate(-351.84 -47.15)"/><path class="cls-10" d="M423.93,102.75a5.64,5.64,0,0,0-7.85-1.12,5.91,5.91,0,0,0-2.32,6,9,9,0,0,0,3.81,5.49A19.78,19.78,0,0,0,421,115a6.84,6.84,0,0,0,3,1.06A8.24,8.24,0,0,0,426.9,115a19.79,19.79,0,0,0,3.4-1.9,9,9,0,0,0,3.81-5.49,5.91,5.91,0,0,0-2.32-6A5.64,5.64,0,0,0,423.93,102.75Zm0.79,2.58a7.67,7.67,0,0,1,.81-1,4,4,0,0,1,1.94-1.28,3.48,3.48,0,0,1,3.58,1.3,3.89,3.89,0,0,1,.1,4.17,8.86,8.86,0,0,1-3.86,3.51c-1.23.67-2.84,1.83-4.17,1.23-0.86-.39-1.73-0.78-2.56-1.23a8.86,8.86,0,0,1-3.86-3.51,3.89,3.89,0,0,1,.1-4.17,3.48,3.48,0,0,1,3.58-1.3,4,4,0,0,1,1.94,1.28C422.88,104.94,423.84,106.77,424.71,105.33Z" transform="translate(-351.84 -47.15)"/><path class="cls-10" d="M389.75,167.68a53.6,53.6,0,0,0,6.66,4.23q1.84,1,3.69,2c1.37,0.72,3.11,2,4.71,1.32,0.92-.39,1.8-0.85,2.68-1.32q1.85-1,3.69-2a53.6,53.6,0,0,0,6.66-4.23c3.41-2.58,6.54-6,7.58-10.3a10.88,10.88,0,0,0-.27-6.39,10,10,0,0,0-3.34-4.39A11.87,11.87,0,0,0,411,144.8a14.54,14.54,0,0,0-5.28,3.11A13,13,0,0,0,403.8,150a13,13,0,0,0-1.89-2.12,14.54,14.54,0,0,0-5.28-3.11,11.87,11.87,0,0,0-10.85,1.8,10,10,0,0,0-3.34,4.39,10.88,10.88,0,0,0-.27,6.39C383.21,161.64,386.34,165.1,389.75,167.68Zm-3.4-17.9a9.07,9.07,0,0,1,8.28-2.68,11.16,11.16,0,0,1,4.93,2.37,17,17,0,0,1,2,2c0.59,0.67,1.29,2.09,2.37,1.94,0.91-.13,1.48-1.32,2-1.94a17,17,0,0,1,2-2A11.16,11.16,0,0,1,413,147.1a9.07,9.07,0,0,1,8.28,2.68c2.29,2.54,2.19,6,.74,9.11-1.69,3.58-4.88,6.13-8.1,8.28-1.75,1.17-3.59,2.23-5.39,3.33-0.86.52-1.7,1.06-2.55,1.59a5.16,5.16,0,0,1-2.07,1.14,3.56,3.56,0,0,1-1.85-.91c-1-.61-1.94-1.23-2.92-1.83-1.8-1.1-3.64-2.15-5.39-3.33-3.21-2.15-6.41-4.7-8.1-8.28C384.17,155.81,384.07,152.32,386.35,149.78Z" transform="translate(-351.84 -47.15)"/><path class="cls-10" d="M436.28,203.9c0.92-.39,1.8-0.86,2.68-1.32q1.85-1,3.69-2a53.62,53.62,0,0,0,6.66-4.23c3.41-2.58,6.54-6,7.57-10.3a10.88,10.88,0,0,0-.27-6.38,10,10,0,0,0-3.34-4.39,11.87,11.87,0,0,0-10.85-1.8,14.54,14.54,0,0,0-5.28,3.11,13,13,0,0,0-1.89,2.12,13,13,0,0,0-1.89-2.12,14.54,14.54,0,0,0-5.28-3.11,11.87,11.87,0,0,0-10.85,1.8,10,10,0,0,0-3.34,4.39,10.88,10.88,0,0,0-.27,6.38c1,4.26,4.17,7.72,7.57,10.3a53.62,53.62,0,0,0,6.66,4.23q1.84,1,3.69,2C432.94,203.3,434.68,204.57,436.28,203.9ZM433.49,201c-1-.61-1.94-1.23-2.92-1.83-1.8-1.1-3.64-2.15-5.39-3.33-3.21-2.15-6.41-4.7-8.1-8.28-1.44-3.07-1.55-6.57.74-9.11a9.07,9.07,0,0,1,8.28-2.68,11.16,11.16,0,0,1,4.93,2.37,17,17,0,0,1,2,2c0.59,0.67,1.29,2.09,2.37,1.94,0.91-.13,1.48-1.32,2-1.94a17,17,0,0,1,2-2,11.16,11.16,0,0,1,4.93-2.37,9.07,9.07,0,0,1,8.28,2.68c2.29,2.54,2.19,6,.74,9.11-1.69,3.58-4.88,6.13-8.1,8.28-1.75,1.17-3.59,2.23-5.39,3.33-0.86.52-1.7,1.06-2.55,1.59a5.16,5.16,0,0,1-2.07,1.14A3.56,3.56,0,0,1,433.49,201Z" transform="translate(-351.84 -47.15)"/><path class="cls-10" d="M364.36,143.44a11.32,11.32,0,0,0,3.26,4.92,22,22,0,0,0,2.57,2c1,0.71,2.34,2.18,3.71,1.37a26.39,26.39,0,0,0,4.52-3.38,11.32,11.32,0,0,0,3.26-4.92,4.8,4.8,0,0,0-1.65-5.5,5,5,0,0,0-5.25-.19,5.22,5.22,0,0,0-1.77,1.68,5.22,5.22,0,0,0-1.77-1.68,5,5,0,0,0-5.25.19A4.8,4.8,0,0,0,364.36,143.44Zm2.4-3a2.58,2.58,0,0,1,2.88-.87,3.49,3.49,0,0,1,1.54,1.19c0.48,0.61,1,1.22,1.39,1.87a0.51,0.51,0,0,0,.15.18l0,0,0,0,0.1,0h0.22l0.1,0,0,0,0,0a0.51,0.51,0,0,0,.15-0.18c0.43-.65.91-1.26,1.39-1.87a3.49,3.49,0,0,1,1.54-1.19,2.58,2.58,0,0,1,2.88.87c0.81,1.2.08,2.92-.57,4a13,13,0,0,1-3,3.31c-0.85.69-2.1,2-3.28,1.49a9.86,9.86,0,0,1-2-1.48,13,13,0,0,1-3-3.31C366.68,143.34,366,141.62,366.77,140.42Z" transform="translate(-351.84 -47.15)"/><path class="cls-10" d="M405.55,129.56a11.32,11.32,0,0,0,3.26,4.92,22,22,0,0,0,2.57,2c1,0.71,2.34,2.18,3.71,1.37a26.39,26.39,0,0,0,4.52-3.38,11.32,11.32,0,0,0,3.26-4.92,4.8,4.8,0,0,0-1.65-5.5,5,5,0,0,0-5.25-.19,5.22,5.22,0,0,0-1.77,1.68,5.22,5.22,0,0,0-1.77-1.68,5,5,0,0,0-5.25.19A4.8,4.8,0,0,0,405.55,129.56Zm2.4-3a2.58,2.58,0,0,1,2.88-.87,3.49,3.49,0,0,1,1.54,1.19c0.48,0.61,1,1.22,1.39,1.87a0.51,0.51,0,0,0,.15.18l0,0,0,0,0.1,0h0.22l0.1,0,0,0,0,0a0.51,0.51,0,0,0,.15-0.18c0.43-.65.91-1.26,1.39-1.87a3.49,3.49,0,0,1,1.54-1.19,2.58,2.58,0,0,1,2.88.87c0.81,1.2.08,2.92-.57,4a13,13,0,0,1-3,3.31c-0.85.69-2.1,2-3.28,1.49a9.86,9.86,0,0,1-2-1.48,13,13,0,0,1-3-3.31C407.87,129.46,407.14,127.73,408,126.54Z" transform="translate(-351.84 -47.15)"/><path class="cls-10" d="M373.9,182.75a26.39,26.39,0,0,0,4.52-3.38,11.32,11.32,0,0,0,3.26-4.92,4.8,4.8,0,0,0-1.65-5.5,5,5,0,0,0-5.25-.19,5.22,5.22,0,0,0-1.77,1.68,5.22,5.22,0,0,0-1.77-1.68,5,5,0,0,0-5.25.19,4.8,4.8,0,0,0-1.65,5.5,11.32,11.32,0,0,0,3.26,4.92,22,22,0,0,0,2.57,2C371.22,182.09,372.53,183.55,373.9,182.75Zm-1.5-2.51a9.86,9.86,0,0,1-2-1.48,13,13,0,0,1-3-3.31c-0.66-1.09-1.38-2.82-.57-4a2.58,2.58,0,0,1,2.88-.87,3.49,3.49,0,0,1,1.54,1.19c0.48,0.61,1,1.22,1.39,1.87a0.51,0.51,0,0,0,.15.18l0,0,0,0,0.1,0h0.22l0.1,0,0,0,0,0a0.51,0.51,0,0,0,.15-0.18c0.43-.65.91-1.26,1.39-1.87a3.49,3.49,0,0,1,1.54-1.19,2.58,2.58,0,0,1,2.88.87c0.81,1.2.08,2.92-.57,4a13,13,0,0,1-3,3.31C374.83,179.44,373.58,180.77,372.4,180.23Z" transform="translate(-351.84 -47.15)"/><path class="cls-10" d="M449,85.18a5,5,0,0,0-5.25-.19A5.22,5.22,0,0,0,442,86.67,5.22,5.22,0,0,0,440.21,85a5,5,0,0,0-5.25.19,4.8,4.8,0,0,0-1.65,5.5,11.32,11.32,0,0,0,3.26,4.92,22,22,0,0,0,2.57,2c1,0.71,2.34,2.18,3.71,1.37a26.39,26.39,0,0,0,4.52-3.38,11.32,11.32,0,0,0,3.26-4.92A4.8,4.8,0,0,0,449,85.18Zm-1.33,6.5a13,13,0,0,1-3,3.31c-0.85.69-2.1,2-3.28,1.49a9.86,9.86,0,0,1-2-1.48,13,13,0,0,1-3-3.31c-0.66-1.09-1.38-2.82-.57-4a2.58,2.58,0,0,1,2.88-.87A3.49,3.49,0,0,1,440.14,88c0.48,0.61,1,1.22,1.39,1.87a0.51,0.51,0,0,0,.15.18l0,0,0,0,0.1,0h0.22l0.1,0,0,0,0,0a0.51,0.51,0,0,0,.15-0.18c0.43-.65.91-1.26,1.39-1.87a3.49,3.49,0,0,1,1.54-1.19,2.58,2.58,0,0,1,2.88.87C449,88.86,448.31,90.59,447.66,91.68Z" transform="translate(-351.84 -47.15)"/><path class="cls-10" d="M370.84,98.09A11.32,11.32,0,0,0,374.1,103a22,22,0,0,0,2.57,2c1,0.71,2.34,2.18,3.71,1.37A26.39,26.39,0,0,0,384.9,103a11.32,11.32,0,0,0,3.26-4.92,4.8,4.8,0,0,0-1.65-5.5,5,5,0,0,0-5.25-.19,5.22,5.22,0,0,0-1.77,1.68,5.22,5.22,0,0,0-1.77-1.68,5,5,0,0,0-5.25.19A4.8,4.8,0,0,0,370.84,98.09Zm2.4-3a2.58,2.58,0,0,1,2.88-.87,3.49,3.49,0,0,1,1.54,1.19c0.48,0.61,1,1.22,1.39,1.87a0.51,0.51,0,0,0,.15.18l0,0,0,0,0.1,0h0.22l0.1,0,0,0,0,0a0.51,0.51,0,0,0,.15-0.18c0.43-.65.91-1.26,1.39-1.87a3.49,3.49,0,0,1,1.54-1.19,2.58,2.58,0,0,1,2.88.87c0.81,1.2.08,2.92-.57,4a13,13,0,0,1-3,3.31c-0.85.69-2.1,2-3.28,1.48a9.85,9.85,0,0,1-2-1.48,13,13,0,0,1-3-3.31C373.16,98,372.43,96.27,373.24,95.07Z" transform="translate(-351.84 -47.15)"/><path class="cls-10" d="M418.91,201.34a5,5,0,0,0-5.25-.19,5.22,5.22,0,0,0-1.77,1.68,5.22,5.22,0,0,0-1.77-1.68,5,5,0,0,0-5.25.19,4.8,4.8,0,0,0-1.65,5.5,11.33,11.33,0,0,0,3.26,4.92,22,22,0,0,0,2.57,2c1,0.71,2.34,2.18,3.71,1.37a26.4,26.4,0,0,0,4.52-3.38,11.33,11.33,0,0,0,3.26-4.92A4.8,4.8,0,0,0,418.91,201.34Zm-1.33,6.5a13,13,0,0,1-3,3.31c-0.85.69-2.1,2-3.28,1.48a9.85,9.85,0,0,1-2-1.48,13,13,0,0,1-3-3.31c-0.66-1.09-1.38-2.82-.57-4a2.58,2.58,0,0,1,2.88-.87,3.49,3.49,0,0,1,1.54,1.19c0.48,0.61,1,1.22,1.39,1.87a0.51,0.51,0,0,0,.15.18l0,0,0,0,0.1,0H412l0.1,0,0,0,0,0a0.51,0.51,0,0,0,.15-0.18c0.43-.65.91-1.26,1.39-1.87a3.49,3.49,0,0,1,1.54-1.19,2.58,2.58,0,0,1,2.88.87C419,205,418.23,206.74,417.58,207.84Z" transform="translate(-351.84 -47.15)"/><path class="cls-10" d="M360.15,133.47c1-5.37,1.9-10.76,2.76-16.16,0.82-5.17,1.64-10.35,2.81-15.45,2.08-9,5.55-18,12.54-24.43a27.76,27.76,0,0,1,5.61-4c1-.54,2-1,3.08-1.45a22.85,22.85,0,0,1,3.43-1.28c0.65-.16.35-1.06-0.27-1a28.61,28.61,0,0,0-3.27.54,16.57,16.57,0,0,0-3,1.12,28.06,28.06,0,0,0-5.44,3.49,35.59,35.59,0,0,0-8.39,9.94c-5.2,9-7,19.59-8.57,29.73a173.22,173.22,0,0,0-2,18.82A0.33,0.33,0,0,0,360.15,133.47Z" transform="translate(-351.84 -47.15)"/><path class="cls-10" d="M394.06,69.38a6.09,6.09,0,0,0,2.58-.21c0.8-.12,1.61-0.23,2.41-0.31s1.64-.2,2.46-0.26c0.45,0,.88-0.13,1.33-0.15a8.88,8.88,0,0,0,1.26-.11,0.47,0.47,0,0,0,0-.91,6.18,6.18,0,0,0-1.26-.19c-0.45,0-.87-0.13-1.33-0.14a19.09,19.09,0,0,0-2.65.06,25,25,0,0,0-2.66.42,4.62,4.62,0,0,0-2.38.91A0.54,0.54,0,0,0,394.06,69.38Z" transform="translate(-351.84 -47.15)"/><path class="cls-10" d="M358.65,145.87a0.49,0.49,0,0,0,.94,0,4.73,4.73,0,0,0,.17-1c0-.31.13-0.61,0.17-0.92,0.08-.69.16-1.38,0.2-2.06s0-1.32.09-2a5.71,5.71,0,0,0-.14-2,0.27,0.27,0,0,0-.49-0.06,5.23,5.23,0,0,0-.64,1.94c-0.11.67-.24,1.33-0.32,2a17.76,17.76,0,0,0-.12,2c0,0.35,0,.71.06,1.07A4.18,4.18,0,0,0,358.65,145.87Z" transform="translate(-351.84 -47.15)"/><path class="cls-10" d="M382.82,213.39a36.36,36.36,0,0,1-8.84-4.9,32.65,32.65,0,0,1-7-7.06c-4.52-6.19-6.79-13.56-7.73-21.1-0.28-2.25-.5-4.51-0.59-6.78s0-4.68-.25-7a0.29,0.29,0,0,0-.56-0.08,28.4,28.4,0,0,0-.75,6.24c-0.07,2.12-.1,4.25,0,6.37a49.64,49.64,0,0,0,2.44,12.48,38.19,38.19,0,0,0,12.21,17.91,22.91,22.91,0,0,0,5,3.17,26.67,26.67,0,0,0,5.71,1.79A0.54,0.54,0,0,0,382.82,213.39Z" transform="translate(-351.84 -47.15)"/><path class="cls-10" d="M393.08,215.87c-0.47-.18-1-0.15-1.48-0.3a16.16,16.16,0,0,0-1.68-.4c-0.53-.12-1-0.29-1.56-0.44-0.25-.07-0.52-0.12-0.75-0.18a1.36,1.36,0,0,0-.82-0.05,0.46,0.46,0,0,0-.52.3,0.58,0.58,0,0,0,.12.49,1.19,1.19,0,0,0,.52.62,5.94,5.94,0,0,0,.75.48,8.36,8.36,0,0,0,1.81.62,7.93,7.93,0,0,0,1,.14l0.44,0a2.56,2.56,0,0,0,.56,0,5,5,0,0,0,1.71-.34A0.52,0.52,0,0,0,393.08,215.87Z" transform="translate(-351.84 -47.15)"/><path class="cls-10" d="M461.51,192c-0.28.53-.45,1.11-0.69,1.65s-0.6,1.07-.9,1.61c-0.59,1.08-1.09,2.21-1.68,3.29a30.67,30.67,0,0,1-4.25,5.95,31.07,31.07,0,0,1-12.37,8.18,40,40,0,0,1-4.1,1.22c-0.69.17-1.38,0.33-2.08,0.47s-1.44.5-2.19,0.71a0.28,0.28,0,0,0,0,.54,17.23,17.23,0,0,0,1.82.31,11.87,11.87,0,0,0,2.11-.16,24.94,24.94,0,0,0,4-.85,31.27,31.27,0,0,0,7.49-3.36,32.46,32.46,0,0,0,10.84-11.16,22.38,22.38,0,0,0,1.87-3.9,61,61,0,0,0,.9-4.28A0.44,0.44,0,0,0,461.51,192Z" transform="translate(-351.84 -47.15)"/><path class="cls-10" d="M463.73,173.52c-0.73.42-.63,1.82-0.69,2.53-0.09,1.08-.14,2.17-0.22,3.25s-0.17,2.09-.28,3.12a14.72,14.72,0,0,0-.1,1.55,6.93,6.93,0,0,0,.11,1.59,0.59,0.59,0,0,0,1.07.14,5.83,5.83,0,0,0,.63-1.6,13.27,13.27,0,0,0,.34-1.8c0.14-1.11.23-2.23,0.28-3.35a25.86,25.86,0,0,0-.07-3.36C464.77,175.22,464.58,173,463.73,173.52Z" transform="translate(-351.84 -47.15)"/><path class="cls-10" d="M428.32,69c1.56,0.49,3.17.77,4.75,1.19a29.49,29.49,0,0,1,4.69,1.67A30.38,30.38,0,0,1,446,77.51a41,41,0,0,1,10.73,18.38c1.2,4.06,1.89,8.26,2.93,12.36a0.42,0.42,0,0,0,.83-0.11,40,40,0,0,0-1.62-11.59,51,51,0,0,0-4.29-10.88,35.09,35.09,0,0,0-15-14.89,26.93,26.93,0,0,0-5.5-2,12.13,12.13,0,0,0-5.7-.25A0.27,0.27,0,0,0,428.32,69Z" transform="translate(-351.84 -47.15)"/><path class="cls-10" d="M460.25,111.05a21.14,21.14,0,0,0,0,5c0.06,0.85.2,1.68,0.33,2.53,0.06,0.41.2,0.79,0.27,1.2a9.78,9.78,0,0,0,.29,1.29,0.42,0.42,0,0,0,.81,0,9,9,0,0,0,.14-1.27c0-.45.09-0.9,0.11-1.35a15.37,15.37,0,0,0-.14-2.55,15.75,15.75,0,0,0-1.23-4.9A0.33,0.33,0,0,0,460.25,111.05Z" transform="translate(-351.84 -47.15)"/><path class="cls-10" d="M462.18,142.85c0,1.06.06,2.12,0.1,3.18,0.07,2.09.16,4.17,0.23,6.26s0.12,4.18.12,6.27q0,1.6.08,3.19c0,1.06.05,2.13,0.16,3.19,0,0.45.75,0.64,0.86,0.12,0.21-1,.31-2.05.43-3.08s0.21-2.12.25-3.19c0.08-2.13.09-4.25,0.06-6.38s-0.14-4.26-.35-6.38c-0.1-1.06-.24-2.11-0.39-3.16-0.07-.49-0.14-1-0.24-1.45a3.84,3.84,0,0,0-.47-1.49,0.38,0.38,0,0,0-.65,0,3.25,3.25,0,0,0-.19,1.32C462.16,141.79,462.16,142.31,462.18,142.85Z" transform="translate(-351.84 -47.15)"/><path class="cls-10" d="M459.38,153.93a0.45,0.45,0,0,0,.77,0,5.75,5.75,0,0,0,.46-2.48c0-.84,0-1.7,0-2.54s-0.1-1.69-.14-2.54A6.48,6.48,0,0,0,460,144a0.3,0.3,0,0,0-.52,0,6.48,6.48,0,0,0-.42,2.41c0,0.85-.12,1.69-0.14,2.54s0,1.7,0,2.54A5.75,5.75,0,0,0,459.38,153.93Z" transform="translate(-351.84 -47.15)"/><path class="cls-10" d="M457.51,151.41a1,1,0,0,0,.39-0.65,3.65,3.65,0,0,0,.15-0.53,6.34,6.34,0,0,0,.06-1.29,7.11,7.11,0,0,0-.16-1.26c0-.18-0.08-0.36-0.13-0.53a1.48,1.48,0,0,0-.29-0.61,0.39,0.39,0,0,0-.65.17,4,4,0,0,0,0,1.12c0,0.37,0,.74,0,1.11s-0.06.74-.07,1.11c0,0.19,0,.4,0,0.55a1,1,0,0,0,.11.63A0.49,0.49,0,0,0,457.51,151.41Z" transform="translate(-351.84 -47.15)"/><path class="cls-10" d="M454.77,150.55l0,0.09a1.49,1.49,0,0,0,.09.25,1.72,1.72,0,0,0,.25.35,0.34,0.34,0,0,0,.56-0.15,1.71,1.71,0,0,0,.09-0.29,3.41,3.41,0,0,0,0-.37,1.74,1.74,0,0,0,0-.2s0-.09,0-0.14,0-.22,0-0.34,0-.43,0-0.64a2.69,2.69,0,0,0-.07-0.62c0-.07,0-0.15,0-0.22a1.11,1.11,0,0,0-.1-0.33,0.33,0.33,0,0,0-.57,0,0.94,0.94,0,0,0-.16.39c0,0.1-.07.24-0.09,0.37a4.65,4.65,0,0,0-.06.89c0,0.13,0,.26,0,0.39a1.58,1.58,0,0,0,.07.52Z" transform="translate(-351.84 -47.15)"/><path class="cls-10" d="M453.13,149.84c0,0.07,0,.13,0,0.2a1.62,1.62,0,0,0,0,.25,2,2,0,0,0,.06.25,0.43,0.43,0,0,0,.35.3,0.43,0.43,0,0,0,.42-0.2,1.27,1.27,0,0,0,.12-0.22,0.94,0.94,0,0,0,.06-0.38,1.36,1.36,0,0,0-.05-0.31,1,1,0,0,0-.1-0.24v0h0v0a0.87,0.87,0,0,0-.22-0.35l-0.11-.14a0.31,0.31,0,0,0-.38,0,0.33,0.33,0,0,0-.14.35v0.08c0,0.11,0,.22,0,0.33a0.59,0.59,0,0,0,0,.08S453.14,149.81,453.13,149.84Z" transform="translate(-351.84 -47.15)"/><path class="cls-10" d="M366.57,108a7.79,7.79,0,0,0-1,2.94c-0.28,1.14-.44,2.31-0.64,3.46a24.53,24.53,0,0,0-.59,6.88c0,0.35.58,0.62,0.76,0.21a24,24,0,0,0,1.55-6.61c0.16-1.13.31-2.26,0.44-3.39,0.06-.56.09-1.13,0.13-1.69a4.09,4.09,0,0,0-.12-1.66A0.32,0.32,0,0,0,366.57,108Z" transform="translate(-351.84 -47.15)"/><path class="cls-10" d="M368.2,112.38a1.44,1.44,0,0,0-.2.38c-0.1.27-.2,0.52-0.29,0.79a11.43,11.43,0,0,0-.35,1.53c-0.1.56-.2,1.12-0.27,1.69a4.93,4.93,0,0,0-.07.78,2.55,2.55,0,0,0,.06.55,1.36,1.36,0,0,0,.24.41,0.59,0.59,0,0,0,.92.12,1.47,1.47,0,0,0,.33-0.34,2.26,2.26,0,0,0,.17-0.46,5.1,5.1,0,0,0,.15-0.83c0.08-.56.13-1.13,0.2-1.7s0.12-1,.14-1.56c0-.26,0-0.52,0-0.78a1,1,0,0,0-.2-0.68,0.35,0.35,0,0,0-.58-0.13l-0.05,0A0.52,0.52,0,0,0,368.2,112.38Z" transform="translate(-351.84 -47.15)"/><path class="cls-10" d="M370.21,113.83h0a0.7,0.7,0,0,0-.38.44c0,0.06,0,.13-0.06.2l-0.1.24a5.44,5.44,0,0,0-.22,1.09l-0.11.94a1.83,1.83,0,0,0,.09,1.11,0.7,0.7,0,0,0,1.38.08,1.05,1.05,0,0,0,.2-0.52c0-.13,0-0.26,0-0.39s0-.55,0-0.82,0-.52,0-0.78c0-.07,0-0.13,0-0.2s0-.29,0-0.28v0l0-.19a0.77,0.77,0,0,0,0-.13,0.87,0.87,0,0,0-.35-0.72A0.3,0.3,0,0,0,370.21,113.83Z" transform="translate(-351.84 -47.15)"/><path class="cls-10" d="M372.88,117.93a1,1,0,0,0,.1-0.28,1.12,1.12,0,0,0,0-.16h0a0.51,0.51,0,0,0,.06-0.21,6.77,6.77,0,0,0,0-.77,3.35,3.35,0,0,0,0-.34,0.3,0.3,0,1,1,0-.14s0,0,0,0,0-.11,0-0.17a1.16,1.16,0,0,0,0-.26c0-.06,0-0.07,0,0v-0.06a1.88,1.88,0,0,0-.08-0.36l0-.24a0.32,0.32,0,0,0-.31-0.24,0.34,0.34,0,0,0-.31.24l-0.06.17a1,1,0,0,0-.13.28l0,0.08s0,0,0,0a1.49,1.49,0,0,0-.08.24c-0.05.23-.12,0.46-0.16,0.69a6.82,6.82,0,0,0-.14.8,1.29,1.29,0,0,0,0,.18c0,0.05,0,.11,0,0.16a1.42,1.42,0,0,0,0,.3,0.39,0.39,0,0,0,.07.17q0.13,0.2.09,0.11a0.48,0.48,0,0,0,.75.1l0.11-.08Z" transform="translate(-351.84 -47.15)"/><path class="cls-10" d="M374.69,116.15a0.89,0.89,0,0,0-.05-0.29v-0.08a0.31,0.31,0,0,0-.3-0.23,0.33,0.33,0,0,0-.3.23h0a0.78,0.78,0,0,0-.11.23l0,0.11-0.06.13a2.6,2.6,0,0,0-.12.48,2.48,2.48,0,0,0-.05.6l0,0.25a0.51,0.51,0,0,0,.13.34,0.43,0.43,0,0,0,.52.07,0.5,0.5,0,0,0,.21-0.29l0.08-.23a2.46,2.46,0,0,0,.09-0.59,2.91,2.91,0,0,0,0-.5q0-.08,0-0.15a0.1,0.1,0,1,1,0,0S374.69,116.18,374.69,116.15Z" transform="translate(-351.84 -47.15)"/><path class="cls-10" d="M386,74.7a15.49,15.49,0,0,0-1.95.47,10,10,0,0,0-1.87.9A16.84,16.84,0,0,0,379,78.52a21.63,21.63,0,0,0-2.62,3,11.38,11.38,0,0,0-1,1.73,7.76,7.76,0,0,0-.35.86,9.62,9.62,0,0,0-.18,1.06c-0.06.26,0.29,0.53,0.5,0.29s0.48-.43.69-0.67,0.38-.48.56-0.73q0.55-.74,1.11-1.47a19.85,19.85,0,0,1,2.57-2.74,29,29,0,0,1,2.91-2.17c0.51-.35,1.05-0.65,1.56-1s1.11-.76,1.67-1.11A0.49,0.49,0,0,0,386,74.7Z" transform="translate(-351.84 -47.15)"/><path class="cls-10" d="M378.85,82.82l-0.13.23a0.82,0.82,0,0,0,.25,1.18,1.13,1.13,0,0,0,1-.41l0.11-.11,0.13-.07a4.46,4.46,0,0,0,.47-0.4c0.47-.41.91-0.85,1.39-1.26l0.33-.28,0.16-.12,0.22-.17c0.23-.19.48-0.37,0.7-0.58l0.68-.63c0.11-.11.19-0.23,0.27-0.32a1.57,1.57,0,0,0,.34-0.41,0.46,0.46,0,0,0-.27-0.67,1.42,1.42,0,0,0-.59,0c-0.14,0-.33,0-0.51.08a8.26,8.26,0,0,0-1,.38,7.2,7.2,0,0,0-1.8,1.28,8.27,8.27,0,0,0-1.43,1.61,3.32,3.32,0,0,0-.28.54C379,82.59,378.87,82.8,378.85,82.82Z" transform="translate(-351.84 -47.15)"/><path class="cls-10" d="M382.89,84.77l0.1-.09a4.11,4.11,0,0,0,.51-0.41l0.43-.36-0.17.13c0.16-.12.29-0.25,0.44-0.38l0.14-.12a0.86,0.86,0,0,0,.18-0.24l0,0a1.56,1.56,0,0,0,.18-0.23,0.58,0.58,0,0,0-.5-0.87,1.47,1.47,0,0,0-.36.05,1,1,0,0,0-.45.11l-0.23.12a2.91,2.91,0,0,0-.54.38,2.83,2.83,0,0,0-.34.35l-0.26.34a0.93,0.93,0,0,0-.09.17l-0.12.2-0.06.12a0.64,0.64,0,0,0-.11.36l0,0.08a1,1,0,0,0,0,.36,0.52,0.52,0,0,0,0,.28,0.25,0.25,0,0,0,.12.22,0.27,0.27,0,0,0,.3,0l0.13,0,0.06,0a0.33,0.33,0,0,0,.14-0.07l0.05,0,0.11-.08,0,0,0.1,0A1.23,1.23,0,0,0,382.89,84.77Z" transform="translate(-351.84 -47.15)"/><path class="cls-10" d="M383.79,86.72a0.83,0.83,0,0,0,.55-0.14l0.16-.1,0.16-.1,0.09-.06a0.83,0.83,0,0,0,.27-0.26l0.09-.1,0.13-.15a0.73,0.73,0,0,0,.13-0.27l0.14-.19a1.07,1.07,0,0,0,.11-0.21,0.58,0.58,0,0,0-.11-0.63,0.6,0.6,0,0,0-.56-0.15,1.21,1.21,0,0,0-.29.13l-0.15.08h-0.08l-0.18.08-0.1.07-0.19.13a0.65,0.65,0,0,0-.22.16l-0.07.09-0.12.16-0.12.16a1.07,1.07,0,0,0-.22.37,0.77,0.77,0,0,0,0,.21h0A0.56,0.56,0,0,0,383.79,86.72Z" transform="translate(-351.84 -47.15)"/><path class="cls-10" d="M365.1,191.75c-0.2-.45-0.42-0.89-0.63-1.34a1.81,1.81,0,0,0-.94-1.06,0.43,0.43,0,0,0-.48.19,1.76,1.76,0,0,0-.07,1.4,14.08,14.08,0,0,0,.43,1.52,27.24,27.24,0,0,0,1.32,3.06c0.92,1.86,2,3.89,3.77,5.08a0.43,0.43,0,0,0,.63-0.48c-0.55-2-1.81-3.74-2.73-5.57C365.93,193.62,365.52,192.68,365.1,191.75Z" transform="translate(-351.84 -47.15)"/><path class="cls-10" d="M370.05,196a9.28,9.28,0,0,0-.72-1.46c-0.24-.45-0.49-0.89-0.73-1.34s-0.54-1-.81-1.56c-0.13-.24-0.26-0.48-0.4-0.71a1.82,1.82,0,0,0-.66-0.7,0.49,0.49,0,0,0-.7.29,2.45,2.45,0,0,0,.22,1.52c0.18,0.53.42,1,.64,1.55a16.53,16.53,0,0,0,1.41,2.72,1.67,1.67,0,0,0,1.28,1C370.16,197.2,370.18,196.37,370.05,196Z" transform="translate(-351.84 -47.15)"/><path class="cls-10" d="M371.58,194.06l-0.06-.17a0.7,0.7,0,0,0-.08-0.28l-0.13-.21-0.22-.37c-0.16-.28-0.32-0.55-0.47-0.84s-0.27-.56-0.39-0.84l0-.07v0a1.85,1.85,0,0,0-.16-0.31,1.53,1.53,0,0,0-.19-0.26,0.6,0.6,0,0,0-.14-0.12s0,0,0,0a0.41,0.41,0,0,0-.68.18l0,0a1,1,0,0,0-.06.16,1.18,1.18,0,0,0,0,.33,2.56,2.56,0,0,0,.11.62,7.79,7.79,0,0,0,.4,1.07,6.38,6.38,0,0,0,.47.88c0.11,0.16.22,0.32,0.34,0.48a0.87,0.87,0,0,0,.36.31l0.05,0s0,0,0,0a0.66,0.66,0,0,0,.12.08,0.46,0.46,0,0,0,.25.08,0.62,0.62,0,0,0,.24,0,0.39,0.39,0,0,0,.37-0.28,0.7,0.7,0,0,0,0-.24A0.49,0.49,0,0,0,371.58,194.06Z" transform="translate(-351.84 -47.15)"/><path class="cls-10" d="M371.94,193a0.66,0.66,0,0,0,.18.16,0.39,0.39,0,0,0,.57-0.23,0.67,0.67,0,0,0,0-.24v-0.09c0-.05,0-0.06,0,0a0.74,0.74,0,1,1,0-.12q0-.1,0-0.19c0-.06,0-0.13-0.05-0.19l0-.14,0-.1a0.65,0.65,0,0,0-.09-0.3l0,0-0.08-.18a5.94,5.94,0,0,0-.32-0.62,2.89,2.89,0,0,0-.24-0.36l-0.06-.07s0,0,0,0-0.08-.11-0.12-0.16a0.42,0.42,0,0,0-.76.32c0,0.06,0,.12,0,0.18s0,0.09,0,.11a2.49,2.49,0,0,0,.09.46,5.93,5.93,0,0,0,.22.66,1.83,1.83,0,0,0,.26.52h0l0,0.07,0.08,0.13,0.1,0.17a1.24,1.24,0,0,0,.22.23C371.8,192.83,371.92,193,371.94,193Z" transform="translate(-351.84 -47.15)"/><path class="cls-10" d="M454.49,100.65c0.14,0.82.25,1.65,0.4,2.46,0.08,0.41.19,0.8,0.28,1.2a7.33,7.33,0,0,0,.43,1.15,0.43,0.43,0,0,0,.82,0c0.06-.21.18-0.42,0.23-0.64a4.76,4.76,0,0,0,.06-0.72,10.37,10.37,0,0,0,0-1.24,16.31,16.31,0,0,0-.38-2.64,19.92,19.92,0,0,0-.69-2.49,4.09,4.09,0,0,0-1.21-2.17,0.39,0.39,0,0,0-.57.23,4.84,4.84,0,0,0,.17,2.38C454.2,99,454.35,99.83,454.49,100.65Z" transform="translate(-351.84 -47.15)"/><path class="cls-10" d="M452,100.39a10.16,10.16,0,0,0,.12,1.05c0.05,0.39.12,0.78,0.2,1.17a1.57,1.57,0,0,0,.12.36l0.06,0.12a1.13,1.13,0,0,0,.39.6v0a0.62,0.62,0,0,0,1-.27h0a1,1,0,0,0,.12-0.54,1.12,1.12,0,0,0,0-.14,1.22,1.22,0,0,0,0-.25q0-.16,0-0.31c-0.06-.34-0.12-0.68-0.21-1l-0.06-.23a1,1,0,0,0-.1-0.28q0.05,0.1,0,0a1.2,1.2,0,0,0-.07-0.27c0-.08,0-0.16-0.06-0.23-0.09-.27-0.13-0.29-0.22-0.51a5.41,5.41,0,0,0-.28-0.55,0.52,0.52,0,0,0-.59-0.24,0.54,0.54,0,0,0-.38.5v0.14a0.93,0.93,0,0,0-.05.41c0,0.08,0,.16,0,0.23C452,100,452,100.33,452,100.39Z" transform="translate(-351.84 -47.15)"/><path class="cls-10" d="M452.42,103v0Z" transform="translate(-351.84 -47.15)"/><path class="cls-10" d="M450.47,101.2l0,0.21a1,1,0,0,0,0,.21v0.21a2.91,2.91,0,0,0,0,.42,1.21,1.21,0,0,0,0,.22l0,0.1c0,0.07,0,.14.06,0.2a1.13,1.13,0,0,0,.23.52,0.42,0.42,0,0,0,.65-0.08,1.16,1.16,0,0,0,.09-0.56,2.86,2.86,0,0,0,0-.42,3.73,3.73,0,0,0-.09-0.53l-0.05-.19,0-.1a0.61,0.61,0,0,0-.06-0.12l-0.07-.19A0.41,0.41,0,0,0,450.47,101.2Z" transform="translate(-351.84 -47.15)"/><path class="cls-10" d="M444.87,209.5a3.55,3.55,0,0,0,2.51-.8,20.41,20.41,0,0,0,2.34-1.78,17.77,17.77,0,0,0,1.92-2c0.32-.37.56-0.77,0.84-1.16a8.86,8.86,0,0,0,.77-1.19c0.19-.38-0.24-1-0.65-0.65s-0.7.58-1.05,0.87-0.74.55-1.09,0.86c-0.67.59-1.38,1.14-2.06,1.73s-1.38,1.14-2.07,1.7a4.15,4.15,0,0,0-1.69,2A0.34,0.34,0,0,0,444.87,209.5Z" transform="translate(-351.84 -47.15)"/><path class="cls-10" d="M446.8,205.57l0.21-.09,0.18-.11c0.14-.08.27-0.17,0.4-0.27a5.66,5.66,0,0,0,.78-0.7,2.84,2.84,0,0,0,.6-0.79,2,2,0,0,0,.38-0.72,0.5,0.5,0,0,0-.12-0.46,0.47,0.47,0,0,0-.46-0.12,1.36,1.36,0,0,0-.46.28l-0.14.12-0.07.05-0.11,0a2.42,2.42,0,0,0-.28.23l-0.33.28-0.17.14h0l0,0h0l0,0,0,0c-0.16.12-.3,0.26-0.45,0.39l-0.31.29-0.16.14-0.09.09-0.11.14,0-.05a0.63,0.63,0,0,1-.14.15,1,1,0,0,0-.13.16l-0.06.14,0-.06a0.86,0.86,0,0,0-.18.37v0a0.29,0.29,0,0,0,.25.44h0a0.92,0.92,0,0,0,.43,0h0a0.78,0.78,0,0,0,.21,0l0.29-.12C446.71,205.6,446.73,205.6,446.8,205.57Z" transform="translate(-351.84 -47.15)"/><path class="cls-10" d="M446.72,202a0.78,0.78,0,0,0-.44.18,0.6,0.6,0,0,0-.2.07l-0.11.06a1,1,0,0,0-.32.23l-0.06.06-0.11.14a0.4,0.4,0,0,0,0,.07l-0.07.12h0l-0.06.08a0.4,0.4,0,0,0-.07.14,0.3,0.3,0,0,0,0,.28,0.28,0.28,0,0,0,.19.16,0.44,0.44,0,0,0,.23.08h0.32a1,1,0,0,0,.5-0.12l0.08,0a0.87,0.87,0,0,0,.15-0.12,0.65,0.65,0,0,0,.11-0.14l0-.05,0.1-.12a0.46,0.46,0,0,0,.07-0.18,0.76,0.76,0,0,0,.14-0.6A0.43,0.43,0,0,0,446.72,202Z" transform="translate(-351.84 -47.15)"/><path class="cls-10" d="M420.31,68.61a4.11,4.11,0,0,0,1.21.17c0.41,0,.83.06,1.26,0.06,0.21,0,.38,0,0.61,0s0.41,0,.6,0a4.82,4.82,0,0,1,.6,0,5.9,5.9,0,0,0,.64,0,0.4,0.4,0,0,0,.2-0.74,3.45,3.45,0,0,0-.62-0.24l-0.62-.2a4.55,4.55,0,0,0-.72-0.14c-0.23,0-.45-0.08-0.65-0.09a6.63,6.63,0,0,0-1.39.14,2.82,2.82,0,0,0-1.21.46A0.37,0.37,0,0,0,420.31,68.61Z" transform="translate(-351.84 -47.15)"/></g></g></svg>